<?xml version="1.0" encoding="UTF-8"?>
<svg width="642px" height="437px" viewBox="0 0 642 437" version="1.1" xmlns="http://www.w3.org/2000/svg" xmlns:xlink="http://www.w3.org/1999/xlink">
    <!-- Generator: Sketch 50.2 (55047) - http://www.bohemiancoding.com/sketch -->
    <title>Group 2</title>
    <desc>Created with Sketch.</desc>
    <defs>
        <path d="M145.573844,427.79188 C143.062742,429.356584 137.687764,427.935567 133.744739,425.099289 L91.9486741,395.378304 L0.56207443,238.194488 C-0.0187308592,237.056909 -0.600090237,235.920163 1.30207361,234.711177 L16.5193844,224.99017 C18.6328998,223.633123 23.8015325,224.346503 28.2929272,227.014514 L195.924016,331.090634 L213.664043,319.345399 C216.134174,317.700257 221.221481,318.606001 225.335042,321.240604 L259.477598,343.321022 C263.591159,346.007002 265.467354,349.654762 262.95659,351.337897 L244.924743,363.353065 L295.382527,397.09495 C299.466228,399.887322 301.047959,403.802322 298.721735,405.352649 L273.831142,421.806746 C271.504918,423.33195 265.776156,422.148437 261.73709,419.315535 L212.460473,385.201553 L145.573844,427.79188 Z M127.583975,373.612763 L163.273904,350.795716 L88.1243568,301.679197 L127.583975,373.612763 Z" id="path-1"></path>
        <filter x="-2.0%" y="-2.0%" width="103.3%" height="107.8%" filterUnits="objectBoundingBox" id="filter-2">
            <feOffset dx="-2" dy="8" in="SourceAlpha" result="shadowOffsetOuter1"></feOffset>
            <feComposite in="shadowOffsetOuter1" in2="SourceAlpha" operator="out" result="shadowOffsetOuter1"></feComposite>
            <feColorMatrix values="0 0 0 0 1   0 0 0 0 1   0 0 0 0 1  0 0 0 1 0" type="matrix" in="shadowOffsetOuter1"></feColorMatrix>
        </filter>
        <path d="M492.882927,193.935149 C490.487585,195.426508 485.360389,194.0721 481.599135,191.368773 L441.729839,163.040959 L354.556097,13.2251343 C354.002066,12.14088 353.447507,11.0574185 355.261982,9.9051043 L369.777786,0.639769111 C371.79387,-0.653666292 376.724232,0.0262737699 381.008577,2.56922173 L540.911991,101.766773 L557.834216,90.5720965 C560.190475,89.0040711 565.043261,89.8673583 568.96719,92.3784635 L601.535798,113.423862 C605.459727,115.983937 607.249431,119.460709 604.854412,121.064946 L587.65382,132.516904 L635.785535,164.677138 C639.680981,167.338617 641.189795,171.070101 638.970808,172.547757 L615.227654,188.230568 C613.008667,189.684279 607.543998,188.556242 603.691129,185.856133 L556.68613,153.341243 L492.882927,193.935149 Z M475.407781,141.395349 L509.23588,119.813368 L438.006645,73.3554817 L475.407781,141.395349 Z" id="path-3"></path>
        <filter x="-2.1%" y="-2.1%" width="103.5%" height="108.2%" filterUnits="objectBoundingBox" id="filter-4">
            <feOffset dx="-2" dy="8" in="SourceAlpha" result="shadowOffsetOuter1"></feOffset>
            <feComposite in="shadowOffsetOuter1" in2="SourceAlpha" operator="out" result="shadowOffsetOuter1"></feComposite>
            <feColorMatrix values="0 0 0 0 1   0 0 0 0 1   0 0 0 0 1  0 0 0 1 0" type="matrix" in="shadowOffsetOuter1"></feColorMatrix>
        </filter>
    </defs>
    <g id="Page-1" stroke="none" stroke-width="1" fill="none" fill-rule="evenodd">
        <g id="404" transform="translate(-398.000000, -66.000000)">
            <g id="Group-2" transform="translate(400.000000, 66.000000)">
                <path d="M144.597726,143.521595 C145.93356,149.388857 150.116058,167.618583 157.260955,181.334387 C164.466508,195.165755 171.03273,202.44762 180.44701,211.927969 C198.132862,229.737908 218.508507,244.060071 241.410106,255.219565 C254.814457,261.750966 268.761229,266.594173 282.832103,271.154737 C298.764498,275.781437 316.365291,278.038397 330.852393,278.383694 C341.121439,278.628744 354.988033,278.49508 366.67588,276.586897 C379.699561,274.460815 392.336993,270.290799 404.263282,263.98565 C411.617339,260.096883 417.743628,254.961984 423.541536,249.640514 C430.873282,242.910706 437.785315,234.614531 441.196013,224.976849 C441.081673,229.02086 439.919442,237.93314 436.010943,247.453866 C430.741512,259.577545 426.507421,264.531442 419.419694,271.589143 C409.221065,281.744073 397.600149,289.951836 384.507446,296.164395 C369.42912,303.318862 353.399814,307.983851 336.992626,310.675914 C317.23679,313.455693 298.53512,312.858385 279.298,310.81445 C260.05112,308.769123 241.124951,304.479366 223.135818,297.36458 C207.773732,291.289165 193.243404,283.353602 180.373805,273.124878 C169.33017,264.347655 159.915889,253.766672 153.392197,241.376362 C148.329834,231.761654 144.962362,221.38604 144.755293,210.275278 C144.517549,197.546632 144.597726,161.461717 144.597726,143.521595" id="Fill-7" fill="#FFFFFF"></path>
                <path d="M396.106144,200.930233 C391.275189,183.877705 380.721292,171.016088 365.496148,161.233592 C349.968327,151.255961 332.97246,144.590086 314.376038,142.110956 C302.94759,140.588062 291.341303,139.41794 279.831258,139.489467 C264.45896,139.585299 249.357955,142.497061 235.108486,147.956009 C222.716915,152.703856 211.558365,159.464174 202.376273,168.76126 C201.535197,169.612636 200.834998,170.585539 199.747737,171.886214 C194.681755,164.729374 191.233763,157.126708 190.010507,148.959467 C189.094808,142.846362 189.006237,137.41658 189.663894,130.325018 C190.560763,120.656409 195.057658,112.66486 201.884599,105.776767 C214.797134,92.7470964 231.569133,87.4659238 249.981439,85.6610892 C270.7747,83.6229246 290.737347,86.8298221 310.486586,93.0769527 C330.481314,99.4025544 348.342666,109.060746 364.094355,121.927919 C381.069997,135.795076 394.048088,152.389278 398.621002,173.550773 C400.411949,181.838846 400.073706,190.249139 397.375429,198.429575 C397.101347,199.261507 396.576198,200.020524 396.106144,200.930233" id="Fill-8" fill="#FFFFFF"></path>
                <g id="4">
                    <use fill="black" fill-opacity="1" filter="url(#filter-2)" xlink:href="#path-1"></use>
                    <use fill-opacity="0.0399999991" fill="#FFFFFF" fill-rule="evenodd" xlink:href="#path-1"></use>
                </g>
                <g id="4">
                    <use fill="black" fill-opacity="1" filter="url(#filter-4)" xlink:href="#path-3"></use>
                    <use fill-opacity="0.0399999991" fill="#FFFFFF" fill-rule="evenodd" xlink:href="#path-3"></use>
                </g>
            </g>
        </g>
    </g>
</svg>