<?xml version="1.0" encoding="UTF-8"?>
<svg width="96px" height="96px" viewBox="0 0 96 96" version="1.1" xmlns="http://www.w3.org/2000/svg" xmlns:xlink="http://www.w3.org/1999/xlink">
    <!-- Generator: Sketch 48.2 (47327) - http://www.bohemiancoding.com/sketch -->
    <title>IOPEventsLogo</title>
    <desc>Created with Sketch.</desc>
    <defs>
        <linearGradient x1="50%" y1="-1.11022302e-14%" x2="50%" y2="98.9377392%" id="linearGradient-1">
            <stop stop-color="#F5F7F9" offset="0%"></stop>
            <stop stop-color="#EFF1F4" offset="100%"></stop>
        </linearGradient>
        <linearGradient x1="50%" y1="0%" x2="50%" y2="100%" id="linearGradient-2">
            <stop stop-color="#FFFFFF" stop-opacity="0.48" offset="0%"></stop>
            <stop stop-color="#FFFFFF" stop-opacity="0" offset="100%"></stop>
        </linearGradient>
        <rect id="path-3" x="0" y="0" width="96" height="96" rx="21"></rect>
    </defs>
    <g id="IOP-Events" stroke="none" stroke-width="1" fill="none" fill-rule="evenodd" transform="translate(-935.000000, -744.000000)">
        <g id="Sidebar" transform="translate(910.000000, 497.000000)">
            <g id="Platforms" transform="translate(25.000000, 167.000000)">
                <g id="ArchiMoiMini" transform="translate(0.000000, 38.000000)">
                    <g id="IOPEventsLogo" transform="translate(0.000000, 42.000000)">
                        <mask id="mask-4" fill="white">
                            <use xlink:href="#path-3"></use>
                        </mask>
                        <g id="Rectangle-8">
                            <use fill="url(#linearGradient-1)" xlink:href="#path-3"></use>
                            <use fill="url(#linearGradient-2)" xlink:href="#path-3"></use>
                        </g>
                        <g id="Group-15" mask="url(#mask-4)">
                            <g transform="translate(18.000000, 25.000000)">
                                <path d="M5.68434189e-14,34.2903226 L7.71116951,34.2903226 L7.71116951,36.6129032 L2.50091984,36.6129032 L2.50091984,38.7419355 L7.42260184,38.7419355 L7.42260184,41.0645161 L2.50091984,41.0645161 L2.50091984,43.3870968 L7.99973719,43.3870968 L7.99973719,45.7096774 L5.68434189e-14,45.7096774 L5.68434189e-14,34.2903226 Z M8.88147175,34.2903226 L11.7350854,34.2903226 L14.5406045,41.7741935 L14.5726675,41.7741935 L17.4262812,34.2903226 L20.103548,34.2903226 L15.422339,45.7096774 L13.4183968,45.7096774 L8.88147175,34.2903226 Z M21.386071,34.2903226 L29.0972405,34.2903226 L29.0972405,36.6129032 L23.8869908,36.6129032 L23.8869908,38.7419355 L28.8086728,38.7419355 L28.8086728,41.0645161 L23.8869908,41.0645161 L23.8869908,43.3870968 L29.3858081,43.3870968 L29.3858081,45.7096774 L21.386071,45.7096774 L21.386071,34.2903226 Z M31.3897503,34.2903226 L34.7884363,34.2903226 L39.613929,42.2258065 L39.6459921,42.2258065 L39.6459921,34.2903226 L42.146912,34.2903226 L42.146912,45.7096774 L38.8764783,45.7096774 L33.9227332,37.5806452 L33.8906702,37.5806452 L33.8906702,45.7096774 L31.3897503,45.7096774 L31.3897503,34.2903226 Z M46.651774,36.516129 L43.4134034,36.516129 L43.4134034,34.2903226 L52.3910644,34.2903226 L52.3910644,36.516129 L49.1526938,36.516129 L49.1526938,45.7096774 L46.651774,45.7096774 L46.651774,36.516129 Z M59.268594,37.0806452 C59.0655268,36.8225794 58.7903215,36.631721 58.4429698,36.5080645 C58.0956181,36.384408 57.7669748,36.3225806 57.4570302,36.3225806 C57.2753386,36.3225806 57.0883058,36.3440858 56.8959264,36.3870968 C56.703547,36.4301077 56.5218581,36.4973114 56.3508541,36.5887097 C56.1798502,36.680108 56.0409116,36.8010745 55.9340342,36.9516129 C55.8271567,37.1021513 55.7737188,37.2849452 55.7737188,37.5 C55.7737188,37.8440877 55.9019698,38.107526 56.1584757,38.2903226 C56.4149816,38.4731192 56.738281,38.6290316 57.1283837,38.7580645 C57.5184864,38.8870974 57.9379741,39.0161284 58.3868594,39.1451613 C58.8357447,39.2741942 59.2552324,39.4569881 59.6453351,39.6935484 C60.0354378,39.9301087 60.3587372,40.2473098 60.6152431,40.6451613 C60.871749,41.0430127 61,41.5752655 61,42.2419355 C61,42.8763473 60.8824366,43.4301052 60.6473062,43.9032258 C60.4121758,44.3763465 60.0942201,44.7688156 59.6934297,45.0806452 C59.2926393,45.3924747 58.8277293,45.6236552 58.2986859,45.7741935 C57.7696426,45.9247319 57.2112163,46 56.6233903,46 C55.8859359,46 55.2019304,45.8870979 54.5713535,45.6612903 C53.9407765,45.4354827 53.3529594,45.069895 52.8078844,44.5645161 L54.587385,42.5967742 C54.8438909,42.9408619 55.1671903,43.2069883 55.557293,43.3951613 C55.9473957,43.5833343 56.3508521,43.6774194 56.7676741,43.6774194 C56.9707413,43.6774194 57.1764773,43.653226 57.3848883,43.6048387 C57.5932993,43.5564514 57.7803321,43.4838715 57.9459921,43.3870968 C58.1116522,43.2903221 58.245247,43.1666674 58.3467806,43.016129 C58.4483141,42.8655906 58.4990802,42.6881731 58.4990802,42.483871 C58.4990802,42.1397832 58.3681572,41.8682806 58.1063075,41.6693548 C57.8444577,41.4704291 57.5158145,41.301076 57.1203679,41.1612903 C56.7249214,41.0215047 56.297418,40.8817211 55.8378449,40.7419355 C55.3782719,40.6021498 54.9507685,40.4139797 54.5553219,40.1774194 C54.1598754,39.940859 53.8312321,39.6290342 53.5693824,39.2419355 C53.3075326,38.8548368 53.1766097,38.3440892 53.1766097,37.7096774 C53.1766097,37.0967711 53.2968451,36.5591421 53.5373193,36.0967742 C53.7777936,35.6344063 54.0984211,35.2473134 54.4992116,34.9354839 C54.900002,34.6236544 55.36224,34.3897857 55.8859396,34.233871 C56.4096391,34.0779562 56.9493621,34 57.5051248,34 C58.1463895,34 58.7662695,34.0913969 59.3647832,34.2741935 C59.9632969,34.4569902 60.5030199,34.7634387 60.9839685,35.1935484 L59.268594,37.0806452 Z" id="EVENTS" fill="#162942"></path>
                                <g id="Page-1" stroke-width="1" fill="none">
                                    <path d="M47.8598887,6.37890487 L47.8598887,11.9075771 C49.4448096,11.8127622 50.9916383,11.8434537 52.4916267,11.5931718 C53.8206564,11.3715719 54.4091695,10.343772 54.3284289,8.96466392 C54.251698,7.64913114 53.5651299,6.78903834 52.2300856,6.6286387 C50.826512,6.45983544 49.4028901,6.45947006 47.8598887,6.37890487 L47.8598887,6.37890487 Z M39.7207662,27.1959642 L39.7207662,0.50787629 C40.0275074,0.484309601 40.2917824,0.445762536 40.5558751,0.446127911 C44.7137407,0.451791224 48.8725175,0.413974909 53.0291073,0.488146039 C55.9374079,0.540029292 58.6003884,1.30877834 60.5828152,3.66142813 C63.8255603,7.5093752 63.3223443,15.6618054 55.3815191,17.1726312 C53.2902839,17.5703419 51.0984419,17.4382588 48.9523468,17.5438522 C48.627562,17.5599287 48.3011368,17.5460444 47.8817598,17.5460444 L47.8817598,27.1959642 L39.7207662,27.1959642 Z" id="Fill-4" fill="#FF000E"></path>
                                    <path d="M27.948136,14.3651625 C27.8123534,12.4968174 27.7354403,11.2245815 27.6180657,9.95618212 C27.5821608,9.56833654 27.4522104,9.18542351 27.3362939,8.80945261 C26.7652777,6.9619338 25.728773,6.0636593 24.0895391,5.97852692 C22.6059541,5.90143279 21.2260742,6.78162122 20.7168436,8.51861409 C20.2362277,10.159148 19.8660604,11.8946793 19.8496572,13.5923944 C19.8317958,15.4463072 20.111016,17.3462574 20.5646577,19.1493831 C21.0213977,20.9649316 22.313429,21.7139504 24.0999278,21.6693747 C25.6072065,21.6315583 26.8523973,20.699304 27.2435243,18.9931853 C27.6333754,17.2927299 27.7777243,15.5358241 27.948136,14.3651625 M23.9058224,27.6845437 C16.6154782,27.8104154 11.7772413,22.5301982 11.2177073,15.5582947 C10.9384872,12.0806552 11.402153,8.76761717 13.2174488,5.7300719 C15.1964127,2.41886074 18.1965716,0.646061125 21.943444,0.154266342 C24.4019304,-0.168359805 26.8412795,0.0205390826 29.1823913,0.979648522 C32.2494391,2.23617323 34.3665551,4.46222057 35.5200698,7.51090977 C37.1711505,11.8740356 37.106631,16.2963522 35.1861721,20.5568077 C33.0167479,25.3689795 29.1204234,27.6268144 23.9058224,27.6845437" id="Fill-1" fill="#FF000E"></path>
                                    <polygon id="Fill-7" fill="#FF000E" points="0 27.2337257 8.00388667 27.2337257 8.00388667 0.524628735 0 0.524628735"></polygon>
                                </g>
                            </g>
                        </g>
                    </g>
                </g>
            </g>
        </g>
    </g>
</svg>