<?xml version="1.0" standalone="no"?>
<!DOCTYPE svg PUBLIC "-//W3C//DTD SVG 20010904//EN"
 "http://www.w3.org/TR/2001/REC-SVG-20010904/DTD/svg10.dtd">
<svg version="1.0" xmlns="http://www.w3.org/2000/svg"
 width="512.000000pt" height="512.000000pt" viewBox="0 0 512.000000 512.000000"
 preserveAspectRatio="xMidYMid meet">
<metadata>
Created by potrace 1.11, written by Peter Selinger 2001-2013
</metadata>
<g transform="translate(0.000000,512.000000) scale(0.100000,-0.100000)"
fill="#000000" stroke="none">
<path d="M1146 4385 c-54 -19 -83 -41 -114 -87 -22 -34 -27 -53 -28 -110 -2
-144 39 -256 129 -349 78 -80 133 -122 322 -239 168 -104 225 -161 225 -223 0
-59 -42 -108 -155 -180 -375 -241 -433 -293 -497 -450 -16 -40 -21 -78 -24
-165 -4 -186 33 -283 156 -402 54 -54 209 -170 225 -170 3 0 50 -30 107 -66
158 -102 200 -156 183 -231 -12 -54 -66 -100 -250 -213 -203 -124 -286 -195
-349 -293 -61 -95 -90 -246 -66 -336 31 -116 175 -180 282 -126 68 35 101 84
113 170 15 97 32 114 265 260 315 196 408 318 414 542 7 233 -78 372 -325 535
-63 41 -153 100 -200 131 -118 77 -149 114 -149 175 0 38 6 55 30 83 25 31
170 139 186 139 15 0 235 154 285 199 114 102 169 221 173 376 8 254 -91 393
-424 595 -201 122 -244 164 -255 249 -17 139 -140 227 -259 186z"/>
<path d="M2517 4388 c-72 -15 -133 -73 -151 -143 -9 -33 -9 -132 -1 -180 16
-89 68 -209 118 -272 22 -27 101 -115 155 -171 104 -108 127 -158 124 -265 -2
-77 -31 -130 -129 -232 -222 -234 -265 -321 -277 -563 0 -9 3 -52 7 -96 16
-156 80 -273 246 -446 124 -129 153 -181 153 -277 1 -91 -22 -137 -123 -243
-174 -185 -231 -272 -263 -402 -21 -85 -22 -204 -3 -249 59 -134 227 -167 329
-65 38 39 55 83 62 158 3 37 14 85 25 105 10 21 69 92 131 158 118 128 167
194 201 272 67 158 63 390 -10 549 -38 80 -73 128 -189 252 -53 58 -107 119
-119 137 -45 67 -52 189 -14 262 11 23 64 88 117 145 216 230 259 322 259 553
0 231 -45 328 -259 554 -108 114 -132 154 -141 232 -10 98 -17 117 -52 159
-53 62 -118 84 -196 68z"/>
<path d="M3738 4388 c-61 -13 -106 -48 -134 -105 -22 -45 -25 -63 -24 -145 2
-144 14 -214 65 -383 61 -201 66 -228 66 -381 1 -118 -11 -198 -40 -291 -37
-115 -70 -239 -77 -288 -4 -27 -8 -59 -11 -70 -6 -32 -5 -266 2 -331 9 -84 31
-182 70 -309 48 -157 57 -213 56 -350 -1 -121 -15 -220 -46 -305 -25 -70 -63
-210 -70 -260 -16 -109 -21 -250 -9 -295 31 -121 164 -183 280 -129 84 39 111
92 119 235 7 117 20 181 64 319 52 158 64 239 65 415 1 220 -15 331 -69 485
-39 110 -57 207 -59 323 -4 164 6 228 58 393 32 99 42 138 61 229 3 17 8 102
10 190 5 186 -9 296 -56 449 -63 205 -67 227 -74 358 -6 107 -9 122 -41 165
-50 67 -129 98 -206 81z"/>
</g>
</svg>
