<svg width="140" height="94" viewBox="0 0 140 94" fill="none" preserveAspectRatio="xMidYMid meet" xmlns="http://www.w3.org/2000/svg">
<path fill-rule="evenodd" clip-rule="evenodd" d="M36.1737 46.1146C37.7609 47.1566 38.861 48.5265 39.3646 50.3428C39.3805 50.3114 39.397 50.2816 39.413 50.2527C39.4464 50.1926 39.4776 50.1363 39.4969 50.0765C39.7782 49.2052 39.8134 48.3093 39.6268 47.4266C39.1501 45.1726 37.7972 43.4051 36.0276 41.928C34.3856 40.5575 32.5237 39.5288 30.4394 38.855C28.3807 38.1896 26.2998 37.848 24.1322 38.0651C22.2129 38.2573 20.4645 38.8199 19.1185 40.2077C18.4069 40.9414 17.9381 41.7926 17.8446 42.8224C17.776 43.5778 17.7853 44.1561 17.8807 44.8072C18.0082 45.6772 18.3677 46.487 18.8958 47.2493C18.9345 47.2019 18.9685 47.1587 19 47.1187C19.0607 47.0414 19.112 46.9761 19.1698 46.9164C20.1269 45.9261 21.2901 45.2061 22.5818 44.7004C24.0672 44.1189 25.6414 43.8088 27.2438 43.7986C28.4437 43.7909 29.6535 43.9156 30.8449 44.0778C32.7834 44.3418 34.5551 45.0519 36.1737 46.1146ZM99.5449 54.9463L98.4926 54.7037V48.3069L99.0608 47.9319C99.7764 47.4686 100.513 47.0054 101.123 47.0054C101.901 47.0054 102.364 47.4686 102.364 48.5054V54.7037L101.418 54.9463L101.523 55.8286L103.648 55.7625L106.152 55.8286L106.257 54.9463L104.806 54.7037V48.726C104.806 45.9687 104.216 45.0202 101.628 45.0202L98.4926 47.1157V40.0572L97.3358 40.1454L94.5999 40.8071L94.7051 41.6895L96.073 41.6454V54.7037L94.7261 54.9463L94.8314 55.8286L97.3358 55.7625L99.4396 55.8286L99.5449 54.9463ZM55.5861 43.1125L55.6902 44.2762L57.6253 49.862H53.3181L55.5861 43.1125ZM51.6951 54.7073L52.9644 50.9201H57.9999L59.3108 54.7073L57.6669 54.9824L57.771 55.8287L60.3927 55.7653L63.6388 55.8287L63.7428 54.9824L62.2031 54.7497L57.001 40.743L55.1284 41.2085L50.1345 54.7285L48.6571 54.9824L48.7612 55.8287L50.9252 55.7653L53.3181 55.8287L53.4221 54.9824L51.6951 54.7073ZM77.4471 55.8286L79.6486 55.7657L82.1501 55.8286L82.257 54.989L80.7818 54.7581V49.0694C80.7818 46.4455 80.1617 45.5429 77.5112 45.5429L74.4973 47.579C74.2193 46.1096 73.3641 45.5429 71.2901 45.5429L68.3403 47.537L68.2334 45.8157L67.1647 45.8787L64.4285 46.5085L64.5353 47.3691L65.9462 47.2641V54.7581L64.5567 54.989L64.6636 55.8286L67.1434 55.7657L69.2597 55.8286L69.3666 54.989L68.4045 54.7581V48.6916L68.9817 48.2927C69.6659 47.8099 70.3501 47.4321 70.9694 47.4321C71.675 47.4321 72.1026 47.8729 72.1026 48.8595V54.7581L71.226 54.989L71.3329 55.8286L73.3641 55.7657L75.3732 55.8286L75.4801 54.989L74.6042 54.7581V48.6916L75.1594 48.2927C75.8435 47.8099 76.5705 47.4321 77.1691 47.4321C77.8747 47.4321 78.3023 47.8729 78.3023 48.8595V54.7581L77.3402 54.989L77.4471 55.8286ZM89.2517 47.4705C88.7176 47.4705 88.1187 47.821 87.4556 48.3466L86.8994 48.7848V54.3484C87.37 55.0495 88.0973 55.4219 88.9529 55.4219C90.3426 55.4219 91.3266 53.8886 91.3266 51.3695C91.3266 48.7629 90.4068 47.4705 89.2517 47.4705ZM86.8994 56.1885V60.1971L89.0171 60.4381L88.9102 61.3143L85.6801 61.2485L83.1567 61.3143L83.0498 60.4381L84.4402 60.1971V47.2952L83.0498 47.4048L82.9428 46.5505L85.6801 45.8933L86.7283 45.8276L86.8566 47.6457L89.6367 45.5429C92.1395 45.5429 93.9142 47.4486 93.9142 50.559C93.9142 54.2609 91.84 56.101 88.4182 56.5828C87.8834 56.5828 87.3486 56.4296 86.8994 56.1885ZM109.254 40.8724L111.033 40.743L111.683 40.8724L111.814 42.189L111.553 43.3112L109.797 43.4407L109.146 43.3112L109.016 41.9948L109.254 40.8724ZM110.426 55.764L107.845 55.8286L107.737 54.9654L109.146 54.728V47.0016L107.737 47.088L107.628 46.2247L110.447 45.5988L111.64 45.5125V54.728L113.114 54.9654L113.006 55.8286L110.426 55.764ZM121.621 51.464C121.621 53.8585 120.879 55.3606 119.536 55.3606C118.013 55.3606 116.93 53.4231 116.93 50.5932C116.93 48.1986 117.652 46.6965 119.015 46.6965C120.498 46.6965 121.621 48.4381 121.621 51.464ZM118.974 56.5143C122.021 55.9266 124.086 54.185 124.086 50.7892C124.086 47.7415 122.221 45.5429 119.596 45.5429C116.55 46.1524 114.486 47.8503 114.486 51.2897C114.486 54.3156 116.349 56.5143 118.974 56.5143ZM13.0013 44.1715C13.1372 44.7903 13.5626 46.7131 14.2894 48.1597C15.0224 49.6185 15.6903 50.3865 16.6479 51.3864C18.4469 53.2649 20.5195 54.7755 22.8491 55.9525C24.2126 56.6414 25.6313 57.1522 27.0626 57.6332C28.6832 58.1212 30.4736 58.3592 31.9472 58.3956C32.9918 58.4215 34.4023 58.4074 35.5912 58.2061C36.9159 57.9819 38.2014 57.5421 39.4146 56.8771C40.1626 56.4669 40.7858 55.9253 41.3756 55.364C42.1214 54.6542 42.8244 53.7792 43.1714 52.7627C43.1598 53.1893 43.0415 54.1293 42.644 55.1334C42.108 56.4121 41.6773 56.9346 40.9563 57.679C39.9189 58.7501 38.7368 59.6157 37.405 60.271C35.8712 61.0256 34.2407 61.5176 32.5718 61.8015C30.5622 62.0947 28.6599 62.0317 26.7031 61.8162C24.7453 61.6004 22.8201 61.148 20.9902 60.3976C19.4276 59.7568 17.9496 58.9198 16.6405 57.841C15.5171 56.9152 14.5595 55.7992 13.8959 54.4924C13.381 53.4783 13.0384 52.384 13.0174 51.2121C12.9976 50.1155 12.9994 47.3749 13.0008 45.3766C13.001 44.9286 13.0013 44.518 13.0013 44.1715Z" fill="url(#paint0_linear)"/>
<g style="mix-blend-mode:darken">
<path fill-rule="evenodd" clip-rule="evenodd" d="M0 0H140V94H0V0Z" />
</g>
<defs>
<linearGradient id="paint0_linear" x1="13" y1="38" x2="15.0178" y2="69.0438" gradientUnits="userSpaceOnUse">
<stop stop-color="#7EB7FE"/>
<stop offset="1" stop-color="#599EF4" stop-opacity="0.92"/>
</linearGradient>
</defs>
</svg>
