<svg width="140" height="94" viewBox="0 0 140 94" fill="none" preserveAspectRatio="xMidYMid meet" xmlns="http://www.w3.org/2000/svg">
<path fill-rule="evenodd" clip-rule="evenodd" d="M67.662 21.3111C66.9153 21.4 66.213 22.1823 65.973 22.6712C65.7508 23.6135 66.293 25.1514 67.7687 24.9647C68.9954 24.8136 70.1955 23.7469 69.911 22.4045C69.7045 21.895 69.21 21.5615 68.762 21.2594C68.6316 21.1715 68.5052 21.0862 68.3909 21C68.2651 21.0135 68.1415 21.086 68.0191 21.1579C67.8993 21.2283 67.7807 21.2979 67.662 21.3111ZM63.4102 27.0947L63.4102 27.0947C61.8003 28.0237 60.2455 28.9209 59.057 30.414C58.9764 30.675 58.8304 30.9431 58.6783 31.2224C58.4108 31.7135 58.1243 32.2394 58.1413 32.823C58.4258 34.1654 58.9503 35.241 60.2037 35.9877C60.5353 37.116 60.7341 38.3031 60.9326 39.4879L60.9326 39.488C61.394 42.2422 61.8533 44.9843 63.9729 46.9485C64.0783 47.0285 64.2225 47.0653 64.3907 47.1084C64.6337 47.1705 64.9269 47.2455 65.2263 47.4818C66.634 48.225 67.3467 46.9807 67.9415 45.9422L67.9415 45.9422C68.0867 45.6888 68.2248 45.4476 68.3643 45.2506C68.8265 44.0416 69.271 42.6193 69.2355 41.2503C69.1097 40.2755 68.7189 39.3708 68.3313 38.4734C67.7327 37.0877 67.1418 35.7196 67.5464 34.1387C67.6807 33.4001 68.2059 32.7074 68.7518 31.9872C69.0733 31.5632 69.4019 31.1297 69.6621 30.6718C70.3555 29.4361 69.5821 28.156 68.8176 27.3471C67.5553 26.3604 66.0708 26.0937 64.364 26.5382C64.0457 26.728 63.7271 26.9118 63.4107 27.0944L63.4104 27.0945L63.4102 27.0947ZM62.4972 21.9689C62.4972 21.9689 62.7372 21.7022 62.9861 21.6755C63.9551 21.0977 64.7018 21.4533 64.9596 21.88C65.2263 22.5378 64.9951 23.0267 64.5151 23.3112L64.4987 23.321C64.0155 23.611 63.5406 23.896 63.0483 23.729C62.4426 23.4368 62.4653 22.9161 62.4889 22.373V22.3729V22.3729V22.3728V22.3728V22.3727V22.3726V22.3726V22.3725V22.3725V22.3724V22.3723V22.3723V22.3722V22.3721V22.3721V22.372V22.3719V22.3718V22.3718V22.3717V22.3716V22.3715C62.4948 22.2376 62.5007 22.1024 62.4972 21.9689ZM60.8082 23.0889C59.8303 23.2134 59.3681 24.1912 59.6259 24.849C59.8925 25.5069 60.3904 25.8891 61.1282 25.8002C61.866 25.4802 62.5683 24.4668 62.3016 23.8179C62.1585 23.7054 62.0551 23.5688 61.9571 23.4393C61.7143 23.1184 61.505 22.8419 60.8082 23.0889ZM57.2257 26.9826C56.959 26.3248 57.1813 25.3825 58.1502 25.027C58.9712 24.9308 59.1214 25.2285 59.2972 25.5771L59.2973 25.5771L59.2973 25.5771C59.3327 25.6475 59.3692 25.7198 59.4125 25.7914C59.6792 26.4493 59.2081 27.1871 58.7191 27.4805C57.7413 27.8271 57.4835 27.4093 57.2257 26.9826ZM57.5013 28.085L57.4673 28.0899C57.217 28.1265 56.7526 28.1943 56.5234 28.4405C56.0523 29.1784 56.3279 30.0673 57.0746 30.4229C57.8213 30.5562 58.5324 29.7829 58.5147 29.0984C58.4551 29.0018 58.4088 28.9034 58.3637 28.8074C58.2134 28.4877 58.0755 28.1943 57.5013 28.085ZM74.2313 33.161C75.5025 32.9032 76.7382 33.0988 77.9738 33.5166C78.3248 33.8329 78.7391 34.0964 79.153 34.3596L79.153 34.3596C79.5882 34.6364 80.0229 34.9128 80.3829 35.25C81.8408 36.3345 83.0142 38.1035 82.6942 39.9081L82.6901 39.9127C80.8602 41.9735 79.0221 44.0436 78.1694 46.5308L78.1338 47.4286C77.7505 48.3451 77.6012 49.2575 77.4522 50.1685L77.4522 50.1687C77.38 50.6097 77.3079 51.0504 77.2093 51.4911C76.9071 52.8512 75.8581 53.998 74.5958 54.2558C74.4059 54.3161 74.2143 54.4051 74.0224 54.4942C73.4509 54.7596 72.8769 55.0261 72.3379 54.5402C69.1999 51.6956 70.3911 47.1797 72.0356 43.775C72.0926 43.6318 72.1608 43.4795 72.2314 43.3221L72.2315 43.322C72.5026 42.7173 72.8076 42.0372 72.6312 41.5082C72.4447 40.8382 72.1636 40.2547 71.8885 39.6835C71.5212 38.9208 71.1645 38.1803 71.0578 37.2857C70.8889 35.49 72.2134 33.6677 74.2313 33.161ZM73.1735 28.6983C73.0426 28.8157 72.8475 28.878 72.6535 28.9401C72.4653 29.0002 72.2781 29.0601 72.1512 29.1695C71.36 30.094 71.5733 30.9829 72.2934 31.8541C72.7734 32.2897 73.7691 32.2719 74.5513 31.8008C75.3247 31.1074 75.3781 29.9873 74.658 29.1072C74.4269 28.6628 73.9291 28.4494 73.1735 28.6983ZM76.3826 29.7384C76.4093 29.0717 77.1827 28.5917 77.9383 28.3517C77.9936 28.3497 78.062 28.3363 78.1374 28.3216C78.4017 28.2699 78.7521 28.2015 78.925 28.5472C78.9504 28.596 78.9787 28.6474 79.0084 28.7012L79.0086 28.7016C79.2495 29.1385 79.5775 29.7337 79.1028 30.3429C78.0716 31.2585 76.5871 30.8496 76.3826 29.7384ZM80.6318 29.6229C79.6184 29.8718 79.3339 30.7786 79.5561 31.4453C79.7784 32.1209 80.2584 32.5476 80.7562 32.5387C80.8351 32.468 80.9373 32.3964 81.049 32.3182C81.3024 32.1407 81.605 31.9288 81.7963 31.6142C82.0808 30.9386 82.1252 29.8096 80.6318 29.6229ZM84.5165 32.4408C84.5342 31.9963 84.3031 31.5519 83.8142 31.3385C83.6897 31.343 83.6297 31.2896 83.5697 31.2363C83.5097 31.1829 83.4497 31.1296 83.3253 31.134C81.8141 31.383 81.4762 33.4187 82.7119 33.8365C83.6986 34.032 84.4809 33.3386 84.5165 32.4408ZM84.4276 34.6899C84.3019 34.6899 84.2374 34.7488 84.1723 34.8083C84.1085 34.8666 84.0441 34.9255 83.9209 34.9299C83.3875 35.6144 83.6187 36.2811 84.0987 36.7167C84.5876 36.93 85.3432 36.9122 85.6099 36.45C85.8766 35.7833 85.6899 34.4321 84.4276 34.6899ZM10.858 60.4605C10.8403 61.0472 10.8225 62.8518 10.8225 64.7541C12.227 64.7541 12.5648 64.7363 12.9737 64.5941C13.9427 64.3008 14.4583 63.5007 14.4583 62.2828C14.4583 61.145 13.9694 60.3627 13.0538 60.0871C12.716 59.9894 12.2626 59.9271 11.6492 59.9271C10.8936 59.9271 10.8758 59.9449 10.858 60.4605ZM8.53788 59.2782L9.92465 59.2604L11.1514 59.2426C11.9781 59.2249 12.5559 59.2249 12.7337 59.2249C14.1027 59.2249 14.9294 59.4026 15.605 59.856C16.3784 60.3716 16.7785 61.0917 16.7785 62.0162C16.7785 62.9496 16.3162 63.7141 15.445 64.2652C15.045 64.5052 14.7339 64.6208 13.9605 64.8164C16.3962 65.0386 17.8007 66.212 17.8007 68.0344C17.8007 69.4833 16.7962 70.8434 15.3117 71.3679C14.5739 71.6435 13.6494 71.7413 11.907 71.7413L11.8288 71.7413C11.6331 71.7411 11.4374 71.7393 9.7113 71.7235L7.56893 71.7591C7.45336 71.7768 7.3378 71.7768 7.29335 71.7768C7.01778 71.7768 7 71.7324 7 71.4213C7 71.2257 7.03556 71.1635 7.21335 71.1635C8.74234 71.0479 8.76012 70.9412 8.76012 65.2608C8.76012 62.8962 8.71567 61.2694 8.61789 60.7361C8.54677 60.1227 8.24453 59.9271 7.45336 59.8916C7.13334 59.8916 7.09778 59.8649 7.09778 59.6693C7.09778 59.3582 7.12445 59.296 7.24002 59.2782H8.53788ZM11.5514 65.4386H10.8225V65.8209C10.8225 68.9766 10.8403 69.8567 10.9203 70.2301C11.0181 70.8168 11.3914 71.0301 12.307 71.0301C14.3427 71.0301 15.4717 70.0078 15.4717 68.1855C15.4717 66.8521 14.8583 66.0075 13.6316 65.652C13.1515 65.5186 12.4404 65.4386 11.5514 65.4386ZM23.5879 68.1232C24.0412 68.1232 24.1834 68.2833 24.1834 68.79C24.1834 69.9811 24.139 70.2389 23.9612 70.3812C23.6412 70.5767 22.93 70.7545 22.3611 70.7545C21.5255 70.7545 21.2144 70.3812 21.2144 69.4656C21.2144 69.0122 21.3121 68.8788 21.7922 68.6388C22.3433 68.3455 23.1345 68.1232 23.5879 68.1232ZM28.1837 70.2034L28.1037 70.1589C27.6504 70.4345 27.0725 70.6123 26.717 70.6123C26.2191 70.6123 26.0414 70.3367 26.0414 69.5367C26.0414 69.3411 26.0414 69.0478 26.0591 68.7544C26.1391 66.0342 26.1391 65.9098 26.1391 65.5008C26.1391 64.0696 25.348 63.2874 23.8812 63.2874C22.6545 63.2874 21.481 63.6785 20.5565 64.4074C19.9876 64.8608 19.5698 65.4297 19.5698 65.7586C19.5698 65.9186 19.6854 66.0342 19.8631 66.0342C20.0854 66.0342 20.7521 65.9009 21.1077 65.8031C21.3833 65.7053 21.481 65.6253 21.481 65.4297C21.481 65.3497 21.481 65.2697 21.4633 65.1986C21.4366 65.1008 21.4366 65.0208 21.4366 64.9852C21.4366 64.7097 21.9966 64.5319 22.7878 64.5319C23.6145 64.5319 24.0768 64.843 24.1568 65.492C24.219 65.8475 24.219 66.3542 24.219 67.4476C23.01 67.5632 21.8633 67.7854 21.0099 68.0343C19.5253 68.4877 19.232 68.7988 19.232 69.9367C19.232 71.2523 19.8809 71.9368 21.0721 71.9368C21.9077 71.9368 22.8145 71.679 24.1834 71.0746C24.299 71.6613 24.6813 71.9546 25.268 71.9546C25.9258 71.9546 26.9748 71.6168 27.9615 71.0923C28.1571 70.9946 28.1748 70.9412 28.1748 70.6656V70.2034H28.1837ZM30.975 71.7057C31.6684 71.7057 33.0551 71.7324 33.553 71.768V71.7502H33.6952C33.8908 71.7502 33.953 71.688 33.953 71.4124C33.953 71.1368 33.9085 71.119 33.6152 71.0746L33.6149 71.0746C32.981 71.0464 32.8495 71.0406 32.7248 71.0084C32.6922 70.9999 32.6601 70.9897 32.6196 70.9768C32.3262 70.8968 32.1306 70.7012 32.0684 70.3901C31.9884 69.9012 31.9528 69.0922 31.9528 67.2343C31.9528 65.7676 31.9706 65.6253 32.1306 65.5098C32.6196 65.1364 33.2151 64.9053 33.6507 64.9053C34.0508 64.9053 34.1841 65.0208 34.6197 65.6698C34.6819 65.7764 34.7353 65.812 34.7975 65.812C34.9042 65.812 35.0997 65.6787 35.3753 65.4031C35.6953 65.1097 35.8909 64.7186 35.8909 64.4252C35.8909 63.8919 35.3131 63.2252 34.8775 63.2252C34.4864 63.2252 33.9085 63.5718 31.9706 64.9497C31.9706 64.8083 32.0018 64.2433 32.0223 63.87L32.0328 63.6785L32.0329 63.6782L32.0329 63.6782C32.0684 63.2874 32.0684 63.2874 32.0684 63.2252C32.0684 63.0918 32.024 63.0474 31.8106 63.0474C31.615 63.0474 31.5528 63.0474 31.4728 63.1096C30.655 63.5807 29.9083 63.9719 29.0549 64.363C28.9304 64.4075 28.9126 64.443 28.9126 64.6208C28.9126 64.7764 28.9126 64.8518 28.9502 64.8933C28.9856 64.9325 29.0544 64.9413 29.1882 64.9586C30.0416 65.0386 30.0772 65.1364 30.0772 67.6255C30.0772 68.8967 30.0416 69.7678 29.9616 70.2745C29.8816 70.7812 29.7038 70.959 29.1882 71.0924C29.009 71.1348 28.9249 71.1547 28.8854 71.2078C28.8504 71.2549 28.8504 71.328 28.8504 71.4657C28.8504 71.7057 28.8949 71.7413 29.1082 71.7413C29.1704 71.7413 29.286 71.7413 29.446 71.7235C29.8638 71.7057 30.3972 71.7057 30.975 71.7057ZM38.3355 66.9498C38.3355 65.2252 38.9666 64.1052 39.98 64.1052C40.7712 64.1052 41.5802 64.9852 41.5802 65.8653C41.5802 66.1231 41.4024 66.2564 40.8868 66.3987C40.0423 66.612 39.0289 66.8342 38.3355 66.9498ZM43.5447 69.8922H43.4025C42.7091 70.3989 41.9002 70.6745 41.029 70.6745C39.4822 70.6745 38.5755 69.6167 38.3799 67.6343C39.5089 67.3943 41.269 67.0832 43.5092 66.7098C43.8648 66.6476 43.8825 66.6298 43.8825 66.3542C43.8825 65.9809 43.8648 65.9186 43.7403 65.8831C43.6907 65.864 43.6624 65.8531 43.6427 65.8335C43.6166 65.8075 43.6057 65.7662 43.5803 65.6699L43.5803 65.6698L43.5803 65.6697C43.3847 64.9852 43.3047 64.7897 42.9847 64.3985C42.3891 63.6963 41.4824 63.2784 40.4867 63.2784C38.1755 63.2784 36.3709 65.3408 36.3709 68.0254C36.3709 70.4701 37.6777 71.9457 39.8556 71.9457C41.1001 71.9457 42.4247 71.4746 43.4381 70.6478C43.5803 70.5501 43.6514 70.4523 43.6514 70.3723L43.6513 70.361L43.6511 70.3556C43.6494 70.3316 43.6403 70.3082 43.5892 70.1768L43.5892 70.1767L43.5447 69.8922ZM50.9853 63.4829H50.9053L48.2562 63.5185C48.2562 61.6961 48.2917 61.1894 48.4518 60.5227C48.6651 59.6604 49.2874 59.2693 50.3719 59.2693C51.1453 59.2693 51.6431 59.4471 52.0965 59.856C52.3542 60.1049 52.452 60.1671 52.5943 60.1671C52.7543 60.1671 53.0298 60.0249 53.3499 59.7938C53.6699 59.5804 53.7855 59.4204 53.7855 59.2071C53.7855 58.4959 52.7365 57.9092 51.4297 57.9092C49.9719 57.9092 48.4873 58.6292 47.4739 59.8293C46.585 60.8694 46.4072 61.4739 46.3449 63.5362C46.2552 63.577 46.173 63.6159 46.0965 63.6521C46.0063 63.6948 45.9241 63.7337 45.8471 63.7674C45.7316 63.8207 45.5893 63.8829 45.4738 63.9185C45.3028 63.9945 45.2232 64.0298 45.1861 64.091C45.1537 64.1444 45.1537 64.2174 45.1537 64.3541C45.1537 64.5141 45.1537 64.5585 45.1982 64.5763C45.216 64.5941 45.2782 64.5941 45.5893 64.5941H45.8649C46.0516 64.5763 46.1494 64.5763 46.3449 64.5763C46.3449 66.8876 46.3361 67.9099 46.3094 69.0655C46.2916 70.7279 46.1938 70.9856 45.5004 71.119L45.5003 71.119C45.1337 71.1736 45.0889 71.1803 45.0593 71.2051C45.057 71.2071 45.0548 71.2092 45.0525 71.2114L45.0471 71.2168C45.0026 71.2612 45.0026 71.279 45.0026 71.4923C45.0026 71.7324 45.0204 71.7679 45.1982 71.7679C45.3582 71.7679 45.4915 71.7679 45.8116 71.7501C46.407 71.7324 46.7093 71.7324 47.278 71.7324H47.2783H47.2787C47.9097 71.7324 48.5052 71.7324 49.2163 71.7501C49.5541 71.7679 49.8474 71.7679 49.9896 71.7679C50.3097 71.7679 50.3274 71.7501 50.3274 71.4746C50.3274 71.1545 50.3008 71.1368 50.0074 71.1368C48.7807 71.1368 48.4873 70.9856 48.3451 70.3545C48.2829 70.0789 48.2473 68.5855 48.2473 65.9986V65.9984C48.2473 65.5897 48.2473 65.4917 48.2651 64.5674H50.9408C51.0377 64.5674 51.0982 64.5674 51.136 64.5381C51.1986 64.4895 51.1986 64.3602 51.1986 64.0163C51.1986 63.5007 51.1986 63.4829 50.9853 63.4829ZM55.9367 64.1318C57.599 64.1318 58.8702 65.892 58.8702 68.2299C58.8702 69.99 57.9991 71.1101 56.6301 71.1101C54.9855 71.1101 53.7588 69.3678 53.7588 67.0743C53.7588 65.2786 54.6122 64.1318 55.9367 64.1318ZM56.6479 63.2784C53.6432 63.2784 51.6431 65.0652 51.6431 67.7321C51.6431 70.2389 53.421 71.9457 55.9989 71.9457C58.8702 71.9457 60.9859 70.0434 60.9859 67.4743C60.9859 65.0475 59.1636 63.2784 56.6479 63.2784ZM69.3065 68.2299C69.3065 65.892 68.0442 64.1318 66.373 64.1318C65.0484 64.1318 64.195 65.2786 64.195 67.0743C64.195 69.3678 65.4218 71.1101 67.0664 71.1101C68.4353 71.1101 69.3065 69.99 69.3065 68.2299ZM62.0793 67.7321C62.0793 65.0652 64.0795 63.2784 67.0841 63.2784C69.5999 63.2784 71.4222 65.0475 71.4311 67.4743C71.4311 70.0434 69.3065 71.9457 66.4352 71.9457C63.8572 71.9457 62.0793 70.2389 62.0793 67.7321ZM75.6181 64.9319L75.5914 65.8297L75.5811 66.2861L75.581 66.2869C75.5673 66.8838 75.5559 67.3824 75.5559 67.7321V68.5322C75.5559 69.5545 75.6181 69.9278 75.8314 70.2212C76.0714 70.4967 76.5248 70.6745 77.0582 70.6745C77.5916 70.6745 78.0271 70.559 78.6405 70.2834H78.8183V70.6567C78.8183 70.9145 78.8183 70.9145 78.5427 71.0657C77.5738 71.599 76.4004 71.9279 75.5736 71.9279C74.9958 71.9279 74.4269 71.7146 74.1069 71.3857C73.7335 70.9945 73.5913 70.479 73.5913 69.5811C73.5913 69.3678 73.6268 67.6965 73.7335 64.5674H72.8801C72.7201 64.5674 72.7023 64.5497 72.7023 64.2741C72.7023 64.123 72.7201 64.0785 72.8179 63.9985C73.6891 63.394 74.5425 62.6651 75.0758 62.0428L75.0759 62.0427C75.1785 61.9308 75.2273 61.8776 75.2877 61.8523C75.3424 61.8295 75.4067 61.8295 75.5292 61.8295C75.707 61.8295 75.7692 61.8739 75.7692 61.9717V62.0873C75.707 62.4428 75.6625 63.0829 75.6448 63.5185H76.9693L78.0182 63.5007H78.6316C78.7519 63.5007 78.8228 63.5007 78.8647 63.5356C78.925 63.5858 78.925 63.7084 78.925 64.0074C78.925 64.5141 78.925 64.5585 78.8094 64.5763C78.7294 64.5941 76.6315 64.6119 75.6003 64.5941V64.9319H75.6181ZM88.4812 60.4605C88.4634 61.0472 88.4457 62.8518 88.4457 64.7541C89.8502 64.7541 90.188 64.7363 90.5969 64.5941C91.5659 64.3008 92.0815 63.5007 92.0815 62.2828C92.0815 61.145 91.5925 60.3627 90.6769 60.0871C90.3391 59.9894 89.8858 59.9271 89.2724 59.9271C88.5168 59.9271 88.499 59.9449 88.4812 60.4605ZM86.1699 59.2782L87.5567 59.2604L88.7924 59.2426C89.6191 59.2249 90.1969 59.2249 90.3747 59.2249C91.7437 59.2249 92.5704 59.4026 93.246 59.856C94.0105 60.3716 94.4105 61.0917 94.4105 62.0162C94.4105 62.9496 93.9571 63.7141 93.086 64.2652C92.6948 64.5052 92.3748 64.6208 91.6014 64.8164C94.0372 65.0386 95.4417 66.212 95.4417 68.0344C95.4417 69.4833 94.4283 70.8434 92.9437 71.3679C92.2059 71.6435 91.2814 71.7413 89.5391 71.7413L89.4554 71.7412C89.2546 71.741 89.0537 71.7392 87.3434 71.7235L85.201 71.7591C85.0854 71.7768 84.961 71.7768 84.9254 71.7768C84.641 71.7768 84.6232 71.7324 84.6232 71.4213C84.6232 71.2257 84.6676 71.1635 84.8454 71.1635C86.3744 71.0479 86.3922 70.9412 86.3922 65.2608C86.3922 62.8962 86.3566 61.2694 86.2588 60.7361C86.1788 60.1227 85.8766 59.9271 85.0854 59.8916C84.7654 59.8916 84.7298 59.8649 84.7298 59.6693C84.7298 59.3582 84.7476 59.296 84.8632 59.2782H86.1699ZM89.1746 65.4386H88.4457V65.8209C88.4457 68.9766 88.4634 69.8567 88.5434 70.2301C88.6412 70.8168 89.0235 71.0301 89.9302 71.0301C91.9659 71.0301 93.0949 70.0078 93.0949 68.1855C93.0949 66.8521 92.4815 66.0075 91.2547 65.652C90.7836 65.5186 90.0636 65.4386 89.1746 65.4386ZM101.335 64.1318C102.998 64.1318 104.26 65.892 104.26 68.2299C104.26 69.99 103.389 71.1101 102.02 71.1101C100.375 71.1101 99.1486 69.3678 99.1486 67.0743C99.1575 65.2786 100.002 64.1318 101.335 64.1318ZM102.047 63.2784C99.033 63.2784 97.0329 65.0652 97.0329 67.7321C97.0329 70.2389 98.8197 71.9457 101.389 71.9457C104.26 71.9457 106.376 70.0434 106.376 67.4743C106.385 65.0475 104.562 63.2784 102.047 63.2784ZM114.696 68.2299C114.696 65.892 113.425 64.1318 111.763 64.1318C110.438 64.1318 109.594 65.2786 109.585 67.0743C109.585 69.3678 110.812 71.1101 112.456 71.1101C113.825 71.1101 114.696 69.99 114.696 68.2299ZM107.469 67.7321C107.469 65.0652 109.469 63.2784 112.483 63.2784C114.99 63.2784 116.812 65.0475 116.812 67.4743C116.812 70.0434 114.696 71.9457 111.825 71.9457C109.247 71.9457 107.469 70.2389 107.469 67.7321ZM120.715 67.91C120.715 69.6523 120.715 70.1412 120.75 70.3635C120.83 70.9324 120.99 71.0835 121.648 71.1457C122.057 71.208 122.057 71.208 122.057 71.4569C122.057 71.7147 122.021 71.7502 121.764 71.7502H121.568C121.115 71.7325 120.021 71.7147 119.63 71.7147C119.079 71.7147 118.306 71.7325 117.825 71.7502H117.665C117.544 71.7502 117.476 71.7502 117.438 71.7165C117.39 71.6739 117.39 71.5774 117.39 71.3591C117.39 71.298 117.39 71.258 117.408 71.2284C117.441 71.1719 117.539 71.1538 117.825 71.1013C118.519 70.968 118.697 70.6924 118.759 69.7056C118.794 68.8611 118.839 66.5054 118.839 64.4697C118.839 62.114 118.821 60.5672 118.777 60.0605C118.741 59.4294 118.563 59.296 117.754 59.2605C117.577 59.2605 117.532 59.1982 117.532 59.0027C117.532 58.9237 117.532 58.8648 117.553 58.8145C117.614 58.6664 117.855 58.5923 118.803 58.3004L118.804 58.3004C120.35 57.847 120.35 57.847 120.643 57.847C120.866 57.847 120.937 57.8826 120.937 58.0071C120.937 58.0426 120.937 58.0693 120.919 58.2382C120.777 59.3583 120.741 60.665 120.723 65.5898V67.2788C121.301 66.8521 122.172 66.1232 122.804 65.572C123.95 64.5764 123.95 64.5764 123.95 64.3542C123.95 64.1408 123.835 64.0964 123.159 64.0608C122.786 64.043 122.786 64.043 122.786 63.7852C122.786 63.4919 122.804 63.4741 123.044 63.4741L124.093 63.4919H124.662C125.257 63.4919 126.03 63.4741 126.724 63.4297H126.982C127.124 63.4297 127.159 63.4741 127.159 63.6875C127.159 63.9186 127.133 63.963 127.017 63.9808C126.182 64.1764 125.63 64.4875 122.795 66.5054C126.733 70.8791 126.955 71.0746 127.542 71.1724C127.684 71.2169 127.702 71.2524 127.702 71.4658C127.702 71.6791 127.657 71.7413 127.542 71.7413H127.204L126.333 71.7236H123.764C123.541 71.7236 123.524 71.7058 123.524 71.4658C123.524 71.3192 123.524 71.2458 123.56 71.2069C123.597 71.168 123.67 71.1635 123.817 71.1546C124.155 71.1191 124.27 71.0746 124.27 70.9413C124.27 70.8613 124.155 70.7013 123.817 70.3724C123.106 69.6256 122.466 68.9411 121.221 67.5277L120.715 67.91ZM128.786 71.7324C128.831 71.7324 128.884 71.7324 128.964 71.7146V71.7502H129.035C129.072 71.7502 129.138 71.7565 129.229 71.7653C129.292 71.7713 129.367 71.7785 129.453 71.7857C130.609 71.9458 130.92 71.9813 131.435 71.9813C133.613 71.9813 135 71.0212 135 69.4923C135 68.3099 134.387 67.7055 132.289 66.7809C130.937 66.1942 130.502 65.8031 130.502 65.1542C130.502 64.4786 131.017 64.0519 131.809 64.0519C132.698 64.0519 133.373 64.523 133.809 65.4653C133.924 65.7587 133.924 65.7587 134.067 65.7587C134.449 65.7587 134.547 65.7053 134.547 65.5453C134.547 65.3675 134.511 64.8164 134.449 64.2297C134.369 63.4829 134.351 63.4207 134.209 63.4207H134.111C133.995 63.4464 133.963 63.4535 133.931 63.4555C133.919 63.4563 133.906 63.4563 133.889 63.4563C133.844 63.4563 133.809 63.4563 133.747 63.4385C132.653 63.2963 132.618 63.2963 132.12 63.2963C130.12 63.2963 128.795 64.2474 128.795 65.7231C128.795 66.7632 129.373 67.3854 130.937 68.1144C132.68 68.9322 133.115 69.3056 133.115 69.9723C133.115 70.719 132.546 71.2079 131.675 71.2079C130.466 71.2079 129.613 70.5768 129.24 69.4211C129.142 69.1011 129.115 69.0656 129 69.0656C128.706 69.0656 128.546 69.1367 128.546 69.2789C128.546 69.3411 128.546 69.4389 128.564 69.5189C128.567 69.551 128.571 69.5835 128.574 69.6162C128.608 69.9289 128.644 70.271 128.644 70.5768V70.5769C128.644 70.6391 128.644 70.808 128.626 71.0479V71.3413C128.626 71.6702 128.653 71.7324 128.786 71.7324Z" fill="url(#paint0_linear)"/>
<g style="mix-blend-mode:darken">
<path fill-rule="evenodd" clip-rule="evenodd" d="M0 0H140V94H0V0Z"/>
</g>
<defs>
<linearGradient id="paint0_linear" x1="7" y1="21" x2="14.8229" y2="86.2851" gradientUnits="userSpaceOnUse">
<stop stop-color="#7EB7FE"/>
<stop offset="1" stop-color="#599EF4" stop-opacity="0.92"/>
</linearGradient>
</defs>
</svg>
