<svg width="140" height="94" viewBox="0 0 140 94" fill="none" preserveAspectRatio="xMidYMid meet" xmlns="http://www.w3.org/2000/svg">
<path fill-rule="evenodd" clip-rule="evenodd" d="M87.6639 58.989H114V34H87.6639V58.989ZM108.627 38.8066V42.125C108.627 42.125 105.411 40.134 101.856 40.0937C101.856 40.0937 95.2248 39.9634 94.9252 46.4944C94.9252 46.4944 94.6855 52.5025 101.776 52.8445C101.776 52.8445 104.752 53.2065 108.787 50.6121V54.0512C108.787 54.0512 103.374 57.289 97.1022 54.7952C97.1022 54.7952 91.8291 52.8549 91.6292 46.4944C91.6292 46.4944 91.4095 39.953 98.4404 37.7809C98.4404 37.7809 100.318 37.0569 103.694 37.3786C103.694 37.3786 105.711 37.5799 108.627 38.8066ZM52.3361 34.0002H26V58.9892H52.3361V34.0002ZM42.1895 45.9261C42.1895 45.9261 44.4864 44.9408 44.4665 42.3261C44.4665 42.3261 44.8157 38.0426 39.1784 37.5196H32.9216V55.479H40.0923C40.0923 55.479 46.0844 55.4993 46.0844 50.4109C46.0844 50.4109 46.2241 46.9518 42.1895 45.9261ZM39.453 52.7036C39.453 52.7036 42.8086 52.8645 42.8086 50.1495C42.8086 50.1495 42.9086 47.7764 39.453 47.7965H36.0974V52.7036H39.453ZM38.6542 40.315H36.0974V44.9607H38.2745C38.2745 44.9607 41.2106 44.9204 41.2106 42.4467C41.2106 42.4467 41.3106 40.4559 38.6542 40.315ZM82.957 34.0002H56.6209V58.9892H82.957V34.0002ZM72.8104 45.9261C72.8104 45.9261 75.1073 44.9408 75.0874 42.3261C75.0874 42.3261 75.4366 38.0426 69.7992 37.5196H63.5425V55.479H70.7131C70.7131 55.479 76.7053 55.4993 76.7053 50.4109C76.7053 50.4109 76.845 46.9518 72.8104 45.9261ZM70.0739 52.7036C70.0739 52.7036 73.4295 52.8645 73.4295 50.1495C73.4295 50.1495 73.5294 47.7764 70.0739 47.7965H66.7183V52.7036H70.0739ZM69.275 40.315H66.7183V44.9607H68.8954C68.8954 44.9607 71.8315 44.9204 71.8315 42.4467C71.8315 42.4467 71.9315 40.4559 69.275 40.315Z" fill="url(#paint0_linear)"/>
<g style="mix-blend-mode:darken">
<path fill-rule="evenodd" clip-rule="evenodd" d="M0 0H140V93.5223H0V0Z"/>
</g>
<defs>
<linearGradient id="paint0_linear" x1="26" y1="34" x2="28.7531" y2="66.2248" gradientUnits="userSpaceOnUse">
<stop stop-color="#7EB7FE"/>
<stop offset="1" stop-color="#599EF4" stop-opacity="0.92"/>
</linearGradient>
</defs>
</svg>
