<svg width="140" height="94" viewBox="0 0 140 94" fill="none" preserveAspectRatio="xMidYMid meet" xmlns="http://www.w3.org/2000/svg">
<g style="mix-blend-mode:darken">
<path fill-rule="evenodd" clip-rule="evenodd" d="M0 0H140V94H0V0Z" />
</g>
<path fill-rule="evenodd" clip-rule="evenodd" d="M16.192 34.5997L16.138 37.1912H16.6959V37.1552C16.7679 36.5973 16.9659 36.0754 17.2358 35.6075C17.5238 35.2656 17.9737 35.1036 18.4237 35.1576H20.4213V42.2844C20.4753 42.8783 20.4213 43.4722 20.2593 44.0481C20.1154 44.3181 19.8274 44.408 19.1795 44.408H18.6036V44.948H23.8408V44.408H23.2648C22.617 44.408 22.329 44.3181 22.185 44.0121C22.0231 43.4002 21.9691 42.7703 22.0231 42.1404V35.1576H23.8408C24.2727 35.1036 24.7226 35.1936 25.1005 35.4275C25.4065 35.6795 25.6585 36.1654 25.8204 37.1372V37.1912H26.3243L26.2524 34.5997H16.192ZM30.9496 44.426V44.9659H34.279V44.426H34.225H34.225C33.7031 44.426 33.4692 44.426 33.3612 44.2281C33.2172 43.7601 33.1812 43.2562 33.2352 42.7523V40.6287C33.2712 40.0348 33.0732 39.4589 32.6953 39.0089C32.2454 38.613 31.6695 38.415 31.0935 38.469C30.2117 38.523 29.4198 38.9549 28.8979 39.6568V34.4917H28.6999C28.0521 34.7077 27.3862 34.8156 26.7203 34.8156H26.6663V35.3555H26.7203C27.2242 35.3555 27.4582 35.4455 27.5661 35.6435C27.6921 35.9854 27.7281 36.3634 27.6921 36.7233V42.7343C27.7461 43.2382 27.7101 43.7422 27.5661 44.2281C27.4582 44.426 27.2062 44.426 26.6663 44.426H26.6663H26.6123V44.9659H29.8518V44.426H29.7978C29.2938 44.426 29.0959 44.408 28.9879 44.2101C28.8619 43.7421 28.8259 43.2382 28.8799 42.7523V40.4307C28.8799 40.3533 29.0131 40.2226 29.1306 40.1074C29.1496 40.0887 29.1683 40.0704 29.1859 40.0528C29.2285 40.0101 29.2692 39.9674 29.3091 39.9254C29.3871 39.8435 29.4625 39.7642 29.5458 39.6928C29.7618 39.4589 30.0317 39.2969 30.3197 39.1709C30.6796 39.0449 31.0935 39.0629 31.4355 39.2429C32.0114 39.5488 32.0114 40.3587 32.0114 40.8986V42.7523C32.0654 43.2382 32.0294 43.7422 31.8854 44.2281C31.7774 44.426 31.5435 44.426 31.0036 44.426H31.0036H30.9496ZM34.693 41.8705C34.657 42.8423 35.0529 43.7601 35.7728 44.408C36.3487 44.912 37.0866 45.2179 37.8604 45.2359C38.9942 45.3079 40.0381 44.624 40.434 43.5442V43.4722H39.8941V43.5082C39.5521 44.1921 38.8503 44.624 38.0764 44.624C37.3025 44.66 36.6006 44.1741 36.3667 43.4362C36.1867 42.8603 36.0967 42.2484 36.1147 41.6365V40.9526H40.434V40.8986C40.362 39.4949 39.1922 38.397 37.7884 38.433C36.9426 38.415 36.1327 38.793 35.5748 39.4229C34.9989 40.1068 34.675 40.9706 34.693 41.8705ZM39.0122 40.2147V40.4127H36.1507C36.2407 39.6028 36.9246 38.9729 37.7344 38.9549H37.8424C38.5083 38.9909 39.0302 39.5488 39.0122 40.2147ZM42.7556 44.2821V44.894V44.912H49.9904C52.762 44.912 55.8214 44.0481 55.8214 40.5567C55.8214 37.5692 53.1939 36.5433 50.5483 36.3994C51.5921 36.2554 54.9576 35.7335 54.9576 32.692C54.9576 28.8678 49.8166 28.9036 48.6048 28.912C48.5562 28.9123 48.514 28.9126 48.4787 28.9126C47.1289 28.9126 44.4473 29.0026 42.7556 29.0746V29.7045C42.827 29.7045 42.8965 29.7044 42.9641 29.7043C45.1451 29.7012 45.3652 29.7009 45.3652 33.0699V40.7007C45.3652 43.7421 45.3652 44.2821 43.3495 44.2821H42.7556ZM52.51 32.8C52.51 35.7515 50.6923 36.1654 47.6508 36.0934V29.6145C50.8363 29.3265 52.51 29.9384 52.51 32.8ZM49.5585 44.2461C47.6508 44.2461 47.6508 43.7961 47.6508 40.1607V36.7593C52.1861 36.5253 53.2659 37.9651 53.2659 40.5207C53.2659 41.8345 53.0679 44.2461 49.5585 44.2461ZM61.7245 44.2641C60.3207 44.2641 60.3207 44.0481 60.3207 41.6185V39.4409C60.3207 37.0113 61.9764 35.8595 62.6423 35.8595C63.0145 35.8595 63.1772 36.2085 63.3024 36.4769L63.3082 36.4894C63.3982 36.8853 63.7401 37.1912 64.1541 37.2092C64.604 37.2092 64.9459 36.8493 64.9459 36.3994C64.8559 35.5535 64.1361 34.9056 63.2722 34.9416C62.3724 34.9416 60.9506 35.6255 60.2127 37.3892C60.2307 36.5613 60.1227 35.7335 59.8708 34.9416L59.7088 34.9956C58.8269 35.2836 57.9271 35.4995 57.0092 35.6435V36.3094C57.6907 36.3094 58.0854 36.3062 58.3141 36.4995C58.629 36.7656 58.629 37.4044 58.629 38.9369V41.6365C58.629 43.1737 58.629 43.8177 58.3112 44.0875C58.0821 44.2821 57.6878 44.2821 57.0092 44.2821V44.894H62.0664V44.2641H61.7245ZM68.7584 42.1806C68.7598 42.0069 68.7613 41.8198 68.7613 41.6185L68.7433 34.9416H68.5093C67.5015 35.2656 66.4577 35.4635 65.3959 35.5715V36.2194C67.0876 36.2194 67.0876 36.2194 67.0876 38.847V42.5723C67.0876 44.2281 66.7636 44.2821 65.6838 44.2821H65.2699V44.894H70.435V44.2641H70.0751C68.7416 44.2641 68.7453 43.8086 68.7584 42.1806ZM68.8873 30.0644C68.9053 29.3985 68.3654 28.8406 67.6995 28.8226C66.9976 28.8406 66.4577 29.3985 66.4757 30.0824C66.4757 30.7663 67.0156 31.3062 67.6995 31.3242C68.3654 31.3062 68.9053 30.7303 68.8873 30.0644ZM75.7081 44.3181C74.2684 44.3181 74.2684 42.9683 74.2684 41.4925V36.2014L77.0759 36.1834V35.5355H74.2684V32.2961H73.7825C73.4405 34.6717 72.2887 35.4815 71.2089 35.5355V36.1834H72.5947V41.2586C72.5947 43.0043 72.6487 43.5082 72.9546 44.0841C73.3865 44.822 74.1784 45.2719 75.0423 45.2539C76.1041 45.2719 77.0759 44.66 77.5258 43.7062L77.0399 43.3642C76.806 43.9041 76.302 44.2641 75.7081 44.3181ZM81.4823 42.073C81.4837 41.8981 81.4852 41.7109 81.4852 41.5105V34.9416H81.2332C80.1714 35.2656 79.0916 35.4635 77.9938 35.5715V36.2194C79.6675 36.2194 79.8115 36.2194 79.8115 38.847V42.3744C79.8115 44.0481 79.4875 44.2821 78.4077 44.2821H77.9938V44.894H83.1589V44.2641H82.799C81.4648 44.2641 81.4692 43.7199 81.4823 42.073ZM81.5932 30.0644C81.6112 29.3985 81.0713 28.8406 80.4054 28.8226C79.7035 28.8406 79.1636 29.3985 79.1816 30.0824C79.1816 30.7663 79.7215 31.3062 80.4054 31.3242C81.0713 31.3062 81.6112 30.7303 81.5932 30.0644ZM85.0486 42.0504H84.5447L84.5267 45.2539H84.9766C85.0666 44.912 85.2286 44.606 85.4445 44.336C86.0564 45.0019 86.9203 45.3439 87.8201 45.3079C89.5298 45.3079 90.7177 44.2641 90.7177 42.4824C90.7177 40.3947 89.1339 39.6568 87.8561 39.0809C86.7583 38.577 85.6065 38.0371 85.6065 36.9573C85.6065 36.9303 85.611 36.9078 85.6155 36.8853C85.62 36.8628 85.6245 36.8403 85.6245 36.8133C85.7325 36.0574 86.4164 35.5175 87.1722 35.6075C88.72 35.6075 89.4219 37.1912 89.6198 38.0911H90.0878V35.1216H89.6558C89.5299 35.4275 89.3859 35.6975 89.2059 35.9674C88.702 35.3196 87.9281 34.9596 87.1182 34.9596C85.1026 34.9596 84.5627 36.4534 84.5627 37.6052C84.5627 39.3333 86.0794 40.0914 87.2273 40.6652L87.2622 40.6827C87.2893 40.696 87.3162 40.7092 87.3431 40.7225C88.5505 41.3168 89.5838 41.8255 89.5838 43.0403V43.2022C89.4939 44.0841 88.702 44.75 87.8201 44.66C86.1284 44.66 85.2826 43.2022 85.0486 42.0504ZM76.752 60.8213H76.2481L76.2301 63.9348H76.68C76.77 63.5928 76.9319 63.2689 77.1659 62.9809C77.7598 63.6828 78.6237 64.0788 79.5235 64.0608H79.7575C81.2872 64.0068 82.475 62.747 82.421 61.2352C82.421 59.1656 80.8193 58.4277 79.5595 57.8518C78.4617 57.3479 77.3099 56.808 77.3099 55.7282C77.3279 55.6922 77.3279 55.6382 77.3279 55.6022C77.4179 54.8283 78.1197 54.2884 78.8756 54.3784C80.4234 54.3784 81.1252 55.9621 81.3232 56.88H81.8091V53.9105H81.3772C81.2512 54.2164 81.1072 54.4864 80.9273 54.7563C80.4234 54.1084 79.6495 53.7305 78.8216 53.7305C76.842 53.7305 76.2301 55.1702 76.2661 56.376C76.32 58.1218 77.8138 58.8776 78.9656 59.4535C78.9926 59.4669 79.0196 59.4801 79.0465 59.4933C80.2539 60.0877 81.2872 60.5964 81.2872 61.8111V61.9731C81.1972 62.855 80.4054 63.5209 79.5235 63.4309C77.8318 63.4309 76.9859 61.9731 76.752 60.8213ZM103.19 44.2641C101.57 44.2641 101.57 44.1381 101.57 41.5105L101.516 38.2531C101.516 36.0754 100.436 34.9596 98.3124 34.9596C97.0706 34.9596 95.9908 35.5715 94.839 36.9213V28.8226H94.677C93.6872 29.1466 92.6433 29.3085 91.5995 29.3265V29.9744C93.1832 29.9744 93.1832 30.5143 93.1832 32.1881V41.5285C93.1832 44.1921 93.1832 44.2821 91.5095 44.2821V44.894H96.3687V44.2641C94.857 44.2641 94.857 44.0661 94.857 41.5105V37.8751C95.6128 36.8853 96.6927 35.8235 97.7725 35.7695C99.1762 35.6975 99.8601 36.4174 99.8601 38.631V41.5285C99.8601 44.1561 99.8601 44.2821 98.2404 44.2821V44.894H103.19V44.2641ZM64.0101 47.8455H59.1509L53.3199 60.8033L47.5788 47.8455H42.7736V48.4754H43.2055C45.2572 48.4754 45.2572 48.6013 45.2572 51.8048V59.7775C45.2572 62.459 44.2314 62.909 42.7736 63.0529V63.7008H48.4247V63.0709C46.661 62.909 45.9411 62.0991 45.9411 59.9395V49.4292L52.204 63.6648H52.744L59.0069 49.6812V59.4715C59.0069 62.513 59.0069 63.0529 56.9912 63.0529H56.4513V63.6648H64.0281V63.0349H63.3082C61.2925 63.0349 61.2925 62.513 61.2925 59.4535V51.8948C61.2925 48.6733 61.3285 48.4754 63.4162 48.4754H64.0101V47.8455ZM74.8803 63.0348C73.4225 63.0348 73.4225 62.8188 73.4225 60.2632V54.0723H70.0751V54.7022C71.7488 54.7022 71.7488 54.7921 71.7488 57.4557V59.6873V59.7593C71.8028 61.541 70.399 63.0528 68.6173 63.1068C66.7816 63.1068 66.7816 61.595 66.7816 60.6952V54.0903H63.5421V54.7202C65.1259 54.7202 65.1259 54.8641 65.1259 57.4737V60.8391C65.1259 61.847 65.3239 64.0426 68.0954 64.0426C69.6071 64.0066 71.0109 63.1788 71.7488 61.847C71.7128 62.6029 71.8568 63.3587 72.1627 64.0426H72.3247C73.1345 63.7547 74.0164 63.6287 74.8803 63.6647V63.0348ZM86.1464 58.4815C86.1464 58.0856 86.1644 57.8156 86.2004 57.4737H92.8773C92.7873 55.35 91.0056 53.6763 88.8819 53.7303C86.1824 53.7303 84.2207 55.9979 84.2207 58.9675C84.2207 62.4409 86.8663 64.0606 88.9719 64.0606C91.8514 64.0606 92.7873 61.865 92.8593 61.523H92.3193C91.7974 62.7288 90.5916 63.4847 89.2779 63.4307C86.2004 63.4307 86.1464 59.7053 86.1464 58.4815ZM90.8616 56.3939C90.8616 56.5558 90.8436 56.7178 90.8076 56.8798L86.2364 56.8618C86.3263 56.2499 86.6503 54.2342 88.7739 54.2342C88.8339 54.2222 88.8939 54.2262 88.9539 54.2302C88.9839 54.2322 89.0139 54.2342 89.0439 54.2342C90.1417 54.3242 90.9516 55.2961 90.8616 56.3939ZM104.899 63.0528C103.441 63.0528 103.441 62.8368 103.441 60.2812L103.423 54.1083H100.076V54.7382C101.75 54.7382 101.75 54.8281 101.75 57.4917V59.7233C101.822 61.523 100.436 63.0528 98.6363 63.1428C96.8006 63.1428 96.8006 61.631 96.8006 60.7312V54.2162L93.5611 54.1083V54.7382C95.1449 54.7382 95.1449 54.8821 95.1449 57.4917V60.8571C95.1449 61.865 95.3428 64.0606 98.1144 64.0606C99.6441 63.9886 101.048 63.1068 101.768 61.757C101.732 62.5489 101.876 63.3407 102.182 64.0606H102.344C103.154 63.7727 104.035 63.6467 104.899 63.6827V63.0528ZM109.183 56.6998C109.65 55.9799 110.64 54.6482 112.26 54.6482V54.6662C114.242 54.6662 114.22 56.347 114.206 57.4248C114.205 57.5114 114.204 57.5941 114.204 57.6717V60.3172C114.204 62.8728 114.204 63.0708 112.62 63.0708V63.7007H117.443V63.0708C115.859 63.0708 115.859 62.8908 115.859 60.3172V56.7178C116.327 55.9979 117.317 54.6662 118.937 54.6662C120.863 54.6662 120.863 56.2679 120.863 57.5277V60.3172C120.863 62.9448 120.863 63.0708 119.243 63.0708V63.7007H124.138V63.0708C122.554 63.0708 122.554 62.8728 122.554 60.3172V56.8438C122.554 54.8821 121.672 53.7303 119.567 53.7303C118.127 53.7303 116.939 54.4862 115.787 55.818C115.661 55.0441 115.05 53.7303 112.89 53.7303C111.432 53.7303 110.19 54.5222 109.183 55.71C109.165 55.0441 109.057 54.3782 108.877 53.7303H108.571C107.707 53.9643 106.825 54.1443 105.943 54.2702V54.9001C107.527 54.9001 107.527 55.0441 107.527 57.6537V60.2992C107.527 62.9088 107.527 63.0528 105.943 63.0528V63.6827H110.766V63.0528C109.183 63.0528 109.183 62.8728 109.183 60.2992V56.6998Z" fill="url(#paint0_linear)"/>
<defs>
<linearGradient id="paint0_linear" x1="16.138" y1="28.8226" x2="20.5884" y2="74.1593" gradientUnits="userSpaceOnUse">
<stop stop-color="#7EB7FE"/>
<stop offset="1" stop-color="#599EF4" stop-opacity="0.92"/>
</linearGradient>
</defs>
</svg>
