<svg width="248" height="62" viewBox="0 0 248 62" preserveAspectRatio="xMidYMid meet" fill="none" xmlns="http://www.w3.org/2000/svg">
<g opacity="0.8">
<path d="M230.921 22.8323C223.919 29.79 208.748 35.7624 201.284 38.5587C191.087 42.3883 186.562 43.7434 180.856 45.5999C174.398 47.6946 161.48 51.6027 161.48 51.6027C188.242 59.5913 207.101 62 207.101 62C207.101 62 215.887 59.2848 229.807 51.8433C237.344 48.0137 241.053 45.4353 243.706 42.9708C244.684 42.0869 247.21 39.4578 247.838 36.0942C247.878 35.8485 248 35.2052 248 34.572C248 34.572 248 34.1262 247.959 33.7387C247.944 33.2929 247.866 32.994 247.866 32.994C247.866 32.994 247.716 32.1962 247.519 31.6364C247.313 31.0767 246.452 29.3493 245.056 28.2273C244.124 27.4699 242.512 25.583 236.675 23.5314C234.691 22.8425 231.479 22.2067 231.479 22.2067L230.921 22.8323Z" fill="url(#paint0_linear_801_16)" fill-opacity="0.52"/>
<path d="M247.997 34.3948C247.997 34.3948 247.957 33.6502 247.774 33.0195C247.633 32.4572 247.382 31.9202 247.004 31.3554C246.548 30.6842 245.933 29.8965 245.023 29.0252C244.336 28.3768 243.584 27.8044 242.677 27.1965C239.026 24.8055 234.314 23.4581 230.144 22.8882C223.68 22.0295 216.267 22.1815 215.566 22.1562C213.182 22.1233 197.778 22.2499 193.818 22.3208C176.233 22.683 154.705 22.7311 149.065 22.7311C90.8474 22.9971 65.507 21.7433 37.3037 16.0901C13.3112 11.3258 0 6.79965 0 6.79965C21.1626 6.06767 144.642 0.946291 167.168 0.348544C181.915 -0.0668397 192.386 -0.155489 200.765 0.328281C205.062 0.5689 209.059 0.933627 214.081 1.78719C218.583 2.55717 222.672 3.86411 225.054 4.74806C230.07 6.60463 234.299 9.28942 236.389 12.0401C236.389 12.0401 237.007 12.6733 237.845 13.7979C238.785 15.1048 239.877 16.7131 240.247 17.3134C243.3 21.9384 244.749 24.8435 245.254 25.8566C245.798 26.9204 246.28 28.0247 246.748 29.1063C247.207 30.1802 247.394 30.8311 247.541 31.2845C247.863 32.4217 247.942 33.4577 247.957 33.6907L247.997 34.3948Z" fill="url(#paint1_linear_801_16)"/>
</g>
<defs>
<linearGradient id="paint0_linear_801_16" x1="161.48" y1="30.9978" x2="178.264" y2="78.7597" gradientUnits="userSpaceOnUse">
<stop stop-color="#447EC6"/>
<stop offset="0.588542" stop-color="#285D9D" stop-opacity="0.5"/>
<stop offset="1" stop-color="#194173" stop-opacity="0"/>
</linearGradient>
<linearGradient id="paint1_linear_801_16" x1="5.94921e-06" y1="7.59848" x2="2.03577" y2="55.5789" gradientUnits="userSpaceOnUse">
<stop stop-color="#447EC6"/>
<stop offset="0.697917" stop-color="#285D9D" stop-opacity="0.5"/>
<stop offset="1" stop-color="#194173" stop-opacity="0"/>
</linearGradient>
</defs>
</svg>
