<svg width="140" height="94" viewBox="0 0 140 94" fill="none" preserveAspectRatio="xMidYMid meet" xmlns="http://www.w3.org/2000/svg">
<g style="mix-blend-mode:darken">
<path fill-rule="evenodd" clip-rule="evenodd" d="M0 0H140V93.5223H0V0Z" />
</g>
<path fill-rule="evenodd" clip-rule="evenodd" d="M22 58.7407H108.298L118 34H22V58.7407ZM38.7394 48.1863C38.1315 48.4715 36.6665 48.9035 35.5063 48.897C32.3752 48.8822 31.4264 46.9802 31.7678 45.1312C32.3315 42.0838 35.2828 39.7841 38.7727 39.8C39.8461 39.8043 40.8118 40.0152 41.6705 40.3724L42.6958 38.3945C41.8388 38.0001 40.6218 37.7499 39.4878 37.7456C33.9129 37.7188 28.7963 40.8711 28.037 45.1017C27.3679 48.8353 30.4776 50.9333 34.4389 50.9514C35.5063 50.9557 36.6856 50.7919 37.665 50.5685L38.7394 48.1863ZM52.3926 50.9552L57.4426 38.0963L60.7549 38.1116L55.7034 50.9705L52.3926 50.9552ZM39.8505 46.694C40.5437 43.3112 44.245 41.3218 47.6027 41.3355C50.7823 41.3513 53.1798 42.8911 52.5439 45.6098C51.8813 48.4409 49.0393 51.212 44.3924 51.1355C42.3266 51.1011 39.1114 50.3079 39.8505 46.694ZM43.5605 48.9161C43.8976 49.3121 44.4728 49.5159 45.2763 49.5197C45.7706 49.5235 48.2844 49.322 49.1496 45.1782C49.2977 44.4648 49.1988 43.8574 48.8689 43.4707C48.5832 43.1315 48.1336 42.9589 47.5289 42.9561C45.0266 42.9441 43.6223 45.329 43.2891 46.9349C43.1044 47.8176 43.1962 48.483 43.5605 48.9161ZM75.729 41.7757L75.9721 41.738C77.1031 41.562 78.2448 41.3842 80.3184 41.3939C83.8881 41.4109 86.0758 42.6027 85.0439 45.2667C84.7301 46.062 84.412 46.8859 84.1153 47.6546C83.9844 47.9936 83.8577 48.3218 83.7373 48.6321C83.1856 50.0485 83.3003 50.5936 83.4118 51.0973L79.9251 51.0814C79.9137 50.9034 79.9153 50.6728 79.9366 50.4199C79.4608 50.7127 77.7118 51.259 76.0103 51.2502C73.2359 51.2376 72.2248 49.8546 72.3417 48.4027C72.4439 47.1267 73.1605 46.0173 74.7528 45.3951C75.8021 44.9794 76.8509 44.8445 77.9379 44.7647C79.6132 44.6413 81.1056 44.72 81.9173 44.7828C82.0653 44.307 82.2789 43.3336 79.9251 43.3079C77.4021 43.279 75.6771 43.7105 74.8817 43.9541L75.729 41.7757ZM78.3099 46.5521C76.5516 46.7258 75.8999 47.1792 75.7486 48.0209C75.6252 48.6961 76.0594 49.327 77.6949 49.2647C78.648 49.2275 79.6875 49.0014 80.4157 48.6371L81.241 46.5188C80.0218 46.4417 79.1948 46.4663 78.3099 46.5521ZM69.545 42.2237L69.7559 41.6518L73.0644 41.6671L69.8449 50.0267C68.5831 53.2992 65.5821 54.9488 60.9248 54.9259C59.9318 54.9232 58.6891 54.774 57.8605 54.5452L58.6995 52.5683C59.5014 52.9572 60.5135 52.9999 61.4399 53.0102C63.3387 53.031 65.8492 52.3067 67.0072 49.9677C65.587 50.8903 64.1105 51.2044 62.4964 51.1279C61.4044 51.0738 60.4835 50.8089 59.8793 50.1392C59.2954 49.4947 59.0119 48.5819 59.1643 47.561C59.6472 44.3283 62.9355 41.4103 66.9192 41.43C67.749 41.4327 68.8786 41.6163 69.545 42.2237ZM63.053 46.0086C62.3642 47.4764 62.1812 49.3554 64.1181 49.3653C64.9053 49.368 67.5714 48.9813 68.9075 43.875C68.352 43.3414 67.6583 43.2119 66.822 43.2398C65.7022 43.2753 63.9346 44.1296 63.053 46.0086ZM93.1665 38.7108L92.1106 41.4726L94.4294 41.4819L93.829 43.0239L91.5108 43.013C91.2432 43.6668 89.6924 47.4227 89.6924 47.4227C89.3849 48.1776 89.3259 48.7304 89.5356 49.0079C89.6809 49.2002 89.9142 49.2887 90.3096 49.2761C90.8684 49.2586 91.5578 49.0827 91.9833 48.9112V48.9145L91.2284 50.7176C90.4648 50.9137 89.4897 51.0574 88.772 51.0552C87.4872 51.0486 86.6635 50.7635 86.2506 50.1878C85.83 49.5989 85.8573 48.7474 86.3396 47.5817L88.2176 42.9977L86.6717 42.9906L87.242 41.4496L88.7977 41.4573L89.6329 39.3013L93.1665 38.7108ZM102.871 49.0451C101.946 49.493 100.338 49.7284 99.2685 49.723C98.3333 49.7191 97.5697 49.4051 97.1217 48.8353C96.7115 48.317 96.611 47.6271 96.8202 46.8831L104.426 46.9197L104.466 46.8186C105.072 45.1652 105.001 43.7242 104.273 42.7666C103.608 41.8894 102.444 41.4387 100.825 41.4311C97.2212 41.4142 94.1448 43.4096 93.3341 46.2795C92.9272 47.7303 93.1304 49.0079 93.9197 49.966C94.791 51.0307 96.3221 51.6157 98.2339 51.6244C99.3362 51.6293 100.666 51.4392 101.871 51.0853L102.871 49.0451ZM100.373 43.1107C100.975 43.114 101.393 43.2691 101.626 43.5739C101.897 43.9339 101.907 44.5195 101.656 45.2635L97.3326 45.2427C97.6658 44.218 98.6327 43.1036 100.373 43.1107Z" fill="url(#paint0_linear)"/>
<defs>
<linearGradient id="paint0_linear" x1="22" y1="34" x2="24.4768" y2="65.945" gradientUnits="userSpaceOnUse">
<stop stop-color="#7EB7FE"/>
<stop offset="1" stop-color="#599EF4" stop-opacity="0.92"/>
</linearGradient>
</defs>
</svg>
