<svg width="140" height="94" viewBox="0 0 140 94" fill="none" preserveAspectRatio="xMidYMid meet" xmlns="http://www.w3.org/2000/svg">
<g style="mix-blend-mode:darken">
<path fill-rule="evenodd" clip-rule="evenodd" d="M0 0H140V94H0V0Z" />
</g>
<path fill-rule="evenodd" clip-rule="evenodd" d="M48.112 71H91.888C93.0496 71 94 70.0496 94 68.888V25.112C94 23.9504 93.0496 23 91.888 23H48.112C46.9504 23 46 23.9504 46 25.112V68.888C46 70.0496 46.9504 71 48.112 71ZM55.1968 44.408C54.4 44.408 54.2656 43.736 54.2656 42.6896V38.5136C54.2656 37.4672 54.3904 36.7952 55.1968 36.7952C55.9936 36.7952 56.128 37.4672 56.128 38.5136V39.7808H58.7968V39.2432C58.7968 36.4976 57.9232 34.5776 55.2544 34.5776C52.5184 34.5776 51.4528 36.4208 51.4528 39.8V41.4032C51.4528 44.7824 52.5088 46.6256 55.2544 46.6256C57.9232 46.6256 58.7968 44.7056 58.7968 41.96V41.4224H56.128V42.6896C56.128 43.736 56.0032 44.408 55.1968 44.408ZM66.9183 41.3264C66.9183 44.7056 65.8527 46.6256 63.1167 46.6256C60.3711 46.6256 59.3151 44.7056 59.3151 41.3264V39.8672C59.3151 36.488 60.3807 34.568 63.1167 34.568C65.8623 34.568 66.9183 36.488 66.9183 39.8672V41.3264ZM62.1471 42.6512C62.1471 43.6976 62.3103 44.408 63.1167 44.408C63.9231 44.408 64.0863 43.6976 64.0863 42.6512V38.552C64.0863 37.5056 63.9231 36.7952 63.1167 36.7952C62.3103 36.7952 62.1471 37.5056 62.1471 38.552V42.6512ZM72.3424 40.6928H72.2656L71.008 34.7216H67.4848V46.472H69.8944V39.7808H69.9712L71.296 46.472H73.0144L74.3008 39.7808H74.3776V46.472H76.912V34.7216H73.4656L72.3424 40.6928ZM80.512 34.7216V46.472H77.7664V34.7216H80.512ZM84.928 44.408C84.1312 44.408 83.9968 43.736 83.9968 42.6896V38.5136C83.9968 37.4672 84.1216 36.7952 84.928 36.7952C85.7248 36.7952 85.8592 37.4672 85.8592 38.5136V39.7808H88.528V39.2432C88.528 36.4976 87.6544 34.5776 84.9856 34.5776C82.2496 34.5776 81.184 36.4208 81.184 39.8V41.4032C81.184 44.7824 82.24 46.6256 84.9856 46.6256C87.6544 46.6256 88.528 44.7056 88.528 41.96V41.4224H85.8592V42.6896C85.8592 43.736 85.7344 44.408 84.928 44.408ZM55.9007 56.9607L55.9007 56.9607L55.888 56.7249C55.8304 55.6017 55.552 55.0257 54.6976 55.0257H54.3424V59.2785H51.6352V47.5281H55.0144C57.6448 47.5281 58.816 48.9105 58.816 50.9937C58.816 52.8369 57.9808 53.7585 56.7808 53.9601C58.0096 54.2385 58.4224 55.1121 58.5184 56.5905C58.536 56.8748 58.5498 57.1269 58.5621 57.3525C58.6167 58.3534 58.6428 58.8319 58.8544 59.2785H56.1472C56.0023 58.853 55.9685 58.2226 55.9007 56.9607ZM54.6016 52.8657C55.7056 52.8657 56.128 52.5105 56.128 51.3201C56.128 50.2545 55.696 49.7361 54.6016 49.7361H54.3424V52.8657H54.6016ZM59.4304 59.2785H65.3824V57.0225H62.1184V54.4305H64.5472V52.1937H62.1184V49.7841H65.3824V47.5281H59.4304V59.2785ZM68.7616 47.5281V57.0225H71.9296V59.2785H66.016V47.5281H68.7616ZM75.1936 59.2785V47.5281H72.448V59.2785H75.1936ZM81.9808 59.2785H76.0288V47.5281H81.9808V49.7841H78.7168V52.1937H81.1456V54.4305H78.7168V57.0225H81.9808V59.2785ZM82.624 47.5281V59.2785H85.36V54.7281H87.5392V52.5105H85.36V49.7841H88.3456V47.5281H82.624Z" fill="url(#paint0_linear)"/>
<defs>
<linearGradient id="paint0_linear" x1="46" y1="23" x2="63.2011" y2="80.1749" gradientUnits="userSpaceOnUse">
<stop stop-color="#7EB7FE"/>
<stop offset="1" stop-color="#599EF4" stop-opacity="0.92"/>
</linearGradient>
</defs>
</svg>
