<svg width="140" height="94" viewBox="0 0 140 94" fill="none" preserveAspectRatio="xMidYMid meet" xmlns="http://www.w3.org/2000/svg">
<path fill-rule="evenodd" clip-rule="evenodd" d="M38.9218 43.4079L38.2451 44.0767C37.1704 45.1391 36.1266 46.1708 35.0539 47.2336C35.017 47.2183 34.9759 47.2036 34.9325 47.188L34.9325 47.188C34.8303 47.1514 34.7153 47.1102 34.6137 47.0467C32.832 45.9523 30.9146 46.8598 30.3237 48.3641C29.7268 49.8745 30.3629 51.7015 32.214 52.2833L32.2197 52.2851C32.8622 52.4883 32.8682 52.4902 32.8712 53.1335C32.8742 54.5203 32.8772 55.9071 32.8682 57.2938C32.8652 57.8876 32.8504 57.8878 32.2451 57.8965L32.226 57.8968C31.3517 57.9058 30.5136 57.6707 29.7449 57.321C28.2706 56.6517 26.9411 55.7623 26.103 54.3062C25.9875 54.1045 25.8558 53.9131 25.7081 53.6983L25.7081 53.6982L25.7078 53.6979L25.7078 53.6978C25.6436 53.6045 25.5764 53.5067 25.5061 53.4018C25.4438 53.4804 25.3806 53.5551 25.3185 53.6283L25.3185 53.6283L25.3185 53.6283L25.3185 53.6283L25.3185 53.6284L25.3185 53.6284L25.3184 53.6284L25.3184 53.6284L25.3184 53.6284L25.3184 53.6285C25.1855 53.7854 25.0581 53.9357 24.9574 54.1042C23.9776 55.7473 22.5094 56.7904 20.7669 57.4808C20.2906 57.6707 19.7751 57.8244 19.2686 57.8636C17.1522 58.0264 15.0781 57.9179 13.2873 56.5582C13.0291 56.3589 12.7793 56.1488 12.5078 55.9205L12.5077 55.9204L12.5077 55.9204L12.5076 55.9203L12.5073 55.9201C12.3478 55.7859 12.1807 55.6454 12 55.497C12.7173 54.7714 13.4159 54.0644 14.1145 53.3574L15.7986 51.6532C15.8908 51.7003 15.986 51.7439 16.0814 51.7876L16.0814 51.7877C16.2791 51.8782 16.4779 51.9694 16.6548 52.0934C18.1803 53.1666 20.1609 51.7768 20.6855 50.5106C21.3277 48.9701 19.9982 46.5191 17.9994 46.5613C17.9982 46.3292 17.996 46.0967 17.9938 45.8638V45.8638V45.8637V45.8637V45.8637V45.8636V45.8636V45.8636V45.8635V45.8635C17.9906 45.5127 17.9873 45.1612 17.9873 44.8097C17.9843 43.7606 17.9813 42.7115 17.9903 41.6623C17.9964 41.0262 18.0084 41.0262 18.5963 41.0322C20.0675 41.0473 21.3457 41.6261 22.5697 42.3708C23.5465 42.9677 24.2791 43.8088 24.9152 44.7404C25.0291 44.9054 25.1477 45.0681 25.2733 45.2404L25.2735 45.2406L25.2736 45.2408L25.2736 45.2408C25.3475 45.3422 25.4239 45.4469 25.5031 45.5574C28.5782 39.9349 35.5151 39.8776 38.9218 43.4079ZM65.3401 45.693C65.919 45.1594 66.6998 45.0689 67.553 45.0298C69.389 44.9423 70.209 46.1814 70.5346 47.6013C70.8366 48.9201 70.7948 50.2618 70.7533 51.596L70.7532 51.5986L70.7532 51.6013L70.7531 51.604C70.7495 51.719 70.7459 51.8338 70.7426 51.9486C70.7155 52.838 70.4652 53.7123 70.0582 54.5082C69.7899 55.0357 69.3739 55.4518 68.7528 55.6538C67.5439 56.0487 66.4194 55.9824 65.2798 55.1473C65.2644 55.2367 65.2473 55.318 65.2312 55.394L65.2312 55.3942L65.2311 55.3943L65.2311 55.3944L65.2311 55.3945L65.2311 55.3945C65.2001 55.5414 65.1733 55.6684 65.1713 55.7955C65.1623 56.6939 65.1532 57.5953 65.1713 58.4937C65.1804 58.8946 65.0145 59.0212 64.6377 58.9971C64.146 58.9634 63.6544 58.9399 63.1627 58.9165C62.9519 58.9065 62.7412 58.8964 62.5304 58.8856C62.5237 58.6872 62.5153 58.4885 62.5069 58.2896V58.2896V58.2896V58.2895V58.2895V58.2894V58.2894V58.2893V58.2893V58.2892C62.4885 57.8568 62.4701 57.4238 62.4701 56.9923C62.4656 54.2966 62.4661 51.6009 62.4667 48.9052V48.8991C62.4669 48.0002 62.4671 47.1014 62.4671 46.2025C62.4671 46.1285 62.4644 46.0541 62.4618 45.9796C62.4551 45.7901 62.4484 45.6005 62.4852 45.4187C62.5123 45.283 62.6872 45.084 62.8047 45.078C63.48 45.0478 64.1584 45.0328 64.8306 45.0931C64.9334 45.101 65.0244 45.2383 65.1378 45.4093L65.1378 45.4093C65.1974 45.4992 65.2632 45.5984 65.3401 45.693ZM65.0779 50.5226C65.1044 50.7497 65.1332 50.9809 65.1623 51.2151C65.2226 51.699 65.2844 52.1955 65.3311 52.6933C65.3703 53.1033 65.5693 53.4138 65.9069 53.6037C66.8505 54.1343 67.7308 53.5977 67.8936 52.4732C68.0986 51.0593 68.0956 49.6604 67.8816 48.2495C67.764 47.4777 67.2666 46.9321 66.6033 46.9381C65.9763 46.9441 65.4517 47.4144 65.3432 48.138C65.2661 48.6711 65.2121 49.2086 65.1562 49.7643L65.1562 49.7644L65.1562 49.7645L65.1562 49.7646L65.1562 49.7647L65.1561 49.7649L65.1561 49.765L65.1561 49.7652L65.1561 49.7653L65.1561 49.7655L65.1561 49.7656L65.156 49.7657V49.7657V49.7658C65.1311 50.014 65.1058 50.2659 65.0779 50.5226ZM79.7878 51.3286L79.7878 51.3192C79.7873 51.1081 79.7868 50.8969 79.7868 50.6855C79.814 50.6855 79.8381 50.6825 79.8682 50.6764C79.8417 50.3391 79.8199 50.0012 79.7981 49.6633L79.7981 49.6628L79.7981 49.6623C79.748 48.8864 79.6979 48.1106 79.5909 47.3421C79.413 46.085 78.5508 45.271 77.3147 45.072C76.5852 44.9574 75.8737 44.8972 75.1109 45.0177C74.0648 45.1836 73.293 45.678 72.6871 46.4678C72.5268 46.6795 72.4352 46.9429 72.3434 47.2066C72.3006 47.3298 72.2577 47.4531 72.2077 47.5712C72.2932 47.6153 72.3787 47.6603 72.4644 47.7052C72.6657 47.811 72.8678 47.9171 73.073 48.0144C73.1574 48.0541 73.2452 48.1047 73.3336 48.1556C73.5606 48.2865 73.7916 48.4196 73.9804 48.3762C74.1546 48.337 74.2879 48.1076 74.4189 47.882L74.4189 47.882C74.4693 47.7952 74.5194 47.7091 74.5713 47.6346C75.0657 46.9291 76.0576 46.6849 76.7359 47.113C77.2454 47.4326 77.3057 48.0626 76.8173 48.4244C76.5249 48.6415 76.1631 48.8706 75.8194 48.8917C75.2372 48.9294 74.7343 49.1675 74.2413 49.4011C74.1421 49.4481 74.0432 49.4949 73.9442 49.5399C73.3835 49.7961 72.7986 50.167 72.4308 50.6463C71.451 51.9215 71.5264 53.3385 72.1806 54.7434C72.4278 55.277 72.8951 55.6809 73.4408 55.7865C74.511 55.9945 75.6325 56.0849 76.5852 55.4096C77.1248 55.0267 77.4444 54.885 77.8966 55.5272C78.1302 55.8589 78.6454 55.865 79.0883 55.8701L79.1477 55.8709C80.7335 55.889 80.8661 55.7563 80.6732 54.2188C80.6551 54.0831 80.4953 53.8841 80.3717 53.86C79.826 53.7515 79.7778 53.3777 79.7838 52.9345C79.7903 52.3992 79.789 51.8655 79.7878 51.3312V51.3308V51.3305V51.3302V51.3299V51.3296V51.3293V51.329V51.3286ZM76.6845 50.622L76.6846 50.622L76.6874 50.621L76.6921 50.6194C76.8223 50.5738 76.9658 50.5236 77.1308 50.4654C77.1308 50.6739 77.1333 50.8723 77.1356 51.0636V51.0638V51.0639V51.064V51.0642V51.0643V51.0644V51.0645V51.0646C77.1407 51.4732 77.1453 51.8495 77.1248 52.223C77.0434 53.6611 76.0214 53.8058 75.0024 53.6249C74.8788 53.6038 74.7462 53.4621 74.6768 53.3415C74.2939 52.6662 74.6316 51.5176 75.337 51.1226C75.5197 51.0226 75.7211 50.9555 75.9221 50.8886L75.9222 50.8886L75.9223 50.8885L75.9223 50.8885L75.9224 50.8885L75.9225 50.8885L75.9225 50.8885L75.9226 50.8884C76.0002 50.8626 76.0777 50.8368 76.154 50.8091C76.3201 50.7495 76.4872 50.6911 76.6845 50.622ZM97.4835 45.9826C98.1437 45.458 98.7466 45.0902 99.5395 45.0028C101.475 44.7827 102.587 45.7052 102.786 47.4477C102.841 47.9271 102.835 48.4134 102.829 48.8987V48.8987V48.8988V48.8989V48.899V48.899V48.8991V48.8992C102.827 49.0517 102.826 49.204 102.826 49.3561C102.827 50.0998 102.827 50.8435 102.826 51.5873C102.826 52.8273 102.826 54.0672 102.832 55.3072C102.835 55.666 102.75 55.868 102.334 55.8499C101.773 55.8257 101.207 55.8227 100.646 55.8499C100.245 55.871 100.13 55.7172 100.133 55.3343C100.144 54.0825 100.143 52.8306 100.141 51.5787C100.14 51.1092 100.139 50.6396 100.139 50.1701V48.3733C100.139 47.8065 99.9465 47.3513 99.3828 47.1402C98.828 46.9322 98.3306 47.095 97.8784 47.5924C97.5076 48.0024 97.387 48.4818 97.393 49.0275C97.404 50.3885 97.4022 51.7495 97.4004 53.1093V53.1113V53.1118V53.1123V53.1128V53.1132C97.3997 53.6227 97.399 54.1319 97.399 54.6409C97.399 54.7095 97.3979 54.7783 97.3968 54.8472C97.3942 55.0027 97.3916 55.1587 97.4021 55.3132C97.4292 55.672 97.3388 55.874 96.9107 55.8499C96.3499 55.8167 95.7831 55.8167 95.2224 55.8499C94.7883 55.874 94.734 55.6569 94.734 55.3042C94.7385 53.6943 94.7385 52.0844 94.7385 50.4749C94.7385 48.8654 94.7385 47.2563 94.743 45.6479C94.743 45.0842 94.7611 45.0781 95.2948 45.0631C95.6488 45.0527 96.0028 45.0557 96.3568 45.0586L96.5338 45.06C96.9079 45.0629 97.1055 45.0644 97.2263 45.1615C97.3616 45.2701 97.4007 45.4985 97.4835 45.9826ZM108.688 50.9036C108.902 50.9031 109.117 50.9026 109.331 50.9026C109.593 50.9026 109.856 50.9023 110.118 50.902H110.118H110.119C110.644 50.9013 111.17 50.9006 111.695 50.9026C111.912 50.9026 112.042 50.8333 112.057 50.5921C112.132 49.3169 112.075 48.0537 111.487 46.89C111.056 46.0398 110.42 45.3193 109.446 45.1234C108.698 44.9756 107.948 44.8852 107.14 45.0299C105.635 45.3012 104.713 46.1725 104.246 47.5171C103.631 49.2837 103.655 51.587 104.237 53.423C104.499 54.252 104.969 54.9967 105.777 55.4097C106.992 56.0307 108.291 56.0639 109.585 55.7051C110.999 55.3102 111.632 54.1797 112.018 52.8894C112.177 52.3588 111.975 52.1387 111.412 52.0905C111.332 52.0839 111.25 52.083 111.168 52.0822C111.062 52.0811 110.955 52.08 110.851 52.0663C110.557 52.0281 110.267 51.9846 109.976 51.941C109.831 51.9193 109.685 51.8975 109.539 51.8764C109.494 52.0279 109.45 52.1805 109.406 52.3332L109.406 52.3334L109.406 52.3336L109.406 52.3339L109.406 52.3341C109.32 52.6337 109.234 52.9337 109.132 53.227C108.973 53.6822 108.481 54.0259 108.038 54.0289C107.643 54.032 107.01 53.64 106.914 53.224C106.808 52.774 106.751 52.3107 106.694 51.8477L106.694 51.8476L106.694 51.8475L106.694 51.8474L106.694 51.8473L106.694 51.8471L106.694 51.847C106.675 51.6867 106.655 51.5265 106.633 51.3669C106.588 51.0353 106.745 50.8966 107.079 50.8996C107.616 50.9061 108.152 50.9049 108.688 50.9036ZM108.017 49.1481V49.1511C108.004 49.1511 107.99 49.1521 107.977 49.1531C107.95 49.1551 107.924 49.1571 107.902 49.1511C107.76 49.0979 107.576 49.1272 107.394 49.1563C107.038 49.213 106.688 49.2688 106.666 48.7109C106.618 47.4688 107.399 46.676 108.328 46.8568C108.563 46.9021 108.813 47.0709 108.967 47.2548C109.344 47.704 109.452 48.2587 109.38 48.8285C109.365 48.9461 109.16 49.1149 109.027 49.133C108.79 49.1653 108.549 49.1591 108.307 49.153C108.21 49.1505 108.114 49.1481 108.017 49.1481ZM60.7493 55.8426H60.7489H60.7489H60.7488H60.7487H60.7486H60.7486C60.1233 55.8414 59.573 55.8403 59.0242 55.8467C58.7348 55.8497 58.5267 55.7683 58.3911 55.4879C58.0231 54.7288 57.6441 53.974 57.2523 53.1937L57.2522 53.1935L57.0495 52.7897C56.9497 53.0165 56.8474 53.2448 56.7445 53.4744L56.7444 53.4747C56.5054 54.008 56.2629 54.5491 56.0396 55.099C55.8165 55.6567 55.4848 55.913 54.8457 55.8557C54.3367 55.8121 53.8219 55.8214 53.2698 55.8314C53.0209 55.836 52.7643 55.8406 52.4972 55.8406C52.645 55.5513 52.7873 55.2709 52.9262 54.9969L52.9265 54.9964C53.261 54.3371 53.5763 53.7156 53.9021 53.1002C53.9559 52.9975 54.0095 52.8945 54.0631 52.7916C54.3696 52.2026 54.6764 51.613 55.0357 51.0562C55.4035 50.4864 55.3854 50.0161 55.0417 49.4252C54.4584 48.415 53.9185 47.3822 53.3669 46.327L53.3668 46.3268L53.3668 46.3267L53.3667 46.3266C53.1628 45.9365 52.9573 45.5434 52.7475 45.1473C53.085 45.0355 53.4073 45.0448 53.7207 45.0539C53.8468 45.0575 53.9714 45.0612 54.0951 45.0568C54.5442 45.0418 54.9995 45.0327 55.4457 45.0689C55.5904 45.081 55.7833 45.2257 55.8496 45.3583C56.1169 45.9124 56.3685 46.4727 56.6315 47.0585L56.6323 47.0603C56.734 47.2867 56.8374 47.5169 56.944 47.752C56.9835 47.6862 57.023 47.6233 57.0617 47.562L57.0618 47.5618L57.0618 47.5617L57.0619 47.5616L57.0619 47.5616C57.1381 47.4406 57.2106 47.3253 57.2726 47.2033C57.5444 46.6644 57.8108 46.1236 58.0773 45.5825L58.3067 45.1171C58.5366 45.1109 58.7668 45.1035 58.9971 45.096C59.5519 45.0779 60.1073 45.0598 60.6612 45.0598C61.1074 45.0598 61.2038 45.2166 60.9988 45.6236L60.7735 46.0643L60.7735 46.0644L60.7734 46.0644L60.7734 46.0645L60.7734 46.0645L60.7734 46.0645C60.2045 47.1779 59.636 48.2904 59.0182 49.377C58.6654 49.995 58.6805 50.4683 59.0513 51.0954C59.6698 52.156 60.2389 53.2466 60.8336 54.3862C61.0823 54.863 61.3356 55.3483 61.5988 55.8436C61.2985 55.8436 61.0177 55.8431 60.7505 55.8426H60.7501H60.7497H60.7493ZM123.176 55.8723C123.276 55.8716 123.376 55.8709 123.477 55.8709C123.477 55.8739 123.477 55.877 123.471 55.886C123.567 55.886 123.664 55.8885 123.76 55.8909C123.965 55.8962 124.169 55.9014 124.372 55.883C127.384 55.6177 128.038 52.9466 126.983 50.8091C126.829 50.4986 126.528 50.2032 126.22 50.0374C125.77 49.7951 125.278 49.6241 124.789 49.4541C124.718 49.4295 124.648 49.4049 124.577 49.3802C124.34 49.2952 124.099 49.2246 123.857 49.1539C123.602 49.0791 123.347 49.0044 123.097 48.9129C122.563 48.7139 122.334 48.2466 122.431 47.6497C122.494 47.2517 122.922 46.893 123.41 46.899C123.977 46.905 124.405 47.1884 124.671 47.6919C124.711 47.7674 124.743 47.857 124.774 47.9456L124.774 47.9457C124.834 48.1155 124.893 48.2816 125.008 48.337C125.135 48.3993 125.324 48.3363 125.511 48.2741C125.586 48.2489 125.661 48.2239 125.732 48.2074C125.813 48.1891 125.894 48.1713 125.976 48.1535C126.258 48.0919 126.541 48.03 126.817 47.9481C127.109 47.8607 127.257 47.6497 127.155 47.3452C126.763 46.1604 125.997 45.3675 124.746 45.0932C124.016 44.9334 123.302 44.9243 122.548 45.0389C121.692 45.1685 121.026 45.5152 120.387 46.085C119.214 47.1311 119.066 49.4977 121.291 50.4624C121.936 50.7398 122.611 50.9508 123.284 51.1589C123.965 51.3699 124.514 51.7015 124.686 52.4492C124.812 52.9948 124.466 53.7063 124.007 53.848C123.202 54.1013 122.56 53.7907 122.129 53.0642C122.046 52.9236 122.011 52.747 121.977 52.5733L121.976 52.5732C121.914 52.2592 121.853 51.9544 121.517 51.8884C121.206 51.8284 120.862 51.9239 120.52 52.0188C120.381 52.0573 120.242 52.0957 120.106 52.1236C120.001 52.1447 119.886 52.1899 119.802 52.2592C119.699 52.3437 119.558 52.4612 119.551 52.5698C119.524 53.1275 119.5 53.6943 119.838 54.1887C120.498 55.1534 121.339 55.8378 122.575 55.8709C122.776 55.8749 122.976 55.8736 123.176 55.8723ZM46.8355 50.4714C46.8355 50.6199 46.8313 50.769 46.827 50.9182C46.8174 51.2564 46.8078 51.5949 46.8476 51.9275C46.8988 52.3617 47.0254 52.7988 47.1913 53.2028C47.3842 53.6731 47.8907 53.9263 48.3489 53.863C48.7981 53.8027 49.2473 53.4017 49.3528 52.9345C49.4403 52.5395 49.5096 52.1355 49.5639 51.7346C49.6061 51.4331 49.799 51.3758 50.0432 51.406C50.5949 51.4783 51.1436 51.5507 51.6893 51.6532C52.1686 51.7436 52.3224 51.9758 52.2319 52.437L52.2179 52.5104C52.1534 52.8488 52.0877 53.1928 51.9696 53.5133C51.4963 54.8066 50.5949 55.6447 49.2081 55.8196C48.3248 55.9311 47.4415 55.904 46.5461 55.6598C45.6326 55.4096 45.0086 54.891 44.6558 54.0861C44.3483 53.3837 44.065 52.6239 44.0047 51.8702C43.866 50.1669 43.8871 48.4545 44.6347 46.8446C45.1352 45.7684 45.9854 45.2137 47.143 45.0479C47.8032 44.9544 48.4394 44.9031 49.1177 45.0328C50.7246 45.3373 51.8008 46.3593 52.051 47.9692C52.0752 48.1139 52.1053 48.2616 52.1535 48.4003C52.2591 48.7108 52.0601 48.8193 51.828 48.8404C51.5974 48.8608 51.3649 48.8639 51.1326 48.8671C50.9519 48.8696 50.7713 48.8721 50.5919 48.8826C50.4743 48.8887 50.3536 48.9422 50.2339 48.9952C49.9976 49.0999 49.765 49.203 49.5669 48.9369C49.4457 48.774 49.4259 48.5344 49.4061 48.2953C49.3973 48.1892 49.3885 48.0833 49.3709 47.9842C49.2745 47.4295 48.8946 47.0074 48.3459 46.9502C47.8726 46.9019 47.4445 47.0949 47.2274 47.52C47.0465 47.8727 46.9109 48.2797 46.8717 48.6716C46.8315 49.0884 46.8403 49.5082 46.8491 49.9289V49.929V49.9291V49.9291C46.8529 50.1078 46.8566 50.2866 46.8566 50.4654C46.8476 50.4714 46.8415 50.4714 46.8355 50.4714ZM89.553 49.7719C89.5538 50.0411 89.5546 50.3104 89.5546 50.5799C89.5546 50.9468 89.5563 51.3136 89.558 51.6809V51.6823V51.6837C89.5602 52.1758 89.5624 52.6687 89.5607 53.1636C89.5396 55.0207 90.655 56.0125 92.2951 55.913C92.5049 55.9002 92.6856 55.8916 92.8411 55.8842C93.3746 55.8589 93.6115 55.8476 93.7122 55.7248C93.7926 55.6266 93.7861 55.4572 93.7743 55.1526V55.1524C93.7669 54.9611 93.7575 54.7165 93.7663 54.4027C93.7844 53.7756 93.7512 53.7334 93.0729 53.6851C92.5965 53.652 92.4729 53.462 92.4006 53.0098C92.2232 51.8933 92.2407 50.773 92.2581 49.653V49.653V49.6529V49.6528V49.6528C92.268 49.0219 92.2778 48.3911 92.2529 47.7611C92.2408 47.4265 92.3976 47.315 92.7201 47.2848C93.7964 47.1856 93.7964 47.1733 93.7994 46.1479L93.7994 46.1392C93.7994 46.0808 93.798 46.0221 93.7965 45.9634V45.9633C93.7933 45.8341 93.79 45.7049 93.8024 45.5785C93.8447 45.1654 93.6276 45.0509 93.2628 45.078C93.1513 45.0871 93.0367 45.0871 92.9251 45.078C92.3855 45.0358 92.2951 44.9484 92.2559 44.4148C92.2513 44.3393 92.2529 44.2638 92.2544 44.1887C92.2559 44.1138 92.2574 44.0393 92.2529 43.9656C92.216 43.344 92.1764 42.7251 92.1367 42.1038L92.1293 41.9879C91.9566 41.982 91.784 41.9763 91.6117 41.9706C91.0769 41.9529 90.5434 41.9353 90.0099 41.9125C89.6692 41.8974 89.5486 42.0572 89.5546 42.3828C89.5622 43.0057 89.5593 43.6286 89.5563 44.2515V44.2529L89.5546 44.6258C89.5516 44.867 89.5034 45.0358 89.1989 45.081C88.4122 45.1981 88.412 45.2165 88.4061 45.9644L88.406 45.9734C88.403 46.1965 88.4 46.4226 88.406 46.6457C88.4181 47.2125 88.4211 47.2607 89.006 47.2697C89.4853 47.2758 89.5637 47.4928 89.5577 47.8878C89.5492 48.5166 89.5511 49.144 89.553 49.7719ZM116.24 45.9978L116.24 45.9977C116.41 45.8268 116.554 45.6822 116.721 45.5754C117.025 45.3795 117.36 45.1714 117.709 45.1021C118.921 44.8549 119.042 44.9725 119.042 46.2055V47.324C118.912 47.324 118.786 47.3183 118.663 47.3128C118.404 47.3012 118.158 47.2902 117.924 47.333C116.678 47.5682 115.949 48.56 115.931 50.0523C115.917 51.0749 115.92 52.0963 115.923 53.118V53.1182C115.924 53.6687 115.926 54.2194 115.925 54.7704C115.925 54.8334 115.926 54.8965 115.927 54.9596C115.93 55.1595 115.933 55.3595 115.904 55.5543C115.886 55.6598 115.735 55.8196 115.638 55.8226C114.927 55.8437 114.212 55.8437 113.498 55.8165C113.41 55.8135 113.305 55.6387 113.254 55.5241C113.224 55.4561 113.23 55.3747 113.236 55.2924C113.239 55.2579 113.242 55.2233 113.242 55.1895C113.242 54.4025 113.241 53.6153 113.241 52.828C113.241 50.4698 113.24 48.1107 113.245 45.7533C113.245 45.078 113.26 45.075 113.917 45.0599C114.217 45.0539 114.515 45.0569 114.815 45.0599L114.818 45.0599C115.335 45.0599 115.603 45.0599 115.752 45.193C115.912 45.3365 115.934 45.6346 115.979 46.2537C116.075 46.1635 116.16 46.0778 116.24 45.9978ZM84.8212 45.994C84.757 46.0604 84.6917 46.128 84.6225 46.1935C84.5422 45.6345 84.5015 45.3512 84.3381 45.2076C84.1701 45.06 83.8724 45.06 83.2689 45.06C83.1783 45.06 83.0878 45.0592 82.9974 45.0583C82.7866 45.0564 82.5763 45.0546 82.3675 45.063C81.8429 45.0841 81.8248 45.0901 81.8248 45.6599C81.8221 47.0883 81.8218 48.5172 81.8215 49.9465C81.8211 51.7331 81.8208 53.5201 81.8158 55.3071C81.8158 55.6659 81.9002 55.8679 82.3132 55.8468C82.6771 55.831 83.0427 55.8355 83.4088 55.84C83.5309 55.8415 83.6531 55.843 83.7753 55.8438C83.8184 55.8439 83.8591 55.8443 83.8974 55.8446C84.5107 55.8496 84.5319 55.8498 84.529 55.1263C84.5274 54.6338 84.5212 54.1413 84.515 53.649C84.4986 52.345 84.4823 51.0418 84.5501 49.7419C84.6225 48.343 85.0988 47.3693 86.965 47.3271C87.4744 47.318 87.5197 47.1191 87.5046 46.7392C87.4962 46.5829 87.4981 46.4252 87.5 46.268C87.5008 46.2008 87.5016 46.1337 87.5016 46.0669C87.4956 44.9906 87.4142 44.8942 86.365 45.0841C85.9914 45.1518 85.6322 45.3744 85.2985 45.5812L85.2737 45.5966C85.1064 45.6991 84.9666 45.8436 84.8212 45.994Z" fill="url(#paint0_linear)"/>
<g style="mix-blend-mode:darken">
<path fill-rule="evenodd" clip-rule="evenodd" d="M0 0H140V94H0V0Z" />
</g>
<defs>
<linearGradient id="paint0_linear" x1="12" y1="41" x2="13.0943" y2="64.3299" gradientUnits="userSpaceOnUse">
<stop stop-color="#7EB7FE"/>
<stop offset="1" stop-color="#599EF4" stop-opacity="0.92"/>
</linearGradient>
</defs>
</svg>
