<svg width="140" height="94" viewBox="0 0 140 94" fill="none" preserveAspectRatio="xMidYMid meet" xmlns="http://www.w3.org/2000/svg">
<g style="mix-blend-mode:darken">
<path fill-rule="evenodd" clip-rule="evenodd" d="M0 0H140V94H0V0Z"/>
</g>
<path fill-rule="evenodd" clip-rule="evenodd" d="M45.7053 41.3083C45.7053 40.9056 45.6775 40.489 45.6081 40.0863C45.3859 38.6004 44.5666 37.6145 43.0946 37.2812C42.4003 37.1146 41.6921 37.0312 40.9839 37.0174C37.8074 36.9965 34.6309 36.9991 31.4544 37.0017C30.3955 37.0026 29.3366 37.0035 28.2777 37.0035H28V57H28.3611H40.9561C41.4838 57 41.9976 56.9583 42.5114 56.8889C44.2333 56.6528 45.1915 55.7641 45.5386 54.0838C45.6497 53.5423 45.7053 52.9868 45.7053 52.4314C45.7192 48.7237 45.7192 45.016 45.7053 41.3083ZM37.7761 51.0149C37.7761 51.251 37.7483 51.501 37.6928 51.737C37.6094 52.1397 37.3734 52.3619 36.9568 52.3897C36.7083 52.4081 36.4537 52.4021 36.193 52.396L36.1929 52.396C36.0603 52.3928 35.9261 52.3897 35.7903 52.3897V41.5166C35.9016 41.5233 36.0121 41.5284 36.1215 41.5335H36.1215C36.4627 41.5493 36.7941 41.5646 37.1095 41.6277C37.5261 41.6971 37.665 42.0582 37.7344 42.4331C37.7622 42.6136 37.7761 42.7941 37.7761 42.9747V51.0149ZM111.249 40.2251C111.291 40.5723 111.305 40.9195 111.305 41.2666C111.319 45.016 111.319 48.7653 111.305 52.5008C111.305 53.0701 111.236 53.6534 111.124 54.2088C110.819 55.6947 109.875 56.5556 108.403 56.8195C107.889 56.9306 107.375 56.9722 106.847 56.9861C102.515 57 98.1823 57 93.8497 57H93.5859V37.0174C93.6433 37.0174 93.6933 37.0137 93.7416 37.0101C93.7868 37.0067 93.8305 37.0035 93.8775 37.0035C94.9403 37.0035 96.0022 37.0026 97.0637 37.0017C100.246 36.9991 103.425 36.9965 106.611 37.0174C107.306 37.0174 107.986 37.1007 108.667 37.2673C110.208 37.6284 111.069 38.656 111.249 40.2251ZM103.376 51.3482V51.1399C103.39 48.3765 103.39 45.627 103.376 42.8775C103.376 42.6692 103.348 42.4747 103.306 42.2803C103.251 42.0026 103.112 41.7804 102.834 41.6693C102.49 41.5375 102.145 41.5464 101.795 41.5553C101.665 41.5587 101.535 41.562 101.404 41.5582V52.4175H102.237C103.015 52.4175 103.334 52.1258 103.376 51.3482ZM70.7842 41.5582H65.9379V37.0312H79.5049C79.5049 37.0747 79.5087 37.1182 79.5123 37.1598L79.5124 37.1599C79.5157 37.1978 79.5188 37.2341 79.5188 37.2672V41.0027C79.5188 41.1277 79.4911 41.2527 79.4355 41.3776C78.5816 43.1757 77.7242 44.9738 76.8669 46.7718L76.864 46.7777C76.0074 48.5743 75.1507 50.3709 74.2975 52.1674C74.2741 52.2142 74.2551 52.261 74.2331 52.3152L74.2331 52.3152C74.2159 52.3575 74.1969 52.4043 74.1725 52.4591H79.5049V56.9999H65.4657C65.4657 56.9583 65.4623 56.9166 65.4588 56.875C65.4553 56.8333 65.4518 56.7916 65.4518 56.75V52.9451C65.4518 52.8062 65.4796 52.6674 65.549 52.5563C67.2293 49.0291 68.9235 45.488 70.6176 41.9609L70.6502 41.8788C70.6913 41.775 70.729 41.6798 70.7842 41.5582ZM88.0451 52.4452H92.8082V56.9722H80.2409V37.0312H92.8082V41.5582H88.0451V43.7384H92.8082V48.3209H88.0451V52.4452ZM49.2185 37.0174H61.4525L64.9658 56.9861H56.8839C56.8491 56.6665 56.8144 56.3434 56.7797 56.0203C56.745 55.6977 56.7103 55.3751 56.6756 55.0559C56.67 54.9977 56.6644 54.9394 56.6588 54.8811C56.5949 54.2153 56.53 53.5396 56.4534 52.8757C56.4534 52.7924 56.3701 52.6813 56.3145 52.6813C55.6202 52.6674 54.9259 52.6674 54.2038 52.6674L53.7594 56.9722H45.7053L49.2185 37.0174ZM55.3147 41.6971L54.5093 48.2515H56.1479L55.3703 41.6971H55.3147Z" fill="url(#paint0_linear)"/>
<defs>
<linearGradient id="paint0_linear" x1="28" y1="37" x2="29.8665" y2="62.8443" gradientUnits="userSpaceOnUse">
<stop stop-color="#7EB7FE"/>
<stop offset="1" stop-color="#599EF4" stop-opacity="0.92"/>
</linearGradient>
</defs>
</svg>
