<svg width="140" height="94" viewBox="0 0 140 94" fill="none" preserveAspectRatio="xMidYMid meet" xmlns="http://www.w3.org/2000/svg">
<path fill-rule="evenodd" clip-rule="evenodd" d="M71.9267 20.5187C73.6118 19.0949 75.4928 18.6555 77.5639 19.4795C79.1629 20.1164 80.0255 21.8772 79.6098 23.4732C79.2713 24.7782 78.0034 25.5264 76.6894 25.1983C75.4364 24.8851 74.6525 23.5622 74.9702 22.2513C75.0093 22.0896 75.0765 21.9339 75.1436 21.7787C75.2242 21.592 75.3046 21.4059 75.3354 21.2106C75.3785 20.9359 75.3444 20.4549 75.1959 20.3866C74.945 20.2693 74.4061 20.2886 74.2873 20.4578C74.2521 20.5082 74.2162 20.5591 74.18 20.6104L74.1784 20.6126C73.7923 21.1597 73.3695 21.7588 73.3044 22.3716C73.0728 24.5555 73.9681 26.3148 75.7378 27.6124C76.3645 28.072 77.0763 28.0703 77.7901 28.0687C78.0148 28.0682 78.2396 28.0677 78.4621 28.0815C78.808 28.1023 79.445 28.3116 79.4375 28.3903C79.3932 28.8968 79.0416 28.8547 78.7151 28.8157C78.6262 28.8051 78.5391 28.7947 78.4606 28.7956C78.268 28.7981 78.0946 28.7976 77.9385 28.7972C76.5787 28.7934 76.5328 28.7933 76.5395 30.7643C76.5506 33.9035 76.5487 37.042 76.5468 40.1807V40.1808V40.1809V40.181V40.1811V40.1813V40.1814V40.1815V40.1816V40.1817V40.1818V40.1819C76.5459 41.6683 76.545 43.1547 76.5454 44.6413C76.5454 45.6954 76.6523 45.8127 77.702 45.9345C77.8296 45.9494 77.958 45.9599 78.0862 45.9703C78.3279 45.99 78.5694 46.0097 78.8051 46.0592C78.9372 46.0874 79.151 46.3012 79.1302 46.3695C79.0812 46.5254 78.9328 46.6812 78.7843 46.7644C78.7027 46.8099 78.5901 46.8011 78.4783 46.7922C78.4335 46.7887 78.3888 46.7852 78.3463 46.7852C77.7694 46.7852 77.1925 46.7856 76.6154 46.786C74.5953 46.7876 72.5746 46.7891 70.5549 46.7718C70.3889 46.7708 70.2237 46.6808 70.0582 46.5907C69.9809 46.5486 69.9035 46.5065 69.8259 46.4734C69.8924 46.4277 69.9578 46.3724 70.0232 46.3172C70.1681 46.1948 70.3132 46.0722 70.4717 46.0517C71.1131 45.9686 71.3299 45.6732 71.3269 45.0229C71.3114 41.5242 71.3124 38.0256 71.3135 34.5264V34.5263V34.5262V34.5261V34.526V34.5259V34.5258V34.5257V34.5256V34.5255V34.5254V34.5253C71.314 33.003 71.3144 31.4806 71.3135 29.9581C71.3135 29.0421 71.1057 28.8476 70.1674 28.8417C69.6225 28.8387 69.0791 28.8387 68.5343 28.8417C67.9419 28.8446 67.6153 29.1089 67.6153 29.7399L67.6161 30.6495V30.6521C67.6203 35.5176 67.6246 40.3832 67.6078 45.25C67.6064 45.8411 67.9432 45.9237 68.3558 46.0248L68.4046 46.0368L68.4467 46.0473C68.6099 46.0881 68.7534 46.2046 68.8971 46.3212C68.9626 46.3743 69.0281 46.4274 69.0955 46.4734C69.0184 46.5063 68.9413 46.5481 68.8642 46.59C68.6977 46.6803 68.5309 46.7708 68.3635 46.7718C65.7906 46.7941 63.2177 46.7956 60.6463 46.7688C60.4765 46.7668 60.3074 46.6582 60.1385 46.5496C60.0593 46.4987 59.9802 46.4479 59.901 46.4081C59.9713 46.3673 60.0405 46.318 60.1097 46.2687C60.2599 46.1617 60.41 46.0547 60.5706 46.0354C60.6825 46.0222 60.7878 46.0101 60.887 45.9987L60.8875 45.9986C61.7567 45.8984 62.1499 45.8531 62.3235 45.6339C62.4669 45.4527 62.4603 45.1528 62.4482 44.6051V44.6049V44.6047V44.6045C62.4439 44.4107 62.439 44.1858 62.4398 43.9242C62.4488 40.3873 62.4466 36.8513 62.4444 33.3148V33.3145V33.3142V33.314V33.3137V33.3134V33.3132V33.3129V33.3126V33.3124V33.3121V33.3118L62.4444 33.2746C62.4437 32.1988 62.4431 31.1231 62.4427 30.0472C62.4427 28.8818 62.3819 28.8446 61.2342 28.8105C61.1515 28.8081 61.0538 28.8206 60.9525 28.8335C60.61 28.8773 60.2261 28.9263 60.241 28.4245C60.2545 27.9525 60.6252 28.0053 60.9605 28.0531C61.0681 28.0685 61.1721 28.0833 61.2595 28.08L61.2654 28.0798C62.3596 28.0385 62.3728 28.038 62.2943 26.9383C62.1696 25.182 62.1339 23.445 63.041 21.8252C64.8048 18.6792 69.5884 18.1017 71.7411 20.3895C71.7732 20.4269 71.8169 20.4526 71.8641 20.4804C71.8845 20.4924 71.9056 20.5048 71.9267 20.5187ZM70.2297 25.2488C70.1506 25.2488 70.0721 25.2497 69.9939 25.2506C69.8257 25.2525 69.6591 25.2544 69.4919 25.2473C68.0814 25.1879 67.2337 24.3031 67.3272 22.9031C67.3462 22.6117 67.4392 22.3258 67.5324 22.039L67.5324 22.039C67.5921 21.8553 67.6519 21.6713 67.6925 21.4852C67.7448 21.2408 67.7702 20.9908 67.7956 20.7404L67.7956 20.7402C67.807 20.6286 67.8183 20.517 67.832 20.4059C67.7184 20.4282 67.6042 20.4485 67.4901 20.4688C67.2093 20.5188 66.929 20.5687 66.6577 20.6479C66.5296 20.685 66.4192 20.8116 66.3189 20.9267L66.3188 20.9268L66.3187 20.9269L66.3185 20.9271L66.3183 20.9274C66.3025 20.9455 66.287 20.9633 66.2716 20.9804C65.4492 21.9069 65.4729 23.1896 66.3058 24.4649C66.6398 24.9771 66.9724 25.4982 67.2322 26.0505C67.3381 26.2752 67.4111 26.5382 67.483 26.7976C67.6108 27.2581 67.7353 27.707 68.0354 27.9093C68.3875 28.1464 68.9201 28.1156 69.452 28.0848C69.6827 28.0715 69.9132 28.0581 70.1288 28.0667C70.1818 28.0691 70.2344 28.0681 70.2871 28.067C70.3332 28.0662 70.3793 28.0653 70.4257 28.0667C70.8741 28.0771 70.9899 27.8514 70.8711 27.4505C70.6794 26.7983 70.4901 26.146 70.2968 25.4798L70.2956 25.4758L70.2297 25.2488ZM134 54.9253V55.88H6.04384V54.9253H134ZM33.1625 72.9091C34.8298 71.4333 34.5076 69.2108 32.4632 67.9533C34.1869 66.1331 33.4698 63.0079 30.597 62.5967C29.4053 62.428 28.1798 62.482 26.961 62.5358H26.9609L26.9604 62.5358L26.9599 62.5358L26.9594 62.5358L26.9589 62.5359L26.9584 62.5359L26.9578 62.5359L26.9573 62.5359L26.9568 62.536L26.9563 62.536C26.6644 62.5489 26.3728 62.5617 26.0822 62.5714C25.8937 62.5774 25.5685 63.0317 25.5655 63.2811C25.5392 65.6371 25.5404 67.9939 25.5417 70.3503V70.3504V70.3504V70.3505V70.3505V70.3506V70.3506V70.3507V70.3507V70.3508V70.3508C25.5421 71.1823 25.5426 72.0138 25.5418 72.8452C25.5418 73.3708 25.7764 73.5905 26.3123 73.5846C26.9511 73.5782 27.5904 73.5816 28.2295 73.5849C29.37 73.5909 30.5103 73.5969 31.6482 73.5475C32.1663 73.5252 32.7691 73.258 33.1625 72.9091ZM27.8364 67.7502C27.4483 67.7449 27.0574 67.7395 26.6627 67.7395C26.6627 66.3825 26.6627 65.0315 26.6612 63.5172C27.0744 63.5357 27.4895 63.5443 27.9049 63.5529H27.905H27.905H27.9051H27.9052H27.9053H27.9054H27.9054H27.9055H27.9056H27.9057C28.8574 63.5727 29.8108 63.5925 30.747 63.731C31.8575 63.8958 32.3801 64.7999 32.294 65.9075C32.2198 66.868 31.5041 67.6579 30.4634 67.7217C29.595 67.7744 28.723 67.7624 27.8364 67.7502ZM28.1494 72.4943C27.6542 72.4916 27.156 72.4889 26.6538 72.4889V68.9109C27.1611 68.9109 27.6659 68.9074 28.1687 68.9039L28.1695 68.9039C29.4026 68.8954 30.6241 68.887 31.8441 68.9302C32.5716 68.9569 33.1833 69.87 33.167 70.6672C33.1506 71.4957 32.4929 72.4518 31.7951 72.4726C30.587 72.5075 29.3773 72.5009 28.1494 72.4943ZM110.868 67.9533C113.044 69.1202 113.074 71.61 111.58 72.8823C111.162 73.2387 110.542 73.5222 110.002 73.5475C108.894 73.6001 107.783 73.5932 106.673 73.5864C106.028 73.5824 105.384 73.5784 104.74 73.5861C104.173 73.5935 103.927 73.3752 103.928 72.8111C103.93 71.8484 103.93 70.8858 103.93 69.9234C103.93 67.7227 103.929 65.5223 103.952 63.3212C103.955 63.0599 104.259 62.5803 104.432 62.5759C104.715 62.5697 105 62.5613 105.285 62.5529C106.583 62.5146 107.888 62.476 109.162 62.6501C111.601 62.9827 112.697 65.9104 110.868 67.9533ZM105.048 67.7499C105.439 67.7499 105.825 67.7557 106.207 67.7615C107.061 67.7743 107.894 67.7869 108.724 67.7336C109.953 67.6549 110.672 66.8591 110.691 65.7426C110.712 64.598 110.001 63.7176 108.768 63.6166C107.921 63.5476 107.067 63.5637 106.201 63.5799C105.819 63.5871 105.435 63.5944 105.048 63.5944V67.7499ZM105.036 72.4978C105.53 72.4978 106.017 72.4982 106.498 72.4986C107.606 72.4996 108.688 72.5005 109.77 72.4963C110.784 72.4919 111.554 71.6827 111.552 70.6375C111.551 69.6191 110.819 68.902 109.76 68.896C109.103 68.8919 108.446 68.8928 107.79 68.8938C107.508 68.8942 107.227 68.8946 106.945 68.8946H105.036V72.4978ZM66.7289 66.8177C66.766 66.8386 66.8066 66.8613 66.8506 66.8888C66.6283 67.0363 66.4163 67.1697 66.2142 67.2968L66.2142 67.2968C65.7941 67.561 65.4168 67.7983 65.078 68.0809C63.4493 69.4305 63.4968 71.5253 65.1463 72.8482C66.0207 73.5489 67.0229 73.8058 68.123 73.7167C69.5676 73.6009 70.8132 72.9714 72.1598 72.0553C72.2668 72.1821 72.3726 72.3122 72.4791 72.4432L72.4792 72.4432L72.4792 72.4432L72.4792 72.4433L72.4793 72.4433L72.4793 72.4434L72.4794 72.4434L72.4794 72.4435L72.4795 72.4435C72.7259 72.7465 72.9758 73.0538 73.2525 73.3336C73.271 73.3524 73.2898 73.3717 73.3089 73.3913L73.3091 73.3915C73.5765 73.6663 73.903 74.0017 74.3006 73.5667C74.6512 73.1825 74.3541 72.9036 74.0886 72.6543C74.0617 72.6291 74.0352 72.6041 74.0096 72.5794C73.7452 72.3246 73.47 72.082 73.2006 71.8445L73.2006 71.8444L73.2005 71.8444L73.2003 71.8442C73.0948 71.7512 72.9901 71.6588 72.8872 71.5669C73.0604 71.3561 73.2293 71.1571 73.3928 70.9646C73.7829 70.505 74.1415 70.0827 74.4491 69.6265C74.5439 69.4868 74.5099 69.2611 74.476 69.0354C74.4604 68.9323 74.4449 68.8291 74.4417 68.7342C74.3543 68.7666 74.2593 68.7917 74.1644 68.8169C73.9544 68.8726 73.7441 68.9284 73.6132 69.0623C73.2556 69.4251 72.9329 69.8229 72.5574 70.2857L72.5573 70.2859C72.3967 70.4839 72.2263 70.6939 72.0395 70.9181C71.529 70.3852 71.0254 69.8612 70.5272 69.3428L70.527 69.3426C69.3388 68.1062 68.1816 66.9021 67.0362 65.6877C66.4067 65.0211 66.5508 64.298 67.3747 63.8764C67.6761 63.7235 68.0146 63.6225 68.3487 63.5602C69.5676 63.3301 70.6187 63.7368 71.6253 64.3975C71.769 64.4923 71.9938 64.4633 72.2181 64.4343C72.3206 64.421 72.423 64.4078 72.5176 64.4064C72.4856 64.3158 72.4625 64.2138 72.4393 64.112L72.4393 64.1119C72.3893 63.8918 72.3393 63.6721 72.2013 63.5676C70.7597 62.4764 69.1533 62.0815 67.4 62.6917C65.3571 63.4013 64.9844 65.223 66.5567 66.7032C66.6021 66.7467 66.6595 66.7789 66.7289 66.8177ZM70.4874 70.643C70.7431 70.905 71.0016 71.1697 71.2645 71.4377C69.9699 72.235 68.6797 72.9164 67.1149 72.6255C66.7631 72.5601 66.4023 72.4146 66.1024 72.2187C64.6474 71.2715 64.5866 69.9412 65.9257 68.844C66.0548 68.7382 66.1966 68.6437 66.3359 68.5508L66.3459 68.5441C67.4549 67.8033 67.6731 67.8107 68.5892 68.7193C69.2227 69.3476 69.8465 69.9865 70.4874 70.643ZM132.078 69.8122L132.08 69.8154L132.081 69.8181L132.083 69.8226L132.084 69.8241C132.483 70.6911 132.879 71.5492 133.27 72.4103C133.295 72.4657 133.324 72.523 133.354 72.5812C133.531 72.9269 133.725 73.3054 133.183 73.5252C132.668 73.7345 132.492 73.3257 132.336 72.9627L132.336 72.9625L132.336 72.9621L132.335 72.9615C132.312 72.9077 132.289 72.8548 132.266 72.8052L132.213 72.6932L132.213 72.6928C131.703 71.6169 131.194 70.5415 130.734 69.4439C130.527 68.951 130.239 68.7951 129.724 68.8174C129.073 68.8444 128.42 68.8387 127.743 68.8329C127.451 68.8304 127.155 68.8278 126.853 68.8278L126.853 69.845C126.852 70.8356 126.852 71.7919 126.854 72.7473L126.855 72.814C126.857 73.1737 126.859 73.5483 126.353 73.5609C125.82 73.5742 125.818 73.1719 125.818 72.78C125.819 72.181 125.82 71.582 125.82 70.983V70.9805C125.824 68.4666 125.827 65.9521 125.811 63.4385C125.806 62.7615 126.07 62.5032 126.734 62.5284C127.235 62.5472 127.737 62.5484 128.239 62.5496H128.239C129.17 62.5519 130.1 62.5542 131.017 62.668C132.535 62.8565 133.46 63.8943 133.656 65.2676C133.844 66.5934 133.212 67.7663 131.914 68.4938C131.838 68.535 131.765 68.5801 131.678 68.6332L131.676 68.6344C131.642 68.6554 131.606 68.6778 131.567 68.7016L131.808 69.2251L132.055 69.7624L132.075 69.8051L132.078 69.8122ZM126.881 67.7455C127.269 67.7455 127.65 67.7474 128.025 67.7493C128.844 67.7534 129.637 67.7573 130.431 67.741C131.639 67.7158 132.487 66.9378 132.576 65.8244C132.661 64.748 131.985 63.7963 130.789 63.6731C129.899 63.5803 128.998 63.6021 128.088 63.624C127.687 63.6337 127.285 63.6434 126.881 63.6434V67.7455ZM53.7524 69.988C53.5551 69.5607 53.3565 69.1304 53.1563 68.6956C53.2124 68.6589 53.2583 68.6278 53.2979 68.6009C53.3706 68.5516 53.4222 68.5166 53.477 68.4878C54.7612 67.7959 55.4293 66.6186 55.2541 65.3552C55.0552 63.915 54.1243 62.8387 52.6144 62.6694C51.475 62.5421 50.3204 62.545 49.1665 62.5479H49.1665H49.1664H49.1664H49.1663H49.1663H49.1662C48.7867 62.5489 48.4072 62.5499 48.0283 62.5462C47.5577 62.5417 47.4196 62.8639 47.4241 63.2989C47.4327 64.1556 47.4312 65.0122 47.4297 65.8695C47.4291 66.1992 47.4285 66.5291 47.4285 66.8591C47.4285 67.2946 47.4282 67.7301 47.4278 68.1656V68.1667C47.4266 69.7336 47.4253 71.3006 47.4404 72.8675C47.4419 73.0828 47.5547 73.3455 47.7062 73.4925C47.7982 73.5816 48.1486 73.5608 48.2332 73.4613C48.3728 73.298 48.45 73.0323 48.4529 72.8081C48.4672 71.8477 48.4653 70.8873 48.4633 69.8976V69.8974V69.8971V69.8968V69.8966V69.8963V69.896V69.8957V69.8953V69.895V69.8946V69.8942V69.8939C48.4626 69.5431 48.4618 69.1887 48.4618 68.8292C48.7682 68.8292 49.0674 68.8314 49.3615 68.8335C50.0706 68.8387 50.7498 68.8436 51.4267 68.8174C51.9003 68.7995 52.1364 68.9836 52.319 69.3964C52.6918 70.2409 53.0797 71.0784 53.4677 71.9161L53.4677 71.9162L53.4678 71.9164L53.4679 71.9165L53.4679 71.9166C53.6391 72.2863 53.8103 72.656 53.9803 73.0263C54.1466 73.3901 54.3604 73.7197 54.8176 73.5074C55.2765 73.2939 55.1153 72.9471 54.9675 72.6289C54.957 72.6063 54.9465 72.5839 54.9364 72.5617C54.5458 71.7069 54.1519 70.8535 53.7524 69.988ZM49.6877 67.7365C49.2947 67.7313 48.8992 67.7261 48.5005 67.7261C48.5005 66.3514 48.5004 65.0285 48.499 63.7116C48.9149 63.7116 49.3322 63.7019 49.7497 63.6921C50.7224 63.6693 51.6961 63.6465 52.656 63.7473C53.6611 63.8527 54.249 64.8237 54.1867 65.7961C54.1228 66.8071 53.3953 67.6489 52.3635 67.7083C51.4784 67.76 50.5897 67.7484 49.6879 67.7365H49.6878H49.6878H49.6878H49.6877H49.6877H49.6877ZM116.322 63.5871V67.8124H119.11C119.192 67.8124 119.275 67.8068 119.359 67.8012C119.554 67.7881 119.749 67.7749 119.92 67.8332C120.096 67.8928 120.25 68.0199 120.403 68.1472C120.471 68.2038 120.54 68.2605 120.61 68.3112C120.535 68.3719 120.461 68.4475 120.387 68.5232C120.226 68.6879 120.065 68.8528 119.894 68.865C119.211 68.9139 118.522 68.9063 117.835 68.8987H117.834C117.583 68.896 117.331 68.8932 117.079 68.8932H116.355V72.4964H117.096C117.534 72.4964 117.973 72.4951 118.412 72.4937C119.728 72.4895 121.044 72.4853 122.359 72.5187C122.648 72.5261 123.14 72.786 123.177 72.9938C123.272 73.5342 122.785 73.5743 122.375 73.5743C121.644 73.5753 120.913 73.5749 120.183 73.5745C118.813 73.5738 117.443 73.573 116.073 73.5817C115.449 73.5862 115.198 73.3412 115.203 72.6969C115.225 69.6073 115.224 66.5178 115.204 63.4297C115.2 62.769 115.43 62.5092 116.114 62.5211C117.569 62.5469 119.025 62.5413 120.48 62.5358H120.48H120.481H120.481H120.481H120.482H120.482H120.482H120.482C120.954 62.534 121.426 62.5322 121.897 62.5315L121.937 62.5314C122.309 62.5308 122.704 62.5301 122.723 63.0318C122.744 63.5861 122.329 63.5858 121.944 63.5855L121.881 63.5856C120.516 63.5878 119.152 63.5875 117.752 63.5872L116.322 63.5871ZM37.9475 67.8124V63.5871C38.2563 63.5871 38.5221 63.5871 38.7864 63.5886H43.5358H43.542C43.9247 63.5886 44.327 63.5886 44.3137 63.0481C44.3011 62.532 43.9228 62.5339 43.5668 62.5357L43.5046 62.5359C42.8685 62.535 42.2324 62.5362 41.5963 62.5374H41.5955C40.2781 62.54 38.9606 62.5426 37.6432 62.5255C37.0211 62.5166 36.8162 62.7779 36.8177 63.3644C36.8281 66.5044 36.8296 69.6459 36.8162 72.7874C36.8133 73.3175 37.0226 73.5758 37.5496 73.5758C38.0383 73.5758 38.527 73.5766 39.0156 73.5774H39.0162C40.7038 73.5803 42.3915 73.5831 44.0791 73.552C44.3315 73.5461 44.7591 73.2432 44.7888 73.0339C44.8586 72.5365 44.4132 72.4965 44.0212 72.4965C42.8503 72.4974 41.6794 72.4971 40.5085 72.4968C39.9231 72.4966 39.3377 72.4965 38.7522 72.4965H37.949V68.8932H38.7938C39.0389 68.8932 39.2843 68.8962 39.5297 68.8993L39.5305 68.8993H39.5306H39.5306H39.5307H39.5308C40.1766 68.9073 40.8222 68.9153 41.4632 68.868C41.7274 68.8487 42.1342 68.571 42.1877 68.3439C42.299 67.8718 41.8566 67.8347 41.5018 67.8168C41.3259 67.8073 41.1493 67.8091 40.9725 67.8109H40.9724H40.9723H40.9722H40.972C40.9012 67.8117 40.8303 67.8124 40.7595 67.8124H37.9475ZM13.7002 73.5416C13.1078 73.5668 12.8955 73.1645 13.1241 72.6434C13.6272 71.4957 14.1493 70.357 14.6717 69.2178L14.6717 69.2177L14.7973 68.9436L15.1391 68.1973C15.8962 66.5438 16.6533 64.89 17.4341 63.2485C17.5242 63.0582 17.6915 62.9045 17.859 62.7506C17.9372 62.6788 18.0155 62.607 18.0859 62.5314C18.1617 62.6072 18.2464 62.679 18.3311 62.7507C18.5151 62.9064 18.699 63.0622 18.7925 63.2604C20.2045 66.2415 21.5926 69.2361 22.9689 72.2351C22.9995 72.3018 23.0377 72.3725 23.0771 72.4455L23.0772 72.4455C23.2693 72.8009 23.4895 73.2081 22.9882 73.4569C22.4549 73.7218 22.2962 73.3267 22.1464 72.9538C22.1048 72.8502 22.0638 72.7482 22.0157 72.6627C21.988 72.6134 21.9597 72.5641 21.9313 72.5145C21.7736 72.2401 21.6128 71.9601 21.5436 71.662C21.2689 70.4639 20.5147 70.1892 19.379 70.2917C18.3747 70.3816 17.3563 70.3478 16.3437 70.3141H16.3437H16.3437H16.3437C16.2201 70.31 16.0966 70.3059 15.9732 70.3021C15.4996 70.2872 15.2561 70.4639 15.0839 70.8826C14.7855 71.6115 14.4633 72.3316 14.1189 73.0383C14.0427 73.1959 13.9109 73.3271 13.8055 73.4321C13.7649 73.4725 13.7282 73.509 13.7002 73.5416ZM15.8693 69.245H20.4153C19.6492 67.5911 18.9187 66.0144 18.1334 64.3204L17.2807 66.1749L17.2782 66.1802C16.8095 67.1996 16.3487 68.2016 15.8693 69.245ZM101.585 73.2192C101.626 73.1613 101.665 73.1046 101.701 73.062C101.67 72.9822 101.643 72.9108 101.618 72.8452C101.57 72.718 101.53 72.6126 101.483 72.5097L100.782 70.9949L100.782 70.9939L100.781 70.9929C99.5476 68.3253 98.3137 65.6572 97.0619 62.9976C96.9668 62.7957 96.6907 62.5834 96.4814 62.5626C96.318 62.5477 96.0478 62.7882 95.9602 62.9768C94.4652 66.1911 92.9805 69.4113 91.533 72.6463C91.4673 72.793 91.5476 73.0051 91.628 73.2175C91.6657 73.3168 91.7033 73.4162 91.726 73.5089C91.808 73.4615 91.9009 73.4201 91.9939 73.3786C92.2008 73.2864 92.408 73.1941 92.4951 73.0353C92.6908 72.6782 92.8531 72.3026 93.0155 71.9269C93.1757 71.5562 93.3359 71.1853 93.5284 70.8321C93.659 70.5931 94.0213 70.3451 94.2841 70.3362C95.1629 70.308 96.0428 70.3096 96.9229 70.3113C97.525 70.3124 98.1272 70.3135 98.7291 70.305C99.1612 70.2991 99.3942 70.4372 99.5605 70.8499C99.8738 71.6249 100.224 72.3895 100.625 73.1214C100.732 73.3189 101.07 73.4451 101.32 73.4822C101.394 73.4936 101.492 73.3531 101.585 73.2192ZM97.9378 67.3734L98.8152 69.2613H94.2559C94.715 68.2588 95.162 67.2823 95.6201 66.2815L96.5185 64.3189C97.0043 65.3649 97.4691 66.365 97.9378 67.3734ZM7.09792 63.5869V67.8137H9.95885C10.0408 67.8137 10.1251 67.8076 10.2095 67.8015C10.4046 67.7874 10.6001 67.7733 10.768 67.8345C10.9467 67.9 11.1 68.0367 11.2533 68.1735C11.319 68.2321 11.3847 68.2907 11.4524 68.3437C11.3813 68.4013 11.3111 68.4731 11.241 68.5448C11.0884 68.7009 10.9361 68.8567 10.7754 68.8648C9.99449 68.9065 9.2105 68.9028 8.42676 68.8991H8.4267C8.12125 68.8977 7.81584 68.8963 7.51066 68.8975C7.43346 68.8975 7.35688 68.9079 7.25577 68.9216H7.25574C7.19935 68.9293 7.13533 68.938 7.05932 68.9465V72.4993C7.05932 72.5632 7.06422 72.6297 7.06913 72.6964C7.08131 72.8619 7.09356 73.0283 7.03111 73.1585C6.93907 73.35 6.71637 73.5623 6.52336 73.5935C6.38678 73.6157 6.15072 73.3812 6.05718 73.2075C5.99149 73.0874 5.99752 72.9267 6.00341 72.7696C6.00524 72.7208 6.00706 72.6723 6.0067 72.6255C6.00522 69.6072 6.00374 66.5874 6.00522 63.5691C6.00522 62.6145 6.08391 62.5343 7.00736 62.5328C8.0937 62.5311 9.18053 62.5314 10.2673 62.5316H10.2737C11.0903 62.5318 11.9069 62.532 12.7233 62.5313L12.7771 62.5312C13.1676 62.53 13.5809 62.5288 13.5695 63.0851C13.56 63.5869 13.1784 63.584 12.8344 63.5813C12.8039 63.5811 12.7737 63.5809 12.7441 63.581C11.3248 63.5889 9.90382 63.5882 8.44153 63.5874C7.99783 63.5872 7.55033 63.5869 7.09792 63.5869ZM85.4786 67.8123V63.587C85.8231 63.587 86.0888 63.587 86.3531 63.5825C86.7497 63.5825 87.1462 63.5826 87.5426 63.5827C88.7297 63.583 89.9161 63.5833 91.1025 63.581C91.1194 63.581 91.1365 63.5811 91.1536 63.5811C91.5419 63.5822 91.9691 63.5834 91.9591 63.0317C91.9505 62.527 91.5487 62.5277 91.1775 62.5284C91.1643 62.5284 91.1512 62.5284 91.1381 62.5284C90.6497 62.5288 90.1612 62.5299 89.6728 62.531C88.2074 62.5344 86.7421 62.5377 85.2767 62.521C84.6428 62.5136 84.3859 62.7541 84.3889 63.391C84.4013 65.9884 84.3982 68.5857 84.3951 71.183C84.3945 71.702 84.3938 72.2209 84.3933 72.7399C84.3933 73.16 84.4245 73.6084 84.959 73.5891C85.44 73.5713 85.4563 73.1466 85.4534 72.7502C85.4448 71.8493 85.4463 70.9484 85.4478 70.0124C85.4483 69.6449 85.4489 69.2721 85.4489 68.8916C85.6237 68.8916 85.7901 68.8918 85.951 68.892C86.2574 68.8923 86.544 68.8926 86.8311 68.8916C87.0403 68.8912 87.2498 68.8932 87.4592 68.8952C88.0419 68.9008 88.6248 68.9063 89.2036 68.8605C89.3573 68.8482 89.5013 68.7041 89.6451 68.5601C89.711 68.4941 89.7768 68.4282 89.8435 68.375C89.7847 68.3185 89.7287 68.256 89.6727 68.1937C89.5448 68.0511 89.4171 67.9088 89.2571 67.8375C89.1107 67.7727 88.9298 67.7867 88.749 67.8006C88.673 67.8064 88.597 67.8123 88.5236 67.8123H85.4786Z" fill="url(#paint0_linear)"/>
<g style="mix-blend-mode:darken">
<path fill-rule="evenodd" clip-rule="evenodd" d="M0 0H140V93.5223H0V0Z" />
</g>
<defs>
<linearGradient id="paint0_linear" x1="6" y1="19" x2="15.0111" y2="88.9915" gradientUnits="userSpaceOnUse">
<stop stop-color="#7EB7FE"/>
<stop offset="1" stop-color="#599EF4" stop-opacity="0.92"/>
</linearGradient>
</defs>
</svg>
