<svg width="140" height="94" viewBox="0 0 140 94" fill="none" preserveAspectRatio="xMidYMid meet" xmlns="http://www.w3.org/2000/svg">
<path fill-rule="evenodd" clip-rule="evenodd" d="M91.9955 51.9796C91.9609 51.9791 91.9263 51.9787 91.8917 51.9787C90.2597 51.9551 88.843 51.4704 87.9128 50.0246C87.1861 48.8951 86.9655 47.633 87.1412 46.3192C87.2209 45.7216 87.3773 45.1124 87.6215 44.5633C88.235 43.1841 89.3409 42.4233 90.8201 42.1568C92.0865 41.9287 93.2995 42.053 94.4291 42.6615C95.6187 43.3023 96.2557 44.3765 96.5472 45.6689C96.7619 46.6209 96.7404 47.5708 96.5069 48.5241C96.015 50.5332 94.506 51.8717 92.2183 51.978C92.1442 51.9815 92.0698 51.9805 91.9955 51.9796ZM88.4339 53.2758C89.5299 53.8156 90.6911 54.0401 91.9129 54.0332C92.0826 54.0154 92.253 54.0012 92.4233 53.9871C92.7933 53.9564 93.1632 53.9257 93.5261 53.8575C96.1402 53.3662 97.8509 51.8416 98.6156 49.2781C98.9572 48.1328 99.0169 46.955 98.8324 45.78C98.4417 43.29 97.1899 41.4384 94.776 40.5229C93.0301 39.8609 91.2368 39.849 89.4624 40.3655C87.4012 40.9654 86.0089 42.323 85.2913 44.3597C84.8251 45.6829 84.7125 47.0431 84.9633 48.4214C85.3567 50.583 86.4134 52.2806 88.4339 53.2758ZM71.1673 46.0313C71.1313 46.0193 71.0876 46.0048 71.0316 45.9888V42.3249C71.0854 42.3099 71.1351 42.2925 71.182 42.2761C71.2749 42.2436 71.3567 42.215 71.4381 42.2162C72.9129 42.238 74.3878 42.2632 75.8621 42.3062C76.0943 42.3129 76.332 42.3898 76.5529 42.4728C77.2545 42.7364 77.6028 43.2649 77.6402 44.0208C77.6796 44.8175 77.4135 45.4481 76.6672 45.7777C76.3165 45.9327 75.9188 46.0496 75.5397 46.058C74.4628 46.0817 73.3852 46.0754 72.3077 46.0692C71.9733 46.0673 71.6389 46.0653 71.3046 46.0643C71.2659 46.0642 71.2274 46.0513 71.1673 46.0313ZM71.0169 48.233C71.0241 48.1616 71.032 48.0834 71.0393 47.9951C71.1327 47.9889 71.2186 47.9818 71.2995 47.9751C71.4603 47.9618 71.6014 47.9501 71.7425 47.9497C72.0577 47.9489 72.373 47.9471 72.6882 47.9454C73.7212 47.9397 74.7543 47.9341 75.7866 47.9595C76.278 47.9716 76.7847 48.0571 77.252 48.2094C78.0704 48.4761 78.4404 49.0918 78.4143 49.9719C78.3892 50.8151 78.0014 51.3505 77.1673 51.5973C76.7551 51.7192 76.3187 51.8112 75.8914 51.8198C74.5168 51.8473 73.1413 51.8391 71.7661 51.8309L71.6516 51.8302C71.0307 51.8265 70.9956 51.7825 70.9908 51.1488C70.9842 50.2976 70.9869 49.4463 70.9913 48.595C70.9918 48.4825 71.0031 48.37 71.0169 48.233ZM77.8791 46.8043C77.7826 46.767 77.6747 46.7253 77.549 46.6773C77.709 46.5904 77.8562 46.5156 77.993 46.446C78.2636 46.3085 78.4935 46.1917 78.7005 46.0427C79.5617 45.4233 79.8217 44.5352 79.7696 43.5108C79.7116 42.3714 79.224 41.5034 78.2184 40.9554C77.4397 40.5311 76.5918 40.3249 75.7137 40.3154C74.0742 40.2976 72.4344 40.3006 70.7946 40.3035C70.3659 40.3042 69.9371 40.305 69.5084 40.3054C69.3812 40.3055 69.2541 40.3212 69.1233 40.3374C69.0616 40.345 68.999 40.3528 68.9353 40.359C68.9263 40.4215 68.9164 40.4775 68.9072 40.5292C68.8897 40.6281 68.8749 40.7113 68.8749 40.7944C68.8719 44.9254 68.8713 49.0564 68.8756 53.1874C68.8757 53.2987 68.8996 53.4099 68.9236 53.5218L68.9236 53.5219L68.9236 53.522C68.9348 53.5744 68.9461 53.6269 68.955 53.6796C69.0182 53.6859 69.0748 53.6927 69.1271 53.6991L69.1272 53.6991C69.2281 53.7113 69.3127 53.7216 69.3974 53.7216L70.6941 53.7226H70.6946C72.592 53.7241 74.4893 53.7257 76.3867 53.7159C77.1097 53.7122 77.8101 53.5448 78.4745 53.2606C80.2244 52.5122 80.8409 51.0494 80.4581 49.1868C80.2193 48.0252 79.4076 47.368 78.3416 46.9798C78.2002 46.9283 78.0597 46.874 77.8791 46.8043ZM114.947 47.0995L114.881 47.09C114.881 47.0207 114.882 46.9512 114.884 46.8818C114.888 46.7322 114.891 46.5826 114.878 46.4344C114.704 44.4363 113.693 42.9355 111.926 42.3363C110.808 41.9573 109.664 41.9445 108.522 42.2722C107.201 42.6512 106.264 43.4695 105.752 44.7483C105.157 46.2306 105.156 47.7338 105.72 49.2211C106.227 50.5572 107.196 51.4369 108.575 51.7748C109.22 51.9329 109.915 52.0044 110.576 51.9572C112.758 51.8016 114.137 50.6312 114.677 48.7066C114.777 48.3503 114.826 47.9795 114.875 47.6087L114.875 47.6086C114.897 47.4384 114.92 47.2683 114.947 47.0995ZM110.119 54.0396C109.052 54.0515 108.031 53.8613 107.052 53.4584C105.418 52.7856 104.232 51.6318 103.625 49.9671C102.768 47.6157 102.821 45.2851 104.113 43.0884C105.09 41.4271 106.606 40.5018 108.484 40.1747C109.917 39.925 111.345 39.9529 112.737 40.4224C114.729 41.0944 116.069 42.445 116.736 44.4397C117.316 46.1723 117.316 47.929 116.717 49.6527C115.91 51.9752 114.251 53.3538 111.863 53.8408C111.472 53.9207 111.071 53.9545 110.671 53.9884L110.671 53.9884C110.486 54.004 110.302 54.0196 110.119 54.0396ZM52.8167 53.6909H63.0191C63.0191 53.5297 63.0206 53.3738 63.0221 53.2218C63.026 52.8167 63.0297 52.4396 63.0038 52.0646C62.9956 51.9478 62.8107 51.7969 62.676 51.7477C62.5653 51.7071 62.4366 51.7147 62.3085 51.7222L62.3085 51.7222C62.2579 51.7252 62.2074 51.7281 62.1582 51.7281C61.5119 51.728 60.8657 51.728 60.2195 51.728C58.6878 51.7281 57.1562 51.7281 55.6246 51.7261C55.455 51.7259 55.2854 51.7157 55.0951 51.7043L55.095 51.7043L55.095 51.7043C55.0004 51.6987 54.9006 51.6927 54.7931 51.6875C54.791 51.5001 54.7886 51.3142 54.7862 51.1292V51.1289V51.1289V51.1288V51.1287C54.7725 50.0853 54.7592 49.0734 54.8134 48.0271C54.9323 48.0193 55.0425 48.0105 55.1467 48.0022C55.3549 47.9855 55.5398 47.9708 55.7246 47.9701C56.8214 47.9667 57.9182 47.9671 59.015 47.9674C59.4863 47.9676 59.9576 47.9678 60.4289 47.9676C60.5358 47.9676 60.6427 47.9658 60.7497 47.9641C60.8169 47.9629 60.8841 47.9618 60.9514 47.9611C61.2238 47.9585 61.3434 47.8104 61.3427 47.5477C61.3424 47.4469 61.3423 47.3461 61.3422 47.2452C61.3419 46.9745 61.3416 46.7037 61.3378 46.433C61.3345 46.1995 61.2118 46.0675 60.9777 46.0542C60.8039 46.0444 60.6295 46.0417 60.4553 46.0416C59.9615 46.0412 59.4677 46.0414 58.9738 46.0416C57.8778 46.0419 56.7818 46.0423 55.6859 46.0375C55.4952 46.0368 55.3047 46.0155 55.1202 45.9949C55.0371 45.9856 54.9552 45.9765 54.875 45.9694C54.7136 45.2059 54.7474 42.8167 54.9336 42.2991H55.6874L57.162 42.2991C58.7612 42.2991 60.3604 42.2991 61.9596 42.2986C62.0048 42.2986 62.0504 42.2999 62.096 42.3013C62.2262 42.3051 62.3568 42.309 62.4801 42.2814C62.5902 42.2569 62.7599 42.1545 62.7681 42.0731L62.7764 41.9916C62.8326 41.4438 62.8892 40.8923 62.7886 40.358C61.7163 40.2336 53.2262 40.2802 52.752 40.4049C52.7456 40.4161 52.7381 40.4272 52.7306 40.4384L52.7305 40.4384L52.7305 40.4385C52.7137 40.4633 52.6966 40.4884 52.6911 40.5159C52.6742 40.6008 52.6615 40.6882 52.6615 40.7747C52.6609 44.9504 52.6617 49.126 52.6646 53.3017C52.6647 53.3661 52.6793 53.4307 52.6938 53.4949L52.699 53.5179C52.7019 53.5312 52.7048 53.5446 52.7075 53.5579C52.7109 53.5744 52.7233 53.5896 52.7349 53.604L52.7412 53.6118C52.7454 53.6172 52.75 53.6223 52.7557 53.6283C52.7612 53.6342 52.7679 53.641 52.7764 53.6496C52.7867 53.66 52.7996 53.6732 52.8167 53.6909ZM27.7135 48.1327C27.6828 48.0225 27.6578 47.9252 27.6352 47.8368C27.5922 47.6691 27.5575 47.5339 27.5072 47.4049C27.0076 46.1251 26.5041 44.8466 25.9923 43.5716C25.8462 43.2077 25.6918 42.8433 25.4986 42.5035C25.3042 42.1615 24.9384 42.1758 24.7246 42.5052C24.6773 42.5779 24.6396 42.6581 24.6068 42.7387L24.3654 43.3321C23.7966 44.7301 23.2278 46.1282 22.666 47.529C22.6207 47.6419 22.5995 47.7645 22.5753 47.9049L22.5753 47.905C22.563 47.976 22.55 48.0515 22.5326 48.1327H27.7135ZM31.2175 53.7096H31.2174C30.7009 53.7136 30.2089 53.7175 29.719 53.6872C29.5984 53.6797 29.4414 53.4346 29.39 53.2711C29.2441 52.8065 29.1104 52.3382 28.9767 51.8698L28.9766 51.8697C28.8767 51.5199 28.7769 51.1701 28.6719 50.8218C28.4422 50.0597 28.4341 50.0593 27.6229 50.0584C25.9458 50.0564 24.2685 50.0563 22.5912 50.0585C21.8085 50.0595 21.7986 50.0597 21.56 50.8386C21.3106 51.6524 21.0702 52.4695 20.8527 53.2923C20.772 53.5972 20.6311 53.7352 20.3129 53.7273C19.9239 53.7177 19.5346 53.7196 19.1124 53.7216C18.9273 53.7225 18.7358 53.7235 18.5353 53.7235C18.5633 53.6111 18.5872 53.5107 18.6093 53.4182L18.6093 53.4182L18.6093 53.4182L18.6093 53.4181L18.6093 53.418C18.6514 53.2417 18.6865 53.0945 18.7294 52.9495C19.7719 49.4269 21.062 45.9956 22.5232 42.6282C22.6573 42.3191 22.7984 42.0131 22.9395 41.707L22.9395 41.7069C23.0909 41.3786 23.2422 41.0502 23.385 40.7182C23.5147 40.4163 23.7078 40.2919 24.0379 40.2996C24.7562 40.3164 25.4762 40.3235 26.1938 40.2942C26.6083 40.2773 26.8254 40.4413 26.9822 40.8156C27.2637 41.4875 27.5555 42.1554 27.8472 42.8233L27.8472 42.8233C28.3772 44.0363 28.907 45.2492 29.3749 46.4857C29.9607 48.0343 30.4816 49.6076 31.0025 51.1809L31.0027 51.1816C31.209 51.8047 31.4153 52.4277 31.6256 53.0492C31.6655 53.1673 31.6892 53.291 31.7182 53.4423L31.7183 53.4423L31.7183 53.4423L31.7183 53.4424L31.7183 53.4424C31.7335 53.5218 31.7502 53.6089 31.7715 53.7067C31.5832 53.7067 31.3989 53.7082 31.2177 53.7096H31.2176H31.2175ZM122.798 40.3056C122.641 40.3052 122.484 40.3047 122.324 40.3047C122.301 40.3665 122.281 40.4133 122.265 40.4511C122.238 40.5124 122.222 40.5495 122.222 40.5866C122.216 44.7395 122.213 48.8924 122.212 53.0454C122.212 53.1719 122.228 53.2984 122.244 53.4249L122.244 53.4251C122.25 53.4709 122.255 53.5167 122.26 53.5625C122.262 53.5771 122.275 53.591 122.288 53.604L122.294 53.6103L122.298 53.6141C122.307 53.624 122.316 53.633 122.339 53.6532C122.353 53.666 122.372 53.6833 122.399 53.7081C122.538 53.7093 122.68 53.7137 122.824 53.7181L122.825 53.7181C123.29 53.7325 123.786 53.7478 124.306 53.6611C124.335 52.763 124.33 51.8762 124.325 50.9981V50.998V50.9979C124.319 49.9975 124.314 49.0082 124.358 48.0261C125.405 47.8417 125.497 47.8633 126.162 48.4402C126.223 48.4935 126.285 48.5464 126.347 48.5992L126.347 48.5993C126.551 48.773 126.755 48.9469 126.941 49.1381L127.417 49.6278L127.418 49.6281C128.597 50.8401 129.777 52.0522 130.932 53.2871C131.23 53.6053 131.521 53.7521 131.947 53.7298C132.266 53.7132 132.585 53.7167 132.904 53.7201C133.108 53.7223 133.311 53.7245 133.515 53.7215C133.603 53.7202 133.692 53.7013 133.803 53.6776C133.861 53.6652 133.926 53.6514 134 53.6381C131.939 51.1242 129.653 48.9588 127.231 46.8128C129.483 44.8111 131.503 42.7299 133.406 40.3022C133.178 40.3022 132.968 40.3063 132.77 40.3102C132.355 40.3182 131.992 40.3253 131.632 40.292C131.022 40.2355 130.633 40.4659 130.261 40.9482C129.019 42.5578 127.596 44.0029 126.124 45.4033C125.585 45.9159 125.023 45.8874 124.326 45.7342V45.0024L124.326 44.0061C124.326 43.3546 124.326 42.7031 124.326 42.0516C124.326 41.9126 124.325 41.7736 124.324 41.6346C124.323 41.3364 124.321 41.0382 124.326 40.7402C124.332 40.438 124.202 40.2988 123.898 40.3028C123.534 40.3077 123.169 40.3067 122.798 40.3056ZM47.6102 43.1891L45.74 44.114C45.7004 44.0671 45.6637 44.0256 45.6297 43.9873C45.5639 43.9131 45.5083 43.8504 45.4616 43.7815C44.4438 42.2815 42.9727 41.8706 41.2862 42.1112C39.4301 42.376 38.2964 43.5099 37.7845 45.2919C37.3652 46.7519 37.4299 48.1935 38.0728 49.5751C38.7961 51.1293 40.0689 51.8858 41.75 51.9784C42.5621 52.023 43.3675 51.9471 44.1061 51.5822C44.4911 51.392 44.8551 51.1404 45.1874 50.8663L45.25 50.8146C45.6611 50.474 45.673 50.4641 46.2113 50.7204C46.4919 50.854 46.7697 50.9935 47.0627 51.1406C47.1982 51.2086 47.3368 51.2782 47.4806 51.3497C47.4538 51.4077 47.4317 51.4625 47.4111 51.5138C47.3705 51.6148 47.3353 51.7024 47.2797 51.774C46.545 52.7208 45.5732 53.3346 44.4439 53.6702C42.8436 54.1459 41.2151 54.1663 39.6231 53.6633C37.6141 53.0286 36.2815 51.6613 35.6674 49.634C35.0199 47.4969 35.1342 45.3969 36.1783 43.4047C37.3252 41.2165 39.2091 40.1774 41.6296 40.0454C43.0074 39.9703 44.3188 40.1969 45.5129 40.9319C46.3842 41.4682 47.0655 42.1849 47.6102 43.1891ZM6.77693 40.3026H6.14438C6.11353 40.3594 6.08972 40.3995 6.07183 40.4296C6.04394 40.4766 6.0304 40.4994 6.02694 40.5236C6.01144 40.6311 6 40.7402 6 40.8487C6.00026 45.023 6.00177 49.1974 6.00523 53.3716C6.00528 53.4205 6.01993 53.4696 6.03442 53.5182C6.03877 53.5328 6.04309 53.5473 6.04701 53.5618C6.05148 53.5782 6.064 53.5929 6.07597 53.6069C6.07819 53.6095 6.08039 53.612 6.08252 53.6146C6.0911 53.625 6.10069 53.6345 6.12509 53.6588C6.14009 53.6737 6.16068 53.6942 6.19008 53.7239C6.30622 53.7239 6.42797 53.7243 6.55366 53.7247C6.85104 53.7257 7.17046 53.7267 7.48985 53.7227C8.08168 53.7152 8.11352 53.6873 8.11568 53.0882C8.11932 52.1037 8.11869 51.1191 8.11806 50.1345C8.11781 49.7422 8.11755 49.3499 8.11757 48.9576V48.1946C8.23332 48.184 8.34105 48.1718 8.44343 48.1601C8.64903 48.1368 8.83306 48.116 9.01717 48.1151C10.1002 48.1102 11.1833 48.1105 12.2664 48.1108C12.7726 48.1109 13.2789 48.111 13.7852 48.1106C13.8315 48.1106 13.8791 48.113 13.9267 48.1154C14.0581 48.122 14.1904 48.1287 14.3023 48.0848C14.4356 48.0324 14.6092 47.8777 14.6204 47.755C14.6579 47.3439 14.6564 46.9242 14.6125 46.5139C14.5994 46.3908 14.4168 46.2352 14.2801 46.1889C14.1461 46.1435 13.9939 46.1488 13.8431 46.154C13.7942 46.1557 13.7455 46.1574 13.6975 46.1573C13.1786 46.1569 12.6597 46.1571 12.1408 46.1573C11.1139 46.1577 10.087 46.1581 9.0602 46.1531C8.86107 46.1522 8.66204 46.1302 8.45097 46.107C8.34987 46.0958 8.246 46.0844 8.13804 46.0748C8.13495 45.8209 8.13043 45.57 8.12594 45.3208C8.10771 44.3091 8.09001 43.3272 8.17113 42.2994H9.00383L15.0128 42.2993C15.0582 42.2993 15.1036 42.2999 15.1491 42.3005C15.2562 42.3018 15.3633 42.3031 15.4699 42.297C15.8923 42.2728 15.9454 42.2232 15.9604 41.7854C15.9669 41.5935 15.9652 41.4014 15.9634 41.2092C15.9619 41.0516 15.9604 40.894 15.9635 40.7365C15.9695 40.4325 15.829 40.2928 15.5291 40.3038C15.46 40.3063 15.3907 40.3051 15.3214 40.3039C15.2818 40.3032 15.2422 40.3025 15.2026 40.3025L6.77693 40.3026Z" fill="url(#paint0_linear)"/>
<defs>
<linearGradient id="paint0_linear" x1="6" y1="40" x2="6.60118" y2="58.2177" gradientUnits="userSpaceOnUse">
<stop stop-color="#7EB7FE"/>
<stop offset="1" stop-color="#599EF4" stop-opacity="0.92"/>
</linearGradient>
</defs>
</svg>
