<svg width="148" height="152" viewBox="0 0 148 152" preserveAspectRatio="xMidYMid meet" fill="none" xmlns="http://www.w3.org/2000/svg">
<path d="M78.1287 151.171C76.5702 151.171 75.0117 151.171 73.4532 151.171C73.1594 151.127 72.8693 151.064 72.5754 151.042C71.1806 150.941 69.7858 150.878 68.3947 150.752C61.9487 150.174 55.6739 148.794 49.6259 146.516C30.6787 139.372 16.6598 126.752 7.70687 108.617C3.47033 100.04 1.09727 90.9299 0.416599 81.3855C0.334769 80.2282 0.230622 79.0745 0.137634 77.9172C0.137634 76.4557 0.137634 74.9904 0.137634 73.5289C0.185988 73.1691 0.24922 72.813 0.282696 72.4532C0.531904 69.7712 0.662088 67.0707 1.04148 64.4073C2.1685 56.4469 4.60851 48.8684 8.20529 41.6944C13.8478 30.4324 21.8932 21.1885 32.2186 13.9513C42.6816 6.62145 54.2902 2.25542 66.9924 0.782769C75.3316 -0.185399 83.6076 0.196675 91.8017 1.98463C103.47 4.53303 113.903 9.65579 123.213 17.097C124.028 17.7461 124.812 18.4324 125.515 19.0184C118.147 26.3669 110.846 33.6523 103.514 40.9636C103.563 40.9821 103.514 40.9747 103.481 40.9487C103.332 40.8412 103.187 40.7299 103.042 40.6186C92.5493 32.5468 80.7026 29.4086 67.7289 31.9311C50.3141 35.3178 38.7389 45.7896 33.0815 62.4858C29.9831 71.6259 30.1914 80.9812 33.4348 90.0879C38.6682 104.792 48.9192 114.374 63.935 118.751C71.1769 120.862 78.5527 120.754 85.9323 119.445C91.4743 118.462 96.6854 116.559 101.413 113.495C109.157 108.468 113.981 101.368 116.146 92.4397C116.477 91.0672 116.462 91.0635 115.038 91.0635C102.313 91.0635 89.5923 91.0635 76.8715 91.0635C75.8821 91.0635 75.8486 91.0264 75.8486 90.0731C75.8486 81.0665 75.8486 72.0562 75.8486 63.0497C75.8486 62.0889 75.8784 62.063 76.8678 62.063C83.7452 62.063 90.6226 62.063 97.5 62.063C113.408 62.063 129.317 62.063 145.225 62.0593C145.779 62.0593 146.278 62.0333 146.386 62.7789C146.847 65.9876 147.464 69.1777 147.784 72.3975C148.16 76.1812 147.885 79.9759 147.58 83.7633C147.085 89.9136 145.951 95.9377 144.098 101.828C140.327 113.817 133.974 124.23 124.653 132.706C112.49 143.764 98.0282 149.569 81.6883 150.89C80.498 150.982 79.3115 151.075 78.1287 151.171Z" fill="url(#paint0_linear)"/>
<defs>
<linearGradient id="paint0_linear" x1="0.137634" y1="0.264648" x2="55.1502" y2="179.391" gradientUnits="userSpaceOnUse">
<stop stop-color="#447EC6"/>
<stop offset="0.53125" stop-color="#285D9D" stop-opacity="0.5"/>
<stop offset="1" stop-color="#194173" stop-opacity="0"/>
</linearGradient>
</defs>
</svg>
