<svg width="140" height="94" viewBox="0 0 140 94" preserveAspectRatio="xMidYMid meet" fill="none" xmlns="http://www.w3.org/2000/svg">
<path d="M63.3749 47.735C63.3749 51.7634 60.2257 54.7318 56.361 54.7318C52.4962 54.7318 49.347 51.7634 49.347 47.735C49.347 43.6782 52.4962 40.7382 56.361 40.7382C60.2257 40.7382 63.3749 43.6782 63.3749 47.735ZM60.3046 47.735C60.3046 45.2177 58.4793 43.4953 56.361 43.4953C54.2426 43.4953 52.4174 45.2177 52.4174 47.735C52.4174 50.2271 54.2426 51.9747 56.361 51.9747C58.4793 51.9747 60.3046 50.224 60.3046 47.735Z" fill="url(#paint0_linear_807_118)"/>
<path d="M78.5063 47.735C78.5063 51.7634 75.3571 54.7318 71.4923 54.7318C67.6275 54.7318 64.4783 51.7634 64.4783 47.735C64.4783 43.6814 67.6275 40.7382 71.4923 40.7382C75.3571 40.7382 78.5063 43.6782 78.5063 47.735ZM75.4359 47.735C75.4359 45.2177 73.6107 43.4953 71.4923 43.4953C69.3739 43.4953 67.5487 45.2177 67.5487 47.735C67.5487 50.2271 69.3739 51.9747 71.4923 51.9747C73.6107 51.9747 75.4359 50.224 75.4359 47.735Z" fill="url(#paint1_linear_807_118)"/>
<path d="M93.0071 41.1609V53.7224C93.0071 58.8896 89.9619 61 86.3619 61C82.9731 61 80.9336 58.7318 80.1644 56.877L82.8376 55.7634C83.3136 56.9022 84.48 58.246 86.3588 58.246C88.6631 58.246 90.0911 56.8233 90.0911 54.1451V53.1388H89.984C89.2968 53.9874 87.9728 54.7287 86.302 54.7287C82.8061 54.7287 79.6033 51.6814 79.6033 47.7602C79.6033 43.8107 82.8061 40.7382 86.302 40.7382C87.9696 40.7382 89.2936 41.4795 89.984 42.3028H90.0911V41.164H93.0071V41.1609ZM90.3087 47.7602C90.3087 45.2965 88.6663 43.4953 86.5763 43.4953C84.4579 43.4953 82.6831 45.2965 82.6831 47.7602C82.6831 50.1987 84.4579 51.9747 86.5763 51.9747C88.6663 51.9747 90.3087 50.1987 90.3087 47.7602Z" fill="url(#paint2_linear_807_118)"/>
<path d="M97.8144 33.7981V54.3028H94.8197V33.7981H97.8144Z" fill="url(#paint3_linear_807_118)"/>
<path d="M109.484 50.0379L111.868 51.6278C111.098 52.7666 109.245 54.7287 106.042 54.7287C102.07 54.7287 99.1037 51.6562 99.1037 47.7319C99.1037 43.571 102.095 40.735 105.698 40.735C109.327 40.735 111.102 43.6246 111.682 45.1861L112 45.9811L102.653 49.8549C103.369 51.2587 104.482 51.9748 106.042 51.9748C107.606 51.9748 108.69 51.2051 109.484 50.0379ZM102.149 47.5205L108.397 44.9243C108.053 44.0505 107.019 43.4417 105.802 43.4417C104.242 43.4417 102.07 44.8202 102.149 47.5205Z" fill="url(#paint4_linear_807_118)"/>
<path d="M38.0112 45.9148V42.9464H48.0073C48.105 43.4637 48.1554 44.0757 48.1554 44.7382C48.1554 46.9653 47.547 49.7192 45.5863 51.6814C43.6791 53.6688 41.2423 54.7287 38.0143 54.7287C32.0312 54.7287 27 49.8517 27 43.8643C27 37.877 32.0312 33 38.0143 33C41.3243 33 43.6822 34.2997 45.4539 35.9937L43.3607 38.0883C42.0903 36.8959 40.3691 35.9685 38.0112 35.9685C33.642 35.9685 30.2249 39.4921 30.2249 43.8643C30.2249 48.2366 33.642 51.7602 38.0112 51.7602C40.8451 51.7602 42.4591 50.6214 43.4931 49.5867C44.3316 48.7476 44.8833 47.5489 45.1008 45.9117L38.0112 45.9148Z" fill="url(#paint5_linear_807_118)"/>
<defs>
<linearGradient id="paint0_linear_807_118" x1="49.347" y1="40.7382" x2="54.3515" y2="57.4134" gradientUnits="userSpaceOnUse">
<stop stop-color="#7EB7FE"/>
<stop offset="1" stop-color="#599EF4" stop-opacity="0.92"/>
</linearGradient>
<linearGradient id="paint1_linear_807_118" x1="64.4783" y1="40.7382" x2="69.4828" y2="57.4134" gradientUnits="userSpaceOnUse">
<stop stop-color="#7EB7FE"/>
<stop offset="1" stop-color="#599EF4" stop-opacity="0.92"/>
</linearGradient>
<linearGradient id="paint2_linear_807_118" x1="79.6033" y1="40.7382" x2="89.5214" y2="62.5468" gradientUnits="userSpaceOnUse">
<stop stop-color="#7EB7FE"/>
<stop offset="1" stop-color="#599EF4" stop-opacity="0.92"/>
</linearGradient>
<linearGradient id="paint3_linear_807_118" x1="94.8197" y1="33.7981" x2="105.284" y2="38.8779" gradientUnits="userSpaceOnUse">
<stop stop-color="#7EB7FE"/>
<stop offset="1" stop-color="#599EF4" stop-opacity="0.92"/>
</linearGradient>
<linearGradient id="paint4_linear_807_118" x1="99.1037" y1="40.735" x2="104.466" y2="57.1616" gradientUnits="userSpaceOnUse">
<stop stop-color="#7EB7FE"/>
<stop offset="1" stop-color="#599EF4" stop-opacity="0.92"/>
</linearGradient>
<linearGradient id="paint5_linear_807_118" x1="27" y1="33" x2="34.9613" y2="58.7645" gradientUnits="userSpaceOnUse">
<stop stop-color="#7EB7FE"/>
<stop offset="1" stop-color="#599EF4" stop-opacity="0.92"/>
</linearGradient>
</defs>
</svg>
