<svg width="140" height="94" viewBox="0 0 140 94" fill="none" preserveAspectRatio="xMidYMid meet" xmlns="http://www.w3.org/2000/svg">
<path fill-rule="evenodd" clip-rule="evenodd" d="M97.7948 36.2852C97.7877 36.4193 97.7807 36.5531 97.7745 36.6864C97.7632 36.9381 97.777 37.1921 97.7907 37.4462C97.8224 38.0334 97.8542 38.6212 97.5771 39.1826C97.6316 40.1417 97.3552 41.0505 97.0843 41.9411C97.0247 42.1371 96.9654 42.3322 96.9099 42.5268C96.4298 44.202 95.7356 45.8232 94.977 47.4028C94.5631 48.2623 94.0953 49.0898 93.6267 49.9186C93.5752 50.0097 93.5237 50.1008 93.4722 50.192C92.9193 51.171 92.3644 52.1499 91.7513 53.0873C91.4918 53.4847 91.2019 53.8662 90.9128 54.2468C90.5836 54.6801 90.2553 55.1121 89.9742 55.5648C88.9163 57.2691 87.5965 58.7551 86.258 60.1996C84.3334 62.276 82.3776 64.3461 80.1661 66.1419C80.1321 66.1694 80.0982 66.197 80.0642 66.2246C79.4597 66.7152 78.8512 67.209 78.1999 67.6321C76.6951 68.6069 75.1135 69.432 73.4112 70.0264C72.1517 70.4671 70.8672 70.8703 69.5578 70.9119C69.2467 70.9214 68.9348 70.9356 68.6224 70.9498C67.2404 71.0126 65.8496 71.0758 64.4782 70.7435C64.2357 70.6849 63.9901 70.6415 63.7444 70.598C63.3541 70.529 62.9636 70.46 62.5847 70.3299C62.3239 70.2411 62.0591 70.1636 61.7945 70.0861C61.4457 69.9839 61.097 69.8818 60.7578 69.7542C60.1322 69.5214 59.517 69.2553 58.9205 68.954C57.5965 68.2826 56.3162 67.5469 55.1211 66.6428C54.8916 66.4692 54.6596 66.2991 54.4278 66.1292C53.6435 65.5542 52.8613 64.9807 52.1843 64.2796C51.879 63.9637 51.5623 63.6585 51.2454 63.3533C50.5095 62.6443 49.7731 61.9348 49.1789 61.0892C48.9188 60.7198 48.6311 60.3699 48.3433 60.02C48.0838 59.7044 47.8242 59.3887 47.5847 59.0586C46.5954 57.7035 45.7661 56.2465 44.9514 54.7812C44.3465 53.6921 43.9142 52.5157 43.4902 51.3601C43.4678 51.2991 43.4453 51.238 43.4227 51.1768C43.0943 50.2858 42.7596 49.3778 42.5924 48.4171C42.5486 48.1683 42.4919 47.9217 42.4351 47.675C42.3164 47.159 42.1975 46.6423 42.1975 46.1038C42.1989 46.066 42.1363 46.0272 42.0744 45.9888C42.0477 45.9723 42.0212 45.9558 42 45.9396V40.1532C42.0213 40.1369 42.0472 40.121 42.073 40.1051C42.133 40.0682 42.1931 40.0311 42.1975 39.989C42.2061 39.8988 42.1969 39.8002 42.1879 39.703C42.173 39.5428 42.1585 39.3861 42.2245 39.2761C42.4178 38.9564 42.4988 38.6033 42.5799 38.2501C42.6347 38.011 42.6896 37.7718 42.7794 37.5427C42.8464 37.3695 42.9115 37.192 42.977 37.0137C43.1331 36.5887 43.291 36.1587 43.4798 35.7678C44.1179 34.448 44.9534 33.2196 45.9802 32.1596C46.5965 31.5246 47.2644 30.9384 47.9313 30.353C48.0786 30.2237 48.2258 30.0945 48.3725 29.9648C48.6905 29.6842 49.0251 29.3974 49.3992 29.2103C49.9235 28.9502 50.4281 28.6554 50.9331 28.3604C51.7233 27.8987 52.5141 27.4367 53.3815 27.107C53.7766 26.958 54.1652 26.7875 54.5545 26.6168C55.0396 26.4041 55.5257 26.1908 56.0273 26.0179C57.3284 25.5689 58.6399 25.1616 59.9805 24.8373C60.2547 24.7701 60.5315 24.7124 60.8075 24.655C61.1966 24.574 61.5842 24.4933 61.9612 24.3863C62.3377 24.2791 62.721 24.2105 63.1042 24.142C63.5458 24.0629 63.9872 23.9839 64.4179 23.8459C64.6145 23.7833 64.8218 23.7747 65.0342 23.7659C65.28 23.7558 65.5326 23.7453 65.7834 23.6505C65.9696 23.58 66.1775 23.5824 66.3898 23.5849C66.6776 23.5883 66.9734 23.5918 67.2342 23.4136C67.7495 23.4969 68.2514 23.4096 68.7537 23.3222C69.1794 23.2482 69.6053 23.1741 70.04 23.2037C70.3476 23.2245 70.6594 23.2182 70.967 23.1975C71.0084 23.1946 71.0448 23.135 71.0811 23.0757C71.0977 23.0486 71.1142 23.0215 71.1312 23H81.8746C81.903 23.0218 81.931 23.0491 81.959 23.0764C82.019 23.1348 82.0789 23.1932 82.1427 23.1975C82.3069 23.2099 82.4702 23.2193 82.6332 23.2286C83.0957 23.2551 83.5561 23.2815 84.0278 23.3783C84.4195 23.4583 84.8137 23.5251 85.2083 23.592C85.9005 23.7094 86.5941 23.8271 87.2785 24.0163C88.5443 24.3655 89.7996 24.7189 90.9947 25.2717C93.0149 26.2091 94.6881 27.558 95.9954 29.3683C97.0201 30.7899 97.4939 32.4215 97.76 34.1071C97.8724 34.8166 97.8334 35.5544 97.7948 36.2852ZM48.8401 57.5954C51.1201 60.6029 59.1678 60.2828 61.6744 57.1527C63.6364 54.6981 62.3041 52.3058 60.7516 51.5929C59.5586 51.0461 57.8754 50.9239 55.3217 50.7384C54.8276 50.7026 54.301 50.6643 53.7389 50.6202C52.1261 50.4934 51.806 50.0216 51.806 49.3794C51.806 48.9907 52.0014 48.5542 52.4233 48.2134C52.7039 47.9827 53.0697 47.8039 53.475 47.727C53.8927 47.7748 54.2523 47.7915 54.5828 47.7915C58.4507 47.7915 60.6352 45.4615 60.6352 42.6848C60.6352 41.4938 60.1862 40.2572 59.3943 39.3614C60.2361 39.3614 61.8219 39.4611 62.3166 39.563V37.576C61.427 37.8254 60.3359 37.8732 59.3943 37.8732C58.6004 37.8732 57.8584 37.7236 57.16 37.5261C56.3203 37.2788 55.331 37.0813 54.4913 37.0813C50.6026 37.0813 48.2041 39.4632 48.2041 42.5455C48.2041 44.6697 49.5738 46.5506 51.5587 47.2947C50.0705 47.9931 49.2766 48.9824 49.2766 50.1234C49.2766 51.2396 50.0643 52.3972 51.6044 52.8129C49.3701 53.7877 47.2875 55.5461 48.8401 57.5954ZM63.3932 52.2538C64.9811 52.9002 66.5171 53.2473 68.2526 53.2473C71.0314 53.2473 74.3507 52.1042 74.3507 48.7808C74.3507 46.5008 72.1704 45.316 70.0837 44.2727C70.025 44.2432 69.9663 44.2139 69.9078 44.1846C67.9928 43.2255 66.2178 42.3365 66.2178 40.8017C66.2178 39.4611 67.654 38.8625 69.1442 38.8625C70.6823 38.8625 72.1164 39.4092 73.3115 40.3528V38.1205C72.0707 37.4263 70.6324 37.0813 69.192 37.0813C66.5171 37.0813 63.5408 38.4198 63.5408 41.4938C63.5408 44.0253 65.7709 45.1144 67.8535 46.1059C67.8846 46.1206 67.9157 46.1352 67.9467 46.1499C69.7955 47.0239 71.4762 47.8185 71.4762 49.4293C71.4762 51.0608 69.7387 51.4079 68.3503 51.4079C67.0616 51.4079 65.0289 50.8654 63.3932 49.9738V52.2538ZM83.4396 50.3209C85.0234 52.1998 86.3162 53.0478 87.8521 53.0478C89.041 53.0478 90.1342 52.7506 90.8762 52.1998C90.7287 52.2538 90.5291 52.3016 90.3816 52.3016C89.5377 52.3016 88.378 52.0813 86.5448 50.0985C84.1629 47.4693 81.4028 44.121 81.4028 44.121L85.622 40.1532C88.0545 37.8676 88.7679 37.6839 88.9818 37.6288C88.9858 37.6278 88.9896 37.6268 88.9932 37.6259H85.0754C84.2814 38.6672 83.3877 39.4611 83.3877 39.4611L78.8775 43.6782V30.3867L75.4523 31.2763C75.9012 31.8749 76.0508 32.8663 76.0508 35.0964V48.8348C76.0508 51.5123 75.9115 51.8829 75.6347 52.619C75.6246 52.6457 75.6144 52.6729 75.604 52.7007H79.2724C79.0251 52.0564 78.8775 51.6095 78.8775 48.8348V44.865C78.8775 44.865 80.9102 47.2947 83.4396 50.3209ZM50.9144 42.134C50.9144 40.1013 52.1656 38.717 54.2481 38.717C56.6279 38.717 57.9083 40.4899 57.9083 42.7201C57.9083 44.7549 56.8046 46.2035 54.6721 46.2035C52.2404 46.2035 50.9144 44.4161 50.9144 42.134ZM60.4315 54.8893C60.7952 56.1571 59.7248 57.5268 56.7901 57.8386C52.2341 58.3291 48.6821 55.3092 52.893 52.9875C53.1759 53.0095 53.4404 53.0339 53.712 53.0589L53.7122 53.0589C54.3684 53.1195 55.0668 53.1839 56.1707 53.2266C59.228 53.3492 60.1924 54.0434 60.4315 54.8893Z" fill="url(#paint0_linear)"/>
<g style="mix-blend-mode:darken">
<path fill-rule="evenodd" clip-rule="evenodd" d="M0 0H140V94H0V0Z" />
</g>
<defs>
<linearGradient id="paint0_linear" x1="42" y1="23" x2="57.115" y2="81.4406" gradientUnits="userSpaceOnUse">
<stop stop-color="#7EB7FE"/>
<stop offset="1" stop-color="#599EF4" stop-opacity="0.92"/>
</linearGradient>
</defs>
</svg>
