<svg width="140" height="94" viewBox="0 0 140 94" fill="none" preserveAspectRatio="xMidYMid meet" xmlns="http://www.w3.org/2000/svg">
<g style="mix-blend-mode:darken">
<path fill-rule="evenodd" clip-rule="evenodd" d="M0 0H140V94H0V0Z"/>
</g>
<path fill-rule="evenodd" clip-rule="evenodd" d="M23 74.7235H24.3217V19H23V74.7235ZM30.9229 46.96H32.4179V51.7923H38.3364V46.96H39.8314V58.1977H38.3364V53.0512H32.4179V58.1977H30.9229V46.96ZM43.948 46.96H41.9019V58.1977H43.3182V48.8486H43.35L46.86 58.1977H48.1347L51.6446 48.8486H51.6757V58.1977H53.0927V46.96H51.0466L47.489 56.4037L43.948 46.96ZM59.6382 46.96H64.9263C67.0359 46.96 68.3423 48.1091 68.3423 49.9037C68.3423 51.2565 67.7437 52.3745 66.3902 52.7522V52.7839C67.6967 53.0353 67.9646 53.9952 68.0744 55.0972C68.0921 55.3027 68.1042 55.5126 68.1165 55.7231C68.1697 56.6409 68.2235 57.5703 68.7353 58.1977H67.067C66.8128 57.9246 66.7953 57.3811 66.7751 56.7524C66.7615 56.3304 66.7466 55.87 66.6581 55.4273C66.5007 54.3259 66.2328 53.3972 64.7847 53.3972H61.1332V58.1977H59.6382V46.96ZM64.2496 52.1383C65.6507 52.1383 66.8467 51.7765 66.8467 50.1392C66.8467 49.0378 66.2487 48.2189 64.8476 48.2189H61.1332V52.1383H64.2496ZM73.26 58.383C75.0858 58.383 76.3764 57.4073 76.7383 55.6126H75.4166C75.1804 56.6671 74.4091 57.2022 73.307 57.2022C71.5289 57.2022 70.7258 55.9434 70.7734 54.5271H76.8639C76.9427 52.5598 76.0615 49.8681 73.1813 49.8681C70.962 49.8681 69.3565 51.6621 69.3565 54.1017C69.4352 56.589 70.663 58.383 73.26 58.383ZM73.1026 51.0489C74.4243 51.0489 75.3848 52.0716 75.4476 53.3463H70.7734C70.8674 52.1033 71.7015 51.0489 73.1026 51.0489ZM81.3225 58.1925H79.8903L76.8685 50.0553H78.3635L80.6457 56.8384H80.6775L82.8962 50.0553H84.2973L81.3225 58.1925ZM88.2961 58.383C90.1219 58.383 91.4125 57.4073 91.7743 55.6126H90.452C90.2165 56.6671 89.4452 57.2022 88.3431 57.2022C86.5649 57.2022 85.7619 55.9434 85.8095 54.5271H91.9C91.9787 52.5598 91.0976 49.8681 88.2174 49.8681C85.998 49.8681 84.3925 51.6621 84.3925 54.1017C84.4713 56.589 85.699 58.383 88.2961 58.383ZM88.1387 51.0489C89.4604 51.0489 90.4209 52.0716 90.4837 53.3463H85.8095C85.9041 52.1033 86.7376 51.0489 88.1387 51.0489ZM92.9981 50.0559H94.2569V51.3465H94.2887C94.8549 50.339 95.7685 49.8673 96.9327 49.8673C99.0734 49.8673 99.7342 51.0951 99.7342 52.8415V58.1931H98.3966V52.684C98.3966 51.6931 97.7669 51.0475 96.7442 51.0475C95.1228 51.0475 94.3356 52.133 94.3356 53.5969V58.1931H92.9981V50.0559ZM106.782 58.1924H108.041V50.0552H106.703V54.6507C106.703 56.1146 105.916 57.2008 104.295 57.2008C103.272 57.2008 102.642 56.5552 102.642 55.5636V50.0552H101.305V55.4068C101.305 57.1532 101.965 58.381 104.106 58.381C105.27 58.381 106.184 57.9093 106.75 56.9018H106.782V58.1924ZM116.627 55.6126C116.265 57.4073 114.975 58.383 113.149 58.383C110.552 58.383 109.324 56.589 109.245 54.1017C109.245 51.6621 110.851 49.8681 113.07 49.8681C115.95 49.8681 116.832 52.5598 116.753 54.5271H110.662C110.615 55.9434 111.418 57.2022 113.196 57.2022C114.298 57.2022 115.069 56.6671 115.305 55.6126H116.627ZM115.337 53.3463C115.274 52.0716 114.314 51.0489 112.991 51.0489C111.59 51.0489 110.757 52.1033 110.662 53.3463H115.337ZM33.7244 74.9172C34.9521 74.9172 36.2269 74.382 36.9036 73.3276L38.0996 74.7287H39.8466L37.659 72.1944C38.1313 71.2028 38.304 70.7464 38.4145 69.4247H37.1397C37.108 70.0227 36.9823 70.6207 36.7779 71.1711L34.7471 68.7004C35.8333 68.0865 36.8566 67.1266 36.8566 65.7891C36.8566 64.2616 35.5343 63.4903 34.1332 63.4903C32.5125 63.4903 31.5996 64.5765 31.5996 65.8043C31.5996 66.7602 32.0245 67.3347 32.5295 68.0177L32.5296 68.0178C32.6316 68.1558 32.7369 68.2981 32.8426 68.449C31.4104 69.2038 30.2144 70.0855 30.2144 71.8485C30.2144 72.7613 30.6867 74.9172 33.7244 74.9172ZM31.6307 71.8326C31.6307 70.4944 32.5277 69.8964 33.5828 69.2984L36.164 72.3988C35.613 73.2178 34.7947 73.7371 33.7713 73.7371C32.6852 73.7371 31.6307 72.9658 31.6307 71.8326ZM34.2278 64.6711C35.0309 64.6711 35.5184 65.2221 35.5184 65.8671C35.5184 66.8117 34.6684 67.4097 34.0234 67.8192C33.9717 67.7541 33.9187 67.6885 33.8654 67.6224L33.8652 67.6222C33.4151 67.0644 32.9372 66.4721 32.9372 65.8671C32.9372 65.0488 33.598 64.6711 34.2278 64.6711ZM52.7983 66.878C52.4834 65.289 51.2087 64.486 49.6502 64.486C46.975 64.486 45.8419 66.6894 45.8419 69.0345C45.8419 71.5998 46.975 73.7405 49.666 73.7405C51.6334 73.7405 52.7665 72.3553 52.9081 70.4977H54.4038C54.12 73.2992 52.3729 75 49.5404 75C46.0463 75 44.3462 72.4181 44.3462 69.145C44.3462 65.887 46.2037 63.2264 49.666 63.2264C52.0111 63.2264 53.9473 64.486 54.2933 66.878H52.7983ZM61.0784 74.7301H62.3372V66.5929H60.9996V71.1884C60.9996 72.6523 60.2124 73.7385 58.5911 73.7385C57.5684 73.7385 56.9386 73.0929 56.9386 72.1013V66.5929H55.6011V71.9445C55.6011 73.6909 56.2619 74.9187 58.4026 74.9187C59.5668 74.9187 60.4804 74.447 61.0466 73.4395H61.0784V74.7301ZM64.8443 72.1634C64.8913 73.3594 65.9298 73.7371 67.0319 73.7371C67.8661 73.7371 68.9992 73.5486 68.9992 72.5253C68.9992 71.5865 67.9193 71.3547 66.7234 71.098C66.5963 71.0707 66.4679 71.0431 66.3393 71.0144C65.0176 70.7154 63.6794 70.2741 63.6794 68.7163C63.6794 67.0797 65.3007 66.403 66.717 66.403C68.5117 66.403 69.9439 66.9693 70.0537 68.9525H68.7161C68.6215 67.9139 67.7086 67.5831 66.8275 67.5831C66.0244 67.5831 65.0963 67.8041 65.0963 68.6217C65.0963 69.4491 66.1487 69.6808 67.2357 69.92C67.4097 69.9583 67.5846 69.9968 67.7562 70.038C69.0938 70.3377 70.4155 70.7782 70.4155 72.3519C70.4155 74.2882 68.6056 74.9179 66.9532 74.9179C65.1274 74.9179 63.5854 74.1777 63.5067 72.1634H64.8443ZM75.0256 66.5935H73.4042V64.1538H72.0667V66.5935H70.6815V67.7743H72.0667V72.9519C72.0667 74.4476 72.6177 74.7307 74.0022 74.7307H75.0256V73.5499H74.4117C73.5775 73.5499 73.4042 73.4401 73.4042 72.8262V67.7743H75.0256V66.5935ZM79.3446 66.4018C81.9258 66.4018 83.2951 68.2745 83.2951 70.6672C83.2951 73.0433 81.9258 74.9167 79.3446 74.9167C76.7634 74.9167 75.394 73.0433 75.394 70.6672C75.394 68.2745 76.7634 66.4018 79.3446 66.4018ZM79.3446 73.7359C80.745 73.7359 81.8788 72.6345 81.8788 70.6672C81.8788 68.684 80.745 67.5826 79.3446 67.5826C77.9435 67.5826 76.8103 68.684 76.8103 70.6672C76.8103 72.6345 77.9435 73.7359 79.3446 73.7359ZM85.7632 66.5935H84.5043V74.7307H85.8419V69.6629C85.8419 69.049 86.4247 67.5851 88.0143 67.5851C89.2103 67.5851 89.5411 68.3405 89.5411 69.395V74.7307H90.8786V69.6629C90.8786 68.404 91.7128 67.5851 93.0034 67.5851C94.3099 67.5851 94.5771 68.3875 94.5771 69.395V74.7307H95.9154V68.7652C95.9154 67.0817 94.8292 66.4049 93.2078 66.4049C92.1692 66.4049 91.2094 66.9236 90.6583 67.7895C90.3276 66.7985 89.4147 66.4049 88.4231 66.4049C87.3058 66.4049 86.3929 66.8766 85.7949 67.7895H85.7632V66.5935ZM98.4092 72.1634C98.4561 73.3594 99.4947 73.7371 100.597 73.7371C101.431 73.7371 102.564 73.5486 102.564 72.5253C102.564 71.5865 101.484 71.3547 100.288 71.098L100.287 71.0977C100.16 71.0705 100.032 71.043 99.9042 71.0144C98.5825 70.7154 97.2442 70.2741 97.2442 68.7163C97.2442 67.0797 98.8656 66.403 100.282 66.403C102.077 66.403 103.509 66.9693 103.619 68.9525H102.281C102.186 67.9139 101.273 67.5831 100.392 67.5831C99.5893 67.5831 98.6612 67.8041 98.6612 68.6217C98.6612 69.4491 99.7136 69.6808 100.801 69.92C100.975 69.9583 101.15 69.9968 101.321 70.038C102.659 70.3377 103.98 70.7782 103.98 72.3519C103.98 74.2882 102.171 74.9179 100.518 74.9179C98.6923 74.9179 97.1503 74.1777 97.0716 72.1634H98.4092ZM47.298 31.2501L47.299 31.2503C47.3855 31.2614 47.4718 31.2726 47.5459 31.2823C47.6094 31.1278 47.6684 30.9888 47.718 30.8718L47.7181 30.8716L47.7563 30.7816C47.8231 30.8279 47.9018 30.853 47.9885 30.853C48.218 30.853 48.4032 30.6671 48.4032 30.4389C48.4032 30.2252 48.2464 30.0539 48.042 30.0274C48.0479 30.0069 48.0535 29.9854 48.0594 29.9629C48.065 29.942 48.0707 29.9201 48.0771 29.8971C48.0817 29.8566 48.0879 29.8155 48.0938 29.7762L48.0938 29.7761L48.0938 29.776L48.0963 29.7595C48.1499 29.786 48.2101 29.8019 48.2742 29.8019C48.5044 29.8019 48.689 29.616 48.689 29.3871C48.689 29.1562 48.5044 28.9717 48.2742 28.9717C48.218 28.9717 48.1644 28.9836 48.1155 29.0034C48.1022 28.8843 48.0824 28.7686 48.0579 28.6541C48.1003 28.668 48.1426 28.678 48.1902 28.678C48.4184 28.678 48.605 28.4921 48.605 28.2632C48.605 28.0323 48.4184 27.8478 48.1902 27.8478C48.046 27.8478 47.9223 27.9192 47.8462 28.0284C47.786 27.898 47.7153 27.7724 47.6379 27.6526C47.6749 27.6639 47.7106 27.6711 47.7523 27.6711C47.9818 27.6711 48.1671 27.4853 48.1671 27.2564C48.1671 27.0268 47.9818 26.841 47.7523 26.841C47.5247 26.841 47.3375 27.0268 47.3375 27.2564V27.2696C47.2297 27.1538 47.1113 27.0473 46.9843 26.9514C47.1755 26.9137 47.3197 26.7477 47.3197 26.5453C47.3197 26.3151 47.1331 26.1292 46.9049 26.1292C46.6754 26.1292 46.4888 26.3151 46.4888 26.5453C46.4888 26.5869 46.4968 26.626 46.5093 26.6657C46.3658 26.5982 46.2156 26.5472 46.0602 26.5089C46.1508 26.4321 46.2083 26.3197 46.2083 26.1933C46.2083 25.9618 46.0244 25.7772 45.7942 25.7772C45.5667 25.7772 45.3795 25.9618 45.3795 26.1933C45.3795 26.2833 45.4092 26.366 45.4589 26.4348C45.312 26.4348 45.1493 26.4394 45.0051 26.4639C45.0041 26.4646 45.0026 26.4649 45.0011 26.4652L44.9985 26.4659L44.9971 26.4665C45.0361 26.403 45.0586 26.3289 45.0586 26.2482C45.0586 26.0187 44.8747 25.8328 44.6432 25.8328C44.415 25.8328 44.2291 26.0187 44.2291 26.2482C44.2291 26.3924 44.3025 26.5181 44.415 26.5935L44.4064 26.5954C44.388 26.5992 44.3714 26.6028 44.3548 26.6068C44.3548 26.6068 44.2126 26.6445 44.0108 26.7C44.0406 26.6418 44.0617 26.5757 44.0617 26.5056C44.0617 26.2747 43.8752 26.0895 43.6457 26.0895C43.4174 26.0895 43.2302 26.2747 43.2302 26.5056C43.2302 26.6597 43.3162 26.7946 43.4432 26.8654C43.344 26.8952 43.2428 26.9263 43.1508 26.958C43.1416 26.9607 43.133 26.964 43.125 26.9673C43.1256 26.959 43.1268 26.9506 43.1281 26.9419V26.9419L43.1281 26.9419C43.1299 26.9298 43.1317 26.9175 43.1317 26.9051C43.1317 26.6743 42.9445 26.489 42.7149 26.489C42.486 26.489 42.2995 26.6743 42.2995 26.9051C42.2995 27.05 42.3749 27.1757 42.486 27.2504C42.3855 27.306 42.2836 27.3649 42.1831 27.4304C42.0547 27.5157 41.978 27.6143 41.9456 27.7168C41.9125 27.8193 41.9151 27.906 41.9151 27.906V30.9284H42.3795L42.41 28.1613C42.41 28.1613 42.4073 28.123 42.4219 28.072C42.4371 28.0224 42.4675 27.9563 42.5423 27.9205C43.2865 27.5627 43.4988 27.4806 44.0187 27.3199C44.1156 27.2943 44.1983 27.2719 44.2771 27.2507L44.2771 27.2507L44.2772 27.2506C44.4486 27.2044 44.6013 27.1631 44.8397 27.1042C45.1797 27.0381 45.3279 27.0315 45.4522 27.0315C46.0628 27.0315 46.598 27.2974 46.9823 27.7267C47.366 28.1567 47.5949 28.7494 47.5949 29.4036C47.5949 29.4665 47.5585 29.8455 47.4943 30.0513C47.4518 30.2031 47.3713 30.3741 47.3118 30.5004L47.3118 30.5004L47.3117 30.5005C47.2722 30.5843 47.242 30.6485 47.2383 30.6744C47.2383 30.6744 47.1437 30.8702 46.9869 31.2096C47.0731 31.2211 47.1856 31.2356 47.298 31.2501ZM41.4005 30.9582C41.1796 30.9582 41.0029 30.7803 41.0029 30.5607C41.0029 30.3397 41.1796 30.1618 41.4005 30.1618H41.4012H41.4045C41.6261 30.1618 41.802 30.3397 41.802 30.5607C41.802 30.7803 41.6261 30.9582 41.4045 30.9582H41.4005ZM41.7841 29.6119C41.7841 29.8223 41.6154 29.9923 41.4044 29.9923H41.4005C41.1894 29.9923 41.0208 29.8223 41.0208 29.6119C41.0208 29.4029 41.1894 29.2322 41.4005 29.2322H41.4018H41.4044C41.6154 29.2322 41.7841 29.4029 41.7841 29.6119ZM41.4018 29.0595C41.1994 29.0582 41.04 28.8968 41.04 28.697C41.04 28.4959 41.1994 28.3345 41.4018 28.3339H41.4045C41.6056 28.3345 41.7657 28.4959 41.7657 28.697C41.7657 28.8968 41.6056 29.0582 41.4045 29.0595H41.4018ZM41.7451 27.0181C41.7451 27.2067 41.5923 27.3588 41.4038 27.3595H41.4012C41.2126 27.3588 41.0605 27.2067 41.0605 27.0181C41.0605 26.8289 41.2126 26.6768 41.4012 26.6761H41.4038C41.5923 26.6768 41.7451 26.8289 41.7451 27.0181ZM41.4018 28.1862C41.2113 28.1856 41.0578 28.0308 41.0578 27.8409C41.0578 27.6511 41.2113 27.4956 41.4018 27.495H41.4045C41.5943 27.4956 41.7484 27.6511 41.7484 27.8409C41.7484 28.0308 41.5943 28.1856 41.4045 28.1862H41.4018ZM42.527 22.6456C42.5694 22.6456 42.5972 22.676 42.6038 22.7024L42.6058 22.7077V24.3721C42.6058 24.4025 42.58 24.4449 42.5198 24.4429C42.4617 24.4429 42.4464 24.4108 42.439 24.3951L42.4384 24.3939L42.4364 24.386C42.2949 24.0394 41.9959 23.8151 41.6095 23.7576C41.6327 24.0308 41.7035 24.2352 41.8278 24.38C41.9396 24.5017 42.0885 24.5791 42.318 24.6281L42.3246 24.6294C42.3385 24.6327 42.3551 24.6387 42.3676 24.6512C42.3762 24.6612 42.3868 24.6797 42.3848 24.7095C42.3848 24.7353 42.3716 24.7525 42.3617 24.7617C42.3438 24.7756 42.3246 24.7783 42.3074 24.7802H41.4018H41.3105H40.4982C40.481 24.7783 40.4618 24.7756 40.444 24.7617C40.434 24.7525 40.4208 24.7353 40.4208 24.7095C40.4188 24.6797 40.4294 24.6612 40.438 24.6512C40.4506 24.6387 40.4671 24.6327 40.481 24.6294L40.4876 24.6281C40.7172 24.5791 40.8653 24.5017 40.9778 24.38C41.1022 24.2352 41.1729 24.0308 41.1961 23.7576C40.8098 23.8151 40.5108 24.0394 40.3692 24.386L40.3672 24.3939L40.3667 24.3951C40.3592 24.4108 40.3439 24.4429 40.2852 24.4429C40.2257 24.4449 40.1999 24.4025 40.1999 24.3721V22.7077L40.2018 22.7024C40.2085 22.676 40.2362 22.6456 40.2786 22.6456C40.3282 22.6456 40.352 22.68 40.3599 22.7031C40.438 23.0081 40.5948 23.2952 41.1928 23.3461C41.1663 23.0848 41.0975 22.8877 40.9798 22.7474C40.8686 22.6264 40.7132 22.5457 40.4876 22.4974C40.479 22.4967 40.4532 22.4914 40.438 22.4755C40.4294 22.465 40.4188 22.4464 40.4208 22.42C40.4208 22.3915 40.434 22.375 40.444 22.3651C40.4618 22.3505 40.483 22.3472 40.4936 22.3479H41.3105H41.4018H42.3121C42.3226 22.3472 42.3438 22.3505 42.3617 22.3651C42.3716 22.375 42.3848 22.3915 42.3848 22.42C42.3868 22.4464 42.3762 22.465 42.3676 22.4755C42.3524 22.4914 42.3273 22.4967 42.318 22.4974C42.0924 22.5457 41.9376 22.6264 41.8258 22.7474C41.7081 22.8877 41.6393 23.0848 41.6128 23.3461C42.2108 23.2952 42.3676 23.0081 42.4457 22.7031C42.4536 22.68 42.4774 22.6456 42.527 22.6456ZM41.4044 26.6186C41.89 26.6186 42.2849 26.2244 42.2849 25.7382C42.2849 25.2519 41.89 24.8577 41.4044 24.8577H41.4018C40.9162 24.8577 40.5207 25.2519 40.5207 25.7382C40.5207 26.2244 40.9162 26.6186 41.4018 26.6186H41.4044ZM34.8178 30.8509C34.9045 30.8509 34.9832 30.8251 35.05 30.7795L35.0726 30.8329L35.0727 30.833L35.0727 30.8332C35.1253 30.9573 35.1896 31.1093 35.2604 31.2802C35.3536 31.2676 35.4667 31.2531 35.575 31.2392C35.6643 31.2278 35.7503 31.2167 35.8194 31.2075C35.6626 30.8681 35.568 30.6717 35.568 30.6717C35.5643 30.6462 35.5343 30.5826 35.4951 30.4994C35.4356 30.3731 35.3547 30.2015 35.312 30.0492C35.2478 29.8434 35.2114 29.4637 35.2114 29.4016C35.2114 28.7467 35.441 28.1546 35.8233 27.7246C36.2083 27.2953 36.7435 27.0294 37.3541 27.0294C37.4784 27.0294 37.6266 27.036 37.966 27.1022C38.1979 27.1594 38.3487 27.1999 38.5143 27.2444L38.5144 27.2444C38.5977 27.2668 38.6846 27.2901 38.7876 27.3171C39.3075 27.4786 39.5198 27.5606 40.264 27.9185C40.3388 27.9535 40.3692 28.0203 40.3844 28.0699C40.399 28.1209 40.3963 28.1586 40.3963 28.1586L40.4274 30.9263H40.8912V27.9039C40.8912 27.9039 40.8938 27.8172 40.8607 27.7141C40.829 27.6122 40.7516 27.5136 40.6232 27.4283C40.522 27.3628 40.4202 27.3039 40.3196 27.2483C40.4314 27.1736 40.5068 27.0473 40.5068 26.903C40.5068 26.6722 40.3196 26.487 40.0914 26.487C39.8618 26.487 39.6746 26.6722 39.6746 26.903C39.6746 26.9154 39.6764 26.9278 39.6782 26.9398V26.9399C39.6795 26.9485 39.6807 26.957 39.6813 26.9652L39.6778 26.9638C39.6708 26.9608 39.6634 26.9577 39.6555 26.956C39.5628 26.9242 39.4623 26.8931 39.3637 26.8627C39.4901 26.7926 39.5754 26.6576 39.5754 26.5035C39.5754 26.2726 39.3889 26.0874 39.1606 26.0874C38.9318 26.0874 38.7446 26.2726 38.7446 26.5035C38.7446 26.5736 38.7657 26.6398 38.7955 26.698C38.5937 26.6424 38.4515 26.6047 38.4515 26.6047C38.4323 26.6001 38.4131 26.5954 38.3913 26.5915C38.5038 26.5154 38.5772 26.3904 38.5772 26.2462C38.5772 26.0166 38.3913 25.8307 38.1624 25.8307C37.9316 25.8307 37.7477 26.0166 37.7477 26.2462C37.7477 26.3269 37.7702 26.401 37.8092 26.4645C37.8082 26.4638 37.8067 26.4635 37.8052 26.4631C37.8037 26.4628 37.8022 26.4625 37.8012 26.4618C37.657 26.4367 37.4943 26.432 37.3475 26.432C37.3971 26.3633 37.4268 26.2812 37.4268 26.1906C37.4268 25.9597 37.2396 25.7745 37.0127 25.7745C36.7819 25.7745 36.5973 25.9597 36.5973 26.1906C36.5973 26.3169 36.6555 26.4301 36.7455 26.5061C36.5907 26.5452 36.4405 26.5961 36.297 26.6629C36.3095 26.6239 36.3181 26.5849 36.3181 26.5432C36.3181 26.313 36.1309 26.1271 35.9014 26.1271C35.6732 26.1271 35.486 26.313 35.486 26.5432C35.486 26.7456 35.6308 26.911 35.822 26.9487C35.695 27.0446 35.5766 27.1511 35.4688 27.2669V27.2543C35.4688 27.0241 35.2816 26.8382 35.054 26.8382C34.8245 26.8382 34.6392 27.0241 34.6392 27.2543C34.6392 27.4832 34.8245 27.6684 35.054 27.6684C35.0957 27.6684 35.1314 27.6611 35.1684 27.6505C35.0911 27.7703 35.0203 27.896 34.9601 28.0263C34.884 27.9171 34.7603 27.8457 34.6154 27.8457C34.3879 27.8457 34.2013 28.0303 34.2013 28.2611C34.2013 28.4893 34.3879 28.6759 34.6154 28.6759C34.6637 28.6759 34.7061 28.666 34.7484 28.6521C34.7239 28.7658 34.7041 28.8823 34.6908 29.0013C34.6419 28.9808 34.5876 28.9696 34.5321 28.9696C34.3019 28.9696 34.1173 29.1542 34.1173 29.3844C34.1173 29.6139 34.3019 29.7998 34.5321 29.7998C34.5962 29.7998 34.6564 29.7832 34.71 29.7575L34.713 29.7773C34.7188 29.8156 34.7247 29.8551 34.7292 29.895C34.736 29.919 34.742 29.9422 34.7479 29.9643C34.7534 29.9856 34.7588 30.0059 34.7643 30.0254C34.5592 30.0512 34.4031 30.2232 34.4031 30.4368C34.4031 30.665 34.5876 30.8509 34.8178 30.8509ZM47.9163 31.613C47.8753 31.5548 47.8092 31.5164 47.7258 31.5032C47.7061 31.4995 47.3219 31.4486 47.0565 31.4135L46.8156 31.3815C46.7878 31.3795 46.7541 31.3987 46.7448 31.447C46.7344 31.5 46.7679 31.5303 46.791 31.5374C47.2086 31.7334 47.4546 32.1296 47.4606 32.6026C46.8077 32.4677 46.6443 32.133 46.6033 31.6706C46.6033 31.6507 46.5847 31.615 46.5305 31.6104C46.4829 31.6064 46.4577 31.6302 46.4485 31.6514L46.4471 31.6553L46.1978 33.6551V33.6577C46.1978 33.6855 46.2169 33.7199 46.2599 33.7298C46.3029 33.7398 46.3393 33.7146 46.3499 33.6855C46.5477 33.2621 46.9406 33.0101 47.4076 32.9982C47.2826 33.4672 46.932 33.8317 46.4762 33.9547L46.4782 33.9561C46.1376 33.9204 45.7956 33.8873 45.4489 33.8575C45.1182 33.7583 44.8754 33.581 44.7868 33.1689C44.7914 33.1166 44.802 33.0624 44.8218 33.0088C44.9058 32.7826 45.0692 32.6331 45.2518 32.6992C45.4423 32.7706 45.4622 32.9856 45.3788 33.2119C45.3437 33.3065 45.2902 33.3832 45.23 33.4401C45.4278 33.4361 45.6044 33.366 45.744 33.1689C45.9755 32.8394 45.9484 32.3314 45.5865 32.1224C45.351 31.9848 45.0229 32.1449 44.7742 32.4551C44.8122 32.2088 44.9065 31.977 44.995 31.7595C45.0821 31.5453 45.1636 31.3449 45.1804 31.1579C45.2273 30.6267 45.0229 30.036 44.7312 29.8732C44.4282 29.9844 44.1517 30.5328 44.1252 31.0626C44.1167 31.2506 44.1758 31.4684 44.239 31.7012L44.239 31.7012C44.3027 31.9362 44.3706 32.1864 44.3773 32.4366C44.1729 32.0814 43.8606 31.8697 43.6053 31.9762C43.2183 32.1343 43.1211 32.6331 43.3063 32.9909C43.4207 33.2053 43.5835 33.2985 43.7793 33.3296C43.7257 33.2655 43.6847 33.1801 43.6635 33.0829C43.6126 32.8467 43.6589 32.6377 43.8587 32.594C44.0478 32.553 44.1901 32.7204 44.2417 32.9565C44.2582 33.0326 44.2609 33.1054 44.2503 33.1735V33.1728C44.1001 33.5281 43.8289 33.6518 43.4909 33.7351C43.1475 33.7199 42.8009 33.708 42.453 33.7001L42.4159 33.6928C41.9264 33.6141 41.677 33.3012 41.6274 32.7144C42.058 32.7792 42.3928 33.0313 42.5495 33.4169C42.5568 33.4401 42.5826 33.4758 42.6402 33.4758C42.707 33.4758 42.7308 33.4322 42.7308 33.4024V31.5581V31.5528C42.7215 31.523 42.6937 31.4933 42.6468 31.4933C42.5965 31.4933 42.5714 31.5277 42.5628 31.5488V31.5502L42.5608 31.5528C42.4748 31.8935 42.2982 32.215 41.6261 32.2699C41.681 31.6163 41.98 31.4152 42.4159 31.3206C42.4278 31.3206 42.449 31.3153 42.4662 31.2968C42.4748 31.2875 42.4874 31.2703 42.4874 31.2432V31.2379C42.4847 31.2095 42.4708 31.191 42.4596 31.181C42.4424 31.1658 42.4212 31.1612 42.4106 31.1619H41.4547H41.3449H40.3943C40.3844 31.1612 40.3626 31.1658 40.3454 31.181C40.3341 31.191 40.3196 31.2095 40.3169 31.2379V31.2432C40.3169 31.2703 40.3302 31.2875 40.3388 31.2968C40.356 31.3153 40.3771 31.3206 40.389 31.3206C40.825 31.4152 41.124 31.6163 41.1795 32.2699C40.5068 32.215 40.3302 31.8935 40.2448 31.5528L40.2422 31.5502V31.5488C40.2336 31.5277 40.2085 31.4933 40.1582 31.4933C40.1112 31.4933 40.0834 31.523 40.0748 31.5528V31.5581V33.4024C40.0748 33.4322 40.0986 33.4758 40.1641 33.4758C40.2223 33.4758 40.2481 33.4401 40.2554 33.4169C40.4122 33.0313 40.7476 32.7792 41.1769 32.7144C41.128 33.3012 40.8786 33.6141 40.389 33.6928L40.352 33.7001C40.0047 33.708 39.6574 33.7199 39.3141 33.7351C38.9761 33.6518 38.7048 33.5281 38.5553 33.1728V33.1735C38.5441 33.1054 38.5467 33.0326 38.5639 32.9565C38.6155 32.7204 38.7571 32.553 38.9463 32.594C39.1467 32.6377 39.1924 32.8467 39.1421 33.0829C39.1203 33.1801 39.0793 33.2655 39.0257 33.3296C39.2215 33.2985 39.3842 33.2053 39.4993 32.9909C39.6839 32.6331 39.5866 32.1343 39.2003 31.9762C38.9443 31.8697 38.6327 32.0814 38.4277 32.4366C38.4346 32.1871 38.5023 31.9375 38.566 31.7031C38.6293 31.4696 38.6886 31.2511 38.6797 31.0626C38.6539 30.5328 38.3767 29.9844 38.0738 29.8732C37.782 30.036 37.5776 30.6267 37.6246 31.1579C37.6413 31.3447 37.7227 31.5448 37.8096 31.7587C37.8981 31.9765 37.9924 32.2085 38.0301 32.4551C37.782 32.1449 37.4539 31.9848 37.2184 32.1224C36.8566 32.3314 36.8295 32.8394 37.0617 33.1689C37.2012 33.366 37.3772 33.4361 37.575 33.4401C37.5155 33.3832 37.4619 33.3065 37.4268 33.2119C37.3428 32.9856 37.3626 32.7706 37.5532 32.6992C37.7364 32.6331 37.8991 32.7826 37.9825 33.0088C38.003 33.0624 38.0136 33.1166 38.0182 33.1689C37.9296 33.581 37.6868 33.7583 37.356 33.8575C37.0094 33.8873 36.6681 33.9204 36.3267 33.9561L36.3287 33.9547C35.8729 33.8317 35.5223 33.4672 35.398 32.9982C35.8643 33.0101 36.2573 33.2621 36.4557 33.6855C36.4663 33.7146 36.502 33.7398 36.545 33.7298C36.5887 33.7199 36.6079 33.6855 36.6079 33.6577V33.6551L36.3585 31.6553L36.3565 31.6514C36.3479 31.6302 36.3221 31.6064 36.2745 31.6104C36.2202 31.615 36.2017 31.6507 36.2017 31.6706C36.1607 32.133 35.9973 32.4677 35.3444 32.6026C35.351 32.1296 35.5964 31.7334 36.0139 31.5374C36.0371 31.5303 36.0706 31.5 36.0601 31.447C36.0509 31.3987 36.0178 31.3795 35.9894 31.3815L35.756 31.4125L35.7559 31.4125C35.4904 31.4477 35.0992 31.4995 35.0798 31.5032C34.9958 31.5164 34.9296 31.5548 34.8886 31.613C34.8436 31.6752 34.8297 31.7559 34.8463 31.8538C34.8615 31.9422 34.9856 32.808 35.0762 33.4403L35.0763 33.4411L35.0766 33.4429C35.1235 33.7703 35.1614 34.0345 35.1704 34.095L35.1766 34.1466L35.1766 34.1469C35.184 34.2087 35.1958 34.3072 35.2008 34.3444C35.2088 34.4006 35.2802 34.4568 35.2802 34.4568C35.2802 34.4568 35.6837 34.7294 35.7552 34.7843C35.8233 34.8365 35.7843 34.9278 35.7843 34.9278L35.4264 35.4511C35.398 35.4861 35.3827 35.5212 35.3827 35.5212C35.3748 35.5424 35.3708 35.5655 35.3708 35.5887C35.3708 35.6522 35.3999 35.7077 35.4482 35.7435L41.3449 35.7455H41.4898L47.3574 35.7435C47.405 35.7077 47.4348 35.6522 47.4348 35.5887C47.4348 35.5655 47.4308 35.5424 47.4222 35.5212C47.4222 35.5212 47.4076 35.4861 47.3785 35.4511L47.0207 34.9278C47.0207 34.9278 46.9816 34.8365 47.0504 34.7843C47.1212 34.7294 47.5247 34.4568 47.5247 34.4568C47.5247 34.4568 47.5962 34.4006 47.6048 34.3444L47.6204 34.2162L47.6352 34.095C47.6417 34.0501 47.6642 33.8932 47.6944 33.6815C47.7838 33.0563 47.9414 31.9541 47.9587 31.8538C47.9752 31.7559 47.9613 31.6752 47.9163 31.613ZM39.0323 34.9278L37.7172 34.9973C37.5842 35.0046 37.4678 34.902 37.4619 34.7684L37.4506 34.5812C37.444 34.4476 37.5472 34.3345 37.6822 34.3278L38.9959 34.2564C39.1309 34.2498 39.2453 34.3523 39.2519 34.4873L39.2625 34.6725C39.2684 34.8081 39.1659 34.9212 39.0323 34.9278ZM41.933 34.5958L41.4647 35.0641C41.4481 35.0813 41.4263 35.0899 41.4038 35.0912H41.4018C41.3793 35.0899 41.3575 35.0813 41.3403 35.0641L40.8719 34.5958C40.8329 34.5574 40.8329 34.4985 40.8719 34.4608L41.3403 33.9925C41.3575 33.9753 41.3793 33.9673 41.4018 33.966H41.4038C41.4263 33.9673 41.4481 33.9753 41.4647 33.9925L41.933 34.4608C41.972 34.4985 41.972 34.5574 41.933 34.5958ZM45.3437 34.7684C45.3378 34.902 45.2214 35.0046 45.0877 34.9973L43.7727 34.9278C43.6397 34.9212 43.5365 34.8081 43.5425 34.6725L43.553 34.4873C43.5597 34.3523 43.6741 34.2498 43.8097 34.2564L45.1228 34.3278C45.2584 34.3345 45.3609 34.4476 45.3543 34.5812L45.3437 34.7684ZM52.6435 30.245C52.6435 24.0467 47.6008 19.0046 41.4025 19.0046C35.2042 19.0046 30.1621 24.0467 30.1621 30.245C30.1621 36.444 35.2042 41.4867 41.4025 41.4867C47.6008 41.4867 52.6435 36.444 52.6435 30.245ZM51.3264 30.245C51.3264 35.7176 46.8745 40.1703 41.4025 40.1703C35.9305 40.1703 31.4785 35.7176 31.4785 30.245C31.4785 24.773 35.9305 20.321 41.4025 20.321C46.8745 20.321 51.3264 24.773 51.3264 30.245Z" fill="url(#paint0_linear)"/>
<defs>
<linearGradient id="paint0_linear" x1="23" y1="19" x2="35.6624" y2="89.4662" gradientUnits="userSpaceOnUse">
<stop stop-color="#7EB7FE"/>
<stop offset="1" stop-color="#599EF4" stop-opacity="0.92"/>
</linearGradient>
</defs>
</svg>
