<svg width="140" height="256" viewBox="0 0 140 256" fill="none" preserveAspectRatio="xMidYMid meet"  xmlns="http://www.w3.org/2000/svg">
<path fill-rule="evenodd" clip-rule="evenodd" d="M66.8234 17.7681C67.6698 16.9217 68.0913 14.8073 68.0913 12.268C62.1731 12.268 60.9018 15.2288 60.9018 17.3432H59.6339V3.80721H60.9018C60.9018 5.92157 62.1697 8.88236 68.0913 8.88236C68.0913 2.95741 65.552 1.26795 63.0162 1.26795V0H76.9737V1.26795C74.4378 1.26795 71.8951 2.96079 71.8951 8.88236C77.8234 8.88236 79.088 5.92157 79.088 3.80721H80.3593V17.3432H79.088C79.088 15.2288 77.8234 12.268 71.8951 12.268C71.8951 14.8073 72.3234 16.9217 73.1665 17.7681C73.0123 17.7681 72.6881 17.7117 72.2768 17.6402C71.5636 17.5162 70.5884 17.3466 69.7841 17.3466C68.0913 17.3466 66.8234 17.7681 66.8234 17.7681ZM66.8234 17.7681L66.8234 25.804C62.5913 26.2255 59.6305 26.6471 58.3625 27.0686C59.2089 22.8432 62.5946 19.0327 66.8234 17.7647L66.8234 17.7681ZM79.0914 221.223C76.5555 221.223 74.0196 218.687 74.0196 216.148C74.0196 213.187 76.5555 211.072 79.0914 211.072C82.0556 211.072 84.1699 213.187 84.1699 216.148C84.1699 218.687 82.0556 221.223 79.0914 221.223ZM79.0914 213.612C77.8268 213.612 76.5555 214.458 76.5555 216.148C76.5555 217.415 77.8268 218.683 79.0914 218.687C80.7843 218.687 81.634 217.415 81.634 216.148C81.634 214.455 80.7843 213.612 79.0914 213.612ZM60.4803 145.51C63.0195 145.51 65.1339 147.203 65.1339 149.739V192.451C65.1339 192.451 62.1731 192.03 59.6339 191.608C57.0946 190.765 54.9836 189.919 54.9836 189.919L55.8266 183.997C51.173 182.308 47.7907 179.768 44.8299 176.807C44.8299 178.075 43.9835 178.922 42.7155 178.922C41.8691 178.922 41.0227 178.075 41.0227 176.807C41.0227 175.961 41.8725 175.118 42.7155 175.118H43.1371L43.1305 175.108C42.2863 173.84 41.4465 172.579 41.0227 171.311C40.5978 172.582 39.7514 173.004 38.9083 173.004C38.0619 173.004 37.2189 172.157 37.2189 171.311C37.2189 170.043 38.0619 169.196 38.9083 169.196C39.2123 169.196 39.5162 169.196 39.6622 169.354C39.6918 169.44 39.7216 169.528 39.7514 169.618C39.7514 169.5 39.7186 169.416 39.6622 169.354C39.6037 169.185 39.5457 169.023 39.4896 168.865C39.1713 167.973 38.9083 167.236 38.9083 166.232L38.4868 165.811C38.4868 166.232 37.6404 166.654 37.2189 166.654C35.9476 166.654 35.1011 165.811 35.1011 164.539C35.1011 163.693 35.9509 162.85 37.2189 162.85C37.398 162.85 37.501 162.85 37.5926 162.882C37.7165 162.926 37.8195 163.029 38.0619 163.272V159.043C37.6404 159.468 36.794 159.889 36.3725 159.889C35.1011 159.889 34.2581 159.043 34.2581 157.775C34.2581 156.928 35.1011 156.082 36.3725 156.082C37.2155 156.082 37.6371 156.504 38.0569 156.923L38.0619 156.928C38.0619 154.389 38.4868 151.853 38.9083 150.585C38.072 150.165 37.6505 149.746 36.824 148.922L36.794 148.892C36.794 150.585 35.526 151.853 34.2581 151.853C32.5653 151.853 31.2973 150.585 31.2973 149.314C31.2973 147.2 32.9902 145.51 35.1011 145.51H60.4803ZM42.2907 152.275L56.2515 180.193C39.3299 172.582 41.0227 158.621 42.2907 152.275ZM43.9835 152.7L56.6731 178.079L57.0946 174.697L46.0979 152.7H43.9835ZM47.7907 152.7L57.5195 172.582L57.941 169.196L49.9051 152.7H47.7907ZM50.7515 152.275L58.3659 167.082L58.784 163.696L52.8659 151.428C52.4402 151.642 52.122 151.748 51.8032 151.855L51.803 151.855C51.4879 151.96 51.1722 152.065 50.7515 152.275ZM53.7123 151.007L59.2089 161.582L59.6339 158.2L55.4051 149.739C54.9836 150.164 54.5587 150.585 53.7123 151.007ZM59.6339 155.66L60.4803 151.428C60.4803 150.164 59.2089 148.892 57.5195 148.892H56.6731L59.6339 155.66ZM51.173 33.84C49.4802 33.84 48.2122 35.1079 48.2122 36.8007C48.2122 38.4936 49.4802 39.7615 51.173 39.7615C52.8659 39.7615 54.1338 38.4936 54.1338 36.8007C54.1338 35.1079 52.8659 33.84 51.173 33.84ZM12.2579 54.5655C10.99 54.5655 9.29712 55.8368 9.29712 57.5262C9.29712 59.2191 10.99 60.487 12.2579 60.487C13.9507 60.487 15.6436 59.2191 15.6436 57.5262C15.6436 55.8368 13.9507 54.5655 12.2579 54.5655ZM10.99 46.9544C9.29711 46.9544 8.02917 48.2224 8.02917 49.9152C8.02917 51.608 9.29711 52.8726 10.99 52.8726C12.6828 52.8726 13.9507 51.608 13.9507 49.9152C13.9507 48.2224 12.6828 46.9544 10.99 46.9544ZM11.4115 39.34C10.1435 39.34 8.4507 40.6079 8.4507 42.3008C8.4507 43.9903 10.1435 45.2616 11.4115 45.2616C13.1043 45.2616 14.7938 43.9903 14.7938 42.3008C14.7938 40.6079 13.1043 39.34 11.4115 39.34ZM15.6436 32.9935C13.9507 32.9935 12.6828 34.2615 12.6828 35.9543C12.6731 36.3458 12.743 36.7351 12.8884 37.0988C13.0337 37.4624 13.2515 37.7926 13.5284 38.0695C13.8053 38.3464 14.1355 38.5642 14.4992 38.7095C14.8628 38.8549 15.2521 38.9248 15.6436 38.9151C17.333 38.9151 18.601 37.6472 18.601 35.9543C18.601 34.2615 17.333 32.9935 15.6436 32.9935ZM21.9867 28.3433C20.2972 28.3433 19.0259 29.6112 19.0259 31.3007C19.0259 32.9935 20.2972 34.2615 21.9867 34.2615C23.6762 34.2615 24.9475 32.9935 24.9475 31.3007C24.9475 29.6112 23.6762 28.3433 21.9867 28.3433ZM29.6011 27.072C27.9082 27.072 26.6403 28.3433 26.6403 30.0328C26.6306 30.4242 26.7005 30.8136 26.8459 31.1772C26.9912 31.5408 27.209 31.8711 27.4859 32.148C27.7628 32.4249 28.0931 32.6426 28.4567 32.788C28.8203 32.9333 29.2096 33.0033 29.6011 32.9935C31.2939 32.9935 32.5619 31.7222 32.5619 30.0328C32.5619 28.3433 31.2906 27.072 29.6011 27.072ZM36.7906 28.3433C35.0978 28.3433 33.8298 30.0328 33.8298 31.3007C33.8298 32.9935 35.0978 34.6864 36.7906 34.6864C38.4801 34.6864 39.748 32.9935 39.748 31.7256C39.748 30.0327 38.4801 28.3433 36.7906 28.3433ZM43.9835 31.3007C42.2906 31.3007 41.0227 32.572 41.0227 34.2615C41.013 34.653 41.0829 35.0423 41.2283 35.4059C41.3737 35.7695 41.5914 36.0998 41.8683 36.3767C42.1452 36.6536 42.4755 36.8713 42.8391 37.0167C43.2027 37.162 43.592 37.232 43.9835 37.2223C45.6763 37.2223 47.3658 35.9543 47.3658 34.2615C47.3658 32.5686 45.673 31.3007 43.9835 31.3007ZM88.8168 33.84C90.0882 33.84 91.781 35.1079 91.781 36.8007C91.781 38.4936 90.0882 39.7615 88.8168 39.7615C87.124 39.7615 85.4311 38.4936 85.4311 36.8007C85.4311 35.1079 87.124 33.84 88.8168 33.84ZM130.064 56.3816C130.21 56.7452 130.28 57.1346 130.271 57.5262C130.28 57.9179 130.21 58.3073 130.064 58.6709C129.919 59.0346 129.701 59.3648 129.423 59.6416C129.146 59.9185 128.816 60.1362 128.452 60.2815C128.088 60.4268 127.699 60.4967 127.307 60.487C125.621 60.487 124.35 59.2191 124.35 57.5262C124.35 55.8368 125.621 54.5655 127.307 54.5655C127.699 54.5558 128.088 54.6257 128.452 54.771C128.816 54.9163 129.146 55.134 129.423 55.4109C129.701 55.6877 129.919 56.0179 130.064 56.3816ZM129 46.9544C130.693 46.9544 131.964 48.2224 131.964 49.9152C131.964 51.608 130.693 52.8726 129 52.8726C127.307 52.8726 126.042 51.608 126.042 49.9152C126.042 48.2224 127.307 46.9544 129 46.9544ZM128.157 39.34C129.85 39.34 131.114 40.6079 131.114 42.3008C131.114 43.9903 129.85 45.2616 128.157 45.2616C126.464 45.2616 125.193 43.9903 125.193 42.3008C125.193 40.6079 126.464 39.34 128.157 39.34ZM124.35 32.9935C126.042 32.9935 127.307 34.2615 127.307 35.9543C127.307 37.6472 126.042 38.9151 124.35 38.9151C122.657 38.9151 121.385 37.6472 121.385 35.9543C121.385 34.2615 122.657 32.9935 124.35 32.9935ZM120.761 30.1581C120.906 30.5211 120.977 30.9098 120.967 31.3007C120.967 32.9935 119.696 34.2615 118.01 34.2615C116.317 34.2615 115.046 32.9935 115.046 31.3007C115.037 30.9093 115.108 30.5203 115.254 30.157C115.4 29.7938 115.618 29.464 115.895 29.1875C116.172 28.911 116.502 28.6937 116.866 28.5485C117.229 28.4034 117.619 28.3336 118.01 28.3433C118.401 28.334 118.79 28.4042 119.153 28.5496C119.515 28.6949 119.845 28.9124 120.122 29.1889C120.398 29.4654 120.616 29.7951 120.761 30.1581ZM113.146 28.8881C113.292 29.2517 113.362 29.6411 113.353 30.0328C113.362 30.4244 113.292 30.8138 113.146 31.1774C113 31.5411 112.782 31.8713 112.505 32.1481C112.228 32.425 111.897 32.6427 111.534 32.788C111.17 32.9333 110.78 33.0032 110.389 32.9935C108.703 32.9935 107.431 31.7222 107.431 30.0328C107.431 28.3433 108.703 27.072 110.389 27.072C110.78 27.0623 111.17 27.1322 111.534 27.2775C111.897 27.4228 112.228 27.6405 112.505 27.9174C112.782 28.1942 113 28.5244 113.146 28.8881ZM102.774 28.3433C104.467 28.3433 105.738 30.0328 105.738 31.3007C105.738 32.9935 104.467 34.6864 102.774 34.6864C101.088 34.6864 99.8169 32.9935 99.8169 31.7256C99.8169 30.0327 101.088 28.3433 102.774 28.3433ZM98.3397 33.1162C98.4853 33.4801 98.5553 33.8697 98.5456 34.2615C98.5553 34.6532 98.4853 35.0429 98.3397 35.4067C98.1942 35.7706 97.9762 36.101 97.6989 36.378C97.4216 36.6549 97.0909 36.8726 96.7269 37.0177C96.3629 37.1628 95.9732 37.2324 95.5814 37.2223C93.8953 37.2223 92.624 35.9543 92.624 34.2615C92.624 32.5686 93.8953 31.3007 95.5814 31.3007C95.9732 31.2905 96.3629 31.3601 96.7269 31.5053C97.0909 31.6504 97.4216 31.8681 97.6989 32.145C97.9762 32.422 98.1942 32.7524 98.3397 33.1162ZM92.2025 76.5623C94.3169 76.5623 95.5814 78.2551 95.5814 79.9446C95.5814 81.6374 94.3169 83.3303 92.2025 83.3303C90.5097 83.3303 88.8168 81.6374 88.8168 79.9446C88.8168 78.2551 90.5097 76.5623 92.2025 76.5623ZM75.337 99.7744C75.2843 99.7217 75.2843 99.6163 75.2843 99.4055C75.2843 99.4055 75.2843 98.9806 75.7058 98.9806V99.4055H76.134V98.9806C76.134 98.5591 75.7058 98.1376 75.2843 98.1376C74.4435 97.7172 74.0219 98.5546 74.0197 98.9773L72.3268 98.1342H71.8986L73.1699 99.8271C72.3269 99.8271 71.8986 100.249 71.8986 101.095C71.8986 101.517 72.3269 101.938 73.1699 101.938H73.5914L73.1699 101.517C73.1699 101.095 73.5914 101.095 73.5914 101.095C73.8067 101.095 73.9138 101.095 73.967 101.149C74.0144 101.196 74.0192 101.286 74.0196 101.456V117.874L73.1699 117.592V118.86V120.128L74.0196 119.562V136.263C74.0192 136.433 74.0144 136.523 73.967 136.571C73.9138 136.624 73.8067 136.624 73.5914 136.624C73.5914 136.624 73.1699 136.624 73.1699 136.203L73.5914 135.778H73.1699C72.3269 135.778 71.8986 136.203 71.8986 136.624C71.8986 137.471 72.3269 137.892 73.1699 137.892V137.896L71.8986 139.585H72.3269L74.0197 138.739C74.0197 139.164 74.4412 140.007 75.2843 140.007C75.7058 140.007 76.134 139.16 76.134 138.739V138.317H75.7058V138.739C75.2843 138.739 75.2843 138.317 75.2843 138.317C75.2843 138.107 75.2843 138.001 75.337 137.948C75.3896 137.896 75.495 137.896 75.7058 137.896H89.9469L89.6666 138.739H90.9312H92.2025L91.7827 137.896H106.16C106.16 137.896 106.588 137.896 106.588 138.317L106.16 138.739C105.949 138.739 105.844 138.739 105.791 138.686C105.738 138.633 105.738 138.528 105.738 138.317C105.738 138.739 105.317 138.739 105.317 138.739C105.317 139.16 106.16 140.007 106.588 140.007C107.01 140.007 107.431 139.164 107.431 138.739L109.124 139.585H109.546L108.703 137.896L108.703 137.892C109.124 137.892 109.546 137.471 109.546 136.624C109.546 136.203 109.124 135.778 108.703 135.778H108.274V136.203C108.274 136.414 108.274 136.519 108.222 136.572C108.169 136.624 108.064 136.624 107.853 136.624C107.853 136.624 107.437 136.624 107.431 136.211L107.431 136.203V119.492L108.703 120.128V118.86V117.592L107.431 117.908V101.095L107.431 101.517C107.431 101.095 107.853 101.095 107.853 101.095C108.064 101.095 108.169 101.095 108.222 101.148C108.274 101.2 108.274 101.306 108.274 101.517V101.938H108.703C109.124 101.938 109.546 101.517 109.546 101.095C109.546 100.249 109.124 99.8271 108.703 99.8271L109.546 98.1342H109.124L107.431 98.9773C107.429 98.5546 107.009 97.7172 106.588 98.1376C106.16 98.1376 105.317 98.5591 105.317 98.9806C105.317 98.9806 105.739 98.9806 105.739 99.4055C105.739 98.9806 105.739 98.9806 106.16 98.9806L106.588 99.4055L106.588 99.4117C106.584 99.8113 106.192 99.8265 106.162 99.827H91.7794L92.2025 98.9773H90.9312H89.6667L89.8783 99.827H75.6597C75.4794 99.8268 75.3857 99.8231 75.337 99.7744ZM75.2842 136.628L75.2842 118.86L75.2842 101.095L90.9312 101.095L106.588 101.095V136.628H90.9278H75.2842ZM74.0156 136.766L74.0196 136.764V136.641C74.0194 136.683 74.018 136.725 74.0156 136.766ZM74.0196 101.079C74.0194 101.036 74.018 100.994 74.0155 100.953L74.0196 100.954V101.079ZM78.2484 102.363H76.134V135.36H105.317V102.363H78.2484ZM103.203 104.052H104.467V117.592H104.464L104.467 117.588V117.167H103.624V116.745C103.203 116.745 102.774 117.167 102.774 117.588C102.774 117.588 103.203 118.01 103.624 118.01L103.624 118.013L102.353 118.86L103.624 119.706C103.203 119.706 102.774 120.128 102.774 120.553C102.774 120.553 103.203 120.974 103.624 120.974V120.553H104.467C104.467 120.405 104.416 120.258 104.331 120.128H104.467V133.664H103.203V134.51H92.5804C92.4727 134.497 92.2025 134.429 92.2025 134.089L92.624 133.667C92.624 133.667 92.624 134.089 93.0456 134.089V133.667C93.0456 133.242 92.624 132.821 92.2025 132.821C91.781 132.821 91.3595 133.242 91.3595 133.667L90.9312 132.396H90.5097L90.0882 133.667C90.0882 133.242 89.6666 132.821 89.2451 132.821C89.025 132.835 88.8174 132.928 88.6611 133.084C88.5048 133.24 88.4104 133.447 88.3953 133.667L88.8168 134.089V133.667C89.2451 133.667 89.2451 134.089 89.2451 134.089C89.2451 134.3 89.2451 134.407 89.192 134.46C89.1599 134.492 89.1083 134.505 89.0254 134.51H78.2484V133.664H77.3986L77.3986 120.553H77.8268V120.974H78.2484C78.6699 120.974 78.6699 120.553 78.6699 120.553C78.6699 120.128 78.6699 119.706 78.2484 119.706L79.0914 118.86L78.2484 118.013L78.2484 118.01C78.6699 118.01 78.6699 117.588 78.6699 117.588C78.6699 117.167 78.6699 116.742 78.2484 116.742H77.8268V116.745V117.167H77.3986L77.3986 104.056H78.2484V103.213H88.8168C89.0321 103.213 89.1392 103.213 89.1924 103.266C89.2451 103.319 89.2451 103.425 89.2451 103.634C89.2451 103.634 89.2451 104.056 88.8168 104.056V103.634L88.3953 104.056C88.3953 104.477 88.8168 104.899 89.2451 104.899C89.6666 104.899 90.0882 104.481 90.0882 104.056L90.5097 105.324H90.9312L91.3595 104.056C91.3595 104.481 91.781 104.899 92.2025 104.899C92.624 104.899 93.0456 104.477 93.0456 104.056V103.634C92.624 103.634 92.624 104.056 92.624 104.056L92.2025 103.634L92.2025 103.631C92.2046 103.213 92.624 103.213 92.624 103.213H103.203V104.052ZM77.3986 117.588V117.592H77.4021C77.4 117.59 77.3988 117.589 77.3986 117.588ZM77.5369 120.128H77.3986V120.545C77.4004 120.4 77.4523 120.255 77.5369 120.128ZM100.238 113.36L101.931 111.67V115.053C101.931 115.477 101.51 115.899 101.088 116.32C100.66 117.167 99.3954 117.167 98.9739 116.32C98.1241 116.745 98.124 117.167 98.124 117.167C97.7025 117.588 97.281 118.013 97.7025 118.856L99.3954 120.971C99.8169 121.392 99.8169 122.239 99.8169 122.66C99.8169 123.503 99.3987 123.925 98.9789 124.348L98.9739 124.353C98.7589 124.353 98.4394 124.459 98.1211 124.565C97.8054 124.67 97.4909 124.775 97.281 124.775C97.0965 124.59 96.8299 124.486 96.5885 124.392C96.4428 124.336 96.3063 124.282 96.2025 124.217L96.0097 123.928C96.0097 124.055 96.0852 124.144 96.2025 124.217L97.7025 126.467H101.51V132.81H95.5814C95.5814 132.634 95.5089 132.459 95.4241 132.253C95.3043 131.963 95.1599 131.613 95.1599 131.118V130.696C95.3585 130.307 95.6628 129.981 96.0379 129.756C96.413 129.531 96.8438 129.416 97.281 129.425C98.124 129.425 98.9739 129.85 98.9739 130.696H99.8169V128.582H95.1599L93.4738 126.467L92.624 124.775H89.2451L90.5096 126.467L91.781 128.582H82.0522C81.6306 128.157 81.6306 127.732 81.6306 126.889V126.467C82.0522 125.621 82.4737 125.199 83.3167 125.199C84.5881 125.199 85.0096 125.621 85.4311 126.467H87.9738L87.124 124.775L85.0096 122.235V121.814H90.5096L88.8168 120.121H81.2024C80.7809 119.699 80.7809 119.274 80.7809 118.853V118.01C80.8798 117.911 80.9792 117.789 81.0842 117.659C81.4264 117.238 81.8286 116.742 82.4737 116.742C83.3167 116.742 84.1665 117.588 84.5881 118.01H87.5522L89.6666 116.317H86.2809L84.5881 114.203L82.0522 110.396H81.6306V107.435C82.0522 107.013 82.4737 107.013 82.8952 107.013C84.1665 107.013 85.0096 107.86 85.0096 108.703C85.0096 109.549 84.5881 109.974 84.1665 110.396L87.124 114.203H89.6666V112.088H90.5096C91.3594 112.088 92.2025 111.667 92.2025 110.82C92.2025 109.974 91.3594 109.128 90.5096 109.128C90.3305 109.128 90.2275 109.128 90.1359 109.16C90.012 109.204 89.909 109.307 89.6666 109.549V107.435L91.3594 105.745H98.5456L96.8595 107.435L98.5456 109.128V112.513L94.3168 116.317V119.699C95.1599 120.546 96.8595 123.085 96.8595 123.085L97.281 123.507C97.7025 123.507 98.124 123.507 98.124 123.085C98.5456 123.085 98.5456 122.66 98.5456 122.66V121.817L96.8595 119.278C96.0097 118.435 96.0097 117.167 97.281 116.32L100.238 113.36ZM69.7841 75.2943L65.5554 79.9446L69.7841 84.5982L74.4411 79.9446L69.7841 75.2943ZM47.3658 76.5623C45.673 76.5623 44.405 78.2551 44.405 79.9446C44.405 81.6374 45.673 83.3303 47.3658 83.3303C49.4835 83.3303 50.7515 81.6374 50.7515 79.9446C50.7515 78.2551 49.4802 76.5623 47.3658 76.5623ZM104.895 164.964H105.317H107.01C107.01 165.389 106.588 167.082 106.16 168.772C106.16 169.287 105.85 169.956 105.512 170.685C105.293 171.159 105.061 171.658 104.895 172.157H100.66C100.66 171.946 100.555 171.735 100.449 171.523C100.344 171.312 100.238 171.1 100.238 170.889C100.238 170.043 101.51 168.772 102.353 168.772C103.199 168.772 103.621 169.193 104.041 169.613L104.046 169.618C104.046 169.196 104.046 168.772 104.467 168.35V167.507H98.124L99.3954 170.043L97.281 170.889L94.7384 172.157H90.0881C89.6666 171.736 89.6666 171.311 89.6666 170.889C89.6666 170.043 90.5096 168.772 91.781 168.772C92.624 168.772 93.4738 169.618 93.4738 170.464L96.0097 169.196V166.657L77.8234 172.157H73.588C73.588 171.946 73.4826 171.735 73.3772 171.523C73.2718 171.312 73.1665 171.1 73.1665 170.889C73.1665 170.043 74.0163 168.772 75.2808 168.772C76.1306 168.772 76.9737 169.618 77.3952 170.464L80.3593 169.196L73.588 163.696V160.317C74.0163 159.896 74.4378 159.896 74.8593 159.896C75.7023 159.896 76.5521 160.739 76.5521 161.585C76.5521 162.432 76.5521 162.853 76.1306 163.275L80.7809 167.082V162.428L77.8234 159.893H89.2451L86.2809 162.428V164.961H102.774C103.624 164.961 104.046 164.539 104.046 164.118C104.046 163.271 103.624 162.85 102.774 162.85H88.8168L91.3594 160.314C91.781 159.893 92.2025 159.893 92.624 159.893C93.8953 159.893 94.7384 160.736 94.7384 161.582H102.774C104.046 161.582 105.317 162.853 105.317 164.121C105.317 164.121 105.317 164.543 104.895 164.964ZM81.634 163.275L83.7484 165.389L85.4345 163.275H81.634ZM105.738 149.314V150.575H107.853V157.765H102.774C102.353 157.343 102.353 156.918 102.353 156.497C102.353 155.229 103.203 154.382 104.467 154.382C104.892 154.382 105.31 154.801 105.729 155.219L105.738 155.229V153.114H98.124L98.9739 153.961L100.66 155.654L98.5456 156.497L94.3168 157.765H90.0881C89.6666 157.343 89.6666 156.918 89.6666 156.497C89.6666 155.229 90.5096 154.382 91.781 154.382C92.6157 154.382 93.0372 155.212 93.4612 156.047L93.4738 156.072L96.0097 155.229V152.268L77.8234 157.768H73.588C73.588 157.557 73.4826 157.346 73.3772 157.134C73.2718 156.923 73.1665 156.711 73.1665 156.5C73.1665 155.232 74.0163 154.386 75.2808 154.386C76.1306 154.386 76.9737 155.232 77.3952 156.075L80.3593 154.807L73.588 149.307V145.503C73.803 145.503 74.0163 145.397 74.2287 145.291C74.4395 145.186 74.6494 145.082 74.8593 145.082C75.7023 145.082 76.5521 146.35 76.5521 147.196C76.5521 148.043 76.5521 148.464 76.1306 148.889L80.7809 152.271V148.043L77.8234 145.082H89.2451L86.2809 148.043V150.582H103.624C104.046 150.582 104.467 150.157 104.467 149.311C104.467 148.889 104.046 148.464 103.624 148.464H88.8168L91.3594 145.928C91.781 145.507 92.2025 145.085 92.624 145.085C93.8953 145.085 94.7384 145.932 94.7384 147.2H103.624C104.895 147.2 105.738 148.046 105.738 149.314ZM81.634 148.892L83.7484 150.585L85.4345 148.892H81.634ZM94.7384 175.964H98.124C99.3954 175.964 100.238 177.232 100.238 178.494C100.238 179.762 99.3954 180.608 98.124 180.608H96.0097V183.147C96.0097 183.326 96.0097 183.429 95.9772 183.52C95.9329 183.644 95.8284 183.747 95.5815 183.99L95.5814 183.99C95.3719 184.2 95.0583 184.409 94.744 184.619C94.426 184.832 94.1073 185.044 93.8953 185.258C93.2432 185.908 92.3467 186.307 91.581 186.648C91.3489 186.752 91.1288 186.85 90.9312 186.948C90.5096 186.948 90.0881 186.526 90.0881 186.105L89.6666 185.683V184.837L90.9312 183.569C91.3594 183.147 92.2025 183.147 92.624 183.569C93.0455 183.147 93.4738 182.722 93.8953 182.722L92.2025 180.608L88.3953 183.147V188.644C87.9738 189.069 87.124 189.494 85.8594 189.915C85.8594 189.915 85.4311 189.915 84.5881 190.337L82.8952 191.183C82.7339 191.022 82.6343 190.86 82.5491 190.722C82.4119 190.499 82.3123 190.337 82.0522 190.337C81.6306 189.065 82.0522 187.801 83.3167 187.376C84.1665 187.376 84.5881 187.376 85.4311 187.801C85.6461 187.801 85.8594 187.694 86.0718 187.587C86.2826 187.481 86.4925 187.376 86.7024 187.376L84.5881 185.262C83.745 185.686 82.8952 186.108 82.4737 186.108L76.9737 192.451C75.7023 192.876 74.4378 192.876 73.588 192.876C73.588 192.663 73.4822 192.451 73.3766 192.239C73.2714 192.029 73.1665 191.818 73.1665 191.608C73.1665 190.765 74.0163 189.497 74.8593 189.497C75.7023 189.497 76.1306 189.497 76.5521 189.919L81.2024 184.419L80.7809 184.84L73.588 178.075V174.697C74.0163 174.272 74.4378 174.272 74.8593 174.272C75.7023 174.272 76.5521 175.121 76.5521 175.964C76.5521 176.811 76.5521 177.236 76.1306 177.657L80.7809 181.886V177.232L77.8234 174.272H89.2451L86.2809 177.232V179.343H98.124C98.5456 179.343 98.9739 178.922 98.9739 178.5C98.9739 177.654 98.5456 177.232 98.124 177.232H88.8168L91.3594 174.697C91.781 174.272 92.2025 174.272 92.624 174.272C93.8953 174.272 94.7384 175.121 94.7384 175.964ZM81.634 177.654L83.7484 179.768L85.4345 177.654H81.634ZM63.8659 130.706V131.549H65.987V139.164H60.9119C60.4904 138.739 60.4904 138.317 60.4904 137.896C60.4904 136.628 61.3368 135.781 62.6047 135.781C63.0263 135.781 63.8727 135.781 63.8727 136.206V134.089H56.2583L57.1013 135.36L58.7908 137.049L56.6764 137.474L52.4477 139.164H48.219C47.7974 138.739 47.7974 138.317 47.7974 137.896C47.7974 136.628 48.6439 135.781 49.9118 135.781C50.7582 135.781 51.1831 136.206 51.6046 137.049L54.1405 136.206V133.242L35.9509 139.164H31.7222C31.7222 138.951 31.6164 138.739 31.5108 138.527C31.4056 138.316 31.3007 138.106 31.3007 137.896C31.3007 136.628 32.5686 135.781 33.415 135.781C34.2615 135.781 35.1045 136.206 35.5294 137.049L38.9117 136.206L31.7222 130.281V126.899C32.1437 126.478 32.5686 126.478 32.9901 126.478C33.8332 126.478 35.1011 127.324 35.1011 128.592C35.1011 129.01 34.6862 129.428 34.2681 129.85L34.2581 129.86L38.9083 133.667V129.435L35.9475 126.478H47.3658L44.405 129.435V131.549H61.7549C62.1798 131.549 62.6014 131.128 62.6014 130.706C62.5864 130.487 62.4924 130.28 62.3368 130.124C62.1812 129.969 61.9745 129.875 61.7549 129.86H46.951L49.4869 126.899C49.9084 126.478 50.3333 126.478 50.7548 126.478C52.0228 126.478 52.8692 127.324 52.8692 128.167H61.7516C63.0195 128.167 63.8659 129.435 63.8659 130.706ZM39.7514 129.86L41.8691 131.974L43.5586 129.86H39.7514ZM63.8659 116.745V117.592H65.9904V125.206H60.9153C60.4937 124.781 60.4937 124.36 60.4937 123.935C60.4937 122.667 61.3402 121.824 62.6081 121.824C63.0296 121.824 63.876 122.245 63.876 122.667V120.131H56.2617L57.1047 121.399L58.7942 123.092L56.6798 123.513L52.4511 125.206H48.219C47.7974 124.781 47.7974 124.36 47.7974 123.935C47.7974 122.667 48.6439 121.824 49.9118 121.824C50.7582 121.824 51.1831 122.245 51.6046 123.092L54.1405 122.245V119.285L35.9509 125.21H31.7222C31.7222 124.997 31.6168 124.786 31.5114 124.574C31.4061 124.362 31.3007 124.151 31.3007 123.938C31.3007 122.67 32.5686 121.827 33.415 121.827C34.2615 121.827 35.1045 122.249 35.5294 123.095L38.9117 122.249L31.7222 116.327V112.945C32.1437 112.523 32.5686 112.523 32.9901 112.523C33.8332 112.523 35.1011 113.366 35.1011 114.634C35.1011 115.056 34.6796 115.481 34.2581 115.902L38.9083 119.71V115.481L35.9475 112.52H47.3658L44.405 115.481V117.595H61.7549C62.1798 117.595 62.6014 117.174 62.6014 116.749C62.6014 116.324 62.1765 115.902 61.7549 115.902H46.951L49.4869 112.942C49.6977 112.942 49.9093 112.836 50.1209 112.731C50.3325 112.625 50.5441 112.52 50.7548 112.52C52.0228 112.52 52.8692 113.363 52.8692 114.631H61.7516C63.0195 114.631 63.8659 115.477 63.8659 116.745ZM39.7514 115.899L41.8691 118.013L43.5586 115.899H39.7514ZM63.8659 102.788V104.056H65.987V111.249H60.9119C60.4904 110.827 60.4904 110.402 60.4904 109.981C60.4904 108.709 61.3368 107.866 62.6047 107.866C63.0263 107.866 63.8727 108.288 63.8727 108.709V106.174H56.2583L57.1013 107.441L58.7908 109.134L56.6764 109.556L52.4477 111.245H48.219C47.7974 110.824 47.7974 110.399 47.7974 109.977C47.7974 108.706 48.6439 107.863 49.9118 107.863C50.7582 107.863 51.1831 108.285 51.6046 109.131L54.1405 108.285V105.324L35.9509 111.245H31.7222C31.7222 111.035 31.6168 110.823 31.5114 110.611C31.4061 110.4 31.3007 110.188 31.3007 109.977C31.3007 108.706 32.5686 107.863 33.415 107.863C34.2615 107.863 35.1045 108.285 35.5294 109.131L38.9117 108.285L31.7222 102.363V98.9806C31.933 98.9806 32.1446 98.8752 32.3562 98.7699C32.5678 98.6645 32.7794 98.5591 32.9901 98.5591C33.8332 98.5591 35.1011 99.4055 35.1011 100.673C35.1011 101.098 34.6796 101.52 34.2581 101.941L38.9083 105.749V101.52L35.9475 98.5591H47.3658L44.405 101.52V104.056H61.7549C62.1798 104.056 62.6014 103.209 62.6014 102.788C62.5864 102.568 62.4924 102.362 62.3368 102.206C62.1812 102.05 61.9745 101.956 61.7549 101.941H46.951L49.4869 98.9806C49.6977 98.9806 49.9093 98.8752 50.1209 98.7699C50.3325 98.6645 50.5441 98.5591 50.7548 98.5591C52.0228 98.5591 52.8692 99.4055 52.8692 100.673H61.7516C63.0195 100.673 63.8659 101.52 63.8659 102.788ZM39.7514 101.941L41.8691 104.056L43.5586 101.941H39.7514ZM126.467 136.624C126.889 137.896 126.046 139.164 124.774 139.585C123.503 139.585 122.239 139.164 121.817 137.892V135.778L121.822 135.773C122.242 135.353 122.663 134.932 123.503 134.932C123.931 134.51 124.774 134.51 125.196 134.932C125.721 135.412 126.152 135.986 126.467 136.624ZM118.01 146.775V144.66L125.624 143.814C126.046 143.389 131.967 137.892 131.967 137.892V137.471L132.389 140.432C132.389 140.432 128.582 144.239 128.16 144.239C128.582 144.66 133.66 147.2 133.66 147.2L134.082 149.736L126.046 145.928L118.01 146.775ZM124.77 153.963C124.35 153.539 123.931 153.118 123.931 152.275C123.931 151.007 125.196 149.739 126.467 149.739C126.889 149.739 127.739 150.164 128.16 150.585C128.582 151.007 128.582 151.428 128.582 152.275C128.582 152.7 128.582 153.543 128.16 153.968C127.739 154.393 126.889 154.814 126.467 154.814C125.624 154.814 125.196 154.393 124.774 153.968L124.77 153.963ZM118.431 158.196V156.082L133.66 158.193L133.239 162.422C132.81 164.958 130.696 166.647 128.16 166.226C126.889 166.226 125.624 165.383 125.196 164.536C124.774 164.115 124.353 162.847 124.353 162V161.154C124.353 161.154 124.774 159.464 124.774 159.039C124.353 159.039 118.431 158.196 118.431 158.196ZM130.693 162.004C130.693 162.004 131.114 160.311 131.114 159.889C130.903 159.889 129.952 159.784 129 159.678L128.998 159.678L128.998 159.678C128.047 159.573 127.096 159.468 126.885 159.468C126.885 159.893 126.464 161.582 126.464 161.582V162.004C126.464 162.85 127.307 163.693 128.578 164.118C129 164.118 130.693 164.118 130.693 162.004ZM114.624 172.582L117.16 164.964L131.546 169.615L129.003 177.229L126.889 176.383L128.582 171.307C128.582 171.074 127.544 170.71 126.546 170.361C125.741 170.079 124.963 169.806 124.774 169.618C124.774 170.043 123.082 175.118 123.082 175.118L120.967 174.272L122.66 169.196C122.449 169.196 121.498 168.879 120.546 168.562C119.594 168.245 118.642 167.929 118.431 167.929L116.739 173.425L114.624 172.582ZM113.353 175.54L114.203 173.847L127.31 181.883L126.046 183.151C126.046 183.151 112.931 184.419 112.082 184.419C112.931 185.265 121.817 190.765 121.817 190.765L120.546 192.454L107.853 184.419L108.703 182.726C108.703 182.726 121.817 181.458 122.66 181.458C121.817 181.036 113.353 175.54 113.353 175.54ZM108.799 192.118C108.906 192.091 109.014 192.064 109.124 192.036C110.817 191.615 112.931 191.615 114.624 192.883C115.467 193.729 115.889 194.997 115.889 195.844C115.889 197.115 115.467 197.958 114.624 198.804C113.97 199.456 113.071 199.857 112.304 200.2C112.074 200.303 111.856 200.4 111.66 200.497H111.239L109.546 198.383H109.967C111.239 198.383 112.082 197.958 112.931 197.115L112.951 197.095C113.366 196.677 113.774 196.265 113.774 195.847C113.774 195.634 113.669 195.422 113.563 195.21C113.458 195 113.353 194.789 113.353 194.579C112.51 193.733 111.239 194.154 109.967 194.579C107.853 195 105.738 195.422 104.046 193.308C102.774 192.461 102.353 191.615 102.353 190.347C102.353 189.504 102.774 188.232 103.624 187.811C104.895 186.54 105.738 186.118 107.431 186.118L109.967 188.232H109.124C107.853 187.811 106.16 188.232 105.317 189.076C104.467 189.925 104.895 191.193 105.317 191.615C106.105 192.8 107.268 192.506 108.799 192.118ZM93.4738 195.844L99.8169 191.615V191.193L108.703 203.883L101.931 208.112L100.66 206.419L105.317 203.458C105.317 203.245 104.786 202.396 104.257 201.548C103.729 200.704 103.203 199.861 103.203 199.651C102.774 200.072 98.5456 203.033 98.5456 203.033L97.281 200.919C97.281 200.919 101.51 197.958 101.931 197.958C101.51 197.536 99.3954 194.576 99.3954 194.576C98.9739 194.576 94.7384 197.536 94.7384 197.536L93.4738 195.844ZM37.6404 197.536C37.6404 197.958 43.1404 201.34 43.5619 201.34L46.9443 195.84L49.0586 197.108L40.5978 209.798L38.9083 208.951L42.2906 203.455C41.8691 203.03 36.3691 199.647 36.3691 199.647C35.9475 199.647 32.9868 205.147 32.9868 205.147L30.8724 203.879L38.9083 191.19V190.768L41.0227 192.036L37.6404 197.536ZM33.8298 185.268C35.0978 186.536 35.5227 188.229 35.5227 190.343C35.5227 192.458 34.6762 194.151 32.9834 195.84C29.5977 198.801 24.9441 198.801 21.9833 195.419C20.7154 194.151 20.2938 192.036 20.2938 190.343C20.2938 188.234 21.5597 186.543 22.825 184.854L22.8331 184.843C25.7939 182.308 30.4475 181.461 33.8298 185.268ZM31.2939 194.151C32.5618 192.883 33.4083 191.611 33.4083 190.343C33.4083 189.076 32.9868 187.808 32.1403 186.536C31.299 185.695 30.0411 185.273 28.7807 184.851L28.7806 184.851L28.758 184.843C27.0685 184.843 25.7989 185.69 24.5368 186.531L24.5293 186.536C23.263 187.803 22.8398 189.065 22.4166 190.328L22.4116 190.343C22.4116 191.615 22.8365 192.883 23.6795 194.151C25.7939 196.265 28.758 196.265 31.2939 194.151ZM17.7579 182.308C18.6043 181.886 27.4867 177.232 27.4867 177.232L28.7513 179.347L14.7904 185.693L13.9473 184.425C13.9473 184.425 19.8689 172.157 20.2905 171.311C19.8689 171.736 10.1401 176.386 10.1401 176.386L9.29373 174.272L22.8331 167.929H23.2546L24.101 169.618L17.7579 182.308ZM7.60763 167.504L22.4116 163.696L22.8365 165.814L8.45068 169.618L7.60763 167.504ZM13.5292 158.2C14.3722 158.2 14.7971 158.2 15.6436 158.621C15.9041 158.882 16.0036 159.144 16.1411 159.505C16.2261 159.729 16.3256 159.991 16.4866 160.314C16.4866 161.582 15.6436 162.85 14.3722 162.85C13.5292 163.272 13.1043 162.85 12.6828 162.428C12.021 162.096 11.8766 161.766 11.6437 161.233C11.5787 161.085 11.5068 160.92 11.4148 160.736C11.4148 160.476 11.576 160.215 11.7982 159.855C11.9369 159.631 12.0993 159.368 12.2613 159.043C12.6828 158.621 13.1077 158.2 13.5292 158.2ZM17.7579 150.585C16.0651 150.585 15.2187 151.853 14.3722 153.121C13.5292 154.393 12.2579 156.082 10.1435 156.085C8.87557 156.085 7.60763 155.664 7.18274 155.242C6.33632 154.396 5.91479 153.128 5.91479 151.86C5.91479 151.014 6.33632 149.742 7.18274 148.899H9.72536C9.54718 149.167 9.369 149.416 9.19871 149.653C8.56009 150.544 8.03253 151.281 8.03253 152.282C8.03253 152.703 8.45078 153.121 8.86903 153.54L8.87895 153.549C8.87895 153.971 9.30047 153.971 9.72536 153.971C10.8721 153.971 11.3265 153.279 12.029 152.208C12.1033 152.095 12.1803 151.978 12.2613 151.857C13.5292 150.164 14.7971 148.471 17.3364 148.471C18.6043 148.471 19.8757 148.896 20.2972 149.739C21.1436 150.164 21.5651 151.428 21.5651 152.275C21.5651 153.968 21.1436 154.814 19.8757 156.082H17.333C18.601 154.814 19.0225 153.968 19.4474 152.7C19.4474 151.853 19.0225 151.428 18.601 151.007C18.1794 150.585 17.7579 150.585 17.7579 150.585ZM19.8757 145.932C17.7579 146.778 15.6436 147.2 13.5292 146.778C11.4115 145.932 9.722 144.66 8.45405 142.971C8.36623 142.707 8.2784 142.461 8.19439 142.226C7.87518 141.332 7.611 140.592 7.611 139.589V137.474C8.87895 133.242 12.6861 131.131 16.9149 132.399C19.4541 132.821 21.147 134.089 21.99 135.781C23.258 137.474 23.258 139.589 22.8365 141.278C22.4116 143.396 21.1436 144.664 19.8757 145.932ZM12.2579 134.932C10.9866 135.778 10.1435 137.046 10.1435 138.317C9.2971 140.853 10.9899 143.392 13.9473 144.239C17.333 145.085 19.8723 143.392 20.7154 140.853C21.138 139.592 20.7198 138.331 20.3005 137.066L20.2938 137.046C19.4474 135.778 18.1794 134.932 16.4866 134.51C14.7996 134.087 13.5345 134.507 12.2709 134.927L12.2708 134.927L12.2579 134.932ZM140 153.121C140 134.085 132.807 116.745 119.275 103.634C118.443 102.521 117.426 101.591 116.345 100.604C115.783 100.09 115.204 99.5601 114.624 98.9806V96.4447C117.582 96.4447 119.696 93.9089 119.696 90.9481C119.696 88.4122 117.16 85.8729 114.203 85.8729L119.275 83.3337L117.16 79.1049L124.775 61.3368L121.389 60.0689L113.774 78.2585L109.546 79.948L112.51 85.8729H27.4868L30.4475 79.948L26.2188 77.837L18.1829 60.0689L14.7972 61.3368L22.8365 79.1049L20.7221 83.3337L25.7973 85.8729C22.8399 85.8729 20.3006 88.4088 20.3006 90.9481C20.3006 93.9089 22.8399 96.0232 25.3758 96.4447V98.9806C24.7963 99.5601 24.2172 100.09 23.6554 100.604L23.6553 100.604C22.5757 101.591 21.5594 102.521 20.7255 103.634C7.18953 116.745 0 134.089 0 153.121C0 167.504 4.65026 181.461 12.6896 193.304C20.7255 204.726 32.1471 213.608 45.2582 218.262C45.2582 218.262 46.1047 218.683 47.3726 219.108C47.3726 220.798 48.6439 222.915 50.3367 223.337C52.4511 224.183 54.5655 223.337 55.8334 222.069V241.948C55.8334 249.141 62.1799 255.484 69.7943 255.484C77.8336 255.484 83.7552 249.141 83.7552 241.948V228.837L118.438 212.337C119.232 212.072 119.863 211.64 120.431 211.251L120.431 211.251C120.767 211.02 121.082 210.804 121.396 210.647C123.938 208.112 124.36 203.879 122.667 198.804C125.631 195.422 128.589 191.615 130.703 187.808C136.614 177.232 140 164.964 140 153.121ZM103.624 88.8303L113.774 90.9447L103.624 93.0591V88.8303ZM71.0555 195.422V142.968H111.239V153.121C111.239 162.85 109.546 169.196 107.01 174.268C104.895 177.654 102.353 181.036 98.9739 183.997C98.9739 183.997 98.9739 184.419 98.5456 184.419C90.9312 191.19 81.2058 195.422 71.0555 195.422ZM82.8986 197.115C82.0656 198.784 81.6441 200.869 81.221 202.961L81.2058 203.036L69.7876 199.229C74.2413 199.211 78.6649 198.497 82.8986 197.115ZM71.0555 141.278V96.4414H110.817L111.239 141.278H71.0555ZM85.013 88.8303L95.1633 90.9447L85.013 93.0591V88.8303ZM65.977 88.8303L76.1307 90.9447L65.977 93.0591V88.8303ZM47.3659 88.8303L57.5195 90.9447L47.3659 93.0591V88.8303ZM29.1762 88.8303L39.3299 90.9447L29.1762 93.0591V88.8303ZM28.7547 131.549V96.4414H68.9378V141.278H28.7547V131.549ZM28.7581 142.968H68.9378V195.419C60.9018 195.419 52.8659 192.883 46.0979 188.229L45.2515 187.383H44.8299C44.8299 187.383 44.8299 186.961 44.405 186.961L43.9835 186.54H43.562C39.3333 183.157 35.9476 178.929 32.9868 173.85C30.4476 169.2 28.7581 162.432 28.7581 153.125V142.968ZM48.2123 215.726C47.8871 215.563 47.6246 215.462 47.4006 215.376C47.0415 215.239 46.7811 215.139 46.5194 214.88C33.8299 210.226 23.258 202.19 15.6436 191.193C7.60767 179.772 3.79709 166.661 3.79709 153.125C3.79709 135.36 10.5651 118.442 23.2547 106.174C23.6666 105.346 24.4874 104.523 25.3112 103.696L25.369 103.638V121.827C23.3409 120.645 21.3652 119.374 19.4475 118.02C19.4475 117.599 21.9833 114.213 21.9833 114.213L19.8724 112.945L13.5259 122.249L15.6402 123.517C15.6402 123.517 17.7546 120.134 18.1761 119.71C18.1761 119.71 22.4049 122.67 25.3657 124.785V131.128L12.6761 125.206H12.2546L11.4081 127.321L25.3657 133.664V141.275L25.3477 141.356C24.5106 145.136 23.6728 148.919 23.6728 153.118C23.6728 161.154 26.2121 169.193 30.0193 175.958C32.5585 181.033 35.9409 184.419 38.9016 186.954C40.1696 188.222 41.8624 189.494 43.1304 190.337C43.1304 190.762 43.5519 190.762 43.5519 190.762L43.9734 191.183C44.1838 191.183 44.2891 191.288 44.3947 191.393C44.5007 191.499 44.607 191.605 44.8198 191.605L44.8497 191.625L44.8499 191.625C46.1078 192.461 47.3658 193.298 48.6271 193.719L55.395 197.105L52.4343 204.294L51.1663 203.873C50.3233 203.451 49.4735 203.873 49.052 204.716C48.6304 205.562 49.052 206.409 49.8984 206.83L51.5912 207.252L48.2123 215.726ZM80.3628 241.948C80.3628 243.219 80.3628 244.909 79.513 245.755C79.0914 247.023 78.2484 247.448 76.9771 247.448C75.7058 247.448 74.4412 246.605 74.0197 245.334C74.0197 244.912 74.0197 244.487 73.5914 243.641H74.8627C76.5556 243.641 77.8269 242.373 77.8269 240.68C77.8269 238.987 76.5556 237.719 74.8627 237.719C74.0197 237.719 73.1699 238.141 72.3268 238.987L70.634 230.53H69.3627C69.3627 230.53 68.0947 234.759 67.2483 238.987C67.05 238.599 66.7467 238.275 66.3729 238.05C65.999 237.826 65.5698 237.712 65.1339 237.719C63.4411 237.719 62.1732 238.987 62.1732 240.68C62.1732 242.373 63.4411 243.641 65.1339 243.641H65.9804C65.9804 244.487 65.9804 245.334 65.5588 245.334C65.1373 246.602 64.2909 247.448 62.598 247.448C61.7516 247.448 60.9052 247.027 60.0622 245.755C59.6373 244.912 59.2157 243.219 59.2157 241.948V223.337C61.086 223.836 63.0664 224.408 65.1135 225L65.1143 225L65.1146 225L65.1147 225C70.014 226.416 75.2957 227.943 80.3661 228.837V241.948H80.3628ZM82.0556 225.876C71.0555 223.337 58.7875 219.533 51.1764 216.572C52.0195 214.88 53.2908 211.919 54.5587 208.533L56.2516 209.38V209.804C56.2516 212.765 58.7875 214.88 61.3267 214.88C64.2875 214.88 66.4019 212.765 66.4019 209.804C66.4019 206.844 64.2875 204.726 61.3267 204.726C60.0588 204.726 58.7875 205.572 57.5229 206.419L55.4085 205.572C55.772 204.725 56.1354 203.911 56.479 203.142L56.4794 203.142L56.4794 203.141C57.3343 201.228 58.0663 199.59 58.3693 198.383C59.694 198.898 61.0699 199.439 62.488 199.996L62.4922 199.998L62.5076 200.004L62.5179 200.008L62.5367 200.015L62.5426 200.018L62.5542 200.022L62.5575 200.023L62.5613 200.025L62.5621 200.025L62.5629 200.025L62.5647 200.026C69.2794 202.666 76.936 205.675 84.5949 208.112C94.3237 211.072 101.938 212.765 108.278 213.187C99.5245 217.391 90.7837 221.62 82.0556 225.876ZM118.853 207.687C118.01 208.955 115.467 209.804 110.817 209.804C113.953 207.479 116.92 204.934 119.696 202.19C120.546 204.726 120.124 206.419 118.853 207.687ZM105.317 209.38C98.5948 208.265 91.953 206.711 85.4345 204.726C85.4345 204.304 85.013 204.304 84.5915 204.304C85.4345 199.229 87.1274 196.268 89.67 194.579C93.8988 192.886 97.706 189.925 101.513 186.965C104.471 184.004 107.435 180.621 109.971 175.968C113.778 169.2 116.32 161.585 116.32 153.128C116.32 148.929 115.483 145.146 114.646 141.366L114.628 141.285V133.674L116.742 139.17L118.856 138.327C118.856 138.327 116.742 133.249 116.742 132.827C117.164 132.827 128.585 128.174 128.585 128.174L127.742 126.059L114.628 131.559V130.291L123.507 118.027L122.664 116.759H122.242L114.628 118.452V103.648L114.686 103.706L114.686 103.706C115.509 104.533 116.33 105.357 116.742 106.184C129.435 118.452 136.2 135.37 136.2 153.135C136.2 164.556 133.242 175.975 127.742 185.707C122.239 195.422 114.203 203.458 105.317 209.38ZM115.467 125.628C115.467 125.628 115.046 126.049 114.624 126.896V124.36C115.046 125.206 115.467 125.628 115.467 125.628ZM114.624 120.553C115.046 120.553 118.853 119.706 119.696 119.281C119.275 120.128 117.16 123.092 116.739 123.513C116.739 123.092 115.046 120.974 114.624 120.553ZM111.66 34.6864C115.046 34.6864 119.696 36.3792 122.239 40.608C124.353 43.9903 126.046 49.9152 121.386 60.0655L114.621 57.1047L114.199 57.9478C116.735 59.2191 118.85 61.755 116.314 67.255C110.385 65.1407 109.964 61.755 111.235 59.2191L109.964 58.7942L107.006 65.5622L104.464 72.3302L105.314 72.7517C106.157 70.6373 109.121 68.523 114.621 71.0589C112.078 76.5589 107.85 79.0982 104.042 79.0982C98.1208 79.0982 93.892 75.291 94.3135 71.4838C94.7351 68.9445 97.2777 67.6799 98.5423 68.1015C99.8136 68.1015 100.235 69.3694 100.235 70.6374C100.235 70.6374 100.235 71.0589 99.8136 71.0589L100.235 71.4804C101.506 71.0589 103.199 69.7876 103.199 68.0981C103.621 66.4053 102.349 64.2909 100.657 63.866C99.3921 63.866 98.1207 64.2909 97.2777 65.1373L96.8562 64.2909C97.6992 63.866 98.5423 62.598 98.9705 61.3301C99.2832 59.1337 97.5007 56.9354 96.5596 55.7747C96.232 55.3707 96.0064 55.0924 96.0064 54.9836C96.0064 54.9836 91.3561 56.6765 90.9279 60.0588C90.7377 60.6455 90.7165 61.2739 90.8668 61.872C91.0171 62.4702 91.3327 63.014 91.7776 63.4411L91.3561 63.8626C90.5063 62.5947 89.6633 61.7482 88.392 61.7482C86.6991 61.3267 84.5847 62.5947 84.1632 64.709C83.7417 66.4019 84.5847 68.0947 86.2776 68.5162V67.6698C86.6991 66.8268 87.5489 65.9804 88.8135 66.4019C89.6633 66.4019 91.7776 68.0947 91.3561 71.0555C90.5063 75.7091 86.2776 79.0948 81.6273 79.0948C76.9703 79.0948 71.8918 75.2842 71.8918 69.3627C78.6632 69.3627 80.356 72.3235 80.356 75.2842H81.6273V59.6339H80.356C80.356 62.1731 78.6632 65.1339 71.8918 65.1339C71.8918 58.3659 75.2775 56.6731 77.8201 56.6731V55.4051H62.1664V56.6731C64.7057 56.6731 68.088 58.3659 68.088 65.1339C61.32 65.1339 59.6271 62.1731 59.6271 59.6339H58.3592V75.2842H59.6271C59.6271 72.3235 61.32 69.3627 68.088 69.3627C68.088 75.2876 63.0128 79.0948 58.3592 79.0948C53.2807 79.0948 49.4735 75.7091 48.6304 71.0555C48.2055 68.0947 49.8984 66.4019 50.7448 66.4019C52.0127 65.9804 53.2807 66.8268 53.2807 67.6698C53.7022 68.0947 53.7022 68.0947 53.2807 68.5162H53.7022C54.9735 68.0913 55.8166 66.3985 55.8166 64.709C55.3951 62.5947 53.2807 61.3267 51.1663 61.7482C50.3233 61.7482 49.052 62.5947 48.6304 63.8626L48.2055 63.4411C48.6492 63.0131 48.9638 62.4692 49.1134 61.8712C49.263 61.2732 49.2418 60.6453 49.052 60.0588C48.6304 56.6765 43.9768 54.9836 43.9768 54.9836C43.9768 55.089 43.7426 55.3506 43.4034 55.7294C42.3753 56.8777 40.3821 59.1039 41.016 61.3301C41.0237 61.9805 41.2305 62.613 41.6086 63.1423C41.9866 63.6717 42.5177 64.0725 43.1304 64.2909L42.7089 65.1373C41.8658 64.2909 40.5945 63.866 39.3265 63.866C37.2122 64.2909 35.9442 66.4053 36.3658 68.0981C36.5648 68.918 36.9857 69.6673 37.5823 70.2639C38.1789 70.8605 38.9282 71.2814 39.7481 71.4804V70.6374C39.3265 69.3694 40.173 68.1015 41.4443 68.1015C42.2873 67.6766 44.8266 68.9445 45.2481 71.4838C46.0945 75.291 41.4443 79.0982 35.5193 79.0982C32.1337 79.0982 27.48 76.5555 24.9441 71.0589C30.8657 68.523 33.405 70.6373 34.6729 72.7517L35.5193 72.3302L32.5585 65.5622L30.0193 58.7942L28.7513 59.2191C29.5978 61.755 29.5978 65.1407 23.6728 67.255C21.1369 61.755 23.2513 59.2191 25.3657 57.9478L24.9441 57.1047L18.1761 60.0655C13.9474 49.9152 15.6402 43.9903 17.7546 40.608C20.2939 36.3792 24.9475 34.6864 28.3298 34.6864C32.9834 34.6864 37.6371 36.3792 42.2873 38.4936C47.7874 40.608 53.2874 42.7223 58.3626 42.3008C57.941 40.1998 57.1046 38.5203 56.2682 36.8408L56.2482 36.8008L59.6305 35.1079C58.7841 33.84 58.3626 32.5687 57.941 30.8792C58.0232 30.8792 58.2502 30.8149 58.6156 30.7113C60.1249 30.2835 63.9962 29.1863 69.7842 29.1863C75.5632 29.1863 79.4293 30.2801 80.9462 30.7093C81.3164 30.814 81.5467 30.8792 81.6307 30.8792C81.6307 32.572 81.2024 33.84 80.3594 35.1079L83.7451 36.8008C82.8953 38.4936 82.0522 40.1864 81.2024 42.3008C86.7025 42.7223 92.2025 40.608 97.2811 38.4936C101.931 36.3792 107.01 34.6864 111.66 34.6864ZM52.0195 53.7224C53.2908 50.7616 56.2516 49.0688 59.6339 49.0688H60.0622C60.0622 48.6452 59.9557 48.1151 59.8494 47.5856C59.7433 47.0571 59.6373 46.5291 59.6373 46.108C52.8727 46.9511 46.9477 44.4152 41.0261 41.8759C40.6082 41.7239 40.1937 41.5719 39.7826 41.4211L39.7825 41.4211C35.6158 39.8932 31.7988 38.4936 28.3366 38.4936C26.6437 38.4936 22.8365 39.34 20.7222 42.7223C18.6078 45.6831 18.6078 50.3367 20.7222 56.2583C21.9901 52.8726 25.3724 49.9152 29.1796 49.9152C32.1404 49.9152 35.1012 51.6081 36.3725 54.144C37.6405 51.6081 39.7548 49.9152 42.7156 49.4937C46.5194 48.6473 50.33 50.3401 52.0195 53.7224ZM73.588 34.2615C73.1665 32.5687 71.8952 30.8792 69.7842 30.8792C68.0913 30.8792 66.8234 32.572 66.3985 34.2615C67.2483 33.4184 68.5162 32.572 69.7842 32.572C71.1852 32.572 72.0088 33.1541 72.9703 33.8336C73.1683 33.9735 73.3721 34.1175 73.588 34.2615ZM73.588 37.6472C73.1665 35.5328 71.8952 34.2615 69.7842 34.2615C68.0913 34.2615 66.8234 35.5328 66.3985 37.6472C67.2483 36.8008 68.5162 35.9543 69.7842 35.9543C71.1875 35.9543 72.0115 36.5383 72.9751 37.2212L72.9752 37.2213L72.9753 37.2213C73.1717 37.3605 73.3739 37.5039 73.588 37.6472ZM66.3985 50.3367C66.3985 52.4511 68.0913 54.144 69.7842 54.144C70.2846 54.1462 70.7806 54.0492 71.2433 53.8586C71.706 53.668 72.1264 53.3876 72.4801 53.0336C72.8338 52.6796 73.1138 52.259 73.304 51.7961C73.4942 51.3332 73.5907 50.8372 73.588 50.3367C73.588 48.6439 71.8952 46.9511 69.7842 46.9511C68.0913 46.9511 66.3985 48.6439 66.3985 50.3367ZM69.7876 45.2616C71.0555 45.2616 72.3268 45.6831 73.1699 46.5295C73.5914 46.108 73.5914 45.6831 73.5914 45.2616C73.5914 43.5687 71.8986 41.8759 69.7876 41.8759C68.0947 41.8759 66.4019 43.5687 66.4019 45.2616V46.5295C67.6732 45.6831 68.5196 45.2616 69.7876 45.2616ZM69.7876 40.1864C71.477 40.1864 72.7484 40.608 73.5914 41.4544C73.5914 39.34 71.8986 37.6472 69.7876 37.6472C68.0947 37.6472 66.4019 39.34 66.4019 41.4544C67.2517 40.608 68.5196 40.1864 69.7876 40.1864ZM110.817 49.9152C114.624 49.9152 118.01 52.8726 119.275 56.2583C121.389 50.3367 121.389 45.6831 119.275 42.7223C117.16 39.34 113.353 38.4936 111.66 38.4936C107.853 38.4936 103.203 40.1864 98.9739 41.8759C93.0456 44.4152 86.7025 46.9511 80.3594 46.108C80.15 46.5284 80.0447 47.0528 79.9391 47.5779C79.8322 48.11 79.7252 48.6428 79.5096 49.0688H80.3594C83.7451 49.0688 86.281 50.7616 87.9738 53.7224C89.6667 50.3367 93.4739 48.6473 97.2811 49.4937C100.238 49.9152 102.353 51.6081 103.203 54.144C104.895 51.6081 107.853 49.9152 110.817 49.9152Z" fill="url(#paint0_linear)"/>
<defs>
<linearGradient id="paint0_linear" x1="0" y1="0" x2="140" y2="255" gradientUnits="userSpaceOnUse">
<stop stop-color="#447EC6"/>
<stop offset="0.53125" stop-color="#285D9D" stop-opacity="0.5"/>
<stop offset="1" stop-color="#194173" stop-opacity="0"/>
</linearGradient>
</defs>
</svg>
