<svg width="140" height="94" viewBox="0 0 140 94" fill="none" preserveAspectRatio="xMidYMid meet" xmlns="http://www.w3.org/2000/svg">
<g style="mix-blend-mode:darken">
<path fill-rule="evenodd" clip-rule="evenodd" d="M0 0H140V94H0V0Z"/>
</g>
<path fill-rule="evenodd" clip-rule="evenodd" d="M30.6244 31.9999H59.6062H59.6499L59.6282 32.0218L74.2306 46.5469L59.6622 61.0383L59.6626 61.0387L59.6074 61.0939L59.6062 61.0939H30.6244L30.58 61.0939L30.6021 61.0717L16 46.5469L30.5684 32.0556L30.5679 32.0551L30.6231 31.9999H30.6244ZM30.6244 61.0494L45.0477 46.581L30.6244 32.1118V61.0494ZM45.1828 46.5129L59.6062 60.9822V32.0438L45.1828 46.5129ZM78.9268 52.557H81.6142V47.4468H86.8114V52.557H89.4988V40.374H86.8114V45.3408H81.6142V40.374H78.9268V52.557ZM95.749 52.83C93.211 52.83 90.9742 51.7134 90.9568 48.7782H93.6694C93.7456 50.2542 94.5868 50.8506 95.8996 50.8506C96.8098 50.8506 98.1052 50.3964 98.1052 49.2018C98.1052 48.1608 97.2661 47.9389 95.9676 47.5955C95.6279 47.5057 95.2568 47.4075 94.861 47.2842C93.1246 46.7442 91.2142 46.056 91.2142 43.7694C91.2142 41.2782 93.619 40.152 95.9596 40.152C98.6332 40.152 100.59 41.1516 100.554 43.7856H97.8682C97.75 42.5538 97.0204 42.0294 95.8438 42.0294C95.0158 42.0294 94.0042 42.4896 94.0042 43.5132C94.0042 44.4522 94.423 44.6148 97.3612 45.4926C97.4414 45.5166 97.5348 45.542 97.6385 45.5703C98.7356 45.8688 100.991 46.4826 100.991 49.0074C100.991 51.243 98.9614 52.83 95.749 52.83ZM105.007 47.2335H107.208C108.357 47.2335 109.294 47.7285 109.294 48.9735C109.294 50.2365 108.242 50.6799 107.158 50.6799H105.007V47.2335ZM102.375 52.557H107.474C109.809 52.557 112.148 51.7206 112.148 49.1268C112.148 47.6082 111.159 46.5672 109.386 46.26C111.015 45.7482 111.701 44.7924 111.701 43.5984C111.701 41.3292 109.76 40.374 107.579 40.374H102.375V52.557ZM105.007 42.3025H106.961C107.894 42.3025 108.965 42.6943 108.965 43.8547C108.965 44.8783 108.077 45.4417 107.161 45.4417H105.007V42.3025ZM119.1 40.1178C121.896 40.1178 123.882 41.5806 124 44.0412H121.146C121.068 43.0644 120.303 42.1998 119.135 42.1998C116.848 42.1998 115.977 44.418 115.977 46.5504C115.977 48.5814 116.729 50.7648 118.981 50.7648C120.146 50.7648 120.945 50.1942 121.207 48.9144H123.974C123.853 51.3258 121.88 52.83 119.1 52.83C115.159 52.83 113.196 50.6448 113.196 46.5168C113.196 42.6606 115.329 40.1178 119.1 40.1178Z" fill="url(#paint0_linear)"/>
<defs>
<linearGradient id="paint0_linear" x1="16" y1="31.9999" x2="19.0429" y2="69.5452" gradientUnits="userSpaceOnUse">
<stop stop-color="#7EB7FE"/>
<stop offset="1" stop-color="#599EF4" stop-opacity="0.92"/>
</linearGradient>
</defs>
</svg>
