<svg width="140" height="94" viewBox="0 0 140 94" fill="none" preserveAspectRatio="xMidYMid meet" xmlns="http://www.w3.org/2000/svg">
<g style="mix-blend-mode:darken">
<path fill-rule="evenodd" clip-rule="evenodd" d="M0 0H140V94H0V0Z"/>
</g>
<g clip-path="url(#clip0)">
<path fill-rule="evenodd" clip-rule="evenodd" d="M75.4992 45.3168C75.4982 45.659 75.4075 45.9788 75.2738 46.2958C75.1962 46.481 75.155 46.6858 75.1232 46.8859C75.0858 47.1215 75.0166 47.3282 74.8857 47.5386C74.8051 47.6671 74.7617 47.8286 74.7194 47.986L74.7193 47.9863C74.7047 48.0407 74.6902 48.0946 74.6744 48.1464C74.6476 48.2333 74.6105 48.3135 74.5741 48.3921C74.538 48.4701 74.5027 48.5465 74.479 48.6261C74.4266 48.8028 74.3565 48.9468 74.2517 49.0955C74.1771 49.201 74.1328 49.3286 74.0887 49.4553L74.0886 49.4554C74.0753 49.4937 74.062 49.532 74.0479 49.5696C73.9191 49.9139 73.724 50.2214 73.529 50.5288C73.4211 50.6989 73.3132 50.869 73.2166 51.0452C73.1772 51.1173 73.1005 51.1685 73.0374 51.2106C73.0122 51.2274 72.9892 51.2428 72.9716 51.2575V51.4669C72.9415 51.5071 72.8986 51.531 72.854 51.5559C72.7835 51.5951 72.709 51.6367 72.6752 51.7484C72.6191 51.9345 72.4629 52.1299 72.2955 52.2328C72.1845 52.3011 72.1149 52.3954 72.0461 52.4886C72.0066 52.5422 71.9673 52.5955 71.9205 52.6433C71.8369 52.7288 71.7469 52.8089 71.6568 52.889C71.4378 53.084 71.2182 53.2793 71.0883 53.555C70.8316 53.7071 70.6073 53.9005 70.3828 54.0939L70.3827 54.0939C70.2899 54.1739 70.197 54.254 70.1018 54.3311C70.0249 54.3935 69.9414 54.4481 69.858 54.5025C69.7425 54.578 69.6275 54.6531 69.5314 54.7482C69.3275 54.949 69.086 55.088 68.8446 55.227L68.8445 55.2271L68.8445 55.2271L68.8445 55.2271L68.8444 55.2272L68.8444 55.2272L68.8443 55.2272L68.8443 55.2272L68.8442 55.2273L68.8442 55.2273L68.8441 55.2273L68.8441 55.2274L68.844 55.2274L68.844 55.2274L68.844 55.2274L68.8439 55.2275L68.8439 55.2275L68.8438 55.2275L68.8438 55.2276L68.8437 55.2276L68.8437 55.2276L68.8436 55.2276C68.7166 55.3008 68.5896 55.3739 68.4682 55.456C68.4342 55.4791 68.401 55.5032 68.368 55.5272C68.2112 55.6411 68.0576 55.7525 67.8351 55.744C67.7943 55.7426 67.7533 55.7836 67.7113 55.8254C67.6705 55.8661 67.6287 55.9078 67.5854 55.9124C67.447 55.9263 67.3351 55.9944 67.2235 56.0624C67.1247 56.1226 67.0261 56.1827 66.9094 56.205C66.7579 56.2343 66.6098 56.2786 66.4616 56.3229L66.4616 56.3229C66.3875 56.345 66.3134 56.3671 66.2389 56.3874C66.2189 56.3931 66.1957 56.3955 66.1728 56.3979C66.1315 56.4023 66.0911 56.4066 66.0725 56.4295C65.9634 56.5615 65.8168 56.5832 65.6704 56.6048C65.5846 56.6175 65.4988 56.6302 65.4207 56.6651C65.3251 56.7076 65.2241 56.7388 65.0937 56.7791C65.0289 56.7991 64.9568 56.8214 64.8746 56.8484C64.8526 56.8503 64.8219 56.8494 64.7855 56.8483C64.6781 56.8451 64.5221 56.8404 64.4005 56.9026C64.3235 56.9419 64.2402 56.9393 64.158 56.9367C64.0446 56.9331 63.9332 56.9295 63.8432 57.0364C63.82 57.0635 63.7553 57.056 63.6915 57.0486C63.6652 57.0455 63.639 57.0425 63.616 57.042C63.255 57.0307 62.9072 57.0896 62.5677 57.215C62.5072 57.237 62.437 57.2337 62.3673 57.2304C62.3422 57.2292 62.3172 57.228 62.2928 57.228C62.0708 57.2283 61.849 57.229 61.6271 57.2297C60.9619 57.2318 60.297 57.2339 59.6315 57.2234C59.3828 57.2196 59.1238 57.1804 58.8928 57.0943C58.7731 57.0493 58.6655 57.0476 58.5541 57.0459L58.5412 57.0457C58.2261 57.0401 57.9287 56.9606 57.6285 56.8802C57.5643 56.8629 57.4956 56.8623 57.4268 56.8617H57.4268C57.3725 56.8613 57.3181 56.8608 57.2657 56.8521C57.1726 56.8369 57.0819 56.8085 56.9917 56.7803L56.931 56.7614C56.8547 56.7377 56.7773 56.7163 56.6998 56.6949C56.5112 56.6429 56.3225 56.5907 56.1502 56.5052C56.052 56.4569 55.9446 56.4343 55.8376 56.4118C55.6735 56.3773 55.5103 56.343 55.3824 56.2163C55.2477 56.2284 55.139 56.1693 55.0317 56.1109C54.9737 56.0793 54.9161 56.048 54.855 56.0283C54.6633 55.9666 54.4988 55.8955 54.3594 55.7553C54.3472 55.7431 54.3258 55.7406 54.3045 55.7381C54.2947 55.7369 54.285 55.7358 54.2762 55.7338C54.0275 55.6786 53.8199 55.572 53.6142 55.4037C53.5006 55.3108 53.3654 55.2426 53.2285 55.1737C53.1174 55.1177 53.0052 55.0612 52.9026 54.9904C52.793 54.9148 52.6845 54.8376 52.5759 54.7604L52.5759 54.7604L52.5759 54.7604L52.5759 54.7604L52.5759 54.7604L52.5758 54.7603L52.5758 54.7603L52.5758 54.7603L52.5758 54.7603L52.5757 54.7603L52.5757 54.7603L52.5757 54.7602L52.5754 54.76L52.5751 54.7598L52.5748 54.7596L52.5746 54.7594L52.5743 54.7592L52.574 54.759L52.5737 54.7588L52.5734 54.7586L52.5734 54.7586L52.5734 54.7586L52.5733 54.7586L52.5733 54.7586L52.5733 54.7586L52.5732 54.7585L52.5732 54.7585L52.5732 54.7585L52.5732 54.7585L52.5731 54.7585L52.5731 54.7584L52.5731 54.7584L52.573 54.7584L52.573 54.7584L52.573 54.7584L52.573 54.7584L52.5729 54.7583L52.5729 54.7583L52.5729 54.7583L52.5728 54.7583L52.5728 54.7583C52.2645 54.5389 51.9559 54.3194 51.6234 54.1366C51.5702 53.9946 51.4566 53.9144 51.3422 53.8337C51.2653 53.7795 51.1881 53.725 51.1287 53.6513C51.0191 53.5147 50.8914 53.3934 50.7636 53.2721C50.7103 53.2215 50.657 53.171 50.605 53.1192C50.551 53.0652 50.4955 53.0122 50.44 52.9591C50.315 52.8397 50.1899 52.7202 50.0804 52.5881C49.9181 52.3926 49.7648 52.1893 49.6115 51.9859L49.6115 51.9858C49.5228 51.8682 49.4341 51.7505 49.3436 51.6343C49.3186 51.6021 49.2887 51.5737 49.259 51.5454L49.2589 51.5454L49.2589 51.5454L49.2589 51.5453L49.2589 51.5453L49.2589 51.5453L49.2589 51.5453L49.2589 51.5453L49.2589 51.5453L49.2589 51.5453L49.2588 51.5453L49.2588 51.5453L49.2588 51.5452L49.2588 51.5452L49.2588 51.5452L49.2588 51.5452L49.2588 51.5452L49.2588 51.5452L49.2587 51.5452L49.2587 51.5452L49.2587 51.5451C49.2229 51.5111 49.1873 51.4773 49.1603 51.437C49.1284 51.3889 49.1047 51.3355 49.0809 51.282L49.0809 51.282L49.0809 51.282L49.0809 51.2819L49.0809 51.2819L49.0809 51.2819L49.0809 51.2819L49.0808 51.2819L49.0808 51.2818L49.0808 51.2818L49.0808 51.2818L49.0808 51.2818L49.0808 51.2817L49.0808 51.2817L49.0808 51.2817L49.0808 51.2817L49.0807 51.2816L49.0807 51.2816L49.0807 51.2816L49.0807 51.2816L49.0807 51.2816L49.0807 51.2815C49.0634 51.2426 49.0461 51.2037 49.0257 51.1668C48.9903 51.1033 48.9501 51.0422 48.9099 50.9812C48.8938 50.9567 48.8778 50.9323 48.862 50.9077C48.8451 50.8817 48.8295 50.8537 48.814 50.8256C48.7782 50.7607 48.7422 50.6957 48.6881 50.6553C48.5191 50.5289 48.4429 50.3474 48.3667 50.1656C48.3057 50.0204 48.2447 49.8751 48.1364 49.7576C48.0816 49.6976 48.0589 49.6082 48.0361 49.5182C48.0255 49.4762 48.0148 49.434 48.0008 49.3947C47.9607 49.3845 47.9186 49.3733 47.8766 49.3621L47.8765 49.362L47.8764 49.362C47.874 49.3549 47.8713 49.3478 47.8686 49.3406L47.8686 49.3405C47.8612 49.3205 47.8537 49.3004 47.8502 49.2797L47.8412 49.2236C47.8282 49.1423 47.8155 49.0623 47.7904 48.9786C47.7429 48.8209 47.6615 48.6798 47.5802 48.539C47.4809 48.3668 47.3818 48.1951 47.3453 47.994C47.3193 47.8488 47.2528 47.7146 47.1875 47.5825C47.1236 47.4535 47.0607 47.3266 47.0376 47.1935C47.0127 47.0517 46.9605 46.9231 46.9086 46.7953L46.9086 46.7953C46.8572 46.6687 46.8061 46.543 46.7824 46.4062C46.767 46.3168 46.7411 46.2296 46.7152 46.1424C46.67 45.9904 46.6249 45.8383 46.6356 45.6749C46.6486 45.472 46.6038 45.2906 46.4588 45.141C46.4514 44.9282 46.4263 44.7162 46.4012 44.504C46.3601 44.1568 46.319 43.8092 46.355 43.4569C46.2601 43.3044 46.2633 43.1367 46.2664 42.9699C46.269 42.8359 46.2715 42.7024 46.2232 42.5779C46.1446 42.3765 46.1559 42.1735 46.1671 41.9707C46.1727 41.8693 46.1783 41.7681 46.1727 41.6671C46.1604 41.4517 46.1633 41.2359 46.1663 41.0199C46.1676 40.9246 46.1689 40.8292 46.1689 40.7339C46.1689 40.6405 46.1679 40.5471 46.1669 40.4538L46.1669 40.4536C46.1646 40.2357 46.1622 40.018 46.1727 39.8007C46.1804 39.6491 46.2051 39.4984 46.2298 39.3476L46.2298 39.3476L46.2298 39.3476L46.2298 39.3476L46.2298 39.3475L46.2299 39.3475L46.2299 39.3475L46.2299 39.3475L46.2299 39.3475L46.2299 39.3474L46.2299 39.3474L46.2299 39.3474L46.2299 39.3474L46.2299 39.3474L46.2299 39.3473L46.2299 39.3473L46.2299 39.3473L46.2299 39.3473L46.2299 39.3473L46.2299 39.3472L46.2299 39.3472L46.2299 39.3472C46.2413 39.2777 46.2527 39.2082 46.2624 39.1386C46.2725 39.0647 46.2683 38.9894 46.2642 38.9139C46.256 38.7639 46.2477 38.6134 46.3503 38.4728C46.3858 38.425 46.3692 38.3303 46.3562 38.256L46.3541 38.2437C46.3172 38.0411 46.3577 37.846 46.3982 37.6507C46.4317 37.4891 46.4652 37.3273 46.4551 37.1609C46.4504 37.0823 46.4944 36.9851 46.5477 36.9234C46.614 36.8476 46.6458 36.7766 46.6374 36.6784C46.6094 36.3446 46.7253 36.0285 46.8385 35.7349C46.9107 35.5466 46.9641 35.3562 47.0174 35.1662L47.0174 35.1661L47.0174 35.166L47.0174 35.166L47.0174 35.166L47.0174 35.166L47.0174 35.1659L47.0174 35.1659L47.0174 35.1659L47.0175 35.1659L47.0175 35.1658L47.0175 35.1658L47.0175 35.1658L47.0175 35.1658C47.0497 35.051 47.0818 34.9363 47.1181 34.8222C47.1567 34.7011 47.2038 34.5813 47.251 34.4611L47.251 34.4611L47.251 34.4611L47.251 34.4611L47.251 34.4611L47.251 34.4611L47.251 34.4611L47.251 34.4611L47.251 34.4611L47.251 34.4611L47.251 34.461L47.251 34.461L47.251 34.461L47.251 34.461L47.2511 34.461L47.2511 34.461L47.2511 34.461L47.2511 34.461L47.2511 34.461L47.2511 34.461L47.2511 34.461L47.2511 34.461C47.3147 34.2991 47.3785 34.1367 47.422 33.9703C47.458 33.8311 47.524 33.7088 47.5898 33.587C47.6331 33.5067 47.6764 33.4266 47.7109 33.342C47.7343 33.2852 47.752 33.224 47.77 33.162L47.77 33.162C47.8173 32.9985 47.8661 32.8299 48.0242 32.7248C48.0609 32.5221 48.1663 32.3521 48.2718 32.1821C48.3648 32.0321 48.4579 31.882 48.5039 31.7093C48.6578 31.6251 48.7199 31.4801 48.7824 31.3341C48.8248 31.2352 48.8673 31.1359 48.9387 31.0547C49.1238 30.8443 49.2819 30.6096 49.4352 30.3749C49.5689 30.1701 49.7288 29.9934 49.8972 29.8185C50.0108 29.7003 50.1174 29.575 50.2241 29.4497L50.2241 29.4497L50.2241 29.4496C50.3342 29.3204 50.4443 29.1911 50.562 29.0695C51.0024 28.6151 51.4513 28.1671 52.0282 27.8782C52.0413 27.8716 52.0535 27.8586 52.061 27.8455C52.2025 27.6079 52.4372 27.4853 52.6659 27.3659L52.6659 27.3659C52.7288 27.333 52.7912 27.3004 52.8511 27.2657C52.926 27.2224 52.9931 27.1627 53.0604 27.1027C53.2041 26.9748 53.3489 26.8459 53.573 26.8739C53.7435 26.6937 53.967 26.6001 54.1869 26.5081L54.1869 26.508L54.1869 26.508C54.2215 26.4935 54.2561 26.4791 54.2902 26.4643L54.3332 26.4458C54.8602 26.2182 55.3854 25.9913 55.9426 25.8257C56.0658 25.789 56.1912 25.7572 56.3169 25.7254L56.3169 25.7254C56.6109 25.651 56.9065 25.5762 57.1797 25.4367C57.1908 25.4309 57.202 25.4243 57.2132 25.4176L57.2132 25.4176C57.2405 25.4013 57.2681 25.3848 57.2966 25.3815C57.3967 25.3699 57.4977 25.3628 57.5987 25.3557C57.7986 25.3417 57.9982 25.3277 58.1896 25.2786C58.4701 25.2068 58.7532 25.2085 59.0346 25.2101C59.2552 25.2114 59.4748 25.2127 59.6914 25.1786C59.8902 25.1476 60.0888 25.1373 60.2865 25.1271C60.4653 25.1178 60.6433 25.1086 60.82 25.0841C60.8769 25.0764 60.9355 25.0598 60.9942 25.0431C61.1132 25.0094 61.2329 24.9755 61.3399 25.0149C61.5212 25.0824 61.7072 25.0801 61.8903 25.0778C62.0397 25.076 62.1871 25.0742 62.3283 25.1103C62.6242 25.1866 62.9185 25.1853 63.2123 25.184C63.3725 25.1833 63.5326 25.1826 63.6926 25.1945C63.7914 25.2019 63.8892 25.2221 63.9872 25.2423C64.0627 25.2579 64.1383 25.2735 64.2144 25.2833C64.2677 25.2901 64.3225 25.2882 64.3773 25.2863C64.503 25.282 64.6284 25.2777 64.7353 25.3787C64.9369 25.3181 65.1137 25.392 65.291 25.4661C65.4475 25.5316 65.6043 25.5971 65.7788 25.5704C65.8041 25.5666 65.8316 25.5892 65.8605 25.6129C65.8818 25.6304 65.9039 25.6486 65.9266 25.6573C65.9985 25.6847 66.0704 25.7165 66.1423 25.7484C66.3258 25.8295 66.51 25.911 66.698 25.921C66.8733 25.9305 67.0141 25.9987 67.1525 26.0658C67.2062 26.0918 67.2594 26.1177 67.3143 26.1399C67.363 26.1595 67.4111 26.1803 67.4592 26.201L67.4593 26.201C67.5688 26.2482 67.6785 26.2955 67.7968 26.3306C67.9875 26.3877 68.1858 26.4727 68.3354 26.599C68.4662 26.7095 68.623 26.7757 68.7794 26.8418C68.9897 26.9306 69.1992 27.0191 69.3434 27.2143C69.5795 27.2482 69.7508 27.388 69.922 27.5277C70.001 27.5923 70.08 27.6568 70.1654 27.7108C70.212 27.7404 70.2473 27.7829 70.2825 27.8252C70.3341 27.8873 70.3851 27.9487 70.4702 27.967C70.5933 27.9934 70.6719 28.0758 70.7506 28.1581C70.7861 28.1953 70.8215 28.2324 70.8611 28.2644C70.9069 28.3017 70.956 28.3353 71.005 28.369L71.005 28.369C71.079 28.4198 71.1527 28.4703 71.2145 28.5328C71.2616 28.5802 71.2998 28.6394 71.3377 28.6981L71.3377 28.6981C71.3917 28.7818 71.4448 28.8641 71.5213 28.9087L71.5386 28.9186C71.6809 29.0002 71.8038 29.0707 71.8532 29.2388C71.8585 29.2571 71.884 29.2683 71.9106 29.28C71.926 29.2868 71.9418 29.2937 71.9542 29.3023C72.1833 29.4566 72.4087 29.6446 72.4779 29.9036C72.5015 29.9918 72.5755 30.0285 72.6458 30.0633C72.7341 30.107 72.8163 30.1477 72.7846 30.2842C72.8506 30.3691 72.9173 30.4536 72.9839 30.538C73.139 30.7346 73.2941 30.9312 73.4419 31.1333C73.4907 31.2002 73.5231 31.2791 73.5556 31.358C73.573 31.4003 73.5904 31.4425 73.6103 31.483C73.6746 31.6127 73.7566 31.7332 73.8386 31.8536C73.9938 32.0816 74.1489 32.3095 74.1844 32.5995C74.339 32.6647 74.3767 32.7971 74.4145 32.9299C74.4293 32.9819 74.4441 33.0339 74.4659 33.082C74.4989 33.1548 74.5346 33.2265 74.5704 33.2983L74.5704 33.2983L74.5704 33.2983L74.5704 33.2983L74.5704 33.2984L74.5704 33.2984L74.5704 33.2984L74.5705 33.2985L74.5705 33.2985L74.5705 33.2985L74.5705 33.2985L74.5705 33.2986L74.5705 33.2986L74.5705 33.2986L74.5705 33.2987L74.5706 33.2987L74.5706 33.2987L74.5706 33.2987L74.5706 33.2988L74.5706 33.2988L74.5706 33.2988L74.5706 33.2989L74.5707 33.2989L74.5707 33.299C74.6248 33.4077 74.679 33.5165 74.724 33.629C74.7342 33.6546 74.7449 33.6799 74.7556 33.7051L74.7557 33.7052C74.8011 33.812 74.8464 33.9187 74.8502 34.048C74.8533 34.1437 74.9227 34.2414 74.9879 34.3331C75.0016 34.3524 75.0152 34.3715 75.0279 34.3902C75.0825 34.4705 75.0925 34.5645 75.1025 34.6582C75.1143 34.7696 75.1262 34.8807 75.213 34.9681C75.1531 35.1956 75.2471 35.3886 75.3393 35.578C75.3767 35.6548 75.4138 35.731 75.4402 35.8087C75.4671 35.8875 75.4716 35.968 75.4762 36.0488C75.483 36.1704 75.4899 36.2926 75.573 36.41C75.6834 36.5662 75.6983 36.7981 75.6871 37.016C75.6825 37.1114 75.707 37.208 75.7316 37.3051L75.7316 37.3052C75.7472 37.3669 75.7629 37.4289 75.7713 37.491C75.7778 37.5395 75.7783 37.588 75.7788 37.6365C75.78 37.7488 75.7813 37.8609 75.8564 37.9726C75.8979 38.0342 75.8866 38.1319 75.8755 38.228C75.8711 38.2661 75.8668 38.3039 75.8657 38.3391C75.8554 38.715 75.9012 39.0806 76.0434 39.4332C76.0628 39.4808 76.0592 39.5386 76.0556 39.5957C76.0541 39.6182 76.0527 39.6406 76.0527 39.6623C76.0527 39.8629 76.0532 40.0635 76.0538 40.264V40.2641V40.2643V40.2644V40.2646V40.2648V40.2649V40.2651V40.2652V40.2654V40.2656V40.2657V40.2659V40.266V40.2662V40.2664V40.2665V40.2667V40.2668V40.267V40.2672V40.2673C76.0551 40.7815 76.0564 41.2954 76.049 41.8092C76.047 41.9457 76.0189 42.0816 75.9907 42.2178L75.9907 42.2178L75.9907 42.2179C75.9797 42.2712 75.9687 42.3244 75.9592 42.3778C75.9488 42.4365 75.9539 42.4973 75.9591 42.5582C75.9692 42.6777 75.9794 42.798 75.8723 42.9052C75.8489 42.9286 75.8547 42.9779 75.8608 43.03C75.865 43.0653 75.8693 43.1018 75.8648 43.1324C75.8524 43.2139 75.8586 43.2963 75.8647 43.3789C75.8753 43.5219 75.8859 43.6656 75.8012 43.8066C75.7528 43.8872 75.7576 43.9801 75.7625 44.0756C75.7683 44.1907 75.7744 44.3096 75.688 44.4154C75.6488 44.4635 75.6602 44.5553 75.6712 44.6436L75.6713 44.6437C75.6752 44.6753 75.6791 44.7066 75.6806 44.7352C75.6937 44.953 75.6684 45.156 75.4992 45.3168ZM64.5754 48.0286C64.5726 48.0389 64.5819 47.965 64.6081 47.8967C64.6562 47.773 64.7142 47.654 64.7723 47.5349L64.7724 47.5349L64.7724 47.5348L64.7724 47.5348L64.7724 47.5348L64.7724 47.5348L64.7724 47.5347L64.7724 47.5347L64.7724 47.5347L64.7724 47.5346L64.7725 47.5346L64.7725 47.5346L64.7725 47.5346L64.7725 47.5345L64.7725 47.5345L64.7725 47.5345L64.7725 47.5344L64.7725 47.5344L64.7725 47.5344L64.7726 47.5344L64.7726 47.5343L64.7726 47.5343L64.7726 47.5343C64.8466 47.3825 64.9207 47.2305 64.9747 47.0682C64.9962 47.0034 65.0106 46.9356 65.0251 46.8676L65.0252 46.8675L65.0252 46.8675L65.0252 46.8674L65.0252 46.8674L65.0252 46.8674L65.0252 46.8673L65.0252 46.8673L65.0252 46.8673L65.0252 46.8672L65.0253 46.8672L65.0253 46.8672L65.0253 46.8671L65.0253 46.8671C65.0593 46.7076 65.0936 46.5472 65.2187 46.4221C65.2284 46.4124 65.2259 46.3921 65.2234 46.3706C65.2217 46.3568 65.2201 46.3425 65.2215 46.3304C65.2304 46.2557 65.2359 46.1796 65.2414 46.1036C65.2545 45.9238 65.2675 45.7438 65.3253 45.5796C65.3676 45.4601 65.3711 45.3365 65.3745 45.2169C65.3779 45.0958 65.3812 44.9789 65.4244 44.8745C65.4886 44.7189 65.5146 44.5585 65.5401 44.4011L65.5401 44.4009L65.5401 44.4007L65.5401 44.4006L65.5401 44.4006L65.5402 44.4005C65.5514 44.3311 65.5625 44.2622 65.5769 44.1947C65.647 43.8674 65.618 43.5121 65.5881 43.1726C65.5716 42.9885 65.6046 42.8112 65.6375 42.6344C65.668 42.47 65.6985 42.306 65.6891 42.1375C65.6719 41.8401 65.6779 41.5422 65.684 41.2441C65.6941 40.7455 65.7042 40.2463 65.6058 39.7483C65.5641 39.5386 65.5744 39.3191 65.5847 39.0992V39.0991V39.0991V39.099V39.099V39.099V39.0989V39.0989V39.0989V39.0988V39.0988V39.0987V39.0987V39.0987V39.0986V39.0986V39.0986V39.0985V39.0985V39.0984V39.0984V39.0984C65.5906 38.9733 65.5965 38.848 65.5928 38.7244C65.5906 38.6517 65.5925 38.5789 65.5945 38.5062C65.6002 38.2944 65.6058 38.0827 65.5105 37.8725C65.4519 37.744 65.4381 37.5937 65.4244 37.4454L65.4244 37.4452L65.4244 37.4449L65.4243 37.4447C65.4201 37.3989 65.4159 37.3534 65.4104 37.3086C65.4018 37.2413 65.4 37.1744 65.3981 37.1074V37.1073V37.1073V37.1072V37.1072V37.1072V37.1071V37.1071V37.1071V37.107V37.107V37.1069V37.1069V37.1069V37.1068V37.1068V37.1068V37.1067V37.1067V37.1066V37.1066V37.1066C65.3944 36.9691 65.3906 36.8312 65.3291 36.6887C65.293 36.6054 65.2969 36.5105 65.3009 36.4132C65.3063 36.2833 65.3118 36.1492 65.2225 36.0332C65.2534 35.7871 65.17 35.568 65.087 35.35C65.0294 35.1986 64.9719 35.0477 64.9531 34.8886C64.9433 34.8055 64.8906 34.7507 64.8432 34.7015C64.7962 34.6526 64.7545 34.6093 64.7652 34.5492C64.7964 34.3709 64.7085 34.2565 64.6222 34.1444C64.6026 34.1189 64.5831 34.0936 64.5651 34.0676C64.5013 33.9762 64.4461 33.8785 64.3908 33.7808L64.3908 33.7808L64.3908 33.7808L64.3908 33.7808L64.3907 33.7807L64.3907 33.7807L64.3907 33.7807L64.3907 33.7807L64.3907 33.7807L64.3907 33.7807L64.3907 33.7806L64.3907 33.7806L64.3906 33.7806L64.3906 33.7806L64.3906 33.7806L64.3906 33.7805L64.3906 33.7805L64.3906 33.7805L64.3906 33.7805L64.3906 33.7805L64.3906 33.7805L64.3905 33.7804C64.27 33.5674 64.1494 33.3541 63.9404 33.2054C63.9167 33.1886 63.8868 33.1738 63.8572 33.1592C63.8016 33.1318 63.747 33.1049 63.7366 33.0652C63.6777 32.8417 63.4804 32.7276 63.3223 32.7024C63.2363 32.6883 63.208 32.6326 63.1807 32.579C63.1535 32.5253 63.1273 32.4737 63.0455 32.4676C62.9617 32.4618 62.8815 32.4158 62.8005 32.3694C62.7525 32.3419 62.7042 32.3142 62.6547 32.2947C62.5471 32.2526 62.434 32.2133 62.3208 32.2021C62.0983 32.1806 61.8776 32.1525 61.6579 32.1226C61.0913 32.0454 60.5188 32.119 59.951 32.1921L59.8802 32.2011C59.8609 32.2035 59.8438 32.2208 59.8265 32.2382C59.8094 32.2554 59.7922 32.2727 59.7727 32.276C59.624 32.2998 59.5185 32.3936 59.4157 32.4849C59.3414 32.551 59.2685 32.6157 59.1817 32.6519C58.9245 32.7587 58.7453 32.9366 58.5622 33.1185L58.5103 33.1699C58.484 33.196 58.4572 33.2218 58.4305 33.2476C58.2837 33.3893 58.1365 33.5313 58.0456 33.7235C57.9399 33.9479 57.8118 34.1592 57.6613 34.3584C57.6214 34.4118 57.6009 34.4809 57.5808 34.5487C57.5759 34.5652 57.571 34.5817 57.5659 34.5978C57.5522 34.6397 57.543 34.685 57.5338 34.7301C57.5159 34.8178 57.4981 34.9051 57.4481 34.9662C57.2255 35.2387 57.1749 35.5557 57.119 35.9058L57.119 35.9058L57.119 35.9058L57.119 35.9059L57.119 35.9059L57.119 35.9059C57.1016 36.0148 57.0837 36.1268 57.06 36.2417C57.0502 36.2487 57.0203 36.269 56.9871 36.2915L56.9866 36.2918L56.9864 36.292L56.916 36.3399C56.9209 36.7446 56.8383 37.1052 56.7566 37.4617L56.7361 37.5512L56.7234 37.6079C56.7152 37.6442 56.6981 37.6793 56.6812 37.7141C56.6593 37.7591 56.6376 37.8037 56.6355 37.8501C56.6224 38.2129 56.5906 38.571 56.5541 38.9329C56.5205 39.2611 56.5244 39.5914 56.5283 39.9223V39.9223C56.5336 40.3729 56.5389 40.8244 56.4494 41.2725C56.413 41.4562 56.4482 41.6395 56.4833 41.8224L56.4833 41.8224C56.5023 41.9216 56.5213 42.0207 56.5289 42.1197C56.553 42.4303 56.5472 42.742 56.5415 43.0539V43.0539V43.0539V43.0539V43.0539V43.0539V43.054V43.054V43.054V43.054V43.054V43.054V43.0541V43.0541V43.0541V43.0541V43.0541V43.0541V43.0542V43.0542V43.0542V43.0542C56.5325 43.5394 56.5235 44.0249 56.627 44.507C56.6449 44.5907 56.6403 44.6787 56.6357 44.7671C56.6321 44.8358 56.6285 44.9047 56.6355 44.9717C56.6481 45.0936 56.6789 45.2141 56.7096 45.3344L56.7262 45.4C56.7366 45.4416 56.7516 45.4824 56.7666 45.5231L56.7666 45.5231C56.7867 45.5777 56.8068 45.6322 56.8159 45.689C56.8293 45.7704 56.836 45.8542 56.8427 45.9377L56.8427 45.9378L56.8427 45.9378L56.8427 45.9379L56.8427 45.9379L56.8427 45.938L56.8428 45.938L56.8428 45.9381L56.8428 45.9381L56.8428 45.9382L56.8428 45.9382L56.8428 45.9383L56.8428 45.9383L56.8428 45.9384L56.8428 45.9384L56.8428 45.9385L56.8428 45.9385L56.8428 45.9386L56.8428 45.9386L56.8428 45.9387L56.8428 45.9387L56.8428 45.9388C56.8555 46.0956 56.868 46.2517 56.9235 46.3912C57.0095 46.6072 57.0824 46.8232 57.1451 47.0458C57.2162 47.2973 57.3237 47.5311 57.4686 47.7527C57.5207 47.8321 57.5504 47.9242 57.5802 48.0164C57.631 48.1741 57.682 48.3323 57.8455 48.4279C57.8547 48.5646 57.942 48.6464 58.0303 48.7291C58.0936 48.7885 58.1574 48.8483 58.1933 48.9291C58.2361 49.0259 58.3231 49.0836 58.4112 49.1422C58.5061 49.2052 58.6023 49.2691 58.6459 49.3835C58.7569 49.4415 58.868 49.4993 58.9791 49.557L58.9812 49.5581L58.9814 49.5582C59.2279 49.6865 59.4743 49.8146 59.7194 49.9446C59.8223 49.9992 59.9288 50.0202 60.044 50.0428L60.0532 50.0446C60.6994 50.1727 61.339 50.1718 61.9851 50.0437C62.0653 50.0278 62.1399 50.0045 62.2144 49.9812L62.2145 49.9812C62.2494 49.9703 62.2844 49.9594 62.3199 49.9493C62.5657 49.8791 62.7812 49.7525 62.9963 49.626C63.1167 49.5552 63.237 49.4845 63.3625 49.4237C63.6697 49.2746 63.8828 49.0208 64.0942 48.7689C64.1267 48.7302 64.1592 48.6915 64.192 48.6532C64.282 48.5454 64.3524 48.4195 64.4336 48.2743L64.4337 48.2742L64.4338 48.2741L64.4338 48.274C64.4765 48.1976 64.5222 48.1159 64.5754 48.0286ZM89.2731 45.5503L89.2226 45.601C89.2226 45.803 89.2162 46.0077 89.2097 46.2137C89.1949 46.6829 89.18 47.159 89.2404 47.6255C89.3119 48.1821 89.3102 48.7359 89.3085 49.2892V49.2893V49.2893V49.2893V49.2894V49.2894V49.2894V49.2895V49.2895V49.2895V49.2896V49.2896V49.2896V49.2897V49.2897V49.2897V49.2898V49.2898V49.2899V49.2899V49.2899V49.29C89.3077 49.5322 89.307 49.7743 89.3124 50.0166C89.3241 50.5676 89.3213 51.1191 89.3186 51.6707V51.6707V51.6708V51.6709V51.671V51.6711V51.6711V51.6712V51.6713V51.6714V51.6715V51.6715V51.6716V51.6717V51.6718V51.6719V51.6719V51.672V51.6721V51.6722V51.6723V51.6723C89.3173 51.914 89.3161 52.1556 89.3161 52.3973V54.8248V56.6529H79.6033V56.263C79.6033 46.2715 79.6033 36.2809 79.6042 26.2894C79.6042 26.2584 79.6033 26.2273 79.6023 26.1962C79.5979 26.0491 79.5934 25.9018 79.6884 25.762C79.7093 25.7313 79.6885 25.6721 79.6627 25.5989L79.6627 25.5989L79.6627 25.5988C79.6493 25.5609 79.6347 25.5193 79.6238 25.4759C79.6412 25.4691 79.6611 25.4588 79.6829 25.4474L79.683 25.4474C79.7364 25.4195 79.801 25.3859 79.866 25.3852C80.0263 25.3827 80.1873 25.376 80.3485 25.3693C80.7818 25.3514 81.2162 25.3335 81.638 25.3955C82.3372 25.498 83.035 25.4856 83.7321 25.4733C84.0335 25.4679 84.3348 25.4626 84.636 25.4666C85.6355 25.4799 86.6351 25.4775 87.6347 25.475C88.4557 25.473 89.2768 25.471 90.0979 25.4778C90.6052 25.4818 91.1122 25.5021 91.6192 25.5223C92.0485 25.5394 92.4777 25.5565 92.9069 25.5638C93.2629 25.5699 93.6194 25.5659 93.9759 25.5619C94.5539 25.5554 95.1317 25.5489 95.7066 25.5853C95.8443 25.5939 95.9822 25.6036 96.1202 25.6133C96.4205 25.6346 96.7214 25.6558 97.0232 25.6648C97.0823 25.6665 97.1401 25.6896 97.1983 25.713C97.2359 25.728 97.2737 25.7432 97.3121 25.7527L97.3655 25.7662C97.4893 25.7978 97.6145 25.8296 97.7404 25.8443C97.8046 25.8517 97.8702 25.8488 97.9357 25.8459C98.0113 25.8426 98.0867 25.8393 98.1593 25.8518C98.5053 25.9107 98.8504 25.9827 99.1917 26.065C99.2298 26.0744 99.2645 26.1091 99.2981 26.1426C99.3344 26.1788 99.3694 26.2137 99.4058 26.2137C99.5518 26.2127 99.6817 26.2634 99.8109 26.3139C99.9125 26.3537 100.014 26.3933 100.122 26.4073C100.162 26.4123 100.202 26.411 100.246 26.4096C100.268 26.4089 100.29 26.4082 100.313 26.4082L100.326 26.4749L100.327 26.476C100.332 26.5042 100.338 26.5331 100.346 26.5681C100.391 26.579 100.439 26.5871 100.488 26.5954C100.608 26.6155 100.734 26.6366 100.83 26.7009C100.861 26.7215 100.885 26.748 100.91 26.7745C100.961 26.8308 101.013 26.887 101.126 26.887C101.208 26.887 101.291 26.9435 101.372 26.9993C101.405 27.0215 101.437 27.0435 101.469 27.0618C101.527 27.0951 101.586 27.1271 101.645 27.1591C101.804 27.2451 101.963 27.3311 102.103 27.4415C102.163 27.4891 102.229 27.5316 102.294 27.5735C102.392 27.6361 102.487 27.6974 102.558 27.7725C102.617 27.8362 102.695 27.8825 102.768 27.9261C102.855 27.9786 102.936 28.027 102.971 28.097C103.045 28.2432 103.17 28.3288 103.291 28.4116C103.401 28.4873 103.508 28.5607 103.57 28.6758C103.66 28.8448 103.792 28.9705 103.922 29.0956C104.01 29.1796 104.097 29.2632 104.171 29.3594C104.32 29.5523 104.461 29.7509 104.602 29.9497L104.667 30.041C104.675 30.0525 104.683 30.0641 104.692 30.0757L104.692 30.0758C104.736 30.1362 104.782 30.199 104.795 30.2664C104.836 30.4904 104.983 30.6364 105.115 30.7677C105.134 30.7866 105.153 30.8052 105.171 30.8237C105.179 30.8548 105.187 30.8853 105.194 30.9153L105.195 30.9168C105.246 31.1197 105.291 31.2977 105.419 31.4587C105.476 31.5289 105.509 31.6181 105.542 31.7072L105.542 31.7073C105.575 31.7974 105.608 31.8875 105.665 31.958C105.754 32.066 105.771 32.1879 105.788 32.3081V32.3082C105.798 32.3732 105.807 32.4377 105.827 32.4994C105.895 32.7053 105.933 32.9199 105.972 33.1351C106.012 33.3519 106.051 33.5694 106.12 33.7796C106.139 33.837 106.134 33.9023 106.128 33.9676V33.9677C106.126 33.9981 106.124 34.0285 106.124 34.0582C106.124 34.3286 106.123 34.599 106.122 34.8695V34.8696V34.8697V34.8698V34.8699V34.87V34.8701V34.8702V34.8703V34.8704V34.8705V34.8706V34.8707V34.8708V34.8709V34.871V34.8711V34.8712V34.8713V34.8714V34.8715V34.8716C106.121 35.5499 106.119 36.2285 106.127 36.9065C106.131 37.1907 106.064 37.4535 105.996 37.7211L105.996 37.7212L105.97 37.822C105.947 37.9139 105.923 38.0059 105.899 38.0977C105.853 38.2738 105.807 38.4494 105.771 38.6234C105.733 38.8087 105.655 38.9683 105.577 39.1267C105.535 39.212 105.494 39.297 105.459 39.3855C105.38 39.5822 105.273 39.7672 105.166 39.9524L105.165 39.9525C105.076 40.1062 104.987 40.2599 104.914 40.4206C104.82 40.6283 104.689 40.8109 104.557 40.993L104.557 40.9931C104.432 41.166 104.307 41.3384 104.216 41.5315C104.18 41.6075 104.115 41.6449 104.049 41.6831C103.981 41.7225 103.912 41.7626 103.871 41.8466C103.811 41.9703 103.697 42.069 103.585 42.1662L103.585 42.1662L103.585 42.1663L103.585 42.1664C103.553 42.1941 103.522 42.2217 103.491 42.2497C103.439 42.2979 103.381 42.3412 103.324 42.3845C103.249 42.441 103.174 42.4975 103.111 42.5648C102.802 42.8958 102.439 43.1539 102.067 43.4073C101.921 43.5074 101.776 43.6018 101.623 43.6888C101.566 43.721 101.507 43.7507 101.449 43.7804L101.449 43.7804L101.449 43.7805L101.449 43.7805L101.449 43.7805L101.449 43.7806L101.449 43.7806L101.449 43.7807L101.448 43.7807L101.448 43.7807L101.448 43.7808L101.448 43.7808L101.448 43.7808L101.448 43.7809C101.3 43.8562 101.151 43.9319 101.022 44.0497C100.895 44.1652 100.732 44.2115 100.567 44.2582C100.423 44.2993 100.278 44.3406 100.155 44.4294C100.048 44.4008 99.9745 44.4648 99.9012 44.5287C99.8233 44.5966 99.7455 44.6644 99.6274 44.6211C99.3628 44.7697 99.0701 44.7987 98.7793 44.8156L98.6456 44.9493C98.3846 45.0213 98.1237 45.0473 97.8671 45.0729C97.5373 45.1058 97.2144 45.1379 96.9072 45.2663C96.8717 45.2812 96.8287 45.2771 96.7857 45.2729C96.7642 45.2708 96.7427 45.2688 96.7221 45.2691C96.3521 45.2785 95.9814 45.2815 95.6108 45.2846C94.7629 45.2916 93.9149 45.2987 93.0743 45.3813C92.3967 45.4515 91.7194 45.4481 91.043 45.4447C90.476 45.4418 89.9096 45.439 89.3442 45.4795C89.3211 45.502 89.2995 45.5237 89.2736 45.5499L89.2731 45.5503ZM96.2183 33.9116L96.2182 33.9116C96.1512 33.8381 96.0938 33.775 96.0245 33.7328C95.9856 33.7092 95.973 33.6623 95.9607 33.6164C95.9412 33.5442 95.9224 33.4744 95.8029 33.5018C95.563 33.2336 95.2502 33.0953 94.928 32.9528L94.8734 32.9286C94.5433 32.7818 94.2235 32.6621 93.8616 32.6649C93.7868 32.6659 93.7064 32.6668 93.6381 32.6416C93.3426 32.5321 93.0444 32.4732 92.7255 32.476C91.9526 32.4834 91.1797 32.4821 90.4069 32.4808H90.4067C90.1062 32.4803 89.8056 32.4798 89.505 32.4798H89.0459V38.6888C89.1272 38.8394 89.2497 38.8375 89.3769 38.8309C89.7243 38.8119 90.0722 38.8197 90.4202 38.8276C90.994 38.8406 91.568 38.8535 92.1401 38.7459C92.3098 38.7139 92.4829 38.7147 92.6574 38.7156C92.8761 38.7166 93.097 38.7177 93.3165 38.6542C93.5154 38.5968 93.7268 38.5844 93.9385 38.5719C94.0442 38.5657 94.15 38.5595 94.2544 38.5476C94.2735 38.5454 94.2922 38.533 94.3106 38.5208C94.3309 38.5074 94.3507 38.4943 94.3703 38.4952C94.5676 38.5037 94.7289 38.4132 94.8882 38.3237L94.8882 38.3237C94.9569 38.2851 95.0252 38.2467 95.096 38.2166C95.3877 38.0922 95.6925 37.922 95.8955 37.6883C95.9213 37.6584 95.9478 37.6284 95.9744 37.5983C96.1764 37.3697 96.3901 37.1278 96.4397 36.799C96.4421 36.783 96.4595 36.7691 96.4782 36.754L96.4782 36.754C96.4881 36.7461 96.4983 36.7379 96.507 36.7289C96.507 36.6932 96.5059 36.657 96.5048 36.6205V36.6204V36.6203V36.6203V36.6202V36.6201V36.6201V36.62V36.6199V36.6198V36.6198C96.5023 36.5342 96.4996 36.4471 96.5108 36.3614C96.5184 36.303 96.5366 36.2464 96.5547 36.1898C96.5721 36.1356 96.5895 36.0814 96.5977 36.0257C96.6023 35.9954 96.604 35.9652 96.6057 35.9352L96.6058 35.9349L96.6058 35.9348C96.6106 35.8493 96.6153 35.7653 96.6866 35.6844C96.7314 35.6329 96.7268 35.4711 96.68 35.4216C96.6201 35.3587 96.6161 35.2921 96.6122 35.2267C96.6102 35.192 96.6081 35.1576 96.5977 35.1242C96.5651 35.0193 96.55 34.9095 96.5349 34.7995L96.5349 34.7994C96.5062 34.5908 96.4775 34.382 96.3293 34.2069C96.3077 34.1833 96.3134 34.1366 96.3192 34.0891C96.3219 34.067 96.3247 34.0448 96.3247 34.0246C96.2855 33.9854 96.2509 33.9474 96.2186 33.9119L96.2183 33.9116ZM42.4332 25.3917H33.187V28.2774C33.187 28.567 33.1883 28.8565 33.1895 29.146L33.1895 29.146C33.1925 29.8214 33.1954 30.4967 33.1823 31.1716C33.1769 31.4576 33.1835 31.7441 33.1901 32.0306C33.2051 32.6825 33.2202 33.3345 33.0935 33.9815V38.6982C33.0935 39.1818 33.0949 39.6656 33.0963 40.1493C33.0995 41.2378 33.1027 42.3262 33.0897 43.4138C33.084 43.8942 33.0909 44.375 33.0979 44.8557C33.1134 45.9351 33.129 47.0147 33.0009 48.0912V56.263V56.6529H42.6202V56.1779V53.0023V49.8735C42.6202 49.5523 42.6217 49.231 42.6232 48.9098V48.9097V48.9097V48.9097V48.9097V48.9096V48.9096V48.9096V48.9096V48.9095V48.9095V48.9095V48.9095V48.9095V48.9094V48.9094V48.9094V48.9094V48.9093V48.9093V48.9093C42.6265 48.1719 42.6299 47.4344 42.6156 46.6979C42.6095 46.373 42.6166 46.0477 42.6238 45.7223C42.6397 45.0007 42.6556 44.2789 42.5267 43.5616V38.7056C42.5267 38.2043 42.5282 37.7028 42.5296 37.2013V37.2011V37.2009V37.2007V37.2006V37.2004V37.2002V37.2V37.1998V37.1996V37.1995V37.1993V37.1991V37.1989V37.1987V37.1985V37.1984V37.1982V37.198V37.1978V37.1976C42.5328 36.0663 42.5359 34.9346 42.523 33.8029C42.5172 33.3022 42.5197 32.8015 42.5222 32.3008C42.5278 31.1958 42.5334 30.0905 42.4491 28.9844C42.3916 28.2362 42.406 27.4821 42.4204 26.7282V26.7282V26.7281V26.7281V26.728V26.728V26.728V26.7279V26.7279V26.7279V26.7278V26.7278V26.7278V26.7277V26.7277V26.7277V26.7276V26.7276V26.7276V26.7275V26.7275V26.7274V26.7274C42.4268 26.3905 42.4332 26.0535 42.4332 25.7172V25.3917ZM78.8796 67.0324H78.1296V59.6564C78.2647 59.6564 78.4003 59.6551 78.5362 59.6538H78.5364C78.8455 59.6508 79.1561 59.6478 79.4659 59.6601C79.7708 59.6725 80.0749 59.7008 80.3831 59.7295L80.3832 59.7295C80.5172 59.7419 80.6521 59.7545 80.7881 59.7658C80.7947 59.772 80.8013 59.7784 80.8078 59.785L80.8177 59.7951L80.8321 59.8098L80.8321 59.8099L80.8321 59.8099L80.8322 59.8099L80.8322 59.81L80.8322 59.81L80.8323 59.81L80.8324 59.8102C80.9039 59.884 80.9786 59.9613 81.1228 59.9435C81.2135 59.9323 81.336 59.9725 81.4062 60.0332C81.8148 60.3905 82.1963 60.7626 82.2262 61.3639C82.2307 61.4533 82.251 61.5413 82.2715 61.6307C82.294 61.7283 82.3168 61.8275 82.3197 61.9315C82.3291 62.2809 82.2168 62.6053 82.1086 62.9175L82.1075 62.9208C82.0806 62.9981 82.0222 63.0693 81.9612 63.1434C81.8991 63.219 81.8343 63.2977 81.798 63.3893C81.783 63.4267 81.4071 63.6427 81.322 63.6811C81.1036 63.7812 80.8866 63.8836 80.6262 64.0064L80.6256 64.0067L80.6253 64.0068L80.515 64.0588H79.0441V66.679C79.044 66.6912 79.0442 66.7034 79.0443 66.7156C79.0454 66.8283 79.0466 66.9422 78.8796 67.0324ZM79.0563 63.3098C79.2032 63.2993 79.349 63.291 79.4938 63.2828C79.8386 63.2631 80.178 63.2438 80.5131 63.1957C80.7357 63.164 80.9695 63.0536 81.1125 62.8563C81.2229 62.7039 81.2799 62.5169 81.2837 62.3233C81.2844 62.2795 81.2854 62.2357 81.2863 62.1919C81.291 61.9715 81.2957 61.7504 81.2809 61.5313C81.2584 61.1984 81.2051 60.8739 80.8694 60.6831C80.8156 60.6525 80.7768 60.5964 80.7441 60.549C80.7309 60.5298 80.7186 60.512 80.7067 60.498C80.6151 60.4877 80.5272 60.4768 80.4419 60.4662L80.4412 60.4661L80.4406 60.4661L80.4402 60.466C80.2396 60.4412 80.0531 60.418 79.8651 60.4082C79.6732 60.3977 79.4803 60.4001 79.292 60.4025H79.2919C79.2124 60.4035 79.1337 60.4045 79.0563 60.4045V63.3098ZM83.9029 59.6659H83.1679C83.1679 62.1439 83.1679 64.5827 83.1697 67.0251H83.901V65.9544C83.901 65.8417 83.9032 65.7288 83.9054 65.6158V65.6157V65.6157V65.6156C83.9106 65.3546 83.9157 65.0935 83.8935 64.8351C83.8776 64.6516 83.9108 64.4758 83.944 64.3004C83.9752 64.1352 84.0063 63.9705 83.9964 63.8C83.9859 63.6275 83.9887 63.4542 83.9913 63.2907V63.2906C83.9925 63.2201 83.9936 63.1515 83.9936 63.0856C84.0258 63.0283 84.0605 62.9747 84.094 62.9229L84.0941 62.9229C84.1645 62.8141 84.2297 62.7133 84.2563 62.6031C84.278 62.5116 84.353 62.4687 84.4253 62.4275C84.5155 62.376 84.6014 62.3269 84.5733 62.1888H85.472C85.6001 62.3599 85.7254 62.5282 85.8432 62.6872C85.8826 63.0722 85.8775 63.4569 85.8724 63.8419V63.842C85.8661 64.3164 85.8598 64.7912 85.9367 65.2671C86.0007 65.662 85.9847 66.0698 85.9687 66.4776C85.9616 66.6599 85.9545 66.8422 85.9545 67.0233H86.6736C86.6775 67.0098 86.682 66.9978 86.6862 66.9866L86.6862 66.9864L86.6863 66.9863C86.694 66.9656 86.7007 66.9479 86.7007 66.9297L86.701 66.6274L86.7017 66.0744C86.7032 64.9905 86.7047 63.9067 86.6951 62.8228C86.6935 62.645 86.641 62.4652 86.5895 62.2889L86.5895 62.2889L86.5895 62.2888L86.5682 62.2153L86.5585 62.1813C86.5443 62.1321 86.505 62.0901 86.4657 62.0481L86.4656 62.048C86.4481 62.0294 86.4307 62.0108 86.4155 61.9915C86.3943 61.9649 86.3741 61.9373 86.354 61.9096C86.3074 61.8458 86.261 61.7821 86.2023 61.7325C86.1421 61.6813 86.071 61.6432 85.9964 61.6033C85.962 61.5849 85.9269 61.5661 85.8918 61.5455C85.8304 61.5346 85.7674 61.5205 85.7034 61.5062C85.5577 61.4736 85.4063 61.4398 85.255 61.4398C85.1087 61.4398 84.9619 61.4714 84.7906 61.5084C84.7069 61.5264 84.6173 61.5457 84.5191 61.5632L83.9029 62.1795V59.6659ZM61.5351 62.0521L61.5408 62.0463L61.5437 62.0435L61.5592 62.028L61.5629 62.0243L62.06 61.5277H63.6029C63.6651 61.654 63.7726 61.7381 63.8814 61.8233C63.9425 61.8712 64.0041 61.9194 64.0583 61.9756C64.3603 62.2898 64.5875 62.704 64.6707 63.0734C64.7448 63.4041 64.7476 63.7327 64.7505 64.0751C64.7514 64.1868 64.7524 64.3 64.7558 64.4152H61.5541C61.5908 64.7404 61.6245 65.0434 61.6586 65.3497L61.684 65.5785C61.7599 65.6628 61.8177 65.7672 61.8761 65.8728C62.0042 66.1043 62.1353 66.3412 62.4667 66.3836C62.611 66.5034 62.7704 66.489 62.9261 66.475C63.0208 66.4664 63.114 66.458 63.2017 66.4799C63.2595 66.4307 63.3244 66.3855 63.3881 66.3412L63.3881 66.3412L63.3882 66.3411C63.5275 66.2442 63.6612 66.1512 63.7029 66.0274C63.7398 65.9182 63.8016 65.8304 63.8618 65.7451C63.9253 65.6551 63.9869 65.5677 64.0152 65.4607C64.1113 65.4779 64.2035 65.4946 64.2948 65.5112L64.2981 65.5118L64.3048 65.513L64.3056 65.5132C64.4185 65.5336 64.5305 65.5539 64.6474 65.5748C64.6951 65.8384 64.5692 66.0353 64.4408 66.2361L64.4408 66.2361C64.3907 66.3145 64.3402 66.3934 64.2995 66.4771C64.2007 66.6809 64.0354 66.7886 63.8737 66.894C63.7675 66.9632 63.6629 67.0314 63.5795 67.1252H62.0712L62.06 67.086L62.0496 67.0487L62.0338 66.9924C61.4063 66.825 61.1454 66.3004 60.9341 65.7571C60.863 65.5757 60.7892 65.37 60.8228 65.1465C60.8418 65.0232 60.8103 64.9051 60.7782 64.7844C60.7486 64.6735 60.7185 64.5605 60.7265 64.4396C60.7518 64.0665 60.7882 63.7064 60.9098 63.3474C60.9648 63.1869 60.9813 63.0134 60.9991 62.8264L60.9991 62.8263L60.9991 62.8263L60.9991 62.8262L60.9991 62.8262C61.0073 62.7397 61.0158 62.6504 61.0285 62.5581C61.1876 62.3991 61.3527 62.2343 61.5184 62.0688L61.5247 62.0624L61.5351 62.0521ZM62.4144 62.1804C62.1061 62.3505 61.9716 62.6252 61.8347 62.9047C61.788 63 61.7411 63.0959 61.6869 63.1884L61.6803 63.2342C61.6619 63.3617 61.6403 63.5122 61.6186 63.6672C61.6264 63.675 61.6349 63.6861 61.6438 63.6977C61.6645 63.7248 61.6876 63.7551 61.7112 63.7551C62.3465 63.76 62.9818 63.7599 63.6421 63.7598L63.9283 63.7597C63.9249 63.7387 63.9218 63.7181 63.919 63.6979L63.9103 63.6353C63.8987 63.5511 63.8881 63.4734 63.8684 63.3979C63.8518 63.3328 63.8296 63.269 63.8074 63.2052C63.7772 63.1185 63.7471 63.0319 63.731 62.9425C63.6833 62.6816 63.5972 62.4637 63.3205 62.3618C63.2658 62.3418 63.2213 62.2932 63.177 62.2446C63.1568 62.2226 63.1367 62.2006 63.1157 62.1813C62.8669 62.1804 62.6182 62.1804 62.4144 62.1804ZM71.4083 66.4651L71.4102 66.4623C71.4906 66.3446 71.5689 66.2298 71.6512 66.1095C71.6598 66.0869 71.6699 66.0594 71.6809 66.0292L71.7039 65.9663C71.7129 65.9422 71.7222 65.9173 71.7317 65.8926C71.7442 65.8624 71.7616 65.8316 71.779 65.801C71.8148 65.7377 71.8505 65.6747 71.8429 65.6168C71.8165 65.4075 71.8522 65.2046 71.8877 65.0023C71.9176 64.8322 71.9474 64.6625 71.9402 64.49C71.9333 64.3209 71.9154 64.1523 71.8976 63.9837L71.8976 63.9836V63.9835V63.9835V63.9834V63.9834V63.9833V63.9833V63.9833V63.9832V63.9832V63.9831V63.9831V63.983V63.983V63.9829V63.9829V63.9828C71.879 63.8076 71.8604 63.6324 71.8542 63.4567C71.8336 62.8853 71.6484 62.3879 71.2361 61.9886C71.1161 61.8725 70.9847 61.7682 70.867 61.6749L70.8669 61.6748L70.8668 61.6747L70.8668 61.6747C70.8158 61.6342 70.7674 61.5958 70.7236 61.5594C70.6254 61.5445 70.5317 61.5271 70.441 61.5103L70.4409 61.5103C70.246 61.4742 70.0652 61.4406 69.8839 61.4406C69.7008 61.4406 69.5172 61.4749 69.3279 61.5102C69.2446 61.5258 69.1601 61.5416 69.0741 61.5547C69.0579 61.5677 69.0406 61.583 69.0221 61.5993C68.9807 61.6359 68.9336 61.6776 68.8805 61.7099C68.4682 61.9587 68.1764 62.3205 68.0502 62.7713C67.9546 63.1122 67.9123 63.469 67.8702 63.8244C67.86 63.9105 67.8498 63.9965 67.8389 64.0823C67.8155 64.2655 67.822 64.4554 67.8379 64.6405C67.8447 64.7224 67.8617 64.8039 67.8787 64.885C67.9012 64.9929 67.9237 65.1003 67.9221 65.2081C67.9165 65.6691 68.0932 66.0684 68.326 66.4396C68.4476 66.6323 68.6234 66.8296 68.8216 66.9193L68.8549 66.9341L68.8951 66.9515C69.0042 66.9983 69.1087 67.0433 69.1882 67.1251H70.5132C70.8068 66.9642 71.035 66.8389 71.2239 66.7351L71.4083 66.4651ZM70.2798 66.4045C70.2561 66.4281 70.2315 66.4525 70.2046 66.4752C69.9774 66.4752 69.7754 66.4752 69.6296 66.4733C69.4594 66.3835 69.3331 66.3162 69.1527 66.2199C69.1527 66.2199 69.1237 66.1535 69.0872 66.0918C68.859 65.7 68.6991 65.2951 68.7637 64.8257C68.7655 64.8117 68.7679 64.7974 68.7702 64.7828L68.7703 64.7827C68.7866 64.6818 68.8051 64.5681 68.6973 64.4815C68.672 64.461 68.6627 64.3871 68.6786 64.3544C68.7917 64.1224 68.7819 63.8814 68.772 63.6341V63.6341C68.7656 63.4766 68.7591 63.3165 68.7842 63.1546C68.8883 63.0871 68.921 62.9705 68.9541 62.8524C68.9787 62.7646 69.0036 62.6759 69.0582 62.6057C69.1522 62.4849 69.2812 62.3912 69.408 62.2992L69.4081 62.2991L69.4081 62.2991C69.4618 62.2602 69.515 62.2215 69.565 62.1812H70.2785C70.6798 62.4293 70.8194 62.8233 70.9792 63.2745L71.0004 63.3342C70.9899 63.48 71.0206 63.6389 71.053 63.8074C71.093 64.0149 71.1358 64.2369 71.1079 64.4666C71.049 64.9482 70.9649 65.4241 70.8003 65.8776C70.7405 66.0432 70.6469 66.2311 70.4291 66.2938C70.3752 66.3096 70.3295 66.355 70.2798 66.4045ZM38.3628 61.5257C38.413 61.5656 38.4632 61.6048 38.5131 61.6438C38.6307 61.7356 38.7468 61.8264 38.8584 61.9222C39.0005 62.0437 39.0716 62.2008 39.0716 62.3934C39.0728 62.7026 39.0982 63.0101 39.1236 63.3178C39.156 63.711 39.1885 64.1045 39.1707 64.5021C39.1489 64.9917 39.1539 65.4823 39.1589 65.9728C39.1612 66.1979 39.1635 66.4231 39.1632 66.6481C39.1632 66.6679 39.164 66.6881 39.1649 66.7083L39.1649 66.7083C39.1698 66.8265 39.1749 66.9477 39.0136 67.0259H38.5545C38.4124 66.947 38.4132 66.8284 38.4142 66.7003L38.4142 66.6977C38.4162 66.4096 38.4158 66.1212 38.4154 65.8328C38.4151 65.5765 38.4147 65.3202 38.4161 65.0641C38.4179 64.7404 38.389 64.4182 38.3602 64.098C38.3155 63.5995 38.2712 63.106 38.3441 62.6197L37.9083 62.184H37.0714C36.5272 62.5711 36.3832 63.163 36.3682 63.7811C36.3498 64.5365 36.3536 65.2923 36.3575 66.0544C36.3591 66.3736 36.3607 66.6938 36.3607 67.0156H35.6398L35.5304 66.8912V61.6519C35.6622 61.4988 35.8157 61.509 35.9772 61.5197C36.0711 61.526 36.1678 61.5324 36.2644 61.507V62.2102C36.4922 62.1128 36.641 61.9543 36.7867 61.7991C36.876 61.704 36.9641 61.6101 37.0686 61.5322C37.145 61.5169 37.2266 61.5208 37.3098 61.5248C37.4598 61.5321 37.6152 61.5396 37.7559 61.435C37.7858 61.4125 37.87 61.4116 37.8896 61.435C37.9855 61.5429 38.099 61.534 38.2097 61.5254C38.262 61.5213 38.3138 61.5173 38.3628 61.5257ZM104.665 66.4714H103.991C103.536 66.2437 103.315 65.8998 103.095 65.5569L103.085 65.5419H102.621L102.488 65.6747C102.461 65.8879 102.471 66.0955 102.609 66.2722C102.661 66.3406 102.718 66.4064 102.775 66.4722C102.866 66.5772 102.956 66.6822 103.031 66.7978C103.09 66.8885 103.186 66.9138 103.28 66.9384C103.391 66.9674 103.498 66.9955 103.538 67.1278C103.564 67.1278 103.589 67.1277 103.614 67.1275L103.719 67.1265H103.719C103.868 67.1248 104.012 67.1232 104.156 67.1325C104.195 67.1347 104.241 67.1587 104.283 67.1805C104.33 67.2048 104.371 67.2263 104.391 67.212C104.543 67.0991 104.707 67.1166 104.856 67.1325C104.943 67.1417 105.024 67.1504 105.095 67.1325C105.145 67.1003 105.19 67.0702 105.232 67.0421L105.233 67.042L105.233 67.0419L105.233 67.0416L105.233 67.0416C105.32 66.9834 105.395 66.9338 105.474 66.8922C106.007 66.6107 106.267 66.1563 106.308 65.5672C106.316 65.4456 106.321 65.3175 106.291 65.2015C106.255 65.0641 106.199 64.9248 106.119 64.8088C106.042 64.6975 105.951 64.5968 105.859 64.496L105.858 64.4956C105.819 64.4526 105.78 64.4095 105.742 64.3656C105.671 64.2833 105.587 64.2505 105.474 64.2225C105.398 64.2035 105.327 64.1703 105.255 64.1369C105.129 64.0785 105.002 64.0197 104.853 64.0364C104.686 63.8585 104.467 63.8046 104.249 63.7506C104.157 63.728 104.065 63.7054 103.977 63.6736C103.732 63.5838 103.524 63.4408 103.448 63.1836C103.417 63.0783 103.414 62.9649 103.411 62.8386C103.41 62.7776 103.408 62.7135 103.403 62.6459C103.578 62.4926 103.761 62.3317 103.927 62.1859H104.778C104.822 62.2295 104.864 62.2747 104.905 62.3194L104.905 62.3195C104.994 62.4163 105.082 62.5107 105.185 62.5823C105.249 62.6268 105.265 62.7034 105.281 62.7803C105.307 62.8989 105.332 63.0179 105.534 63.019C105.703 62.9498 105.902 62.8685 106.102 62.7871C106.068 62.7179 106.036 62.6448 106.004 62.5707C105.931 62.4024 105.855 62.229 105.743 62.0849C105.625 61.9333 105.47 61.81 105.32 61.6895C105.254 61.6376 105.19 61.5861 105.13 61.5332H103.639C103.566 61.6328 103.459 61.6907 103.353 61.7481C103.215 61.8232 103.078 61.8975 103.019 62.0634C102.839 62.107 102.807 62.2508 102.776 62.3902C102.747 62.5165 102.72 62.6392 102.584 62.6805V63.4277C102.607 63.4576 102.632 63.4846 102.656 63.5102L102.656 63.5103C102.703 63.5617 102.746 63.6078 102.759 63.6614C102.868 64.0997 103.253 64.2516 103.587 64.383L103.628 64.3992C103.725 64.4379 103.822 64.4805 103.919 64.5233C104.191 64.6432 104.466 64.7646 104.77 64.8032C104.856 64.8143 104.936 64.8859 105.014 64.9557C105.041 64.9798 105.067 65.0037 105.094 65.0248C105.184 65.0958 105.271 65.1716 105.359 65.249L105.36 65.2494L105.36 65.2497L105.361 65.2504L105.366 65.255L105.409 65.2919L105.466 65.3418V65.8402C105.433 65.8891 105.404 65.9376 105.376 65.9839C105.318 66.0819 105.265 66.1698 105.19 66.2302C105.111 66.2939 105.011 66.3326 104.881 66.3832C104.817 66.4082 104.745 66.4361 104.665 66.4714ZM53.0793 61.5341H53.674C53.8384 61.6123 53.8332 61.7342 53.8282 61.8519L53.8282 61.852C53.8273 61.8722 53.8264 61.8922 53.8264 61.9119C53.8267 62.1713 53.8275 62.4307 53.8284 62.69V62.6904V62.6905V62.6906V62.6906V62.6907V62.6908V62.6908V62.6909V62.691V62.691V62.6911V62.6912V62.6912C53.8307 63.4114 53.833 64.1314 53.8227 64.8509C53.8162 65.2932 53.8545 65.7271 53.9536 66.1844C54.0085 66.2214 54.0697 66.2632 54.1384 66.31L54.1395 66.3108L54.1421 66.3126C54.2094 66.3584 54.2836 66.4091 54.366 66.4649H55.0112C55.0383 66.4144 55.0823 66.3302 55.1028 66.29H55.3553C55.49 66.046 55.6228 65.8066 55.7883 65.5083C55.7883 65.5047 55.7886 65.4979 55.7891 65.4887C55.7909 65.4523 55.7948 65.3773 55.7873 65.3035C55.7508 64.961 55.7902 64.623 55.8296 64.2845C55.8608 64.0158 55.8921 63.7469 55.8855 63.4754C55.875 63.0509 55.8774 62.6263 55.8798 62.2038V62.2037V62.2037V62.2037V62.2036C55.8808 62.0231 55.8818 61.8429 55.8818 61.6632L56.0202 61.5248H56.5775C56.6532 61.9128 56.6766 65.2839 56.6149 67.0166H56.0033L55.9749 66.987L55.8743 66.8819V66.4022C55.822 66.4805 55.7548 66.5404 55.6881 66.5998C55.6297 66.6519 55.5717 66.7036 55.5246 66.7669C55.4545 66.8621 55.3503 66.9321 55.2389 67.0069C55.1883 67.0409 55.1362 67.0759 55.0851 67.1148H53.8788C53.8614 67.1011 53.8425 67.0847 53.8221 67.0672L53.822 67.0671L53.822 67.0671L53.8219 67.067C53.7742 67.026 53.7187 66.9781 53.6572 66.9408C53.2644 66.708 53.0784 66.3658 53.0793 65.9094C53.0805 64.9499 53.0801 63.9896 53.0797 63.0171C53.0795 62.5263 53.0793 62.0325 53.0793 61.5341ZM41.2181 62.7527C41.2183 62.7013 41.2185 62.6482 41.2185 62.5926L41.3473 62.4793C41.4562 62.3835 41.5622 62.2904 41.6842 62.1811H42.4603C42.4831 62.1974 42.5059 62.2135 42.5287 62.2295C42.7443 62.3814 42.9565 62.531 43.0326 62.8151C43.0483 62.8735 43.1062 62.921 43.1697 62.973C43.2008 62.9985 43.2332 63.025 43.2627 63.0545C43.4696 62.958 43.6572 62.8697 43.8292 62.7889L43.8294 62.7888L43.8331 62.7871C43.6582 62.2017 43.3608 61.7603 42.7586 61.5238H41.4046C40.9726 61.8164 40.5855 62.1194 40.3798 62.6562V63.4762L40.5906 63.7867L40.592 63.7887L40.5935 63.791C40.6733 63.9086 40.7519 64.0244 40.8351 64.1467C40.9048 64.1695 40.9903 64.1978 41.0795 64.2274L41.0806 64.2278L41.2083 64.2701L41.2205 64.3295L41.2247 64.3503L41.2257 64.3548C41.2259 64.3558 41.226 64.3563 41.226 64.3562C41.5026 64.4586 41.7708 64.5582 42.0446 64.66L42.0563 64.6643C42.3037 64.7562 42.5558 64.8499 42.8232 64.949L43.2458 65.3717C43.3456 65.6618 43.2086 65.864 43.086 66.0451C43.0442 66.1068 43.0041 66.166 42.9756 66.2254C42.8823 66.2747 42.8013 66.3172 42.7176 66.3612L42.508 66.4713H41.7291C41.2457 66.3423 41.0512 65.9514 40.9137 65.5587C40.6308 65.4817 40.4267 65.5967 40.2251 65.7102C40.1842 65.7332 40.1434 65.7562 40.102 65.7775C40.2291 65.8698 40.2795 66.0111 40.3298 66.1523C40.385 66.3072 40.4402 66.4622 40.5967 66.5527C40.6439 66.7635 40.8081 66.834 40.9633 66.9007C41.0787 66.9502 41.189 66.9975 41.2428 67.0988C41.3613 67.1309 41.4767 67.1268 41.5878 67.1228C41.7486 67.117 41.9006 67.1116 42.0405 67.2166C42.0704 67.239 42.149 67.24 42.1751 67.2166C42.3005 67.1079 42.4401 67.1156 42.5868 67.1237C42.6786 67.1288 42.7733 67.134 42.869 67.1109C42.8901 67.0963 42.9104 67.0781 42.9319 67.0589C42.9914 67.0058 43.0599 66.9446 43.1794 66.9267C43.4179 66.8903 43.5984 66.7051 43.7367 66.5031C43.8042 66.4043 43.8632 66.2997 43.9272 66.1863L43.9273 66.1861C43.9565 66.1344 43.9867 66.0809 44.0191 66.0253C44.0156 65.9283 44.0176 65.8287 44.0196 65.7275C44.0255 65.4251 44.0317 65.1089 43.8929 64.8069L43.3188 64.2327C43.3049 64.2327 43.2887 64.2346 43.2717 64.2366C43.2314 64.2414 43.1861 64.2467 43.1532 64.229C42.7425 64.0086 42.3034 63.8657 41.8633 63.7225L41.7048 63.6707C41.4009 63.5707 41.2241 63.3313 41.2185 63.0339C41.2173 62.9425 41.2177 62.8507 41.2181 62.7527ZM92.8368 61.5248C92.8838 61.5248 92.9327 61.5221 92.9825 61.5194C93.0992 61.513 93.2209 61.5063 93.3342 61.5332C93.4002 61.5491 93.4584 61.528 93.5172 61.5067C93.597 61.4778 93.6779 61.4485 93.7812 61.5098C93.8686 61.5616 93.995 61.5488 94.1213 61.5361C94.1774 61.5304 94.2335 61.5248 94.2862 61.5248C94.7472 61.8362 95.1876 62.1644 95.3082 62.79C95.1808 62.8397 95.0548 62.8884 94.9287 62.9371L94.7098 63.0219C94.6732 62.9467 94.6201 62.8862 94.5661 62.8248C94.4999 62.7495 94.4324 62.6727 94.3928 62.5655C94.3535 62.4588 94.2326 62.3821 94.1058 62.3018L94.1057 62.3018C94.0481 62.2653 93.9893 62.228 93.9364 62.1868H93.2276C93.191 62.2089 93.1535 62.2293 93.1165 62.2495C93.0343 62.2942 92.9539 62.3379 92.8882 62.3972C92.8312 62.4486 92.7897 62.5163 92.7396 62.5981C92.7149 62.6385 92.6881 62.6822 92.6563 62.7292C92.6774 62.8577 92.7007 63.001 92.7247 63.1493L92.7262 63.1582L92.7267 63.1616L92.7713 63.4361C92.8674 63.455 92.9409 63.5113 93.0159 63.5689C93.1008 63.6341 93.1877 63.7008 93.3118 63.7166C93.5287 63.7447 93.7578 63.8055 93.9636 63.9429C94.0569 64.0053 94.1731 64.0319 94.2902 64.0588L94.2902 64.0588C94.3889 64.0814 94.4883 64.1042 94.5751 64.1487C94.7302 64.2274 94.8659 64.3476 94.9995 64.4658L94.9996 64.4659L94.9998 64.4661L95.0001 64.4663L95.0004 64.4666L95.0341 64.4964L95.0651 64.5236C95.1613 64.6076 95.2504 64.6995 95.3451 64.7972L95.3452 64.7973C95.3886 64.8421 95.4333 64.8881 95.4803 64.9351C95.4803 64.9758 95.4754 65.021 95.4704 65.0675C95.4587 65.1758 95.4463 65.2907 95.4934 65.3699C95.553 65.4699 95.5263 65.5484 95.5 65.6256C95.4843 65.6718 95.4687 65.7176 95.4719 65.7673C95.498 66.2077 95.2792 66.5294 94.9089 66.7566C94.7859 66.8317 94.6643 66.909 94.5428 66.9861L94.5424 66.9864L94.5412 66.9871L94.4809 67.0254C94.4263 67.0601 94.3717 67.0946 94.317 67.1288H92.8209C91.8198 66.4101 91.7829 66.2414 91.7095 65.9062C91.6952 65.8407 91.6794 65.7687 91.6548 65.685C91.8615 65.5232 92.1018 65.5289 92.3645 65.5466C92.3935 65.5999 92.4225 65.6544 92.4518 65.7094C92.5341 65.8638 92.6189 66.0229 92.7133 66.1759C92.7396 66.2183 92.7972 66.2435 92.8524 66.2677C92.8679 66.2745 92.8832 66.2812 92.8975 66.2882C92.9196 66.2986 92.944 66.3053 92.9683 66.3119C93.0005 66.3207 93.0327 66.3295 93.0593 66.3471C93.096 66.3704 93.1261 66.4038 93.1562 66.4373C93.1636 66.4455 93.171 66.4537 93.1785 66.4618L93.193 66.477H94.115C94.2882 66.3434 94.4556 66.2148 94.5791 66.1198L94.6022 66.1021L94.6333 65.9766L94.6722 65.8197L94.7123 65.6585L94.7378 65.555C94.7293 65.5396 94.7209 65.5241 94.7127 65.5085L94.6966 65.4783C94.615 65.324 94.5345 65.1719 94.346 65.0604C94.2961 65.0308 94.2516 64.9924 94.2071 64.9541C94.108 64.8688 94.0093 64.7838 93.8532 64.7967C93.8 64.7009 93.7108 64.7058 93.6256 64.7105C93.5551 64.7144 93.4873 64.7181 93.4446 64.6648C93.3444 64.5394 93.2068 64.5113 93.0796 64.4854L93.0518 64.4797C92.9359 64.4552 92.8378 64.3974 92.7396 64.3396C92.6389 64.2803 92.5381 64.2209 92.4178 64.1973C92.3075 64.1758 92.1831 64.0654 92.1252 63.9616C92.0073 63.7494 91.9007 63.5212 91.8484 63.2856C91.8196 63.1586 91.8419 63.0195 91.8639 62.8822V62.8822C91.8712 62.8364 91.8785 62.7909 91.8839 62.746C91.8942 62.66 91.9157 62.573 91.9494 62.4935C92.0971 62.1475 92.3402 61.8885 92.6741 61.7118C92.707 61.6924 92.7322 61.6589 92.7657 61.6143C92.7854 61.5881 92.808 61.558 92.8368 61.5248ZM89.0516 68.51L89.0516 68.51L89.0517 68.51C89.1262 68.4027 89.2015 68.2942 89.3096 68.2135C89.3121 68.1727 89.3122 68.1347 89.3123 68.0989C89.3124 68.0288 89.3125 67.9675 89.3311 67.9124C89.3993 67.7098 89.4743 67.5098 89.5492 67.31L89.5493 67.3096L89.5493 67.3095L89.5494 67.3094L89.5494 67.3093L89.5494 67.3093L89.5494 67.3092L89.5494 67.3091C89.5854 67.2132 89.6214 67.1173 89.6565 67.0212C89.679 66.9595 89.7059 66.8981 89.7329 66.8367C89.7946 66.696 89.8563 66.5554 89.8641 66.4115C89.8776 66.1592 89.9565 65.9246 90.0338 65.6948C90.0582 65.6223 90.0824 65.5503 90.1044 65.4783C90.1576 65.3044 90.2255 65.1335 90.2935 64.9623C90.3798 64.7451 90.4663 64.5273 90.5233 64.302C90.61 63.9594 90.7251 63.6268 90.8402 63.2941L90.8685 63.2123L90.9049 63.1069C90.959 62.9496 91.003 62.7892 91.0472 62.6284L91.0472 62.6282C91.1312 62.3225 91.2155 62.0152 91.3705 61.7248C91.22 61.6435 91.0928 61.5743 90.9554 61.4995L90.8062 61.5788L90.662 61.6552L90.6595 61.6565L90.5411 61.7192C90.5325 61.77 90.532 61.8202 90.5316 61.8685C90.5305 61.9875 90.5295 62.0943 90.4065 62.1662C90.3747 62.1849 90.3541 62.2382 90.3447 62.2784C90.3268 62.3573 90.3115 62.4367 90.2961 62.5162L90.2961 62.5163C90.2697 62.6525 90.2434 62.7885 90.2045 62.9208C90.1712 63.0335 90.1272 63.1431 90.0832 63.2529C90.0469 63.3435 90.0105 63.4342 89.98 63.5268C89.9436 63.6371 89.9202 63.7559 89.9146 63.8718C89.907 64.0202 89.8507 64.1521 89.7947 64.2836C89.7543 64.3784 89.714 64.4729 89.692 64.5731L89.6855 64.604L89.6722 64.6677C89.6147 64.9453 89.5574 65.2224 89.3348 65.4559C89.3077 65.1501 89.2423 64.8658 89.1254 64.5993C89.0309 64.3824 88.9486 64.171 88.9365 63.9288L88.936 63.9197C88.9259 63.718 88.9144 63.4897 88.8131 63.3313C88.7225 63.1895 88.6891 63.0369 88.6559 62.885C88.6339 62.7845 88.612 62.6844 88.5737 62.5879C88.4843 62.363 88.4142 62.13 88.3474 61.908L88.3474 61.9079L88.3473 61.9078C88.3197 61.8162 88.2927 61.7263 88.2651 61.6397C88.2193 61.6283 88.1744 61.615 88.1303 61.602L88.1302 61.6019C87.9139 61.5379 87.7176 61.4797 87.5413 61.6809C87.5413 61.6974 87.5399 61.7151 87.5385 61.7334C87.5352 61.7751 87.5318 61.8195 87.5441 61.8585C87.6064 62.0536 87.6535 62.2529 87.7005 62.4524L87.7005 62.4525C87.7665 62.7321 87.8325 63.0119 87.9406 63.2799C87.985 63.3899 88.0197 63.5039 88.0543 63.6179C88.07 63.6696 88.0858 63.7213 88.1024 63.7727C88.1311 63.8609 88.1654 63.9488 88.1997 64.0368L88.1998 64.0368L88.1998 64.0369L88.1998 64.0369L88.1998 64.037L88.1998 64.037L88.1998 64.037C88.2772 64.2354 88.3546 64.434 88.3689 64.6367C88.3832 64.8387 88.4594 65.0197 88.5351 65.1995C88.6178 65.396 88.6999 65.591 88.6999 65.8103C88.8596 66.0035 88.8847 66.2432 88.9088 66.4728V66.4729C88.9149 66.531 88.9209 66.5885 88.929 66.6444C89.0197 67.27 88.7195 67.7852 88.3773 68.2247C88.065 68.2817 87.8041 68.3294 87.532 68.379C87.55 68.4503 87.5446 68.5253 87.5393 68.5997C87.5291 68.7408 87.5191 68.8792 87.6704 68.984C88.0023 69.0242 88.324 68.984 88.6429 68.8792C88.8399 68.8148 88.945 68.6636 89.0516 68.51ZM99.7518 62.1785C99.6246 62.2883 99.5102 62.3876 99.401 62.4823L99.2543 62.6095L99.218 62.7608L99.1903 62.8755C99.1482 63.049 99.1051 63.2267 99.0645 63.4053C99.0449 63.4923 99.0308 63.582 99.0308 63.6709C99.0301 63.761 99.0289 63.8512 99.0278 63.9414V63.9417V63.9421V63.9425V63.9428V63.9432V63.9435V63.9439V63.9443C99.0234 64.2885 99.0191 64.6333 99.0346 64.9763C99.0458 65.2241 99.1 65.4737 99.1618 65.715C99.2291 65.9796 99.3488 66.2125 99.6452 66.3032C99.6896 66.3171 99.7249 66.3603 99.762 66.4055C99.7796 66.4271 99.7977 66.4491 99.8173 66.4687H100.489C100.509 66.3914 100.574 66.3556 100.642 66.3175C100.716 66.2764 100.794 66.2326 100.827 66.1311C100.856 66.0437 100.9 65.9612 100.944 65.8788C101.037 65.7032 101.131 65.5282 101.074 65.3073C101.608 65.2213 101.773 65.2353 101.996 65.3793C101.596 66.5256 101.48 66.6237 101.25 66.8181C101.21 66.8524 101.166 66.8897 101.116 66.9362C101.038 66.9446 100.966 66.9521 100.91 66.9577C100.899 67.013 100.891 67.0509 100.884 67.0855L100.877 67.1214H99.3563C99.2752 67.0283 99.1681 66.9617 99.0592 66.894C98.9057 66.7985 98.7485 66.7007 98.6549 66.5229C98.611 66.4392 98.5635 66.3573 98.5152 66.274C98.4012 66.0773 98.2823 65.8722 98.193 65.614V62.9827C98.3051 62.8659 98.3647 62.7179 98.4242 62.5699C98.4844 62.4205 98.5445 62.2711 98.6587 62.1542C98.8134 61.9955 98.9782 61.8466 99.1367 61.7035C99.2033 61.6433 99.2688 61.5842 99.3319 61.5258H100.797C101.477 61.883 101.81 62.4328 101.905 63.1762C101.752 63.3875 101.495 63.4165 101.185 63.3801C101.158 63.3179 101.126 63.2551 101.093 63.1914L101.093 63.1913C101.016 63.0404 100.936 62.8845 100.914 62.7208C100.902 62.6313 100.847 62.5734 100.795 62.518C100.735 62.4552 100.678 62.3955 100.69 62.2963C100.651 62.2841 100.613 62.2699 100.575 62.2556C100.49 62.2239 100.406 62.1922 100.318 62.1831C100.189 62.1701 100.058 62.173 99.925 62.1759C99.8676 62.1772 99.8099 62.1785 99.7518 62.1785ZM75.012 61.7436L74.7773 61.5089C74.5332 61.5089 74.2733 61.5089 73.9983 61.507C74.0022 61.4154 73.9992 61.3226 73.9963 61.2306V61.2305V61.2304C73.985 60.8793 73.9741 60.539 74.3453 60.3138L74.7145 60.2574L74.7151 60.2573C74.8755 60.2328 75.0363 60.2083 75.2009 60.1829V59.7051C75.1853 59.6883 75.1699 59.6677 75.1549 59.6476L75.1548 59.6476C75.1238 59.6061 75.0945 59.567 75.07 59.5695C74.9579 59.5815 74.848 59.5641 74.7375 59.5466L74.7374 59.5466C74.5814 59.5219 74.4241 59.4971 74.2583 59.5545C74.21 59.5714 74.1613 59.5872 74.1129 59.603C73.7413 59.7241 73.3852 59.8401 73.3372 60.3447C73.3328 60.3943 73.2807 60.4391 73.2267 60.4857C73.2013 60.5076 73.1755 60.5299 73.1539 60.5532L73.1555 60.6011C73.1657 60.9103 73.1761 61.2254 73.0268 61.5126C72.9399 61.5392 72.8467 61.5302 72.7546 61.5213C72.6038 61.5066 72.4558 61.4923 72.3432 61.6351V62.1952H72.9426L73.0651 62.3177V62.7759C73.0651 64.0664 73.0651 65.3559 73.0642 66.6454C73.0642 66.6637 73.0638 66.6822 73.0634 66.7006C73.0605 66.8359 73.0578 66.9677 73.21 67.0278H73.8487C74.0064 66.9498 74.0032 66.8263 74.0001 66.705V66.7048V66.7047C73.9997 66.688 73.9993 66.6713 73.9993 66.6547V62.646V62.1775H75.012V61.7436ZM58.1999 60.3204H59.0452V61.5248C59.0898 61.5248 59.1341 61.5247 59.1782 61.5244L59.2873 61.5238C59.4897 61.5225 59.6868 61.5212 59.884 61.5286C59.9485 61.5311 60.0126 61.5533 60.0834 61.5778C60.1182 61.5899 60.1546 61.6025 60.1935 61.6137C60.1727 61.6991 60.1774 61.7835 60.1819 61.8645C60.1897 62.0061 60.1969 62.1376 60.0673 62.2477C59.8831 62.1656 59.6951 62.1716 59.5023 62.1778C59.3918 62.1813 59.2797 62.1849 59.1658 62.1719C59.1534 62.1997 59.1386 62.2266 59.1241 62.253C59.0926 62.31 59.0627 62.3644 59.062 62.4188C59.06 62.6088 59.0537 62.7996 59.0474 62.9905C59.0305 63.5023 59.0135 64.0149 59.0789 64.5162C59.1173 64.8104 59.1222 65.103 59.127 65.3968C59.1313 65.6529 59.1355 65.9098 59.1621 66.1694L59.287 66.2547L59.2879 66.2554L59.2886 66.2558C59.3802 66.3185 59.4811 66.3874 59.6025 66.4696H60.3469V67.112C60.3161 67.1133 60.2836 67.114 60.25 67.1146C60.1611 67.1164 60.0641 67.1184 59.9691 67.1326C59.9215 67.1396 59.8742 67.1567 59.8274 67.1737C59.762 67.1974 59.6975 67.2207 59.6343 67.2158C59.6007 67.2132 59.5662 67.2111 59.5312 67.209L59.5305 67.209C59.338 67.1973 59.1323 67.1848 58.9947 67.0868C58.9472 67.0529 58.8918 67.0249 58.8353 66.9964C58.6796 66.9176 58.5158 66.8348 58.487 66.6146C58.4812 66.5726 58.4344 66.5356 58.3872 66.4982C58.366 66.4814 58.3447 66.4646 58.3271 66.4472C58.3172 66.2105 58.2932 65.9748 58.2692 65.7389L58.2692 65.7388C58.2317 65.3708 58.1942 65.0022 58.2102 64.6284C58.2284 64.2076 58.224 63.7864 58.2196 63.3651C58.2177 63.1796 58.2158 62.9942 58.2158 62.8087V62.2748C58.1651 62.2735 58.1145 62.2742 58.0642 62.2749H58.0641H58.0639H58.0638H58.0636H58.0635H58.0633C57.8521 62.2779 57.6479 62.2808 57.4827 62.1382V61.5295H58.1999V60.3204ZM45.9828 61.5108V60.3269C45.6743 60.3269 45.4143 60.3269 45.1385 60.326C45.1385 60.3935 45.1388 60.4595 45.1392 60.5245C45.14 60.6672 45.1407 60.8047 45.1375 60.9422C45.1361 61.0026 45.138 61.0633 45.14 61.1239C45.1443 61.2594 45.1487 61.3946 45.1151 61.5257H44.5306L44.3866 61.6697C44.4022 61.7313 44.3973 61.7979 44.3922 61.8659C44.3819 62.0066 44.3711 62.1531 44.54 62.2729H44.9692C45.1498 62.3575 45.1448 62.4811 45.14 62.6004C45.1392 62.6195 45.1385 62.6385 45.1385 62.6572C45.1394 63.8522 45.1394 65.0482 45.1394 66.1479C45.2448 66.5394 45.4743 66.7658 45.6936 66.982L45.6937 66.9821C45.7388 67.0266 45.7836 67.0707 45.8267 67.1157H47.2658V66.4743C47.2041 66.4743 47.1443 66.4748 47.0858 66.4754L47.0852 66.4754H47.0852H47.0851H47.0851H47.085H47.085H47.0849C46.9471 66.4767 46.8168 66.478 46.687 66.4714C46.6009 66.4668 46.5084 66.449 46.4345 66.4088C46.4193 66.4005 46.4037 66.3923 46.3878 66.3839L46.3877 66.3838C46.2831 66.3284 46.1687 66.2678 46.1184 66.1769C46.0371 66.0301 45.9894 65.8459 45.9856 65.6766C45.9754 65.202 45.9771 64.7279 45.9788 64.2535V64.2534L45.9788 64.2527C45.9794 64.075 45.98 63.8973 45.98 63.7195V62.2719H46.8609C47.0295 62.152 47.0186 62.0056 47.0081 61.865C47.0031 61.7974 46.9981 61.7311 47.0133 61.6697L46.8543 61.5108H45.9828ZM50.2778 62.4123L50.1487 62.2832C50.0775 62.2614 50.0011 62.267 49.9246 62.2725C49.7851 62.2827 49.6456 62.2929 49.5381 62.1364V61.5398H50.2637V60.4504C50.4214 60.2961 50.5897 60.3031 50.7613 60.3103C50.8777 60.3151 50.9956 60.32 51.1128 60.2746V61.5221H52.1274V62.2542C51.9212 62.1646 51.7142 62.1708 51.5024 62.1771C51.3761 62.1808 51.2481 62.1846 51.1175 62.1682V63.5409C51.1175 63.6919 51.1173 63.8429 51.1172 63.9938V63.9939V63.994V63.994V63.9941V63.9942C51.1168 64.3714 51.1164 64.7484 51.1184 65.125C51.1188 65.1999 51.1173 65.275 51.1159 65.3499C51.1101 65.6518 51.1044 65.9506 51.2175 66.2219C51.4939 66.4877 51.8207 66.4824 52.1461 66.4771C52.2246 66.4759 52.3031 66.4746 52.3808 66.4771C52.42 66.7315 52.4353 66.8314 52.4096 66.9193C52.3929 66.9761 52.359 67.0278 52.3032 67.113C52.2278 67.1385 52.1463 67.1339 52.0645 67.1293C51.9363 67.1221 51.8074 67.1149 51.7 67.2233C51.5862 67.1339 51.455 67.1346 51.325 67.1354C51.2308 67.136 51.1371 67.1365 51.0511 67.1027C50.9248 67.0532 50.8085 66.9776 50.6929 66.9023L50.6627 66.8827C50.6419 66.8693 50.6212 66.8559 50.6004 66.8428C50.5499 66.811 50.3657 66.292 50.3722 66.1938C50.4096 65.6681 50.3695 65.145 50.3294 64.6219C50.2944 64.1653 50.2593 63.7086 50.2759 63.2501C50.283 63.0565 50.2812 62.8633 50.2794 62.6709C50.2786 62.5845 50.2778 62.4983 50.2778 62.4123ZM33.1935 59.6518V67.0194H33.9968L34.1137 66.9025V59.7593C33.924 59.6357 33.7234 59.646 33.5216 59.6563H33.5216C33.412 59.6619 33.3021 59.6676 33.1935 59.6518ZM48.6731 66.911L48.5441 67.04C48.4682 67.0197 48.3863 67.0273 48.303 67.0351C48.1491 67.0495 47.9906 67.0643 47.8577 66.9035V61.6585C47.9826 61.4999 48.1323 61.5138 48.276 61.5272C48.367 61.5356 48.4555 61.5439 48.5338 61.508L48.6741 61.6483C48.6731 63.3848 48.6731 65.1373 48.6731 66.9056V66.911ZM96.9867 61.5342H96.4584C96.3045 61.6201 96.3118 61.7504 96.3189 61.8776C96.3203 61.9027 96.3217 61.9277 96.3219 61.9522C96.3209 63.5671 96.3209 65.181 96.3209 66.796V67.012H97.0681V62.9836C97.0681 62.8777 97.0685 62.7719 97.0689 62.6661V62.6652C97.07 62.3833 97.0711 62.1013 97.0643 61.8194C97.0624 61.7539 97.0394 61.6889 97.0166 61.6247C97.0058 61.5943 96.9951 61.5642 96.9867 61.5342ZM47.8652 59.7585H48.7947C48.774 59.8725 48.7795 59.9879 48.7849 60.1026C48.7942 60.2994 48.8035 60.4942 48.6806 60.6767H47.8652V59.7585ZM96.3368 60.6841H97.1607C97.1604 60.588 97.1608 60.4919 97.1612 60.3963C97.1622 60.1821 97.1631 59.9704 97.156 59.7667H96.32C96.32 59.8162 96.3198 59.8641 96.3197 59.9111C96.3193 60.0251 96.3189 60.1332 96.3209 60.2418C96.323 60.3506 96.3275 60.4594 96.332 60.5667C96.3337 60.606 96.3353 60.6452 96.3368 60.6841Z" fill="url(#paint0_linear)"/>
</g>
<defs>
<linearGradient id="paint0_linear" x1="33.0009" y1="24.9972" x2="42.9958" y2="80.3493" gradientUnits="userSpaceOnUse">
<stop stop-color="#7EB7FE"/>
<stop offset="1" stop-color="#599EF4" stop-opacity="0.92"/>
</linearGradient>
<clipPath id="clip0">
<rect width="73.3181" height="44" fill="white" transform="translate(33 25)"/>
</clipPath>
</defs>
</svg>
