<svg width="140" height="94" viewBox="0 0 140 94" fill="none" preserveAspectRatio="xMidYMid meet" xmlns="http://www.w3.org/2000/svg">
<g style="mix-blend-mode:darken">
<path fill-rule="evenodd" clip-rule="evenodd" d="M0 0H140V94H0V0Z" />
</g>
<g clip-path="url(#clip0)">
<path d="M57.0598 55.7101C57.0482 55.8517 57.0367 55.9933 57.0251 56.132C55.9532 56.366 30.9368 56.3978 29.4401 56.1551C29.3852 55.6263 29.3245 55.0687 29.2523 54.381C29.0992 54.5919 28.9923 54.7133 28.9114 54.852C27.6718 56.9468 24.7189 56.9872 23.0112 56.025C21.9855 55.4472 21.5752 54.5139 21.5636 53.3899C21.5405 51.4714 21.5434 49.5528 21.5347 47.6343C21.5319 47.1142 21.5347 46.5941 21.5347 46.1636C20.9309 45.577 20.0727 46.1491 19.5873 45.4585C19.7462 45.3748 19.8589 45.2621 19.9745 45.2621C21.266 45.2505 22.5605 45.2534 23.9936 45.2534C24.037 45.7301 24.1034 46.1376 24.1063 46.5478C24.1179 48.6571 24.1092 50.7692 24.1121 52.8785C24.1121 53.2137 24.1294 53.5488 24.1352 53.884C24.1525 54.6873 24.2854 55.479 25.1291 55.7968C26.0364 56.1377 26.935 55.9962 27.6891 55.3258C28.5849 54.5226 29.1801 53.4853 29.2436 52.3266C29.3592 50.2318 29.2754 48.1283 29.2754 45.9815C28.6109 45.8688 28.0359 45.7706 27.2095 45.629C28.3277 45.1667 29.5441 45.1118 31.6649 45.3516C31.8152 47.0246 31.7112 48.7351 31.7314 50.4399C31.7487 52.1128 31.7343 53.7858 31.7343 55.557C32.8467 55.557 33.8724 55.557 34.9791 55.557C34.9791 52.3584 34.9791 49.1714 34.9791 45.9757C34.3347 45.8688 33.7569 45.7735 32.9363 45.6348C34.0429 45.1581 35.6725 45.106 37.4611 45.4123C37.4611 48.7611 37.4611 52.1417 37.4611 55.5859C38.6399 55.5859 39.6714 55.5859 40.7752 55.5859C40.7752 49.8764 40.7752 44.2363 40.7752 38.6078C40.2638 38.1108 39.3767 38.7667 38.9751 37.9953C39.8044 37.5185 41.5264 37.4347 43.237 37.8103C43.237 43.6642 43.237 49.547 43.237 55.4847C44.4129 55.8141 45.482 55.609 46.6522 55.6205C46.6522 49.8504 46.6522 44.2103 46.6522 38.5096C46.1668 38.0906 45.2509 38.7956 44.7712 37.9981C45.6091 37.5098 47.493 37.4289 49.2093 37.8277C49.3682 39.2521 49.2556 40.7286 49.2758 42.1964C49.296 43.6816 49.2816 45.1696 49.2816 46.6576C49.2816 48.0966 49.2816 49.5355 49.2816 50.9744C49.2816 52.4595 49.2816 53.9447 49.2816 55.4847C50.3506 55.8228 51.3937 55.6032 52.4165 55.6292C52.7142 54.6237 52.7922 48.2035 52.5408 46.0104C52.0438 45.6146 51.1972 46.1433 50.6454 45.3054C52.1507 45.1812 53.5174 45.2101 54.9534 45.291C55.2597 46.4525 55.0719 47.5967 55.1037 48.7264C55.1355 49.8273 55.1095 50.9311 55.1095 52.0348C55.1095 53.179 55.1095 54.3232 55.1095 55.6119C55.8087 55.6321 56.4155 55.6465 57.0251 55.6639C57.0222 55.6581 57.0598 55.7101 57.0598 55.7101Z" fill="url(#paint0_linear)"/>
<path d="M76.6874 47.8798C76.4331 48.0849 76.176 48.2901 75.8061 48.5877C75.3034 48.5097 74.7197 48.423 74.0407 48.319C74.1361 47.3944 74.2141 46.6316 74.2863 45.9179C73.4628 45.4122 72.9514 45.8081 72.4804 46.2097C71.7176 46.8656 71.3854 47.7613 71.238 48.7235C71.16 49.2407 71.1455 49.7694 71.1427 50.2953C71.1311 52.0116 71.1398 53.7279 71.1398 55.3489C71.7812 55.9527 72.6596 55.3344 73.3039 56.0712C72.9976 56.1781 72.8041 56.2995 72.6105 56.3024C71.605 56.3226 70.5994 56.2995 69.5911 56.3197C68.5942 56.3428 67.6118 56.3255 66.6063 56.5393C65.2859 56.8196 63.9914 56.6317 63.3384 55.1553C61.2898 56.9958 59.1517 57.1663 57.0569 55.7129L57.0193 55.6638C55.7624 54.0631 56.6668 51.8903 58.7183 51.2546C59.6313 50.9714 60.5559 50.7172 61.4545 50.3935C61.9833 50.2028 62.4716 49.8937 62.9195 49.6712C63.3702 48.3854 63.2864 47.2181 62.9657 46.0508C61.9544 45.1753 60.9402 45.3516 59.7469 45.967C59.744 46.438 59.6978 46.9494 59.7411 47.4521C59.8538 48.7726 59.2066 49.3014 57.9324 48.8824C57.7994 48.8391 57.6897 48.735 57.5799 48.6657C57.0858 47.3163 57.3834 46.2328 58.5218 45.5712C60.3594 44.5021 62.2838 44.4703 64.1359 45.4729C65.2743 46.0884 65.7135 47.221 65.7193 48.4981C65.725 50.5091 65.7164 52.523 65.725 54.534C65.7279 54.9992 65.6095 55.5193 66.2538 55.8545C66.9097 55.7678 67.6523 55.6696 68.5306 55.554C68.5509 52.3468 68.548 49.1656 68.5335 45.9901C67.8343 45.8774 67.294 45.7879 66.6005 45.6752C67.4731 45.1638 68.4382 45.1031 70.8046 45.3342C70.845 45.6289 70.9057 45.9468 70.9317 46.2646C70.9548 46.5478 70.9375 46.8338 70.9375 47.2528C71.2351 46.7905 71.4258 46.4206 71.683 46.1086C72.7434 44.817 73.9685 44.7708 75.1849 45.0395C76.1471 45.2533 76.5227 46.0681 76.6903 46.9523C76.751 47.2701 76.6585 47.6168 76.6354 47.952C76.6383 47.9376 76.6874 47.8798 76.6874 47.8798ZM63.1882 50.4542C62.0844 50.9021 61.2378 51.2055 60.4259 51.5811C59.1661 52.1676 58.5998 53.725 59.2152 54.9588C59.3684 55.2651 59.7064 55.5482 60.0272 55.6927C61.3043 56.2619 62.7808 55.4384 63.0119 53.9619C63.1737 52.8958 63.1275 51.8007 63.1882 50.4542Z" fill="url(#paint1_linear)"/>
<path d="M76.6383 47.9376C76.9012 47.6053 77.167 47.2731 77.4271 46.9379C78.4268 45.6579 79.7675 44.9587 81.3509 44.7709C82.3853 44.6495 83.3417 45.0165 84.1565 45.6579C84.4107 45.8573 84.5552 46.1953 84.7488 46.4727C84.8268 46.4178 84.9048 46.3629 84.9828 46.308C84.9828 43.7422 84.9828 41.1736 84.9828 38.5269C84.3298 38.4286 83.7057 38.3333 82.9747 38.2206C83.1423 37.9606 83.1972 37.7756 83.2868 37.7554C84.6563 37.4491 86.0259 37.5792 87.5342 37.6832C87.6989 39.2492 87.5948 40.7257 87.6151 42.1935C87.6324 43.6787 87.618 45.1667 87.618 46.6519C87.618 48.0908 87.618 49.5297 87.618 50.9657C87.618 52.4509 87.618 53.9331 87.618 55.3287C88.1207 55.9181 88.9326 55.3634 89.3689 55.973C88.531 56.3833 87.4562 56.4411 85.24 56.2042C85.1446 55.8286 85.0464 55.4269 84.9424 55.0195C82.8562 57.75 79.1087 56.678 77.4329 54.3723C76.1933 52.6647 75.6241 50.7923 76.4649 48.7033C76.5718 48.4404 76.6123 48.1543 76.6845 47.877L76.6383 47.9376ZM78.8804 50.7403C78.9267 50.7461 78.9758 50.749 79.022 50.7548C79.022 51.376 78.9498 52.0088 79.0394 52.6184C79.1492 53.361 79.363 54.0949 79.597 54.8115C79.7906 55.4038 80.2876 55.765 80.8741 55.8546C82.8187 56.1522 83.9224 55.8401 84.6592 53.9302C84.8297 53.491 84.951 53.0085 84.9626 52.5404C84.9944 51.2026 85.0435 49.8591 84.9164 48.5328C84.8528 47.8567 84.5147 47.1633 84.1536 46.5709C83.5324 45.551 82.4517 45.3921 81.3798 45.473C80.25 45.5597 79.5248 46.2531 79.3196 47.3569C79.1174 48.4722 79.0249 49.6106 78.8804 50.7403Z" fill="url(#paint2_linear)"/>
<path d="M13.8287 52.3845C14.6811 53.6211 13.2942 54.7017 14.1061 55.8459C14.6146 55.8459 15.1636 55.8459 15.6461 55.8459C16.198 55.3808 16.3309 54.8433 16.3338 54.2452C16.3396 53.1906 16.3598 52.1389 16.3627 51.0842C16.3656 47.4927 16.3627 43.9012 16.3627 40.3097C16.3627 39.8358 16.3627 39.3649 16.3627 38.969C15.8629 38.5009 15.3601 38.7061 14.9007 38.657C14.4499 38.6078 13.9327 38.7841 13.5109 38.1802C13.6438 38.1022 13.7652 37.9693 13.8865 37.9693C16.3801 37.9317 18.8736 37.9028 21.3642 37.8942C21.5752 37.8942 21.7861 38.0357 22.1386 38.1629C21.2833 39.0124 20.2952 38.4258 19.4573 38.761C19.1423 39.1395 19.2954 39.6394 19.2926 40.0959C19.281 43.8781 19.2637 47.6632 19.3012 51.4454C19.3099 52.4769 19.0903 53.4333 18.7147 54.3637C18.1339 55.7968 17.0013 56.499 15.4872 56.5885C14.4326 56.6521 13.3866 56.6463 12.4158 56.0858C11.2369 55.4039 10.7573 54.329 11.1185 53.0375C11.3352 52.266 12.4071 51.7055 13.2191 51.9915C13.5167 52.0955 13.768 52.3411 13.8287 52.3845Z" fill="url(#paint3_linear)"/>
<path d="M94.9917 31C95.0437 31.1618 95.142 31.3236 95.142 31.4854C95.1477 41.971 95.1477 52.4566 94.9021 63C94.7981 62.8295 94.6305 62.6677 94.6045 62.4857C94.5525 62.1072 94.5756 61.72 94.5756 61.3386C94.5756 51.7487 94.5728 42.1617 94.5785 32.5718C94.5785 32.0604 94.6103 31.5461 94.6277 31.0347C94.749 31.0202 94.8704 31.0116 94.9917 31Z" fill="url(#paint4_linear)"/>
<path d="M106.821 56.1753C106.595 56.1638 106.457 56.158 106.156 56.1436C106.127 55.6899 106.087 55.2334 106.073 54.7769C106.058 54.303 106.07 53.8292 105.925 53.3264C105.564 54.2683 105.203 55.2132 104.83 56.1869C104.527 56.1638 104.301 56.1465 104.018 56.1262C103.643 55.0803 103.276 54.0603 102.842 52.8468C102.536 54.0748 103.004 55.1756 102.423 56.2967C102.204 56.08 101.941 55.9442 101.923 55.7824C101.779 54.4562 101.773 53.1299 101.944 51.7315C102.438 51.691 102.851 51.6592 103.38 51.6188C103.732 52.6647 104.07 53.676 104.472 54.8693C104.847 53.6962 105.154 52.7456 105.48 51.7228C105.942 51.6939 106.353 51.6679 106.685 51.6477C107.095 52.0291 107.136 54.4995 106.821 56.1753Z" fill="url(#paint5_linear)"/>
<path d="M120.014 47.7412C120.436 46.623 120.765 45.7504 121.123 44.8027C121.539 44.8027 121.95 44.8027 122.481 44.8027C122.669 46.2358 122.539 47.6516 122.565 49.1252C122.291 49.1859 122.08 49.2292 121.802 49.2899C121.476 48.1919 121.788 47.1257 121.565 45.9873C121.167 47.1459 120.806 48.1977 120.45 49.2292C119.583 49.1107 119.583 49.1107 118.618 46.675C118.485 47.5013 118.361 48.3306 118.208 49.1541C118.199 49.2032 117.957 49.209 117.827 49.235C117.5 48.2526 117.462 46.3225 117.74 44.8489C117.855 44.8113 117.988 44.7391 118.121 44.7333C118.358 44.7217 118.595 44.7535 118.907 44.7709C119.248 45.6897 119.592 46.6085 120.014 47.7412Z" fill="url(#paint6_linear)"/>
<path d="M101.819 44.716C102.605 44.716 103.125 44.6871 103.643 44.7218C104.899 44.8085 105.726 45.6002 105.818 46.7559C105.925 48.0966 105.327 48.9056 103.966 49.1628C103.374 49.2755 102.758 49.2755 102.024 49.3361C101.66 47.7759 101.912 46.3369 101.819 44.716ZM102.984 48.3017C103.946 48.374 104.261 48.2671 104.524 47.8105C104.804 47.328 104.761 46.4381 104.414 46.0393C104.027 45.5915 103.559 45.4904 102.984 45.7475C102.984 46.6317 102.984 47.4696 102.984 48.3017Z" fill="url(#paint7_linear)"/>
<path d="M101.923 37.8276C102.703 37.8276 103.333 37.7583 103.94 37.8421C105.2 38.0154 105.919 39.0007 105.821 40.3038C105.734 41.4827 104.85 42.3264 103.631 42.3437C103.111 42.3524 102.588 42.2628 101.909 42.205C101.785 40.8037 101.79 39.3994 101.923 37.8276ZM104.506 41.0782C104.865 39.0585 104.532 38.6164 103.004 38.8591C103.004 39.7202 103.004 40.587 103.004 41.6676C103.614 41.4278 104.064 41.2515 104.506 41.0782Z" fill="url(#paint8_linear)"/>
<path d="M113.943 37.8623C114.299 37.8623 114.57 37.8623 114.897 37.8623C115.359 38.7349 115.824 39.6103 116.422 40.7372C116.474 39.6479 116.515 38.8215 116.561 37.9027C116.876 37.8796 117.133 37.8623 117.552 37.8334C117.633 39.3156 117.624 40.7199 117.558 42.2339C117.093 42.2599 116.74 42.2801 116.347 42.3004C115.769 41.2313 115.226 40.2316 114.657 39.1769C114.307 40.2345 114.917 41.3584 114.221 42.3697C113.747 41.5231 113.672 40.1738 113.943 37.8623Z" fill="url(#paint9_linear)"/>
<path d="M113.319 51.8295C113.319 52.7657 113.305 53.6238 113.322 54.4791C113.348 55.7447 112.426 56.2647 111.377 56.2705C110.236 56.2792 109.609 55.6926 109.554 54.534C109.52 53.8203 109.543 53.1038 109.551 52.3872C109.554 52.2023 109.6 52.0202 109.638 51.7486C109.921 51.7255 110.184 51.7024 110.6 51.6677C110.638 52.861 110.672 53.9879 110.713 55.2621C111.161 55.3084 111.542 55.3488 111.869 55.3806C112.709 54.1902 112.158 52.9188 112.527 51.6822C112.787 51.7342 113.03 51.7775 113.319 51.8295Z" fill="url(#paint10_linear)"/>
<path d="M107.254 44.8459C109.56 44.5685 109.783 44.6523 110.418 46.0046C110.251 46.3311 110.057 46.7038 109.82 47.1603C110.022 47.7527 110.248 48.4114 110.502 49.154C110.173 49.206 109.959 49.2407 109.817 49.2638C109.095 48.7611 109.297 47.7122 108.323 47.3597C108.26 47.6949 108.196 47.9867 108.153 48.2843C108.112 48.5617 108.101 48.842 108.069 49.1858C107.806 49.1858 107.595 49.1858 107.301 49.1858C107.127 47.7382 107.185 46.3282 107.254 44.8459ZM108.182 45.629C108.225 46.0392 108.254 46.3311 108.286 46.6374C108.959 46.6662 109.286 46.4611 109.216 45.7388C108.901 45.7041 108.604 45.6723 108.182 45.629Z" fill="url(#paint11_linear)"/>
<path d="M108.835 41.3614C108.364 41.6099 108.303 42.5576 107.373 42.0462C107.812 40.6448 108.338 39.2493 108.962 37.8624C109.317 37.8421 109.595 37.8277 110.022 37.8046C110.589 39.1944 111.155 40.5928 111.724 41.9942C110.852 42.6067 110.635 41.7919 110.227 41.3614C109.762 41.3614 109.291 41.3614 108.835 41.3614ZM108.965 40.431C109.43 40.4021 109.681 40.3877 110.037 40.3675C109.817 39.8849 109.65 39.5209 109.427 39.0326C109.262 39.5295 109.15 39.8763 108.965 40.431Z" fill="url(#paint12_linear)"/>
<path d="M125.625 44.7679C126.079 44.7679 126.356 44.7679 126.72 44.7679C127.278 46.1809 127.833 47.588 128.393 49.0038C127.541 49.2754 127.541 49.2754 126.919 48.3046C126.446 48.3046 125.928 48.3046 125.359 48.3046C125.148 48.6022 124.906 48.9402 124.648 49.3014C124.429 49.2552 124.253 49.2176 123.915 49.1454C124.492 47.666 125.041 46.2589 125.625 44.7679ZM126.258 46.0566C125.908 46.5391 125.533 46.9697 125.943 47.5215C126.142 47.4897 126.318 47.458 126.642 47.406C126.503 46.9119 126.382 46.4842 126.258 46.0566Z" fill="url(#paint13_linear)"/>
<path d="M114.336 44.6899C114.955 46.2387 115.498 47.5967 116.073 49.0385C115.732 49.1627 115.529 49.2378 115.295 49.3245C115.05 48.972 114.836 48.6657 114.579 48.3017C114.108 48.3017 113.594 48.3017 113.094 48.3017C112.669 48.6426 112.643 49.4806 111.687 49.1945C111.86 47.6891 112.796 46.4322 113.157 44.9009C113.533 44.8344 113.883 44.7708 114.336 44.6899ZM114.322 47.5678C114.174 46.9379 114.151 46.4438 113.703 45.9959C113.553 46.5276 113.44 46.9206 113.305 47.4002C113.649 47.4551 113.909 47.4984 114.322 47.5678Z" fill="url(#paint14_linear)"/>
<path d="M115.683 52.8611C116.388 51.5031 116.847 51.3355 118.425 51.8816C118.39 52.0116 118.352 52.1446 118.318 52.2746C117.896 52.6907 116.96 51.9799 116.807 53.0547C117.593 53.7597 119.511 53.9071 118.433 55.7447C116.887 56.5364 116.477 56.5075 115.928 55.5714C116.382 55.0831 117.324 55.8545 117.636 54.8721C117.136 54.1209 115.795 54.1671 115.683 52.8611Z" fill="url(#paint15_linear)"/>
<path d="M126.382 40.6101C126.382 40.8528 126.382 41.0868 126.382 41.4105C126.902 41.5 127.44 41.5896 128.266 41.7312C127.833 41.9854 127.639 42.1935 127.431 42.2079C126.815 42.2542 126.194 42.2253 125.486 42.2253C125.252 40.8326 125.434 39.4226 125.382 37.9779C126.295 37.686 127.116 37.738 128.139 37.949C127.913 38.2466 127.809 38.5355 127.63 38.5904C127.278 38.7002 126.888 38.6829 126.431 38.7233C126.411 38.9718 126.394 39.1827 126.382 39.3301C126.856 39.7953 127.65 39.2665 127.916 40.0033C127.61 40.6621 126.934 40.2374 126.382 40.6101Z" fill="url(#paint16_linear)"/>
<path d="M123.14 37.9981C123.103 38.2148 123.077 38.3506 123.036 38.5875C122.351 38.5558 121.594 38.3391 121.063 39.0007C120.621 40.3559 120.641 40.4917 121.482 41.474C121.996 41.5376 122.551 41.607 123.337 41.7052C122.993 42.0144 122.808 42.3206 122.626 42.3206C122.016 42.3206 121.354 42.3409 120.808 42.1184C119.745 41.6821 119.309 40.1536 119.927 39.0152C120.181 38.5471 120.673 38.1512 121.144 37.871C121.739 37.5185 122.12 37.6052 123.14 37.9981Z" fill="url(#paint17_linear)"/>
<path d="M126.399 55.3315C126.997 55.4038 127.506 55.4644 128.029 55.528C127.757 56.2561 127.477 56.389 126.633 56.2388C125.359 56.0134 124.637 55.2275 124.596 54.0313C124.559 52.9362 125.296 51.9163 126.304 51.6649C127.203 51.4424 127.728 51.6129 128.052 52.3092C127.769 52.3612 127.512 52.4248 127.252 52.4508C125.836 52.5895 125.293 53.5892 125.963 54.849C126.053 55.0108 126.217 55.1322 126.399 55.3315Z" fill="url(#paint18_linear)"/>
<path d="M53.8324 39.3099C55.043 39.7607 55.462 40.2519 55.3031 41.0349C55.1586 41.7601 54.4969 42.3033 53.7775 42.2831C53.1389 42.2658 52.5148 41.7139 52.3934 41.0551C52.2403 40.2317 52.6246 39.7636 53.8324 39.3099Z" fill="url(#paint19_linear)"/>
<path d="M36.2128 39.281C37.2761 39.7578 37.2761 39.7578 37.7124 40.7373C37.2819 41.945 36.9178 42.2889 36.1175 42.2426C35.4096 42.2022 34.8462 41.685 34.7508 40.9915C34.6381 40.1738 34.9646 39.778 36.2128 39.281Z" fill="url(#paint20_linear)"/>
<path d="M121.47 51.7169C121.736 51.7169 121.915 51.7169 122.175 51.7169C122.429 53.1529 122.25 54.5601 122.294 56.0192C122.025 56.0943 121.817 56.1521 121.652 56.1984C121.245 55.8227 121.178 53.7713 121.47 51.7169Z" fill="url(#paint21_linear)"/>
</g>
<defs>
<linearGradient id="paint0_linear" x1="19.5873" y1="37.5736" x2="23.2883" y2="61.7622" gradientUnits="userSpaceOnUse">
<stop stop-color="#7EB7FE"/>
<stop offset="1" stop-color="#599EF4" stop-opacity="0.92"/>
</linearGradient>
<linearGradient id="paint1_linear" x1="56.4432" y1="44.7444" x2="59.1084" y2="59.7816" gradientUnits="userSpaceOnUse">
<stop stop-color="#7EB7FE"/>
<stop offset="1" stop-color="#599EF4" stop-opacity="0.92"/>
</linearGradient>
<linearGradient id="paint2_linear" x1="76.0665" y1="37.5647" x2="85.0772" y2="58.4532" gradientUnits="userSpaceOnUse">
<stop stop-color="#7EB7FE"/>
<stop offset="1" stop-color="#599EF4" stop-opacity="0.92"/>
</linearGradient>
<linearGradient id="paint3_linear" x1="11.0007" y1="37.8942" x2="20.7939" y2="57.2601" gradientUnits="userSpaceOnUse">
<stop stop-color="#7EB7FE"/>
<stop offset="1" stop-color="#599EF4" stop-opacity="0.92"/>
</linearGradient>
<linearGradient id="paint4_linear" x1="94.5705" y1="31" x2="97.0352" y2="31.1467" gradientUnits="userSpaceOnUse">
<stop stop-color="#7EB7FE"/>
<stop offset="1" stop-color="#599EF4" stop-opacity="0.92"/>
</linearGradient>
<linearGradient id="paint5_linear" x1="101.815" y1="51.6188" x2="103.344" y2="57.2825" gradientUnits="userSpaceOnUse">
<stop stop-color="#7EB7FE"/>
<stop offset="1" stop-color="#599EF4" stop-opacity="0.92"/>
</linearGradient>
<linearGradient id="paint6_linear" x1="117.554" y1="44.7308" x2="119.057" y2="50.2431" gradientUnits="userSpaceOnUse">
<stop stop-color="#7EB7FE"/>
<stop offset="1" stop-color="#599EF4" stop-opacity="0.92"/>
</linearGradient>
<linearGradient id="paint7_linear" x1="101.819" y1="44.7047" x2="103.684" y2="50.0729" gradientUnits="userSpaceOnUse">
<stop stop-color="#7EB7FE"/>
<stop offset="1" stop-color="#599EF4" stop-opacity="0.92"/>
</linearGradient>
<linearGradient id="paint8_linear" x1="101.82" y1="37.8007" x2="103.622" y2="43.0884" gradientUnits="userSpaceOnUse">
<stop stop-color="#7EB7FE"/>
<stop offset="1" stop-color="#599EF4" stop-opacity="0.92"/>
</linearGradient>
<linearGradient id="paint9_linear" x1="113.787" y1="37.8334" x2="115.652" y2="43.06" gradientUnits="userSpaceOnUse">
<stop stop-color="#7EB7FE"/>
<stop offset="1" stop-color="#599EF4" stop-opacity="0.92"/>
</linearGradient>
<linearGradient id="paint10_linear" x1="109.536" y1="51.6677" x2="111.464" y2="56.9414" gradientUnits="userSpaceOnUse">
<stop stop-color="#7EB7FE"/>
<stop offset="1" stop-color="#599EF4" stop-opacity="0.92"/>
</linearGradient>
<linearGradient id="paint11_linear" x1="107.186" y1="44.7178" x2="109.268" y2="49.7642" gradientUnits="userSpaceOnUse">
<stop stop-color="#7EB7FE"/>
<stop offset="1" stop-color="#599EF4" stop-opacity="0.92"/>
</linearGradient>
<linearGradient id="paint12_linear" x1="107.373" y1="37.8046" x2="108.971" y2="43.0455" gradientUnits="userSpaceOnUse">
<stop stop-color="#7EB7FE"/>
<stop offset="1" stop-color="#599EF4" stop-opacity="0.92"/>
</linearGradient>
<linearGradient id="paint13_linear" x1="123.915" y1="44.7679" x2="125.556" y2="50.1569" gradientUnits="userSpaceOnUse">
<stop stop-color="#7EB7FE"/>
<stop offset="1" stop-color="#599EF4" stop-opacity="0.92"/>
</linearGradient>
<linearGradient id="paint14_linear" x1="111.687" y1="44.6899" x2="113.425" y2="50.1575" gradientUnits="userSpaceOnUse">
<stop stop-color="#7EB7FE"/>
<stop offset="1" stop-color="#599EF4" stop-opacity="0.92"/>
</linearGradient>
<linearGradient id="paint15_linear" x1="115.683" y1="51.5908" x2="118.016" y2="56.6404" gradientUnits="userSpaceOnUse">
<stop stop-color="#7EB7FE"/>
<stop offset="1" stop-color="#599EF4" stop-opacity="0.92"/>
</linearGradient>
<linearGradient id="paint16_linear" x1="125.363" y1="37.7748" x2="127.57" y2="42.5476" gradientUnits="userSpaceOnUse">
<stop stop-color="#7EB7FE"/>
<stop offset="1" stop-color="#599EF4" stop-opacity="0.92"/>
</linearGradient>
<linearGradient id="paint17_linear" x1="119.643" y1="37.6493" x2="121.661" y2="42.9501" gradientUnits="userSpaceOnUse">
<stop stop-color="#7EB7FE"/>
<stop offset="1" stop-color="#599EF4" stop-opacity="0.92"/>
</linearGradient>
<linearGradient id="paint18_linear" x1="124.595" y1="51.5732" x2="126.75" y2="56.8196" gradientUnits="userSpaceOnUse">
<stop stop-color="#7EB7FE"/>
<stop offset="1" stop-color="#599EF4" stop-opacity="0.92"/>
</linearGradient>
<linearGradient id="paint19_linear" x1="52.3615" y1="39.3099" x2="53.4271" y2="42.8521" gradientUnits="userSpaceOnUse">
<stop stop-color="#7EB7FE"/>
<stop offset="1" stop-color="#599EF4" stop-opacity="0.92"/>
</linearGradient>
<linearGradient id="paint20_linear" x1="34.73" y1="39.281" x2="35.7878" y2="42.8168" gradientUnits="userSpaceOnUse">
<stop stop-color="#7EB7FE"/>
<stop offset="1" stop-color="#599EF4" stop-opacity="0.92"/>
</linearGradient>
<linearGradient id="paint21_linear" x1="121.291" y1="51.7169" x2="124.095" y2="53.8471" gradientUnits="userSpaceOnUse">
<stop stop-color="#7EB7FE"/>
<stop offset="1" stop-color="#599EF4" stop-opacity="0.92"/>
</linearGradient>
<clipPath id="clip0">
<rect width="117.393" height="32" fill="white" transform="translate(11 31)"/>
</clipPath>
</defs>
</svg>
