<svg width="140" height="94" viewBox="0 0 140 94" fill="none" preserveAspectRatio="xMidYMid meet" xmlns="http://www.w3.org/2000/svg">
<g style="mix-blend-mode:darken">
<path fill-rule="evenodd" clip-rule="evenodd" d="M0 0H140V94H0V0Z" />
</g>
<path fill-rule="evenodd" clip-rule="evenodd" d="M112.957 32H106.782V38.183H107.946V33.1702C109.622 33.1702 111.249 33.1702 112.874 33.1687C112.895 33.1687 112.919 33.1553 112.936 33.142C112.956 33.1272 112.969 33.1064 112.957 33.1197V32ZM127.677 48.8405C127.055 48.9922 126.485 49.1887 125.923 49.3826C125.754 49.4408 125.585 49.4988 125.417 49.5553C124.68 49.8015 123.913 49.9899 123.125 50.1693C122.72 49.6829 122.578 49.106 122.633 48.4504C123.293 48.1317 123.999 47.9369 124.709 47.7414C124.993 47.6632 125.277 47.5848 125.559 47.4983L125.599 47.4862C126.242 47.2899 126.908 47.0867 127.373 46.5432C127.373 46.4331 127.374 46.3237 127.375 46.2148C127.378 45.9748 127.381 45.7373 127.37 45.5006C127.343 44.9519 127.48 44.4414 127.62 43.9166L127.622 43.9077C127.721 43.5406 127.765 43.1423 127.809 42.7545L127.812 42.7286C127.908 41.8714 127.809 41.1907 127.502 40.3216C127.439 40.1441 127.371 39.9685 127.304 39.793L127.304 39.7929L127.304 39.7927L127.304 39.7926C127.191 39.5005 127.079 39.2088 126.989 38.9097C126.934 38.7281 126.929 38.5315 126.924 38.3792V38.379C126.923 38.3236 126.921 38.2741 126.918 38.2334C126.834 38.0235 126.761 37.8391 126.692 37.6668C126.629 37.5067 126.569 37.3571 126.51 37.2071C126.547 37.1935 126.584 37.1797 126.626 37.1642C126.68 37.1441 126.741 37.1213 126.82 37.0929C126.677 36.9906 126.562 36.909 126.446 36.8274C126.554 36.7191 126.624 36.6494 126.7 36.5753C126.732 36.6052 126.766 36.6346 126.8 36.6641L126.854 36.7117L127.026 36.5545C127.07 36.572 127.118 36.5861 127.167 36.6003C127.276 36.6319 127.388 36.6643 127.456 36.7369C127.727 37.031 128.014 37.3084 128.302 37.586C128.767 38.0351 129.233 38.4846 129.63 39.0061C129.781 39.204 129.938 39.398 130.095 39.5924L130.095 39.5926L130.096 39.5927L130.096 39.593L130.096 39.5931C130.342 39.8967 130.588 40.201 130.811 40.5218C131.256 41.1625 131.64 41.8373 131.88 42.5922C131.959 42.8414 131.951 43.0075 131.884 43.2537C131.85 43.3806 131.814 43.5075 131.777 43.6347L131.776 43.6354C131.583 44.3013 131.387 44.9763 131.579 45.7245C131.595 45.7347 131.615 45.7504 131.636 45.7678C131.692 45.8135 131.764 45.8715 131.837 45.8758C132.167 45.8912 132.466 46.0067 132.764 46.1221C132.895 46.1729 133.026 46.2237 133.16 46.2658C133.403 46.343 133.664 46.4408 133.611 46.8057C133.603 46.865 133.657 46.9335 133.709 46.9989C133.733 47.0284 133.756 47.0573 133.772 47.0845L132.931 47.488C132.52 47.685 132.114 47.8796 131.705 48.0752C131.618 48.4396 131.73 48.7493 131.839 49.0517L131.839 49.0518L131.839 49.0519C131.87 49.1384 131.901 49.2242 131.927 49.3106C131.982 49.4911 132.049 49.6684 132.116 49.8454L132.116 49.8455L132.116 49.8457L132.116 49.8458C132.219 50.1181 132.321 50.3899 132.38 50.6721C132.458 51.0488 132.503 51.4804 132.395 51.8378C132.294 52.1685 132.206 52.5027 132.117 52.8369L132.117 52.8373L132.117 52.8382C131.983 53.3446 131.849 53.8511 131.674 54.3457C131.339 55.292 130.999 56.2367 130.486 57.1058C130.384 57.2793 129.857 57.8458 129.669 58.0134C129.526 58.1391 129.394 58.2757 129.261 58.412C129.204 58.4703 129.148 58.5286 129.09 58.5859C128.985 58.3694 128.878 58.1499 128.754 57.8978C128.757 57.8928 128.764 57.8841 128.773 57.873C128.805 57.8342 128.862 57.7664 128.846 57.7272C128.654 57.2452 128.608 56.7825 128.838 56.2871C128.868 56.2237 128.827 56.1303 128.784 56.0344C128.742 55.9397 128.699 55.8425 128.722 55.7695C128.792 55.5515 128.761 55.3429 128.73 55.135C128.708 54.9922 128.687 54.8496 128.699 54.7046C128.731 54.3131 128.718 53.9171 128.703 53.5226C128.699 53.4053 128.704 53.2861 128.709 53.1666C128.726 52.7619 128.743 52.3554 128.41 52.0188C128.474 51.753 128.37 51.5307 128.264 51.3046C128.18 51.1257 128.095 50.9444 128.092 50.7374C128.088 50.422 127.955 50.1222 127.822 49.8233C127.776 49.7187 127.729 49.6143 127.689 49.5094C127.639 49.3836 127.652 49.2333 127.664 49.0733C127.671 48.9974 127.677 48.9192 127.677 48.8405ZM5.33627 52.6254V60.4858H4V50.0611H5.2547C6.10524 51.4537 6.96453 52.8599 7.83138 54.2784L7.84061 54.2935L7.84702 54.304C8.57121 55.4891 9.30067 56.6828 10.0347 57.8845V50.0493H11.3576V60.5006H10.1385C8.69055 58.1244 7.23883 55.7445 5.75158 53.3063L5.33627 52.6254ZM45.368 60.4903C44.4247 59.163 43.5037 57.8682 42.5813 56.572C42.6377 56.5564 42.6994 56.5416 42.7642 56.5261L42.7642 56.5261C42.9207 56.4887 43.0954 56.4469 43.259 56.3777L43.2949 56.3623C43.5778 56.241 43.8736 56.1143 44.0985 55.9165C44.361 55.6866 44.5894 55.3929 44.751 55.0844C44.9082 54.7863 45.0209 54.4393 45.0476 54.1056C45.0936 53.5183 45.1233 52.9162 45.0387 52.3378C44.9824 51.9492 44.7718 51.5502 44.5345 51.2269C44.2675 50.865 43.9427 50.5002 43.5052 50.3415C43.4625 50.326 43.4198 50.3103 43.377 50.2946C43.0091 50.1592 42.6348 50.0215 42.2283 50.0241C41.5898 50.0283 40.9506 50.0273 40.3112 50.0264C40.0372 50.026 39.7631 50.0256 39.489 50.0256H38.2551C38.1557 53.4382 38.1943 59.8719 38.3114 60.4963H39.5721C39.5721 59.1911 39.5721 57.9142 39.5735 56.6373C39.5735 56.6165 39.5884 56.5942 39.6017 56.5764C39.6126 56.5623 39.6266 56.5522 39.6392 56.5431L39.646 56.5381L39.6521 56.5334H40.9306C41.5672 57.4282 42.1954 58.3101 42.8093 59.1718L42.8122 59.1758L43.7485 60.4903H45.368ZM39.5973 55.2001V51.3559C39.7812 51.3559 39.9625 51.3548 40.142 51.3537H40.1423H40.1424C40.5404 51.3512 40.9294 51.3487 41.3177 51.3589C41.6892 51.3684 42.0593 51.3927 42.4395 51.4176C42.5965 51.4279 42.7552 51.4384 42.9164 51.4479C42.9544 51.4929 42.9907 51.5371 43.0262 51.5804L43.0263 51.5805C43.1044 51.6758 43.179 51.7667 43.2605 51.8513C43.5557 52.1568 43.7188 52.5469 43.7247 52.9888V53.1371V54.0329C43.7015 54.0793 43.681 54.1193 43.6626 54.1552C43.628 54.2226 43.6006 54.2759 43.5764 54.331C43.3154 54.9302 42.826 55.1838 42.2046 55.1957C41.6008 55.2071 40.9963 55.2047 40.3833 55.2022H40.3831C40.1229 55.2012 39.8611 55.2001 39.5973 55.2001ZM76.3706 60.3227V50.1724H77.0128C77.3446 50.1724 77.6763 50.1726 78.0081 50.1729C78.8376 50.1735 79.6671 50.1741 80.4966 50.1709C81.7528 50.1665 82.8058 50.6841 83.6007 51.5917C84.1717 52.2428 84.5351 53.0362 84.6938 53.9483C84.7746 54.412 84.778 54.8678 84.7813 55.3227V55.323C84.7833 55.5855 84.7852 55.8476 84.802 56.1107C84.8243 56.4474 84.4491 57.616 84.2132 58.0817C83.8528 58.7966 83.491 59.1392 82.8147 59.6434C82.1236 60.1596 81.3687 60.3805 80.5203 60.3761C79.6469 60.3713 78.7729 60.3721 77.899 60.3728H77.899H77.8989H77.8988H77.8988H77.8987H77.8986C77.4134 60.3732 76.9283 60.3736 76.4433 60.3731C76.432 60.3731 76.4202 60.363 76.404 60.3492C76.3946 60.3412 76.3837 60.3319 76.3706 60.3227ZM77.566 51.3559V59.1926C77.8963 59.1926 78.2246 59.1948 78.5514 59.1971L78.5518 59.1971C79.3459 59.2026 80.1311 59.208 80.9148 59.1807C81.4206 59.1629 81.9144 58.9508 82.3104 58.6364C83.1232 57.9898 83.4791 57.0732 83.6096 56.081C83.6793 55.5486 83.666 54.9954 83.6067 54.46C83.5696 54.1293 83.4939 53.7882 83.3338 53.4693C82.8977 52.6002 82.7835 52.4326 82.1147 51.8438C81.7661 51.5383 81.3435 51.3826 80.9089 51.3678C80.1187 51.3424 79.3285 51.3472 78.5312 51.352H78.5309H78.5305H78.5301H78.5297H78.5293H78.5289H78.5285H78.5281H78.5276H78.5272H78.5268H78.5264H78.526C78.2073 51.3539 77.8874 51.3559 77.566 51.3559ZM59.0036 56.3969H61.9994C61.98 56.4946 61.9634 56.5898 61.9473 56.6825L61.9473 56.6829L61.9472 56.6829L61.9472 56.683L61.9472 56.683L61.9472 56.6831L61.9472 56.6831C61.9093 56.9014 61.8736 57.1062 61.8081 57.2986C61.6969 57.6472 61.5263 57.9794 61.3098 58.2715C61.1704 58.4599 60.9642 58.6052 60.7685 58.7402C60.1767 59.1495 59.5242 59.3705 58.7945 59.3349L58.7715 59.3339C58.6798 59.3297 58.5882 59.3255 58.4978 59.3364C57.7622 59.4224 57.1126 59.1703 56.4868 58.8277C55.9262 58.5207 55.499 58.0654 55.1446 57.5478C54.3452 56.3791 54.4742 55.0903 54.6967 53.7956C55.2662 52.7871 55.8906 51.8735 57.0993 51.473C57.6851 51.2788 58.2442 51.2001 58.8375 51.2046C59.2379 51.2076 60.1367 51.4908 60.4763 51.7177L60.6936 51.8627L60.6965 51.8647C60.8231 51.9492 60.9353 52.024 61.0058 52.0707C61.3024 51.7815 61.5441 51.5457 61.8022 51.2936C61.7999 51.2907 61.7965 51.2853 61.792 51.2782C61.776 51.2532 61.7463 51.2067 61.7058 51.172C60.9049 50.4868 59.9795 50.0878 58.925 50.03C58.4014 50.0018 57.8779 50.0137 57.3529 50.1546L57.2653 50.1777C56.9826 50.2524 56.7045 50.3258 56.4289 50.4334C55.769 50.69 55.2706 51.1497 54.7797 51.6362C53.8276 52.5779 53.3471 53.7095 53.3678 55.0414C53.3699 55.1739 53.3676 55.3064 53.3652 55.4389C53.3575 55.8774 53.3498 56.3162 53.5013 56.7558C53.8958 57.9067 54.4801 58.9686 55.5435 59.6686C56.0344 59.9919 57.2076 60.5244 57.6332 60.514C57.8551 60.5086 58.0767 60.5119 58.2981 60.5152H58.2982H58.2982H58.2983H58.2983H58.2984H58.2984H58.2984H58.2985H58.2985H58.2986H58.2986H58.2987C58.8719 60.5236 59.4445 60.5321 60.021 60.3909C60.9984 60.1521 62.0706 59.4269 62.5675 58.5192C63.1325 57.4885 63.355 56.3895 63.2897 55.2119H59.1786C58.9601 55.4634 58.9787 55.7371 58.9979 56.0201C59.0063 56.1443 59.0149 56.2703 59.0036 56.3969ZM21.7794 60.5185H20.3378C20.1816 60.1109 20.024 59.699 19.864 59.2804L19.8631 59.2781C19.6891 58.8232 19.5121 58.3606 19.3308 57.8875H14.8444C14.611 58.5158 14.371 59.1631 14.1262 59.8233L14.1254 59.8255L13.8745 60.5022H12.4344C13.7781 57.0184 15.1173 53.5479 16.4669 50.0508H17.7379C18.789 52.771 19.8475 55.5134 20.9185 58.2882L20.9192 58.29L20.92 58.2921L20.9239 58.3022L20.9262 58.3082L21.7794 60.5185ZM17.909 54.1907L17.9081 54.1883L17.906 54.183C17.6355 53.4802 17.3654 52.7785 17.0913 52.0678L16.4447 53.7727C16.0966 54.6905 15.7518 55.5997 15.4035 56.5186H18.8058C18.504 55.7366 18.2087 54.9694 17.914 54.2037L17.9134 54.2022L17.909 54.1907ZM51.861 54.761H47.7558V51.3513H52.4453V50.0447H46.4299V60.4991H52.6263C52.6218 60.3299 52.623 60.1638 52.6242 59.9986V59.9984V59.9982V59.998V59.9978V59.9977V59.9975V59.9973V59.9971V59.9969V59.9967C52.6262 59.7207 52.6281 59.4468 52.604 59.1643H47.7469V56.075H51.861V54.761ZM35.716 50.0419H37.0508V51.2966C37.0508 51.8173 37.0505 52.3379 37.0503 52.8585V52.8586V52.8588V52.8589V52.8591V52.8592V52.8594V52.8596V52.8597V52.8599C37.0497 54.161 37.0491 55.4617 37.0523 56.7633C37.0538 57.4529 36.8521 58.0966 36.5658 58.7046C36.1164 59.6553 35.1984 60.2648 34.0979 60.5437C33.7909 60.6223 33.4988 60.6831 33.1918 60.6682C31.9756 60.6134 30.9212 60.1655 30.1855 59.1955C29.7569 58.6305 29.49 57.9423 29.49 57.1993C29.4877 55.4297 29.488 53.6601 29.4883 51.8607L29.4885 50.0359C29.7288 50.0233 29.971 50.0245 30.2231 50.0258H30.2232C30.4162 50.0267 30.615 50.0277 30.8233 50.0226V50.8427C30.8233 51.4635 30.8237 52.0842 30.8241 52.7048V52.7049V52.7051V52.7052V52.7054V52.7056V52.7057V52.7059V52.706V52.7062C30.825 54.1534 30.8259 55.6003 30.8218 57.048C30.8188 57.9468 31.2904 58.5875 31.9994 59.0309C32.4547 59.3157 33.0271 59.4284 33.5685 59.3275C34.0609 59.2356 34.5533 59.0665 34.9389 58.7106C35.2933 58.3828 35.4668 57.9749 35.5914 57.5003C35.7101 57.0465 35.716 56.6046 35.7175 56.1522C35.7184 54.946 35.7177 53.7393 35.717 52.5213V52.517V52.5128V52.5086V52.5044V52.5001V52.4958V52.4916V52.4873V52.483C35.7165 51.6754 35.716 50.8627 35.716 50.0419ZM94.2523 57.2749H93.2735C93.2543 58.1753 93.2557 58.1781 93.4555 58.5734L93.4574 58.577C94.1159 59.8703 95.1185 60.603 96.6268 60.5258C96.7435 60.5199 96.865 60.5299 96.9858 60.5399C97.1965 60.5572 97.4052 60.5744 97.5834 60.5066L97.6795 60.4703C98.4166 60.1925 99.1575 59.9132 99.6137 59.1614C100.054 58.4347 100.214 57.9601 100.082 57.1103C100.078 57.0821 100.079 57.0534 100.08 57.0248V57.0248V57.0247V57.0246V57.0246V57.0245V57.0244V57.0243V57.0243C100.081 57.0034 100.082 56.9825 100.081 56.962C100.045 56.2323 99.6315 55.7132 99.0516 55.3602C98.4465 54.9909 97.7821 54.7418 97.0717 54.5905C96.9565 54.5658 96.8407 54.5425 96.7248 54.5192C96.3468 54.4433 95.9665 54.3669 95.593 54.2375C95.1674 54.0892 94.893 53.8208 94.635 53.5227C94.4333 53.2913 94.3621 52.9517 94.4555 52.6491C94.5341 52.3911 94.6824 52.1434 94.8456 51.9254C95.4447 51.1215 97.0005 51.0014 97.831 51.516C98.0248 51.6359 98.15 51.7968 98.2762 51.959C98.378 52.0897 98.4804 52.2214 98.62 52.3332V53.1163H99.7413C99.8985 52.4978 99.7606 51.9046 99.4476 51.4181C98.9419 50.6306 98.1321 50.1649 97.22 50.0448C96.0202 49.8876 94.8901 50.1412 94.0388 51.1008C93.3788 51.8423 93.054 52.6684 93.4025 53.6739C93.6902 54.5045 94.0833 54.8574 94.9642 55.2193C95.3994 55.3974 95.849 55.5037 96.2984 55.6099C96.5412 55.6672 96.7839 55.7246 97.0242 55.7933C97.6575 55.9742 98.2715 56.1863 98.7179 56.7187C99.0249 57.0851 99.1065 57.5537 98.8959 58.0016C98.4732 58.8989 97.7984 59.3957 96.7706 59.3408C96.6659 59.3354 96.5577 59.3398 96.4496 59.3442H96.4496C96.2318 59.353 96.0147 59.3618 95.8274 59.2904C95.0651 58.9997 94.5282 58.4821 94.4392 57.6086C94.4299 57.5217 94.37 57.4405 94.3156 57.3667C94.292 57.3347 94.2694 57.304 94.2523 57.2749ZM64.4881 50.1739H65.6493C65.6518 50.2241 65.6547 50.2746 65.6576 50.3254L65.6576 50.3263L65.6577 50.3264C65.6653 50.4598 65.6731 50.595 65.6731 50.7301C65.6735 51.37 65.6721 52.0102 65.6707 52.6503V52.6505V52.6506V52.6507V52.6508V52.6509V52.6511V52.6512C65.6676 54.0803 65.6646 55.5096 65.682 56.9383C65.6938 57.8104 66.0883 58.5623 66.818 59.028C67.4557 59.4343 68.7579 59.5619 69.5261 59.0458C70.2336 58.5712 70.7097 57.9527 70.7126 57.0688C70.719 55.538 70.7178 54.0073 70.7166 52.4765C70.7161 51.8642 70.7156 51.2519 70.7156 50.6396V50.1932H71.9021V50.8294L71.9023 52.398V52.4123C71.9025 53.9788 71.9028 55.5453 71.9006 57.1118C71.8991 57.9305 71.5713 58.6542 71.1116 59.2934C70.723 59.8333 70.1194 60.1581 69.492 60.3672C68.7848 60.6025 68.2775 60.5398 67.3544 60.4257L67.168 60.4028C66.4977 60.3212 66.0097 59.9564 65.59 59.5767C65.1095 59.1422 64.8025 58.5059 64.6349 57.8459L64.6193 57.7849L64.6045 57.7275C64.5564 57.5425 64.5081 57.3563 64.491 57.1682C64.4734 56.9809 64.4775 56.7915 64.4816 56.6019C64.4833 56.5197 64.4851 56.4375 64.4851 56.3554C64.4881 54.3117 64.4881 52.2695 64.4881 50.1739ZM86.0078 50.196V60.3493H92.0603V59.1851H87.0326C87.0326 58.9424 87.033 58.7029 87.0334 58.4659C87.0345 57.7642 87.0355 57.0838 87.0267 56.4043C87.0237 56.1818 87.0979 56.0365 87.2892 55.9401C88.5988 55.9401 89.9083 55.9401 91.2179 55.9386C91.2402 55.9386 91.2639 55.9267 91.2817 55.9149C91.301 55.9015 91.3158 55.8808 91.3054 55.8911V54.7506H87.0623V51.3425H91.8912V50.196H86.0078ZM23.8764 51.3529H20.6107V50.0255H22.5684H24.5691C24.7666 50.0255 24.9642 50.0233 25.1619 50.0211H25.1619H25.162H25.162H25.162H25.1621C25.607 50.016 26.052 50.0109 26.4956 50.0315C26.697 50.0408 26.9008 50.0302 27.105 50.0197H27.105H27.105H27.1051H27.1051H27.1051C27.5519 49.9966 28.001 49.9733 28.4325 50.1575V51.1394C28.3079 51.3574 28.1211 51.3603 27.9149 51.3589C27.2722 51.3535 26.6295 51.3543 25.962 51.3552H25.962H25.962H25.962H25.962H25.962C25.7069 51.3555 25.4482 51.3559 25.1845 51.3559V52.0025L25.1848 53.7435C25.1853 55.7744 25.1859 57.8049 25.1801 59.8362C25.1801 59.8788 25.1842 59.9231 25.1884 59.9681C25.2068 60.1663 25.2264 60.3778 24.9013 60.5096H23.875C23.8764 57.4766 23.8764 54.4541 23.8764 51.3529ZM129.759 33.194V32.0104H135.904C136.006 32.6037 136.036 36.0845 135.95 38.1979H135.38H134.812V33.1954C133.115 33.194 131.468 33.194 129.759 33.194ZM106.768 54.6349V60.7957C108.874 60.7957 110.916 60.7957 112.99 60.7942C112.984 60.6392 112.986 60.4875 112.987 60.3368V60.3367V60.3366C112.99 60.0952 112.992 59.8563 112.965 59.6107H107.944C107.944 57.966 107.944 56.3464 107.943 54.7254C107.943 54.7046 107.932 54.6809 107.921 54.6616C107.909 54.6424 107.888 54.6275 107.895 54.6349H106.768ZM129.759 60.7957V59.6582H134.765V54.632H135.939V60.7942C133.904 60.7957 131.862 60.7957 129.759 60.7957ZM73.5587 60.3612H74.6992V50.1694C74.5363 50.1753 74.377 50.1736 74.2218 50.1719C73.9912 50.1695 73.7697 50.1671 73.5587 50.1901V60.3612Z" fill="url(#paint0_linear)"/>
<defs>
<linearGradient id="paint0_linear" x1="4" y1="32" x2="6.44435" y2="69.244" gradientUnits="userSpaceOnUse">
<stop stop-color="#7EB7FE"/>
<stop offset="1" stop-color="#599EF4" stop-opacity="0.92"/>
</linearGradient>
</defs>
</svg>
