<svg width="140" height="94" viewBox="0 0 140 94" fill="none" preserveAspectRatio="xMidYMid meet" xmlns="http://www.w3.org/2000/svg">
<path fill-rule="evenodd" clip-rule="evenodd" d="M38 34H102.239V60H38V34ZM51.2664 36.5105H44.2789L39.8134 57.4405H45.0914L47.9969 42.9585H48.0554L52.4364 57.4405H59.3914L63.8309 36.5105H58.5529L55.6149 51.025H55.5499L51.2664 36.5105ZM65.8915 36.5105H71.501L69.85 44.5185H76.48L78.131 36.5105H83.7405L79.392 57.4405H73.75L75.609 48.477H69.0115L67.1525 57.4405H61.5495L65.8915 36.5105ZM93.9 40.286C95.4826 40.2573 97.0512 40.5861 98.489 41.248L99.8215 37.075C98.411 36.4185 96.006 36.1455 93.406 36.1455C88.817 36.1455 84.0785 37.7705 84.0785 43.1655C84.0785 46.5338 86.719 47.5721 88.9894 48.4649C90.7017 49.1382 92.2035 49.7288 92.2035 51.1735C92.2035 53.3315 89.5645 53.663 87.738 53.663C85.9115 53.663 83.695 53.182 82.5835 52.4605L81.2835 56.718C83.3884 57.3825 85.5768 57.7457 87.7835 57.797C92.639 57.797 98.008 56.2955 98.008 50.5105C98.008 46.7346 95.1415 45.5937 92.8137 44.6671C91.2225 44.0338 89.883 43.5006 89.883 42.2945C89.883 40.6175 91.6835 40.286 93.9 40.286Z" fill="url(#paint0_linear)"/>
<g style="mix-blend-mode:darken">
<path fill-rule="evenodd" clip-rule="evenodd" d="M0 0H140V94H0V0Z" />
</g>
<defs>
<linearGradient id="paint0_linear" x1="38" y1="34" x2="42.0523" y2="67.2794" gradientUnits="userSpaceOnUse">
<stop stop-color="#7EB7FE"/>
<stop offset="1" stop-color="#599EF4" stop-opacity="0.92"/>
</linearGradient>
</defs>
</svg>
