<svg width="140" height="94" viewBox="0 0 140 94" fill="none" preserveAspectRatio="xMidYMid meet" xmlns="http://www.w3.org/2000/svg">
<path fill-rule="evenodd" clip-rule="evenodd" d="M61.324 43.1901V36H57.6199C57.5581 36.3593 57.5757 55.3326 57.637 55.5332H61.3271V55.185L61.327 53.4237C61.3268 51.8189 61.3266 50.2141 61.3277 48.6093C61.3281 48.016 61.3689 47.4263 61.5397 46.8537C61.8304 45.8793 62.4204 45.1759 63.3998 44.8478C64.0241 44.6386 64.6675 44.6244 65.3141 44.7303C65.6739 44.7892 66.0066 44.9172 66.3051 45.1315C66.8176 45.4994 67.051 46.032 67.1862 46.6227C67.311 47.1676 67.3224 47.7223 67.3227 48.2774C67.3234 49.5388 67.3234 50.8001 67.3235 52.0615C67.3235 53.1123 67.3235 54.163 67.3239 55.2138C67.3239 55.2863 67.3281 55.3588 67.3323 55.4317L67.3323 55.4318L67.3323 55.4324C67.3343 55.4664 67.3363 55.5006 67.3378 55.5349H71.0697L71.0697 55.2174L71.0697 53.4864C71.0698 51.4183 71.0698 49.3502 71.0691 47.2821L71.069 47.2084C71.0691 46.9648 71.0691 46.7207 71.0547 46.4778C71.0057 45.653 70.8804 44.8426 70.5701 44.0699C70.1003 42.9002 69.2965 42.076 68.1004 41.6487C67.3138 41.3679 66.4998 41.2946 65.6748 41.3203C64.0627 41.3704 62.6419 41.8904 61.4957 43.0667C61.4705 43.0925 61.4396 43.1128 61.3994 43.1392L61.3993 43.1392L61.3992 43.1393L61.3991 43.1394C61.377 43.1538 61.3522 43.1701 61.324 43.1901ZM93.2636 54.0473V55.6778C93.0352 55.7431 89.9752 55.7534 89.6744 55.6934V36.053C89.8759 35.9972 93.0162 35.9778 93.4618 36.0325V43.1934C93.4919 43.1714 93.5161 43.1549 93.536 43.1414C93.569 43.1188 93.5903 43.1044 93.6073 43.0861C94.5925 42.0244 95.8323 41.5001 97.2617 41.3993C98.5185 41.3107 99.7339 41.4891 100.857 42.0874C102.404 42.9119 103.476 44.1688 104.043 45.8082C104.743 47.8332 104.751 49.8878 103.936 51.88C103.071 53.9956 101.499 55.3582 99.2249 55.8383C98.1407 56.0672 97.048 56.0617 95.9675 55.7666C94.9892 55.4994 94.1777 54.9744 93.5122 54.2184C93.4711 54.1716 93.4287 54.1258 93.3864 54.08L93.329 54.0178L93.2636 54.0473ZM93.3064 48.7308C93.3064 48.7661 93.3058 48.8016 93.3051 48.837C93.3037 48.9134 93.3023 48.9899 93.3074 49.0659C93.3751 50.0822 93.7354 50.9679 94.5077 51.6597C95.2636 52.3369 96.1638 52.611 97.1703 52.5735C98.6439 52.5187 99.6799 51.8036 100.302 50.4922C100.656 49.7479 100.704 48.9534 100.629 48.1423C100.456 46.2541 99.0354 44.7973 97.0934 44.7617C95.9315 44.7405 94.9492 45.1256 94.1968 46.0323C93.5456 46.817 93.2982 47.7326 93.3064 48.7308ZM83.8203 55.7301H87.3488V41.8316C87.0069 41.7712 83.8593 41.7862 83.659 41.8484C83.6395 42.0895 83.6427 42.3323 83.6458 42.5758V42.5759V42.576V42.576V42.5761C83.6493 42.8481 83.6529 43.1211 83.6249 43.3937C83.6062 43.3905 83.5931 43.3889 83.5837 43.3878C83.5703 43.3861 83.5647 43.3854 83.5616 43.3823C83.504 43.3233 83.4466 43.2641 83.3909 43.2034C82.7329 42.4872 81.9333 42.0039 80.9904 41.7739C79.8618 41.4986 78.7278 41.5127 77.6194 41.8539C75.4223 42.5304 74.0512 44.0573 73.323 46.1944C72.9415 47.3138 72.8723 48.4757 72.9701 49.6519C73.051 50.6238 73.2687 51.5581 73.7095 52.4293C74.4511 53.8952 75.5592 54.9741 77.1021 55.5746C77.9699 55.9123 78.8741 56.0244 79.8013 55.9956C81.3384 55.9478 82.6388 55.3995 83.64 54.2029C83.6627 54.1758 83.6911 54.1533 83.7327 54.1202L83.7328 54.1202L83.7328 54.1202C83.757 54.101 83.7857 54.0783 83.8203 54.0491V55.7301ZM83.8044 48.5733C83.8149 48.68 83.8253 48.7867 83.8377 48.8931C83.7976 49.7419 83.6063 50.5352 83.0868 51.2222C82.4091 52.1183 81.5165 52.6053 80.3841 52.6351C79.3838 52.6615 78.503 52.3732 77.7858 51.6548C77.2723 51.1404 76.9453 50.5212 76.8123 49.8066C76.6336 48.8468 76.6823 47.9028 77.0692 46.9951C77.6323 45.674 78.9986 44.8725 80.4135 44.9265C82.2212 44.9954 83.4452 46.4265 83.7166 47.8823C83.7591 48.1102 83.7818 48.3417 83.8044 48.5733ZM55.1853 49.9747H45.243C45.2593 50.0249 45.2737 50.072 45.2875 50.1167L45.2876 50.1169L45.2876 50.117C45.3152 50.2069 45.34 50.2873 45.3707 50.3655C45.8257 51.5234 46.6772 52.2466 47.8952 52.5317C48.9922 52.7884 50.0621 52.6874 51.0786 52.1833C51.5336 51.9577 51.923 51.6459 52.2634 51.2744C52.2958 51.239 52.3231 51.199 52.3547 51.1525L52.3548 51.1524L52.3548 51.1524C52.3709 51.1287 52.3882 51.1034 52.4079 51.0761L54.8681 53.3274C54.6946 53.609 54.4696 53.8265 54.2453 54.042C53.4056 54.8488 52.4082 55.3845 51.2771 55.6753C49.7532 56.067 48.2133 56.116 46.6808 55.7581C44.5523 55.2611 42.9764 54.0487 42.009 52.1032C41.6194 51.3195 41.4263 50.4807 41.3462 49.6142C41.2524 48.5995 41.2995 47.5916 41.5783 46.6097C42.2112 44.3806 43.6213 42.8284 45.8366 42.0285C47.2551 41.5164 48.7209 41.4585 50.1891 41.7816C51.9473 42.1686 53.2645 43.1811 54.2103 44.6724C54.8355 45.6581 55.1414 46.7477 55.2269 47.9002C55.2487 48.1929 55.261 48.4874 55.2536 48.7806C55.247 49.0468 55.2291 49.3126 55.2102 49.592L55.2102 49.5921C55.2018 49.7166 55.1932 49.8437 55.1853 49.9747ZM45.2861 47.2713C45.7335 47.3276 51.267 47.3095 51.4845 47.251C51.3397 46.7031 51.1172 46.1954 50.7375 45.763C50.2682 45.2284 49.659 44.9598 48.9588 44.8769C47.9703 44.7598 47.0652 44.9537 46.2953 45.6078C45.7784 46.047 45.4588 46.6048 45.2861 47.2713ZM35.7799 55.5349H32V41.34H35.7713V43.3424L35.8357 43.3693C35.8536 43.3492 35.8717 43.3293 35.8899 43.3094L35.8899 43.3093C35.9296 43.2657 35.9694 43.2221 36.0062 43.176C36.6005 42.4322 37.3102 41.838 38.1974 41.4753C38.8647 41.2023 39.5612 41.0957 40.2793 41.1195C40.2963 41.1201 40.3131 41.1257 40.3341 41.1326C40.3453 41.1364 40.3578 41.1405 40.3721 41.1444V45.2601C40.3366 45.2601 40.3022 45.2604 40.2685 45.2607H40.2685C40.1976 45.2613 40.13 45.2619 40.0626 45.2596C39.5396 45.2418 39.0185 45.2334 38.4991 45.3271C37.0376 45.5905 36.1501 46.6809 35.8961 47.9393C35.8189 48.3219 35.787 48.7196 35.7849 49.1108C35.7769 50.6079 35.778 52.1052 35.7791 53.6025C35.7795 54.1304 35.7799 54.6582 35.7799 55.1861V55.5349ZM105.023 53.6612C105.021 54.9712 106.044 55.9959 107.358 56C108.652 56.0041 109.669 54.9857 109.674 53.6789C109.68 52.395 108.661 51.3543 107.393 51.3488C106.086 51.3432 105.025 52.3781 105.023 53.6612Z" fill="url(#paint0_linear)"/>
<g style="mix-blend-mode:darken">
<path fill-rule="evenodd" clip-rule="evenodd" d="M0 0H140V94H0V0Z" />
</g>
<defs>
<linearGradient id="paint0_linear" x1="32" y1="36" x2="34.0005" y2="61.8242" gradientUnits="userSpaceOnUse">
<stop stop-color="#7EB7FE"/>
<stop offset="1" stop-color="#599EF4" stop-opacity="0.92"/>
</linearGradient>
</defs>
</svg>
