<svg width="224" height="116" viewBox="0 0 224 116" fill="none" preserveAspectRatio="xMidYMid meet" xmlns="http://www.w3.org/2000/svg">
<path fill-rule="evenodd" clip-rule="evenodd" d="M173.56 0H50.096L0 58.1862L50.1001 116H173.556L223.472 58.3744L173.56 0ZM52.9401 5.85175H170.712L215.746 58.5463L170.724 110.517H52.9319L7.73415 58.3703L52.9401 5.85175ZM145.431 42.8775C147.567 42.8448 149.768 43.475 151.168 44.5226C154.454 46.9574 155.305 49.2858 155.309 55.8292V78.0127H148.062L148.07 56.1033C148.07 56.0001 148.07 55.8974 148.07 55.7951C148.073 53.9718 148.076 52.3084 147.223 51.0413C146.38 49.7769 144.711 49.2531 143.507 49.3063C140.807 49.4209 139.35 51.336 139.35 53.0751V78.0127H132.103V30.2369H139.35V44.8868C140.893 43.655 143.11 42.9103 145.431 42.8775ZM99.2345 55.289C98.2074 45.075 92.4088 42.8816 87.6496 42.8816C80.9058 42.8816 76.8014 47.1742 76.0607 55.2726C75.9952 55.9192 75.897 57.11 75.8602 60.9279C75.8379 63.4473 75.9805 65.5528 76.0347 66.3539L76.0348 66.3541L76.0454 66.5133L76.0484 66.5587C76.5067 74.121 80.8526 78.782 87.6496 78.782C94.4508 78.782 98.7803 74.0433 99.255 66.5587L99.2614 66.4549C99.3043 65.77 99.4432 63.5536 99.4432 60.9279C99.4432 59.6676 99.3245 56.2465 99.2345 55.289ZM92.2246 60.9279C92.2246 65.3643 92.0919 66.7766 92.0469 67.255L92.0405 67.324C91.7868 69.9184 90.6819 72.6642 87.6619 72.6642C84.646 72.6642 83.4224 69.7301 83.2915 67.2012C83.2833 67.1848 83.1032 65.6012 83.1032 60.9279C83.1032 56.2424 83.2874 54.2946 83.2915 54.2782C83.3283 51.6388 84.6951 48.9994 87.6619 48.9994C90.6287 48.9994 91.9995 51.6388 92.0364 54.2496L92.0366 54.2517C92.0445 54.3378 92.2246 56.294 92.2246 60.9279ZM176.281 67.3772C176.363 66.7306 176.351 66.1986 176.351 66.1986H183.308C182.849 74.121 178.45 78.782 171.886 78.782C165.306 78.782 160.907 73.9982 160.469 66.5587C160.466 66.5028 160.462 66.4267 160.456 66.332C160.409 65.5331 160.285 63.412 160.285 60.9279C160.285 57.1646 160.395 56.0822 160.469 55.3566L160.478 55.2767C161.28 47.1333 165.359 42.8816 171.886 42.8816C175.287 42.8816 178.156 44.2034 180.185 46.7077C181.941 48.8725 183.087 52.2199 183.308 55.2849C183.423 56.9844 183.461 57.9221 183.484 58.5141L183.488 58.6034L183.496 58.7918C183.541 60.2364 183.512 62.6425 183.512 62.6425H167.352C167.346 64.8709 167.427 65.905 167.483 66.6123V66.6124V66.6125V66.6127L167.483 66.6131C167.5 66.8367 167.515 67.0277 167.524 67.2135C167.725 69.9348 168.883 72.6642 171.886 72.6642C175.414 72.6642 176.077 69.0631 176.281 67.3772ZM167.441 55.3645L167.441 55.3671C167.432 55.6732 167.42 56.0726 167.401 56.623H176.445C176.454 56.1336 176.419 55.6639 176.376 55.0903V55.0901C176.357 54.8388 176.337 54.5676 176.318 54.2659C176.195 52.3795 175.377 48.9748 171.903 48.9994C168.969 49.0198 167.692 51.3892 167.487 54.2496C167.466 54.5468 167.459 54.7924 167.442 55.3591L167.441 55.3622L167.441 55.3645ZM70.8145 63.326C70.8145 63.326 71.5593 75.0622 71.5593 75.054C71.6207 76.7073 71.9276 78.0168 71.9317 78.0168H64.7745C64.7745 78.0168 64.4758 76.6704 64.4144 75.0991L63.6697 64.0012C63.2768 58.3417 60.6824 56.3284 58.3785 56.3284H54.3969L54.3928 78.0127H47.2397V30.6134H58.313C65.0896 30.687 70.8473 33.9403 70.88 43.2172C70.9087 49.3063 68.3715 52.224 66.4114 53.4025C69.1245 54.9862 70.4913 58.0798 70.8145 63.326ZM57.8261 36.7229H54.3969V50.2106H58.1739C62.5403 50.2106 63.461 46.5522 63.6697 44.453C63.6942 44.2074 63.7024 43.9783 63.7024 43.3358C63.7024 42.9539 63.6885 42.6931 63.6773 42.4828C63.6725 42.3912 63.6681 42.3092 63.6656 42.2309C63.5756 38.6994 61.5541 36.7229 57.8261 36.7229ZM120.325 67.0338C120.349 66.7169 120.379 66.313 120.403 65.8713H127.573C127.586 66.0031 127.572 66.1368 127.556 66.2984C127.547 66.3775 127.538 66.4632 127.532 66.5587C126.856 74.5098 122.969 78.8065 115.926 78.782C109.125 78.7656 104.783 74.121 104.321 66.5587C104.319 66.5302 104.317 66.4974 104.314 66.4607C104.263 65.7552 104.106 63.5689 104.137 60.9279C104.17 57.11 104.268 55.9192 104.333 55.2726C105.074 47.1742 109.182 42.8816 115.926 42.8816C120.685 42.8816 126.717 45.2796 127.532 55.1867C127.548 55.4199 127.568 55.8169 127.593 56.2956H120.424C120.386 55.1239 120.333 54.4923 120.318 54.307C120.315 54.273 120.313 54.254 120.313 54.2496C120.28 51.6388 118.995 48.9789 115.943 48.9993C112.972 49.0198 111.826 51.3155 111.568 54.2782C111.563 54.3418 111.557 54.4085 111.55 54.4801C111.479 55.2647 111.354 56.634 111.384 60.9279C111.391 61.8513 111.394 62.6181 111.397 63.2682C111.406 65.4445 111.41 66.3125 111.511 67.3649C111.732 69.6115 112.923 72.6642 115.943 72.6642C119.18 72.6642 120.108 69.8488 120.313 67.2012C120.317 67.1486 120.321 67.0927 120.325 67.0338Z" fill="url(#paint0_linear)"/>
<defs>
<linearGradient id="paint0_linear" x1="0" y1="0" x2="22.9707" y2="147.092" gradientUnits="userSpaceOnUse">
<stop stop-color="#447EC6"/>
<stop offset="0.53125" stop-color="#285D9D" stop-opacity="0.5"/>
<stop offset="1" stop-color="#194173" stop-opacity="0"/>
</linearGradient>
</defs>
</svg>
