<svg width="140" height="94" viewBox="0 0 140 94" preserveAspectRatio="xMidYMid meet" fill="none" xmlns="http://www.w3.org/2000/svg">
<g style="mix-blend-mode:darken">
<path fill-rule="evenodd" clip-rule="evenodd" d="M0 0H140V94H0V0Z" fill="#F1F0F3"/>
</g>
<path fill-rule="evenodd" clip-rule="evenodd" d="M89.919 29H50.1403L34 47.5594L50.1417 66H89.9177L106 47.6194L89.919 29ZM51.0567 30.8665H89.0014L103.511 47.6743L89.0053 64.251H51.054L36.4919 47.6182L51.0567 30.8665ZM80.856 42.6765C81.5443 42.6661 82.2536 42.8671 82.7045 43.2012C83.7632 43.9778 84.0374 44.7205 84.0387 46.8076V53.8834H81.7038L81.7064 46.8951L81.7065 46.7968C81.7074 46.2152 81.7082 45.6846 81.4335 45.2805C81.1619 44.8772 80.624 44.7101 80.2364 44.7271C79.3662 44.7636 78.8968 45.3745 78.8968 45.9292V53.8834H76.5619V38.6446H78.8968V43.3174C79.3939 42.9245 80.1085 42.6869 80.856 42.6765ZM65.9722 46.6352C65.6412 43.3773 63.773 42.6777 62.2397 42.6777C60.0669 42.6777 58.7445 44.0469 58.5058 46.63C58.4847 46.8363 58.4531 47.2161 58.4412 48.4339C58.4341 49.2375 58.48 49.9091 58.4975 50.1646V50.1646L58.5019 50.2299C58.6495 52.642 60.0497 54.1287 62.2397 54.1287C64.4309 54.1287 65.8258 52.6172 65.9788 50.2299L65.9808 50.1968C65.9947 49.9783 66.0394 49.2714 66.0394 48.4339C66.0394 48.0319 66.0012 46.9407 65.9722 46.6352ZM63.7137 48.4338C63.7137 49.8488 63.6709 50.2993 63.6564 50.4519L63.6543 50.4739C63.5726 51.3014 63.2166 52.1772 62.2436 52.1772C61.2719 52.1772 60.8777 51.2414 60.8355 50.4347C60.8329 50.4295 60.7749 49.9244 60.7749 48.4338C60.7749 46.9392 60.8342 46.3179 60.8355 46.3127C60.8474 45.4708 61.2877 44.6289 62.2436 44.6289C63.1995 44.6289 63.6411 45.4708 63.653 46.3036L63.6531 46.3043C63.6556 46.3317 63.7137 46.9556 63.7137 48.4338ZM90.7957 50.491C90.8221 50.2847 90.8182 50.115 90.8182 50.115H93.0595C92.9118 52.642 91.4945 54.1287 89.3797 54.1287C87.2597 54.1287 85.8424 52.6029 85.7013 50.2299L85.6971 50.1576C85.682 49.9028 85.642 49.2262 85.642 48.4339C85.642 47.2335 85.6775 46.8883 85.7013 46.6568L85.7039 46.6313C85.9623 44.0339 87.2768 42.6777 89.3797 42.6777C90.4754 42.6777 91.3996 43.0993 92.0535 43.8981C92.6192 44.5886 92.9883 45.6563 93.0595 46.6339C93.0966 47.176 93.1088 47.475 93.1165 47.6639V47.6639L93.1202 47.7525C93.1347 48.2133 93.1254 48.9808 93.1254 48.9808H87.9189C87.9169 49.6917 87.9431 50.0215 87.9609 50.2471L87.961 50.2474C87.9666 50.3187 87.9714 50.3795 87.9743 50.4388C88.0389 51.3067 88.412 52.1773 89.3797 52.1773C90.5162 52.1773 90.7298 51.0287 90.7957 50.491ZM87.9476 46.6592C87.9446 46.757 87.9407 46.8846 87.9347 47.0607H90.8485C90.8512 46.9045 90.84 46.7547 90.8262 46.5717C90.8202 46.4916 90.8136 46.4051 90.8076 46.3088C90.7681 45.7071 90.5044 44.6212 89.385 44.629C88.4397 44.6355 88.0283 45.3913 87.9624 46.3036C87.9556 46.3987 87.9532 46.4771 87.9476 46.6589L87.9476 46.6592ZM56.8156 49.1988C56.8156 49.1988 57.0556 52.9423 57.0556 52.9397C57.0753 53.467 57.1742 53.8847 57.1755 53.8847H54.8696C54.8696 53.8847 54.7733 53.4552 54.7536 52.954L54.5136 49.4142C54.387 47.609 53.5511 46.9668 52.8089 46.9668H51.526L51.5247 53.8834H49.2201V38.7646H52.7878C54.9711 38.7881 56.8261 39.8258 56.8367 42.7848C56.8459 44.727 56.0285 45.6577 55.397 46.0336C56.2711 46.5387 56.7114 47.5255 56.8156 49.1988ZM52.6309 40.7133H51.526V45.0154H52.7429C54.1497 45.0154 54.4464 43.8485 54.5136 43.1789C54.5215 43.1006 54.5241 43.0275 54.5241 42.8226C54.5241 42.7008 54.5197 42.6176 54.5161 42.5505C54.5145 42.5213 54.5131 42.4951 54.5123 42.4702C54.4833 41.3437 53.832 40.7133 52.6309 40.7133ZM72.7674 50.3816C72.775 50.2805 72.7847 50.1516 72.7925 50.0106H75.1024C75.1068 50.0527 75.1023 50.0953 75.0969 50.1469C75.0942 50.1721 75.0913 50.1995 75.0892 50.2299C74.8716 52.766 73.6191 54.1365 71.3501 54.1287C69.1588 54.1235 67.76 52.642 67.611 50.2299C67.6103 50.2208 67.6096 50.2104 67.6087 50.1987C67.5924 49.9736 67.5416 49.2763 67.5517 48.4339C67.5622 47.2161 67.5938 46.8363 67.6149 46.63C67.8536 44.0469 69.1773 42.6777 71.3501 42.6777C72.8834 42.6777 74.8268 43.4426 75.0892 46.6026C75.0944 46.677 75.101 46.8036 75.109 46.9563H72.799C72.7868 46.5826 72.7698 46.3811 72.7649 46.322C72.764 46.3112 72.7634 46.3051 72.7634 46.3037C72.7529 45.471 72.3389 44.6225 71.3554 44.6291C70.3982 44.6356 70.029 45.3678 69.9459 46.3128C69.9442 46.3331 69.9422 46.3544 69.9401 46.3772C69.9171 46.6275 69.8769 47.0643 69.8866 48.4339C69.8887 48.7284 69.8898 48.973 69.8907 49.1803C69.8938 49.8745 69.895 50.1514 69.9275 50.487C69.9987 51.2036 70.3823 52.1773 71.3554 52.1773C72.3982 52.1773 72.6975 51.2793 72.7634 50.4348C72.7647 50.4181 72.766 50.4003 72.7674 50.3816Z" fill="url(#paint0_linear_43_18)"/>
<defs>
<linearGradient id="paint0_linear_43_18" x1="34" y1="29" x2="41.257" y2="75.9394" gradientUnits="userSpaceOnUse">
<stop stop-color="#7EB7FE"/>
<stop offset="1" stop-color="#599EF4" stop-opacity="0.92"/>
</linearGradient>
</defs>
</svg>
