<?xml version="1.0" encoding="UTF-8"?>
<svg width="24px" height="29px" viewBox="0 0 24 29" version="1.1" xmlns="http://www.w3.org/2000/svg" xmlns:xlink="http://www.w3.org/1999/xlink">
    <!-- Generator: Sketch 51.2 (57519) - http://www.bohemiancoding.com/sketch -->
    <title>Group 7</title>
    <desc>Created with Sketch.</desc>
    <defs></defs>
    <g id="Symbols" stroke="none" stroke-width="1" fill="none" fill-rule="evenodd">
        <g id="Group-36" fill="#FEFEFE">
            <g id="Group-7" transform="translate(0.000000, 0.608000)">
                <path d="M23.0601,16.7178 C23.4701,17.9578 23.6601,18.7678 23.6601,20.3078 C23.6601,21.8478 23.4701,22.6578 23.0601,23.8878 C22.7301,24.8878 22.6301,25.3778 22.6301,26.4978 C22.6301,27.3478 21.9301,28.0378 21.0901,28.0378 C20.2401,28.0378 19.5501,27.3478 19.5501,26.4978 C19.5501,24.9578 19.7301,24.1478 20.1401,22.9178 C20.4701,21.9178 20.5801,21.4278 20.5801,20.3078 C20.5801,19.1878 20.4701,18.6978 20.1401,17.6978 C19.7301,16.4578 19.5501,15.6478 19.5501,14.1078 C19.5501,12.5778 19.7301,11.7678 20.1401,10.5278 C20.4701,9.5278 20.5801,9.0378 20.5801,7.9178 C20.5801,6.7978 20.4701,6.3078 20.1401,5.3078 C19.7301,4.0778 19.5501,3.2678 19.5501,1.7278 C19.5501,0.8778 20.2401,0.1878 21.0901,0.1878 C21.9301,0.1878 22.6301,0.8778 22.6301,1.7278 C22.6301,2.8378 22.7301,3.3378 23.0601,4.3378 C23.4701,5.5678 23.6601,6.3778 23.6601,7.9178 C23.6601,9.4578 23.4701,10.2678 23.0601,11.4978 C22.7301,12.5078 22.6301,12.9978 22.6301,14.1078 C22.6301,15.2278 22.7301,15.7178 23.0601,16.7178" id="Fill-1"></path>
                <path d="M14.46,12.1075 C13.54,13.0275 13.37,13.3475 13.37,14.1075 C13.37,14.8775 13.54,15.1975 14.46,16.1175 C15.82,17.4775 16.46,18.4475 16.46,20.3075 C16.46,22.1675 15.82,23.1375 14.46,24.4875 C13.54,25.4175 13.37,25.7375 13.37,26.4975 C13.37,27.3475 12.68,28.0375 11.83,28.0375 C10.98,28.0375 10.29,27.3475 10.29,26.4975 C10.29,24.6375 10.93,23.6675 12.29,22.3075 C13.21,21.3875 13.38,21.0675 13.38,20.3075 C13.38,19.5375 13.21,19.2175 12.29,18.2975 C10.93,16.9475 10.29,15.9675 10.29,14.1075 C10.29,12.2475 10.93,11.2775 12.29,9.9275 C13.21,9.0075 13.38,8.6875 13.38,7.9175 C13.38,7.1475 13.21,6.8375 12.29,5.9075 C10.93,4.5575 10.29,3.5875 10.29,1.7275 C10.29,0.8775 10.98,0.1875 11.83,0.1875 C12.68,0.1875 13.37,0.8775 13.37,1.7275 C13.37,2.4875 13.54,2.8075 14.46,3.7275 C15.82,5.0875 16.46,6.0575 16.46,7.9175 C16.46,9.7775 15.82,10.7475 14.46,12.1075" id="Fill-3"></path>
                <path d="M3.0801,14.1075 C3.0801,14.6075 3.3501,14.9575 4.9101,15.8875 C7.2101,17.2675 8.2401,18.2375 8.2401,20.3075 C8.2401,22.3775 7.2101,23.3375 4.9101,24.7175 C3.3501,25.6575 3.0801,25.9975 3.0801,26.4975 C3.0801,27.3475 2.3901,28.0375 1.5401,28.0375 C0.6901,28.0375 0.0001,27.3475 0.0001,26.4975 C0.0001,24.4275 1.0201,23.4575 3.3301,22.0775 C4.8801,21.1475 5.1601,20.8075 5.1601,20.3075 C5.1601,19.8075 4.8801,19.4675 3.3301,18.5275 C1.0201,17.1475 0.0001,16.1775 0.0001,14.1075 C0.0001,12.0375 1.0201,11.0775 3.3301,9.6975 C4.8801,8.7575 5.1601,8.4175 5.1601,7.9175 C5.1601,7.4175 4.8801,7.0775 3.3301,6.1375 C1.0201,4.7575 0.0001,3.7975 0.0001,1.7275 C0.0001,0.8775 0.6901,0.1875 1.5401,0.1875 C2.3901,0.1875 3.0801,0.8775 3.0801,1.7275 C3.0801,2.2275 3.3501,2.5675 4.9101,3.4975 C7.2101,4.8775 8.2401,5.8475 8.2401,7.9175 C8.2401,9.9875 7.2101,10.9575 4.9101,12.3375 C3.3501,13.2675 3.0801,13.6175 3.0801,14.1075" id="Fill-5"></path>
            </g>
        </g>
    </g>
</svg>