<?xml version="1.0" encoding="UTF-8"?>
<svg width="235px" height="28px" viewBox="0 0 235 28" version="1.1" xmlns="http://www.w3.org/2000/svg" xmlns:xlink="http://www.w3.org/1999/xlink">
    <!-- Generator: Sketch 51.2 (57519) - http://www.bohemiancoding.com/sketch -->
    <title>Group 36</title>
    <desc>Created with Sketch.</desc>
    <defs>
        <path d="M196.139913,0.570424619 L196.139913,6.13202884 C195.278111,5.4430959 194.251156,5.09812802 193.061049,5.09812802 C191.935002,5.09812802 190.962098,5.41200868 190.142335,6.02873904 C189.335585,6.63443845 188.713006,7.47379343 188.283607,8.55482649 C187.870222,9.59574701 187.659026,10.7991233 187.659026,12.1699695 C187.659026,14.3039569 188.123458,15.981664 189.016288,17.2171304 C189.956162,18.5197852 191.224341,19.1696084 192.819825,19.1696084 C193.841775,19.1696084 194.702576,18.9329444 195.410234,18.4766642 C195.714517,18.2781072 195.992776,18.0534769 196.246011,17.8007679 L196.285048,18.4335433 L196.783511,18.9048657 L197.745406,18.9048657 L198.24487,18.4034589 L198.24487,0.713826964 L197.808464,0.216431419 L196.704438,0.0720262603 L196.139913,0.570424619 Z M190.701856,15.9596021 C190.097293,15.0470417 189.813029,13.7554178 189.813029,12.0977669 C189.813029,10.4802286 190.125319,9.20966377 190.785934,8.30211747 C191.396502,7.4637653 192.20125,7.03957515 193.205183,7.03957515 C194.392287,7.03957515 195.364191,7.60215358 196.139913,8.69221196 L196.139913,15.0701064 C195.732534,15.7750844 195.28712,16.3135953 194.794662,16.675611 C194.304205,17.0336155 193.692637,17.2040938 192.963959,17.2040938 C192.003066,17.2040938 191.251367,16.7869233 190.701856,15.9596021 Z M146.437693,0.216431419 L146.002288,0.713826964 L146.002288,18.4034589 L146.502753,18.9048657 L147.607781,18.9048657 L148.108246,18.4034589 L148.108246,9.39017022 C148.636738,8.63906284 149.190253,8.05241688 149.773795,7.63123517 C150.345327,7.21907878 151.000936,7.01550762 151.739623,7.01550762 C152.390228,7.01550762 152.894697,7.19400844 153.225005,7.60115076 C153.584339,8.04339156 153.737481,8.71627948 153.737481,9.59574701 L153.737481,18.4034589 L154.237947,18.9048657 L155.342974,18.9048657 L155.84344,18.4034589 L155.84344,9.45134185 C155.84344,8.0835041 155.496117,7.03355826 154.84351,6.28144807 C154.172886,5.50827878 153.201983,5.09812802 151.90778,5.09812802 C150.481453,5.09812802 149.212273,5.62460516 148.108246,6.70162696 L148.108246,0.570424619 L147.542721,0.0720262603 L146.437693,0.216431419 Z M126.178854,0.216431419 L125.742448,0.713826964 L125.742448,16.4299217 C125.742448,17.3314511 125.993681,17.9973193 126.438095,18.4535995 C126.894519,18.918905 127.512093,19.1696084 128.308834,19.1696084 C128.810301,19.1696084 129.321776,19.0522792 129.841259,18.8095984 L130.1005,18.1798314 L129.787209,17.3384708 L129.145612,17.0426408 C128.900384,17.132894 128.661162,17.1800263 128.00355,17.0356211 C127.882438,16.8902131 127.849407,16.6635773 127.849407,16.3827894 L127.849407,0.570424619 L127.283881,0.0720262603 L126.178854,0.216431419 Z M79.7596869,0.216431419 L79.324282,0.713826964 L79.324282,16.4299217 C79.324282,17.3314511 79.5745147,17.9973193 80.019929,18.4535995 C80.4753525,18.918905 81.0939277,19.1696084 81.8896677,19.1696084 C82.3921349,19.1696084 82.9026096,19.0522792 83.4220927,18.8095984 L83.6813338,18.1798314 L83.3680425,17.3384708 L82.7264458,17.0426408 C82.4812178,17.132894 82.2429963,17.1800263 81.5833829,17.0356211 C81.4632712,16.8902131 81.4302404,16.6635773 81.4302404,16.3827894 L81.4302404,0.570424619 L80.8647145,0.0720262603 L79.7596869,0.216431419 Z M3.17246608,1.76678124 C2.37172144,2.15386729 1.75414714,2.68335287 1.31473852,3.35022392 C0.868323387,4.02411465 0.643113958,4.79026424 0.643113958,5.64766987 C0.643113958,6.92926565 1.05349558,7.9360905 1.84523185,8.68418945 C2.58091598,9.37813646 3.83007762,10.0119147 5.60973257,10.5554396 C6.58764196,10.8612978 7.35135216,11.1701644 7.89485758,11.4850478 C8.37430343,11.7618244 8.72963387,12.0887416 8.94683585,12.4748249 C9.16603969,12.8689306 9.2671337,13.3703374 9.2671337,13.975034 C9.2671337,14.948766 8.94883771,15.7239409 8.28922432,16.2895278 C7.60358672,16.8761737 6.70675273,17.1559587 5.61173443,17.1559587 C4.7589414,17.1559587 4.01524981,17.0235873 3.38266155,16.7518249 C2.74106491,16.4740455 2.11448223,16.0578778 1.50291351,15.5043247 L0.79625637,15.540426 L0.122629943,16.2865193 L0.153658798,16.9884889 C0.903355965,17.6894556 1.72111643,18.224958 2.60593925,18.6010131 C3.49576673,18.978071 4.5057059,19.1696084 5.63475584,19.1696084 C6.75980206,19.1696084 7.75372634,18.9540035 8.61853055,18.5288106 C9.50835803,18.0915838 10.1969984,17.4698394 10.6874545,16.6675885 C11.1739069,15.8683461 11.4201358,14.9638082 11.4201358,13.9509665 C11.4201358,12.9351163 11.2199497,12.0947585 10.8385951,11.4268846 C10.4522358,10.7509883 9.88370708,10.1944267 9.12700339,9.76121125 C8.4283537,9.36108863 7.50649643,8.98403072 6.35742788,8.63404877 C5.39052873,8.3412272 4.64083156,8.05241688 4.11133917,7.75959531 C3.64690728,7.50287503 3.30258709,7.2130619 3.09339255,6.87611653 C2.88920267,6.54418523 2.7961161,6.12500914 2.7961161,5.62360234 C2.7961161,4.90257937 3.05735904,4.31994467 3.58785236,3.88071231 C4.15638106,3.40938992 4.9150866,3.18877093 5.85095689,3.18877093 C6.55060752,3.18877093 7.17318648,3.29506917 7.71969469,3.51368253 C8.27421035,3.73630715 8.83873532,4.1013313 9.41427053,4.60574654 L10.1149221,4.56362837 L10.7865467,3.81753505 L10.7465094,3.1055374 C10.029843,2.47276202 9.30016442,2.00043681 8.55747377,1.68455053 C7.80677567,1.36465299 6.89793051,1.19918875 5.82793549,1.19918875 C4.83200934,1.19918875 3.94818745,1.39072614 3.17246608,1.76678124 Z M104.582771,1.43986401 L104.083306,1.94127081 L104.083306,8.7323245 L96.8685971,8.7323245 L96.8685971,1.94127081 L96.3671307,1.43986401 L95.2390817,1.43986401 L94.7386163,1.94127081 L94.7386163,18.4034589 L95.2390817,18.9048657 L96.3671307,18.9048657 L96.8685971,18.4034589 L96.8685971,10.7459742 L104.083306,10.7459742 L104.083306,18.4034589 L104.582771,18.9048657 L105.735843,18.9048657 L106.237309,18.4034589 L106.237309,1.94127081 L105.735843,1.43986401 L104.582771,1.43986401 Z M174.998252,5.95051958 L174.707982,6.58429777 L175.020273,7.47379343 L175.674882,7.77463751 C176.872996,7.30431794 177.946994,7.06364267 178.902883,7.06364267 C179.793712,7.06364267 180.45833,7.22609848 180.849694,7.6332408 C181.24306,8.04138593 181.40521,8.69822884 181.40521,9.57067667 L181.40521,10.3929838 L179.335285,10.3929838 C177.632702,10.3929838 176.29646,10.7870896 175.308541,11.543211 C174.273578,12.3344309 173.742084,13.4535709 173.742084,14.9136675 C173.742084,16.2052914 174.145459,17.2311698 174.924183,18.0013306 C175.698904,18.7694858 176.746878,19.1696084 178.086124,19.1696084 C179.611542,19.1696084 180.851696,18.6511538 181.80258,17.6132417 C181.904675,17.869962 182.032794,18.0875726 182.181933,18.2670762 C182.521248,18.6752213 183.013706,18.9770682 183.675321,19.1525606 L184.278883,18.827649 L184.542127,18.0334206 L184.250857,17.4066621 C184.002626,17.310392 183.815452,17.1649841 183.701346,16.9574016 C183.560214,16.7006814 183.51217,16.27248 183.51217,15.6838284 L183.51217,9.49847409 C183.51217,8.05141407 183.121807,6.97138382 182.39413,6.23431583 C181.669456,5.49825064 180.549414,5.09812802 178.998973,5.09812802 C177.79185,5.09812802 176.457609,5.37991864 174.998252,5.95051958 Z M176.518666,16.6284788 C176.106283,16.2153196 175.92011,15.6296764 175.92011,14.8896 C175.92011,14.0342 176.190361,13.3773571 176.773904,12.9461472 C177.409495,12.4758277 178.325346,12.2622284 179.503442,12.2622284 L181.40521,12.2622284 L181.40521,15.2205285 C181.044875,15.8763686 180.60947,16.3757698 180.089987,16.7127151 C179.556491,17.0586858 178.935914,17.2281613 178.230258,17.2281613 C177.506585,17.2281613 176.930049,17.041638 176.518666,16.6284788 Z M162.301445,5.99865463 C161.484686,6.58830903 160.851096,7.42866682 160.411688,8.53075897 C159.989295,9.58571887 159.775096,10.8151683 159.775096,12.2181046 C159.775096,14.3801707 160.289574,16.0608863 161.280496,17.2762964 C162.304448,18.5308162 163.703749,19.1696084 165.487408,19.1696084 C166.342203,19.1696084 167.115922,19.0272089 167.811569,18.7484267 C168.498208,18.4736558 169.169832,18.0614994 169.822439,17.5109547 L169.897509,16.8230246 L169.344995,16.1009988 L168.639339,16.0097428 C168.107845,16.4249076 167.605377,16.7277573 167.131937,16.9142807 C166.671509,17.0937843 166.140015,17.1800263 165.536453,17.1800263 C164.507497,17.1800263 163.668717,16.8240274 163.028121,16.0969876 C162.429564,15.4190856 162.086245,14.4152692 161.965132,13.1055946 L169.932542,13.1055946 L170.431005,12.6533257 C170.464036,12.3153775 170.481052,11.9694068 170.481052,11.6164164 C170.481052,9.62182016 170.026629,8.05743095 169.152816,6.90820657 C168.244972,5.71285275 166.933753,5.09812802 165.19914,5.09812802 C164.095113,5.09812802 163.129215,5.40097773 162.301445,5.99865463 Z M162.958056,8.14166729 C163.55361,7.40861055 164.316319,7.03957515 165.248185,7.03957515 C166.278143,7.03957515 167.062873,7.37852614 167.581355,8.09553787 C168.07081,8.77343986 168.332053,9.67196084 168.387104,10.7840811 L161.961129,11.1781869 C162.07023,9.85748136 162.391529,8.83962556 162.958056,8.14166729 Z M111.924598,7.02954701 C110.92667,8.26902462 110.409189,9.96979648 110.409189,12.145902 C110.409189,14.3049597 110.917662,15.9957034 111.898574,17.235181 C112.913518,18.5177796 114.310817,19.1696084 116.09848,19.1696084 C117.885141,19.1696084 119.285443,18.5137683 120.309395,17.2231472 C121.298315,15.9756471 121.811793,14.2648471 121.811793,12.0736994 C121.811793,9.87854045 121.304321,8.1867939 120.330415,6.98141196 C119.32548,5.73391184 117.92718,5.09812802 116.122502,5.09812802 C114.354858,5.09812802 112.95856,5.74694842 111.924598,7.02954701 Z M113.523085,15.9646162 C112.868476,15.0721121 112.562191,13.7925219 112.562191,12.145902 C112.562191,10.4712033 112.874481,9.18158499 113.543103,8.29610059 C114.165682,7.46978218 115.029485,7.06364267 116.122502,7.06364267 C117.227529,7.06364267 118.091333,7.45875123 118.7009,8.27103025 C119.354507,9.14147245 119.657789,10.4150457 119.657789,12.0736994 C119.657789,13.765446 119.345499,15.067098 118.676877,15.9606049 C118.053297,16.793943 117.191496,17.2040938 116.09848,17.2040938 C114.994453,17.2040938 114.131651,16.7969515 113.523085,15.9646162 Z M67.3321302,5.99865463 C66.5153706,6.58830903 65.8817814,7.42866682 65.4433738,8.53075897 C65.020981,9.58571887 64.8067818,10.8151683 64.8067818,12.2181046 C64.8067818,14.3801707 65.3222611,16.0608863 66.3131826,17.2762964 C67.3361339,18.5308162 68.7344342,19.1696084 70.5200948,19.1696084 C71.3738887,19.1696084 72.1476082,19.0272089 72.8442561,18.7484267 C73.5298937,18.4736558 74.2015182,18.0614994 74.8541251,17.5109547 L74.9291949,16.8230246 L74.3756802,16.1009988 L73.6720258,16.0097428 C73.1395307,16.4249076 72.6370634,16.7277573 72.1636231,16.9142807 C71.703195,17.0937843 71.1706998,17.1800263 70.5681394,17.1800263 C69.5391826,17.1800263 68.7014035,16.8240274 68.0608078,16.0969876 C67.4602493,15.4190856 67.117931,14.4152692 66.9968184,13.1055946 L74.9642275,13.1055946 L75.4616901,12.6533257 C75.4947208,12.3153775 75.5117366,11.9694068 75.5117366,11.6164164 C75.5117366,9.62182016 75.058315,8.05743095 74.1855033,6.90820657 C73.2776591,5.71285275 71.9654388,5.09812802 70.2318267,5.09812802 C69.1257982,5.09812802 68.1609009,5.40097773 67.3321302,5.99865463 Z M67.9897417,8.14166729 C68.5842946,7.40861055 69.3480048,7.03957515 70.2788704,7.03957515 C71.3088282,7.03957515 72.0945589,7.37852614 72.6130411,8.09553787 C73.1024962,8.77343986 73.3627382,9.67196084 73.4197913,10.7840811 L66.9928146,11.1781869 C67.1019161,9.85748136 67.4222139,8.83962556 67.9897417,8.14166729 Z M39.9927064,5.86828886 C39.5052531,6.19620891 39.057837,6.60435404 38.6494573,7.09472989 C38.4242478,6.61037093 38.117963,6.2102483 37.7346065,5.88834513 C37.1110266,5.36788488 36.338308,5.09812802 35.4074424,5.09812802 C34.5256224,5.09812802 33.70586,5.34080891 32.9501573,5.82717351 C32.578812,6.06684596 32.231489,6.35264783 31.9091893,6.68758757 L31.8711539,5.81814818 L31.3706885,5.33880328 L30.4107959,5.33880328 L29.9103305,5.84021008 L29.9103305,18.4034589 L30.4107959,18.9048657 L31.5148225,18.9048657 L32.0162889,18.4034589 L32.0162889,9.37713365 C32.4877273,8.62702907 32.9891936,8.0393803 33.5276944,7.62020422 C34.0441747,7.21907878 34.6137043,7.01550762 35.239286,7.01550762 C35.7837924,7.01550762 36.2141926,7.19501125 36.5144719,7.58009168 C36.8537874,8.01832122 36.9969205,8.69822884 36.9969205,9.59574701 L36.9969205,18.4034589 L37.496385,18.9048657 L38.6024135,18.9048657 L39.1028789,18.4034589 L39.1028789,9.37713365 C39.5743173,8.62702907 40.0757836,8.0393803 40.6142844,7.62020422 C41.1307647,7.21907878 41.7002943,7.01550762 42.3258761,7.01550762 C42.8713834,7.01550762 43.3007827,7.19501125 43.600061,7.58009168 C43.9403774,8.01832122 44.0835105,8.69822884 44.0835105,9.59574701 L44.0835105,18.4034589 L44.5839759,18.9048657 L45.6890035,18.9048657 L46.1894689,18.4034589 L46.1894689,9.45134185 C46.1894689,8.10656882 45.8581609,7.06263986 45.234581,6.30350996 C44.5819741,5.50928159 43.6731289,5.09812802 42.4940324,5.09812802 C41.5931947,5.09812802 40.7584184,5.35384549 39.9927064,5.86828886 Z M16.3347061,5.95051958 L16.0454371,6.58429777 L16.3577275,7.47379343 L17.0123362,7.77463751 C18.2094494,7.30431794 19.2854501,7.06364267 20.241339,7.06364267 C21.1321674,7.06364267 21.7947836,7.22609848 22.1871484,7.6332408 C22.5805142,8.04138593 22.743666,8.69822884 22.743666,9.57067667 L22.743666,10.3929838 L20.6737411,10.3929838 C18.9721587,10.3929838 17.6339142,10.7870896 16.6459955,11.543211 C15.6110331,12.3344309 15.0805398,13.4535709 15.0805398,14.9136675 C15.0805398,16.2052914 15.4839149,17.2311698 16.262639,18.0013306 C17.0373595,18.7694858 18.086335,19.1696084 19.4245794,19.1696084 C20.949998,19.1696084 22.1901512,18.6511538 23.1410355,17.6132417 C23.2431304,17.869962 23.3702486,18.0875726 23.5203883,18.2670762 C23.8587029,18.6752213 24.3521617,18.9770682 25.013777,19.1525606 L25.6163373,18.827649 L25.8805831,18.0334206 L25.5873104,17.4066621 C25.3400804,17.310392 25.1539073,17.1649841 25.0388003,16.9574016 C24.897669,16.7006814 24.8496244,16.27248 24.8496244,15.6838284 L24.8496244,9.49847409 C24.8496244,8.05141407 24.4592613,6.97138382 23.7315847,6.23431583 C23.0079117,5.49825064 21.8868692,5.09812802 20.3364274,5.09812802 C19.1293048,5.09812802 17.7950641,5.37991864 16.3347061,5.95051958 Z M17.8571218,16.6284788 C17.4437374,16.2153196 17.2575643,15.6296764 17.2575643,14.8896 C17.2575643,14.0342 17.5288165,13.3773571 18.1123592,12.9461472 C18.7479502,12.4758277 19.662801,12.2622284 20.8408965,12.2622284 L22.743666,12.2622284 L22.743666,15.2205285 C22.3833309,15.8763686 21.947926,16.3757698 21.4284429,16.7127151 C20.8939458,17.0586858 20.2723678,17.2281613 19.5687135,17.2281613 C18.8450405,17.2281613 18.2675034,17.041638 17.8571218,16.6284788 Z M141.450055,5.33880328 L140.975614,5.68377116 L137.598473,15.9766499 L134.117236,5.67875709 L133.641794,5.33880328 L132.441678,5.33880328 L131.974243,6.01971372 L136.709647,18.4034589 C136.427384,19.1375184 136.166141,19.7161419 135.922915,20.1383264 C135.689698,20.5444659 135.3694,20.8814113 134.964023,21.1501653 C134.526616,21.4399784 133.929061,21.6836621 133.173358,21.8912445 L132.813023,22.4568314 L132.957157,23.3232624 L133.563721,23.7283991 C134.593679,23.4887266 135.422449,23.1527841 136.05704,22.7326052 C136.709647,22.2993897 137.243143,21.7518535 137.658529,21.0889937 C138.050894,20.4602295 138.425242,19.6369196 138.776569,18.6150525 L143.124612,6.0036687 L142.650171,5.33880328 L141.450055,5.33880328 Z M59.1495209,5.33880328 L58.6480546,5.84021008 L58.6480546,14.8755606 C58.1966348,15.642713 57.6931666,16.2283562 57.1326453,16.6204563 C56.5791306,17.0095479 55.9705647,17.2040938 55.3059466,17.2040938 C54.5952858,17.2040938 54.0437729,17.0336155 53.6774322,16.6415154 C53.2970785,16.2323674 53.1399324,15.5815414 53.1399324,14.7211273 L53.1399324,5.84021008 L52.639467,5.33880328 L51.5344394,5.33880328 L51.033974,5.84021008 L51.033974,14.8173974 C51.033974,16.2082999 51.4023165,17.2652654 52.0919579,18.0103559 C52.7946113,18.7694858 53.7865337,19.1696084 55.0897456,19.1696084 C56.0866727,19.1696084 56.9694936,18.9259247 57.7382085,18.4435714 C58.1165603,18.2069074 58.467887,17.9140858 58.7911877,17.5610954 L58.8172119,18.4195039 L59.3166763,18.9048657 L60.2535476,18.9048657 L60.7550139,18.4034589 L60.7550139,5.84021008 L60.2535476,5.33880328 L59.1495209,5.33880328 Z" id="path-1"></path>
    </defs>
    <g id="Symbols" stroke="none" stroke-width="1" fill="none" fill-rule="evenodd">
        <g id="TempLogo">
            <g id="Group-36">
                <g id="Group-7" fill="#FEFEFE">
                    <path d="M23.0296866,16.6758991 C23.4391459,17.9127912 23.6288953,18.720761 23.6288953,20.2569012 C23.6288953,21.7930414 23.4391459,22.6010112 23.0296866,23.8279284 C22.7001218,24.825422 22.6002537,25.3141939 22.6002537,26.4313868 C22.6002537,27.2792564 21.9011769,27.967527 21.0622848,27.967527 C20.2134058,27.967527 19.5243159,27.2792564 19.5243159,26.4313868 C19.5243159,24.8952466 19.7040785,24.0872768 20.1135377,22.8603596 C20.4431025,21.8628659 20.5529574,21.3740941 20.5529574,20.2569012 C20.5529574,19.1397083 20.4431025,18.6509365 20.1135377,17.6534428 C19.7040785,16.4165507 19.5243159,15.6085809 19.5243159,14.0724407 C19.5243159,12.5462754 19.7040785,11.7383056 20.1135377,10.5014135 C20.4431025,9.50391984 20.5529574,9.01514796 20.5529574,7.89795509 C20.5529574,6.78076222 20.4431025,6.29199034 20.1135377,5.29449671 C19.7040785,4.06757954 19.5243159,3.25960969 19.5243159,1.7234695 C19.5243159,0.875599911 20.2134058,0.187329304 21.0622848,0.187329304 C21.9011769,0.187329304 22.6002537,0.875599911 22.6002537,1.7234695 C22.6002537,2.83068743 22.7001218,3.32943425 23.0296866,4.32692788 C23.4391459,5.55384505 23.6288953,6.36181489 23.6288953,7.89795509 C23.6288953,9.43409528 23.4391459,10.2420651 23.0296866,11.4689823 C22.7001218,12.4764509 22.6002537,12.9652227 22.6002537,14.0724407 C22.6002537,15.1896335 22.7001218,15.6784054 23.0296866,16.6758991" id="Fill-1"></path>
                    <path d="M14.4409291,12.0771542 C13.5221424,12.9948483 13.3523666,13.3140463 13.3523666,14.0721414 C13.3523666,14.8402115 13.5221424,15.1594095 14.4409291,16.0771036 C15.7991354,17.433695 16.4382913,18.4012638 16.4382913,20.256602 C16.4382913,22.1119401 15.7991354,23.0795089 14.4409291,24.4261253 C13.5221424,25.3537944 13.3523666,25.6729924 13.3523666,26.4310875 C13.3523666,27.2789571 12.6632767,27.9672277 11.8143977,27.9672277 C10.9655188,27.9672277 10.2764288,27.2789571 10.2764288,26.4310875 C10.2764288,24.5757494 10.9155847,23.6081806 12.273791,22.2515892 C13.1925777,21.3338951 13.3623535,21.0146971 13.3623535,20.256602 C13.3623535,19.4885319 13.1925777,19.1693339 12.273791,18.2516398 C10.9155847,16.9050233 10.2764288,15.9274796 10.2764288,14.0721414 C10.2764288,12.2168033 10.9155847,11.2492344 12.273791,9.90261804 C13.1925777,8.9849239 13.3623535,8.66572594 13.3623535,7.89765584 C13.3623535,7.12958574 13.1925777,6.82036272 12.273791,5.89269364 C10.9155847,4.54607723 10.2764288,3.57850841 10.2764288,1.72317025 C10.2764288,0.875300663 10.9655188,0.187030056 11.8143977,0.187030056 C12.6632767,0.187030056 13.3523666,0.875300663 13.3523666,1.72317025 C13.3523666,2.48126541 13.5221424,2.80046337 14.4409291,3.71815752 C15.7991354,5.07474886 16.4382913,6.04231768 16.4382913,7.89765584 C16.4382913,9.752994 15.7991354,10.7205628 14.4409291,12.0771542" id="Fill-3"></path>
                    <path d="M3.07603773,14.0721414 C3.07603773,14.5708882 3.34568164,14.920011 4.90362419,15.8476801 C7.20059078,17.2242213 8.22923234,18.1917901 8.22923234,20.256602 C8.22923234,22.3214138 7.20059078,23.2790077 4.90362419,24.6555489 C3.34568164,25.5931929 3.07603773,25.9323407 3.07603773,26.4310875 C3.07603773,27.2789571 2.38694776,27.9672277 1.5380688,27.9672277 C0.689189845,27.9672277 9.98681125e-05,27.2789571 9.98681125e-05,26.4310875 C9.98681125e-05,24.3662757 1.01875462,23.3987069 3.32570802,22.0221657 C4.87366376,21.0944966 5.15329448,20.7553488 5.15329448,20.256602 C5.15329448,19.7578551 4.87366376,19.4187073 3.32570802,18.4810633 C1.01875462,17.1045221 9.98681125e-05,16.1369532 9.98681125e-05,14.0721414 C9.98681125e-05,12.0073296 1.01875462,11.0497357 3.32570802,9.67319451 C4.87366376,8.73555049 5.15329448,8.39640266 5.15329448,7.89765584 C5.15329448,7.39890902 4.87366376,7.05976119 3.32570802,6.12211717 C1.01875462,4.74557596 9.98681125e-05,3.78798207 9.98681125e-05,1.72317025 C9.98681125e-05,0.875300663 0.689189845,0.187030056 1.5380688,0.187030056 C2.38694776,0.187030056 3.07603773,0.875300663 3.07603773,1.72317025 C3.07603773,2.22191707 3.34568164,2.5610649 4.90362419,3.48873398 C7.20059078,4.8652752 8.22923234,5.83284402 8.22923234,7.89765584 C8.22923234,9.96246766 7.20059078,10.9300365 4.90362419,12.3065777 C3.34568164,13.2342468 3.07603773,13.5833695 3.07603773,14.0721414" id="Fill-5"></path>
                </g>
                <g id="Group-10" transform="translate(36.641266, 3.856975)">
                    <mask id="mask-2" fill="white">
                        <use xlink:href="#path-1"></use>
                    </mask>
                    <use id="Clip-9" fill="#FFFFFF" xlink:href="#path-1"></use>
                </g>
            </g>
        </g>
    </g>
</svg>