<svg width="193" height="184" viewBox="0 0 193 184" fill="none" preserveAspectRatio="xMidYMid meet" xmlns="http://www.w3.org/2000/svg">
<path fill-rule="evenodd" clip-rule="evenodd" d="M188.106 76.7131C183.981 80.6117 179.857 84.5089 175.597 88.2606C173.143 90.4249 172.914 92.4679 173.602 95.5223C178.328 116.438 173.885 135.034 157.783 149.645C153.165 153.832 151.796 157.44 152.962 163.245C153.842 167.579 154.227 172.012 154.611 176.444C154.769 178.265 154.928 180.087 155.12 181.902C155.155 182.235 155.1 182.577 155.028 183.029C154.988 183.281 154.943 183.567 154.904 183.904C154.525 183.749 154.17 183.612 153.834 183.481C153.176 183.226 152.587 182.999 152.025 182.718C150.768 182.09 149.511 181.465 148.253 180.839C142.805 178.128 137.357 175.417 131.966 172.59C130.233 171.687 129.006 171.822 127.395 172.826C118.616 178.308 109.102 181.794 98.7183 182.3C86.4738 182.886 75.2608 179.522 65.2279 172.476C63.6299 171.356 62.4634 171.262 60.744 172.058C55.4151 174.509 50.0433 176.871 44.6731 179.232C42.9834 179.975 41.2939 180.718 39.606 181.463C38.949 181.754 38.2743 182.003 37.3874 182.33C36.9362 182.497 36.4302 182.684 35.8436 182.906C36.0958 181.115 36.3316 179.407 36.5601 177.752C36.9732 174.76 37.362 171.944 37.7788 169.131C37.8744 168.488 37.9678 167.844 38.0612 167.2C38.4814 164.301 38.9017 161.403 39.5251 158.545C40.1184 155.821 39.3498 154.089 37.2124 152.248C26.0534 142.626 18.8388 130.712 17.0588 115.865C16.162 108.428 16.8025 101.098 19.0748 93.9715C19.7086 91.9757 19.3782 90.7014 18.0027 89.2045C13.6041 84.4179 9.26563 79.5672 4.7089 74.4725C3.16783 72.7495 1.60179 70.9986 0 69.2127C0.692978 69.0619 1.30685 68.9209 1.87014 68.7916C2.91819 68.5509 3.79113 68.3504 4.67262 68.2013C6.35646 67.9224 8.03949 67.6356 9.7226 67.3488C14.8735 66.4712 20.0253 65.5935 25.2038 64.9379C27.6177 64.6345 28.5953 63.5692 29.4651 61.5194C36.7404 44.3865 48.7355 32.3442 67.1225 27.5705C71.0872 26.5389 75.2608 26.0601 79.3671 25.8781C81.7337 25.7769 82.9069 24.9543 83.9925 23.0125C86.7429 18.1028 89.5914 13.248 92.4392 8.39429C93.3264 6.88222 94.2135 5.37025 95.0975 3.85676C95.4789 3.20415 95.8816 2.56485 96.4078 1.72962C96.7188 1.23594 97.0729 0.6738 97.4912 0C98.6045 2.14718 99.701 4.20732 100.769 6.2149C103.143 10.6754 105.379 14.8765 107.356 19.1962C109.324 23.4912 111.698 25.46 116.856 26.1073C139.504 28.9527 155.464 40.9073 163.569 62.6792C163.993 63.8254 165.571 65.0053 166.819 65.2953C172.082 66.5389 177.374 67.6499 182.667 68.7608C184.921 69.2339 187.175 69.7071 189.426 70.1904C190.056 70.3273 190.674 70.529 191.291 70.7309C191.586 70.8272 191.881 70.9236 192.177 71.013L192.178 71.0139C192.454 71.3777 192.731 71.7415 193 72.1053C191.363 73.6355 189.734 75.1744 188.106 76.7131ZM95.2462 17.7567C94.1598 19.5533 93.1819 21.1707 92.0094 22.6214C89.69 25.487 90.0001 27.9818 92.4342 30.6451C92.883 30.0729 93.3302 29.5023 93.7847 28.9224C94.6959 27.7598 95.6361 26.5602 96.6753 25.2375C97.1199 26.0042 97.535 26.7203 97.9663 27.4645C98.6275 28.6053 99.3268 29.8118 100.229 31.3665C100.533 30.5485 100.909 29.7793 101.257 29.0693C101.935 27.6843 102.503 26.5249 102.204 25.6691C101.314 23.1427 100.01 20.7657 98.6265 18.2442C98.0604 17.2125 97.481 16.1565 96.9113 15.0562C96.3094 15.9982 95.7654 16.8979 95.2462 17.7567ZM17.1964 76.8994C18.6448 78.4106 19.946 79.7681 21.0234 81.282C23.181 84.2959 25.6421 84.4914 28.9797 82.8328C28.2518 81.9247 27.5499 81.0482 26.8118 80.1265C26.1414 79.2892 25.4411 78.4147 24.6644 77.4454C25.274 77.2682 25.852 77.1003 26.4218 76.9348C28.0203 76.4704 29.5554 76.0244 31.5486 75.4429C30.861 74.9724 30.2295 74.4405 29.6417 73.9453C28.4773 72.9645 27.4844 72.128 26.5658 72.1997C23.9096 72.4051 21.2873 73.0506 18.5141 73.7332C17.3733 74.014 16.207 74.301 15.0023 74.5663C15.7623 75.4032 16.4965 76.1693 17.1964 76.8994ZM48.2119 168.975C50.2391 168.193 52.1279 167.463 54.0823 167.028C57.7705 166.212 58.3909 163.838 58.3032 160.534C57.4147 160.769 56.5595 160.993 55.7002 161.219C54.4078 161.558 53.1063 161.9 51.6685 162.281C51.8078 161.098 51.9358 159.995 52.0595 158.929C52.1692 157.984 52.2755 157.068 52.3832 156.152C52.2518 156.037 52.1203 155.924 51.9889 155.811C51.8573 155.698 51.7258 155.585 51.5943 155.471C51.1367 155.84 50.6026 156.184 50.0684 156.527C48.8866 157.287 47.704 158.047 47.3465 159.092C46.5514 161.415 46.1881 163.889 45.7951 166.565C45.6281 167.702 45.4558 168.875 45.2428 170.089C46.2771 169.722 47.2598 169.343 48.2119 168.975ZM133.875 162.334C134.357 163.819 134.746 165.016 135.56 165.497C137.739 166.793 140.139 167.718 142.724 168.715C143.81 169.133 144.929 169.565 146.078 170.041C145.96 169.008 145.849 168.023 145.742 167.074C145.483 164.785 145.248 162.7 144.986 160.622C144.501 156.752 143.786 156.098 139.673 155.606H139.666V162.004C138.948 161.774 138.255 161.553 137.533 161.322C136.222 160.904 134.815 160.454 132.984 159.867C133.353 160.727 133.627 161.569 133.875 162.334ZM153.318 144.342C156.212 140.612 159.153 136.822 161.256 132.654C166.084 123.066 167.122 112.608 167.284 101.988C167.358 96.736 165.274 92.8118 160.764 90.8699C157.344 89.4022 153.698 88.453 150.055 87.5048C148.628 87.1331 147.201 86.7616 145.788 86.3591C145.058 86.1511 144.302 86.0319 143.476 85.9014C143.097 85.8415 142.702 85.7793 142.289 85.7051C143.585 84.6021 144.863 83.5627 146.111 82.5482C148.783 80.3752 151.314 78.3171 153.576 75.9958C158.498 70.9388 158.727 67.2978 155.241 61.243C154.291 59.5978 153.232 58.0065 152.079 56.5029C143.637 45.5665 132.242 39.107 119.459 34.4884C113.748 32.4319 109.163 33.6793 105.515 37.8327C103.305 40.3568 101.496 43.2307 99.6873 46.1029C98.9354 47.297 98.1837 48.4909 97.4035 49.6592C96.9903 50.279 96.6309 50.9318 96.2776 51.5736C96.1005 51.8952 95.9249 52.2142 95.7448 52.5248C95.0329 50.8797 94.3657 49.2576 93.7093 47.6619C92.2645 44.1497 90.8723 40.7649 89.1708 37.5428C86.8783 33.2208 83.1092 31.0496 77.9444 32.4588C77.0001 32.7187 76.0431 32.9383 75.0867 33.1578C73.537 33.5134 71.9891 33.8686 70.5006 34.394C57.5952 38.9722 47.9466 47.6971 39.6667 58.3369C36.437 62.4904 35.7425 66.8596 38.0687 71.1276C39.8276 74.3573 42.1141 77.3001 44.3971 80.2384C45.2646 81.3549 46.1316 82.4707 46.9689 83.6014C47.4327 84.229 47.9978 84.7798 48.5627 85.3306C48.8354 85.5964 49.108 85.8622 49.3693 86.1366L49.0659 87.0064C48.6303 87.0064 48.1915 86.987 47.7524 86.9676C46.798 86.9254 45.8428 86.8831 44.9192 87.0401C44.0426 87.1895 43.1639 87.3336 42.2845 87.4778C38.5576 88.0892 34.8204 88.7022 31.198 89.717C28.0155 90.6137 25.8174 93.1624 25.7028 96.6416C25.6952 96.868 25.6876 97.0946 25.6799 97.3214C25.5367 101.559 25.3914 105.859 25.9994 110.019C27.7727 122.176 33.5714 132.539 41.0085 142.161C43.955 145.977 47.6432 147.919 52.0393 146.813C55.8505 145.86 59.5293 144.364 63.206 142.868C64.577 142.31 65.9477 141.753 67.3248 141.224C68.0128 140.959 68.6604 140.593 69.5337 140.1C69.9955 139.84 70.5204 139.543 71.1478 139.208C70.8918 140.028 70.6466 140.724 70.4289 141.342C70.0275 142.481 69.7198 143.355 69.6105 144.251C69.4638 145.459 69.3034 146.667 69.143 147.876C68.5884 152.055 68.0328 156.243 68.0328 160.427C68.0328 164.108 70.6017 166.846 74.3304 167.864C88.8472 171.815 103.465 172.476 118.076 168.538C125.493 166.542 128.103 163.238 128.318 155.599C128.42 152.13 128.182 148.648 127.93 144.97C127.813 143.258 127.694 141.503 127.604 139.686C127.959 139.919 128.289 140.147 128.605 140.365C129.258 140.816 129.851 141.224 130.483 141.547C131.558 142.095 132.627 142.659 133.696 143.222C136.668 144.789 139.638 146.355 142.747 147.575C146.442 149.018 150.238 148.317 152.787 145.026C152.964 144.798 153.141 144.57 153.318 144.342ZM166.553 84.3164C167.956 84.314 169.359 84.3116 170.176 83.6149C172.114 81.9769 173.756 79.9858 175.513 77.8553C176.244 76.969 176.995 76.0586 177.795 75.1395C176.718 74.9308 175.688 74.7627 174.699 74.6011C172.587 74.2561 170.657 73.941 168.835 73.3257C165.18 72.0918 163.245 73.6831 161.64 76.7307C162.933 77.0945 164.177 77.4443 165.464 77.806C166.371 78.0612 167.3 78.3223 168.282 78.5984C167.465 79.639 166.739 80.5673 166.053 81.4445C165.481 82.1759 164.937 82.8718 164.391 83.5677C164.464 83.7617 164.54 83.9557 164.617 84.1522C164.648 84.2289 164.678 84.306 164.708 84.3836C165.287 84.3185 165.92 84.3175 166.553 84.3164ZM147.474 94.875C151 93.2298 155.646 93.749 157.858 96.0482C160.056 98.3272 160.946 102.184 158.984 104.699C156.833 107.45 154.122 109.951 151.209 111.88C144.999 115.986 144.696 116.532 147.083 123.531C147.973 126.154 148.681 128.918 148.93 131.669C149.288 135.647 146.921 138.823 143.381 139.909C140.232 140.866 136.2 138.978 134.002 135.499C131.75 131.932 131.946 129.094 134.899 125.844C135.165 126.451 135.4 127.067 135.632 127.674C136.164 129.068 136.679 130.419 137.515 131.528C138.205 132.451 139.266 133.094 140.328 133.737C140.801 134.024 141.275 134.311 141.716 134.623C141.884 134.1 142.114 133.568 142.344 133.037C142.844 131.882 143.344 130.727 143.206 129.66C142.729 126.092 141.739 122.586 140.756 119.107C140.712 118.95 140.668 118.793 140.624 118.636C140.448 118.009 139.403 117.469 138.648 117.193C134.915 115.83 131.167 114.513 127.302 113.154C126.062 112.719 124.811 112.279 123.545 111.833C118.724 121.353 111.192 127.253 100.161 128.905C100.161 130.043 100.161 131.182 100.16 132.32C100.158 136.87 100.156 141.417 100.188 145.964C100.195 146.436 100.438 147.11 100.802 147.346L101.041 147.507C104.191 149.625 107.344 151.744 110.605 153.684C112.23 154.648 114.516 155.673 115.595 153.468C116.128 152.383 115.143 150.144 114.233 148.856C113.414 147.695 112.299 146.742 111.118 145.733C110.598 145.289 110.066 144.834 109.54 144.345C109.832 144.211 110.09 144.075 110.326 143.95C110.776 143.711 111.151 143.513 111.549 143.442C114.725 142.902 117.928 144.683 119.843 147.986C121.738 151.25 121.677 155.073 119.688 157.413C117.314 160.204 114.179 161.215 110.626 159.509C107.544 158.04 104.719 155.943 101.968 153.873C97.9834 150.886 96.5337 150.953 92.4747 153.913C89.3461 156.199 86.0557 158.404 82.5226 159.934C79.4008 161.283 75.6249 159.28 73.9595 156.287C72.2873 153.279 73.4471 148.499 76.5419 145.606C79.2052 143.118 81.7877 142.754 84.0734 144.163C83.6504 144.669 83.2053 145.174 82.755 145.685C81.6333 146.958 80.4796 148.266 79.5558 149.719C79.0968 150.447 79.0236 151.417 78.9503 152.389C78.917 152.83 78.8837 153.272 78.8142 153.691C79.2371 153.742 79.6911 153.853 80.1449 153.963C81.1238 154.202 82.102 154.441 82.7653 154.082C86.2961 152.179 89.6641 149.956 93.0259 147.737C93.285 147.566 93.5439 147.395 93.8029 147.224C94.2075 146.955 94.3019 146.024 94.3086 145.397C94.3389 141.383 94.3352 137.368 94.3314 133.255C94.3302 131.869 94.3289 130.472 94.3289 129.06C83.5137 127.266 75.571 121.737 70.7568 111.731C69.5566 112.139 68.3633 112.543 67.1756 112.946C63.1188 114.32 59.1272 115.672 55.1477 117.065C54.6285 117.254 54.0014 117.8 53.8598 118.299C53.7904 118.538 53.7208 118.777 53.6512 119.016C52.7882 121.98 51.9241 124.948 51.3314 127.968C51.2819 128.223 51.2237 128.489 51.1642 128.761C50.7123 130.828 50.1797 133.264 52.7473 134.157C55.056 134.969 56.0376 133 56.9154 131.24C57.0733 130.923 57.2279 130.613 57.3862 130.328C57.9214 129.37 58.3306 128.343 58.82 127.114C59.0642 126.501 59.3284 125.838 59.6382 125.109C59.9264 125.585 60.2041 125.995 60.4562 126.367C60.9357 127.075 61.3227 127.646 61.5127 128.278C62.6185 131.939 61.1283 134.886 58.4852 137.272C56.1321 139.403 53.3946 140.597 50.1851 139.174C46.834 137.69 45.0742 134.98 45.5732 131.4C46.0452 128.008 46.9891 124.65 48.0545 121.387C49.5985 116.674 49.0928 115.285 44.9798 112.412C41.8917 110.255 38.7969 107.956 36.2684 105.205C33.868 102.589 34.3198 98.5699 36.5044 95.9133C38.4665 93.5265 42.8896 92.7173 46.4699 94.0928C50.1919 95.5223 51.8236 97.9496 51.5201 102.015C50.8824 101.701 50.2608 101.365 49.6456 101.033C48.1922 100.248 46.7742 99.4817 45.263 99.0554C44.3217 98.7851 43.2387 99.0044 42.1564 99.2235C41.6727 99.3214 41.1892 99.4193 40.7185 99.4734C40.8599 99.9377 40.9577 100.448 41.0555 100.959C41.2703 102.08 41.4851 103.201 42.1614 103.836C44.6005 106.144 47.2924 108.181 49.9804 110.215C50.4876 110.598 50.9947 110.982 51.4999 111.367C51.918 111.684 52.7945 111.691 53.3406 111.509C57.3711 110.146 61.3852 108.738 65.3636 107.343C66.4833 106.95 67.6001 106.558 68.7138 106.169C68.0597 93.4118 69.4959 88.8741 77.2027 79.4547C76.3022 78.2885 75.4008 77.1168 74.4971 75.9422C72.0985 72.8245 69.684 69.6862 67.2304 66.5763C66.8933 66.1515 66.1381 65.8144 65.5987 65.8481C62.3892 66.0369 59.1865 66.3336 55.9837 66.637C55.7502 66.6589 55.5071 66.6714 55.2621 66.684C54.4534 66.7255 53.6236 66.7681 53.044 67.1562C51.9652 67.8844 50.6976 68.9834 50.475 70.1162C50.3469 70.7769 51.9719 72.2805 53.0305 72.5705C54.66 73.0166 56.3614 73.2043 58.219 73.4093C59.0287 73.4986 59.868 73.5913 60.744 73.71C60.5618 73.9889 60.4043 74.2627 60.2544 74.5234C59.9549 75.044 59.6852 75.5127 59.3078 75.8676C57.0221 78.032 53.1586 78.3624 49.8615 76.7779C46.4699 75.1529 44.6157 72.3547 44.8113 69.1857C45.0338 65.6593 47.0565 62.969 50.9201 62.1329C53.9407 61.4789 57.1165 61.3778 60.2248 61.3778C66.01 61.371 67.1495 60.4203 68.5519 54.9049C69.361 51.6887 70.4264 48.4455 71.9907 45.5394C73.8112 42.1614 77.1488 41.0961 80.6279 41.9928C83.4194 42.7075 85.7456 45.8361 86.1164 49.3557C86.5479 53.4687 85.0511 56.6849 81.9764 58.1144C81.6811 58.2531 81.3383 58.2878 80.9322 58.3291C80.7264 58.3499 80.5042 58.3725 80.2638 58.411C80.3724 57.6347 80.5034 56.8833 80.6312 56.1497C80.9242 54.4687 81.2008 52.8816 81.1538 51.3043C81.1306 50.3946 80.5963 49.5009 80.0609 48.6056C79.8186 48.2002 79.576 47.7945 79.3805 47.3869C78.9778 47.6568 78.5204 47.899 78.063 48.1411C77.0579 48.6733 76.0534 49.2051 75.6317 50.03C75.1092 51.0687 74.8449 52.2524 74.5821 53.4294C74.2752 54.8041 73.9703 56.1698 73.2583 57.285C70.568 61.4924 72.2941 64.2906 75.1395 67.345C76.8026 69.1382 78.2801 71.1043 79.8013 73.1285C80.4879 74.0422 81.1835 74.9677 81.909 75.8946C91.6521 70.4668 101.395 70.2106 111.435 75.4091C112.889 73.4605 114.341 71.514 115.772 69.5954C117.891 66.754 119.965 63.9736 121.933 61.3373C120.847 58.1278 119.89 55.3027 118.933 52.4843C118.838 52.1991 118.763 51.8939 118.687 51.588C118.512 50.874 118.335 50.1561 117.901 49.6794C117.068 48.775 116.081 48.007 115.096 47.2398C114.679 46.9145 114.261 46.5894 113.855 46.2541C113.657 46.7785 113.42 47.2998 113.183 47.821C112.641 49.0154 112.099 50.2093 112.015 51.4392C111.922 52.7471 112.253 54.0839 112.593 55.4586C112.746 56.0752 112.9 56.6995 113.019 57.3322C109.372 56.6512 107.41 54.5206 106.897 50.9874C106.364 47.3195 108.374 42.8356 111.185 41.4197C114.037 39.9903 117.854 40.2937 119.769 42.957C121.738 45.7012 123.329 48.9175 124.266 52.1606C126.478 59.7933 126.821 60.0697 134.926 59.8742C138.095 59.7933 141.419 60.2855 144.426 61.2631C147.697 62.3285 149.187 65.7739 148.694 69.1789C148.236 72.321 144.79 75.3619 140.86 76.1036C137.488 76.7374 134.791 75.4563 132.957 72.112C133.654 72.03 134.348 71.9766 135.034 71.9239C136.604 71.8033 138.132 71.6859 139.558 71.2354C140.519 70.9277 141.337 70.1621 142.157 69.3958C142.522 69.0539 142.888 68.7119 143.267 68.4103C142.873 68.0823 142.491 67.6878 142.11 67.2937C141.276 66.432 140.444 65.5718 139.491 65.4098C136.165 64.8373 132.765 64.678 129.376 64.5192C128.773 64.4909 128.171 64.4627 127.57 64.4322C127.071 64.4052 126.403 65.0188 126.046 65.4975C123.412 69.0335 120.812 72.587 118.156 76.2179C117.515 77.0942 116.871 77.9751 116.222 78.8613C123.942 86.2984 126.95 95.2593 125.291 106.182L126.249 106.528C131.593 108.458 136.977 110.403 141.952 112.197C144.703 110.241 147.137 108.515 149.571 106.789C149.77 106.645 149.992 106.515 150.214 106.384C150.7 106.098 151.187 105.812 151.432 105.387C151.658 104.993 151.934 104.562 152.218 104.119C153.154 102.66 154.173 101.07 153.765 100.222C152.648 97.9115 150.501 98.8656 148.65 99.688C148.4 99.7993 148.155 99.9081 147.919 100.006C146.888 100.43 145.926 101.018 144.866 101.665C144.359 101.974 143.829 102.297 143.26 102.622C142.774 98.7789 144.13 96.4393 147.474 94.875ZM112.628 89.9664C112.696 87.4649 111.199 85.9613 108.65 86.0085C106.283 86.0489 104.955 87.4177 104.928 89.8383C104.908 92.3532 106.466 93.3579 108.589 93.6613C111.158 93.6209 112.568 92.2723 112.628 89.9664ZM101.112 84.7543C101.496 82.3944 99.8578 80.8234 97.2686 80.8167C94.8413 80.8099 93.2096 82.1922 93.6142 84.5049C93.8098 85.604 94.6101 86.5969 95.4109 87.5904C95.7695 88.0352 96.1281 88.4801 96.4326 88.9347L96.4875 88.9368C97.0082 88.9563 97.523 88.9757 98.044 88.9887C98.3764 88.5539 98.7729 88.1295 99.1694 87.7051C100.052 86.7603 100.935 85.8151 101.112 84.7543ZM83.7851 86.2308C83.0058 87.2255 82.2258 88.2209 82.0304 89.3191C81.6326 91.5913 83.2373 93.1084 85.604 93.1219C88.1189 93.1421 89.8316 91.6318 89.3596 89.1707C89.1497 88.0842 88.3174 87.1202 87.4849 86.156C87.1138 85.7262 86.7426 85.2963 86.4266 84.8555L86.4086 84.8557C85.8683 84.8624 85.3215 84.8691 84.7814 84.8825C84.4847 85.3379 84.1349 85.7843 83.7851 86.2308ZM79.1261 103.693C79.3991 104.001 79.6424 104.275 79.7918 104.497C83.6351 104.625 85.0915 103.081 85.0983 100.748C85.105 98.3609 83.2643 96.5067 81.0392 96.9517C79.5896 97.2416 77.7219 99.3184 77.5263 100.795C77.4028 101.749 78.3767 102.847 79.1261 103.693ZM82.1585 111.967C82.0236 114.354 83.3991 115.642 85.6646 115.892C88.301 115.817 89.7979 114.442 89.845 111.994C89.8923 109.655 88.4156 108.232 86.0557 108.239C83.7295 108.252 82.2799 109.641 82.1585 111.967ZM92.9871 116.627C93.0276 118.939 94.4772 120.274 97.0192 120.348C99.1835 120.133 100.707 119.148 100.728 116.606C100.741 114.159 99.433 112.709 97.0933 112.709C94.6997 112.709 92.9399 114.078 92.9871 116.627ZM88.4965 100.64C88.5302 105.596 92.3398 109.574 97.0327 109.54C101.968 109.506 105.892 105.468 105.838 100.478C105.778 95.529 102.036 91.7194 97.208 91.6925C92.1106 91.6722 88.4696 95.4076 88.4965 100.64ZM104.679 111.934C104.692 114.327 106.128 115.541 108.711 115.71C110.734 115.399 112.21 114.361 112.217 111.88C112.224 109.452 110.929 108.01 108.61 107.956C106.115 107.888 104.672 109.432 104.679 111.934ZM109.614 100.849C109.129 103.31 110.929 104.868 113.39 104.868C115.703 104.868 117.422 103.243 117.119 101.051C116.965 99.9506 116.13 98.9435 115.296 97.9363C114.924 97.4873 114.552 97.0382 114.24 96.5809C113.721 96.5606 113.201 96.5471 112.682 96.5337C112.351 96.975 111.962 97.4048 111.572 97.8345C110.7 98.7965 109.829 99.7583 109.614 100.849Z" fill="url(#paint0_linear)"/>
<defs>
<linearGradient id="paint0_linear" x1="0" y1="0" x2="63.2809" y2="220.743" gradientUnits="userSpaceOnUse">
<stop stop-color="#447EC6"/>
<stop offset="0.53125" stop-color="#285D9D" stop-opacity="0.5"/>
<stop offset="1" stop-color="#194173" stop-opacity="0"/>
</linearGradient>
</defs>
</svg>
