<svg width="140" height="94" viewBox="0 0 140 94" fill="none" preserveAspectRatio="xMidYMid meet" xmlns="http://www.w3.org/2000/svg">
<path fill-rule="evenodd" clip-rule="evenodd" d="M89.6575 34.9541C89.6575 45.9744 80.7237 54.9081 69.7034 54.9081C58.6831 54.9081 49.7493 45.9744 49.7493 34.9541C49.7493 23.9337 58.6831 15 69.7034 15C80.7237 15 89.6575 23.9337 89.6575 34.9541ZM58.3428 36.5099H70.1C70.3782 36.5099 70.6039 36.2829 70.6039 36.0031V23.3988C70.6039 22.9396 70.0451 22.717 69.7325 23.052L57.9753 35.6563C57.6735 35.98 57.9016 36.5099 58.3428 36.5099ZM70.6039 49.2219C70.6039 49.5017 70.8292 49.7287 71.1077 49.7287C71.3858 49.7287 71.6112 49.5017 71.6112 49.2219V38.03C71.6112 37.7503 71.8368 37.5233 72.115 37.5233H82.3519C82.6301 37.5233 82.8557 37.2964 82.8557 37.0166C82.8557 36.7368 82.6301 36.5099 82.3519 36.5099H72.115C71.8368 36.5099 71.6112 36.2829 71.6112 36.0031V20.8377C71.6112 20.3785 71.0524 20.1559 70.7402 20.4909L55.6487 36.6698C55.3469 36.9934 55.575 37.5233 56.0159 37.5233H70.1C70.3782 37.5233 70.6039 37.7503 70.6039 38.03V49.2219ZM67.2739 30.5611C67.1501 30.3938 66.8858 30.3101 66.4805 30.3101C66.0753 30.3101 65.7953 30.4466 65.6408 30.7189C65.5886 30.8125 65.5622 30.9271 65.5622 31.0636C65.5622 31.3143 65.674 31.544 65.8975 31.7519C66.0449 31.8908 66.2487 32.0332 66.5091 32.1789C66.7694 32.3247 66.9887 32.455 67.167 32.5698C67.8397 33 68.1762 33.4709 68.1762 33.9829C68.1762 34.4371 68.0104 34.7876 67.6785 35.0337C67.3469 35.2801 66.918 35.403 66.3915 35.403C65.865 35.403 65.4428 35.2983 65.1254 35.0893C64.8079 34.8802 64.6492 34.6397 64.6492 34.3686C64.6492 34.0971 64.7575 33.9137 64.974 33.8177C65.0403 33.7871 65.1128 33.7714 65.1917 33.7714C65.3412 33.7714 65.4643 33.8214 65.5604 33.9221C65.6568 34.0224 65.7047 34.149 65.7047 34.3022C65.7047 34.4553 65.6359 34.5856 65.4981 34.6931C65.6835 34.8796 65.9908 34.9729 66.4201 34.9729C66.849 34.9729 67.1431 34.8268 67.3027 34.5353C67.3595 34.4346 67.3881 34.3179 67.3881 34.1839C67.3881 33.9517 67.269 33.7368 67.0316 33.5379C66.9079 33.4354 66.6991 33.3023 66.4056 33.138C66.1121 32.9744 65.8809 32.8376 65.7121 32.7276C65.0916 32.3256 64.7812 31.8522 64.7812 31.3075C64.7812 30.8817 64.9411 30.5374 65.2607 30.2746C65.5807 30.0112 65.9764 29.88 66.4483 29.88C66.9205 29.88 67.308 29.9812 67.611 30.1844C67.9143 30.3879 68.0657 30.6356 68.0657 30.9271C68.0657 31.0849 68.0175 31.217 67.9214 31.3236C67.825 31.4298 67.7031 31.4832 67.5557 31.4832C67.3298 31.4832 67.1729 31.3841 67.0851 31.1855C67.059 31.1259 67.0458 31.062 67.0458 30.995C67.0458 30.8113 67.1219 30.6668 67.2739 30.5611ZM74.884 34.8706C74.8149 34.9151 74.6675 34.937 74.4419 34.937V35.3313H76.4461V34.937C76.1937 34.937 76.0215 34.9036 75.9287 34.8366C75.8741 34.7983 75.8468 34.7011 75.8468 34.5461L75.8434 30.7368C75.8434 30.6652 75.8526 30.6043 75.872 30.5543C75.8907 30.5037 75.9349 30.4564 76.0037 30.4126C76.0727 30.3681 76.2201 30.3462 76.4461 30.3462V29.9515H74.4419V30.3462C74.6939 30.3462 74.8662 30.3795 74.9589 30.4465C75.0135 30.4851 75.0409 30.5818 75.0409 30.7368L75.0445 34.5461C75.0445 34.6177 75.035 34.6788 75.016 34.7289C74.9969 34.7792 74.9527 34.8264 74.884 34.8706ZM66.4324 44.3391C67.1812 44.3391 67.6541 43.9923 67.8518 43.2988H68.3651C68.3651 43.4856 68.3154 43.669 68.2153 43.8497C68.1155 44.03 67.9752 44.1909 67.7947 44.3317C67.3952 44.6473 66.8816 44.8051 66.2541 44.8051C65.6265 44.8051 65.0892 44.5951 64.6422 44.1739C64.124 43.6888 63.8648 42.9786 63.8648 42.0436C63.8648 41.2975 64.0647 40.6688 64.4638 40.1574C64.7469 39.7912 65.1236 39.5368 65.5946 39.3932C65.8368 39.3188 66.1033 39.282 66.3931 39.282C66.966 39.282 67.4367 39.4142 67.8054 39.6785C68.1735 39.9425 68.358 40.2742 68.358 40.6737C68.358 40.9723 68.2417 41.1734 68.0087 41.2759C67.9396 41.3071 67.8647 41.3228 67.7839 41.3228C67.5343 41.3228 67.3667 41.2163 67.281 41.0035C67.2549 40.9365 67.242 40.8572 67.242 40.7651C67.242 40.6728 67.2678 40.582 67.3203 40.4925C67.3725 40.4026 67.4413 40.3338 67.5273 40.2862C67.3344 39.9157 66.9897 39.7304 66.4932 39.7304C65.9958 39.7304 65.5918 39.9197 65.2805 40.2986C64.9689 40.6778 64.8135 41.2466 64.8135 42.0059C64.8135 42.7655 64.9713 43.3439 65.2879 43.7419C65.6038 44.1399 65.9854 44.3391 66.4324 44.3391ZM76.9573 43.2988C76.7596 43.9923 76.2868 44.3391 75.538 44.3391C75.0909 44.3391 74.7093 44.1399 74.3934 43.7419C74.0769 43.3439 73.919 42.7655 73.919 42.0059C73.919 41.2466 74.0744 40.6778 74.386 40.2986C74.6973 39.9197 75.1014 39.7304 75.5987 39.7304C76.0952 39.7304 76.44 39.9157 76.6328 40.2862C76.5468 40.3338 76.4781 40.4026 76.4259 40.4925C76.3734 40.582 76.3476 40.6728 76.3476 40.7651C76.3476 40.8572 76.3605 40.9365 76.3866 41.0035C76.4722 41.2163 76.6398 41.3228 76.8895 41.3228C76.9702 41.3228 77.0451 41.3071 77.1142 41.2759C77.3472 41.1734 77.4636 40.9723 77.4636 40.6737C77.4636 40.2742 77.2791 39.9425 76.9109 39.6785C76.5422 39.4142 76.0716 39.282 75.4987 39.282C75.2088 39.282 74.9423 39.3188 74.7001 39.3932C74.2291 39.5368 73.8524 39.7912 73.5694 40.1574C73.1702 40.6688 72.9704 41.2975 72.9704 42.0436C72.9704 42.9786 73.2295 43.6888 73.7477 44.1739C74.1948 44.5951 74.732 44.8051 75.3596 44.8051C75.9871 44.8051 76.5008 44.6473 76.9002 44.3317C77.0807 44.1909 77.221 44.03 77.3208 43.8497C77.4209 43.669 77.4706 43.4856 77.4706 43.2988H76.9573ZM25.4911 63.2082H25.142C25.125 62.9633 25.0835 62.7577 25.0231 62.5932C24.959 62.4287 24.8703 62.2997 24.7552 62.2063C24.6382 62.1109 24.4929 62.0436 24.3155 62.0044C24.1401 61.9651 23.9306 61.9446 23.6853 61.9446C23.4759 61.9446 23.308 61.9483 23.1797 61.9577C23.0514 61.967 22.9532 61.982 22.8853 62.0044C22.8193 62.0287 22.774 62.0549 22.7532 62.0848C22.7344 62.1165 22.7249 62.1577 22.7249 62.21V66.7765C22.7249 66.9578 22.7381 67.1148 22.7627 67.2457C22.7872 67.3765 22.84 67.4831 22.9155 67.5653C22.9929 67.6475 23.1042 67.7111 23.2476 67.7541C23.3929 67.7971 23.5835 67.8195 23.8231 67.8251V68.1504H20.606V67.8251C20.8437 67.8195 21.0362 67.7971 21.1834 67.7541C21.3324 67.7111 21.4438 67.6475 21.5211 67.5653C21.5966 67.4831 21.6475 67.3765 21.674 67.2457C21.6985 67.1148 21.7117 66.9578 21.7117 66.7765V62.21C21.7117 62.1577 21.7023 62.1165 21.6815 62.0848C21.6626 62.0549 21.623 62.0287 21.5626 62.0044C21.5023 61.982 21.4192 61.967 21.3117 61.9577C21.2041 61.9483 21.0588 61.9446 20.8777 61.9446C20.657 61.9446 20.4513 61.9539 20.2607 61.9707C20.0701 61.9876 19.906 62.038 19.7664 62.1203C19.6286 62.2025 19.5154 62.3296 19.4305 62.4997C19.3456 62.6698 19.3003 62.9072 19.2946 63.2082H18.9795V61.5763H25.4043L25.4911 63.2082ZM31.8929 67.3185C31.8703 67.184 31.8589 67.0083 31.8589 66.7933V62.9352C31.8589 62.7184 31.8684 62.5446 31.8872 62.4156C31.908 62.2829 31.9476 62.1819 32.008 62.1072C32.0665 62.0324 32.1514 61.9819 32.2627 61.9539C32.3741 61.924 32.5193 61.9072 32.7024 61.9016V61.5782H30.1136V61.9016C30.2966 61.9128 30.4419 61.9315 30.557 61.9576C30.6702 61.9838 30.757 62.0305 30.8155 62.1034C30.8759 62.1745 30.9155 62.2717 30.9344 62.3932C30.9551 62.5147 30.9646 62.6754 30.9646 62.8754V64.5745H27.5192V62.9352C27.5192 62.7184 27.5286 62.5446 27.5494 62.4156C27.5683 62.2829 27.6079 62.1819 27.6683 62.1072C27.7268 62.0324 27.8117 61.9819 27.923 61.9539C28.0343 61.924 28.1796 61.9072 28.3607 61.9016V61.5782H25.7739V61.9016C25.955 61.9128 26.1041 61.9315 26.2173 61.9576C26.3305 61.9838 26.4173 62.0305 26.4758 62.1034C26.5343 62.1745 26.5758 62.2717 26.5965 62.3932C26.6154 62.5147 26.6248 62.6754 26.6248 62.8754V66.8531C26.6248 67.0513 26.6135 67.2139 26.5909 67.3391C26.5682 67.4643 26.5229 67.5615 26.455 67.6288C26.3871 67.698 26.2927 67.7466 26.1701 67.7746C26.0475 67.8027 25.8871 67.8195 25.689 67.8251V68.1503H28.4456V67.8251C28.2475 67.8195 28.0871 67.8027 27.9645 67.7746C27.8437 67.7466 27.7494 67.6961 27.6852 67.6251C27.6192 67.5541 27.5758 67.4513 27.5532 67.3185C27.5286 67.184 27.5192 67.0083 27.5192 66.7933V65.0007H30.9646V66.8531C30.9646 67.0513 30.9533 67.2139 30.9306 67.3391C30.908 67.4643 30.8627 67.5615 30.7948 67.6288C30.7268 67.698 30.6325 67.7466 30.5098 67.7746C30.3872 67.8027 30.2287 67.8195 30.0287 67.8251V68.1503H32.7854V67.8251C32.5873 67.8195 32.4269 67.8027 32.3061 67.7746C32.1835 67.7466 32.0891 67.6961 32.025 67.6251C31.9589 67.5541 31.9156 67.4513 31.8929 67.3185ZM34.9746 64.539C35.2736 64.539 35.5231 64.5203 35.7231 64.4848C35.9248 64.4474 36.0844 64.3895 36.2037 64.3091C36.3229 64.2287 36.4073 64.1278 36.4605 64.0007C36.5137 63.8755 36.5394 63.7297 36.5394 63.5577H36.8292V65.8886H36.5394C36.5394 65.7185 36.5155 65.569 36.4678 65.4437C36.422 65.3185 36.3394 65.2138 36.2202 65.1334C36.1028 65.0493 35.9414 64.9876 35.7414 64.9446C35.5396 64.9035 35.2846 64.8811 34.9746 64.8811V66.8101C34.9746 66.997 34.9966 67.1541 35.0406 67.2756C35.0865 67.3971 35.1617 67.498 35.27 67.5728C35.3763 67.6513 35.5194 67.7055 35.6955 67.7373C35.8716 67.7672 36.0899 67.784 36.3486 67.784C36.6421 67.784 36.8898 67.7616 37.0934 67.7186C37.297 67.6774 37.4676 67.6045 37.607 67.5017C37.7446 67.3989 37.8547 67.2643 37.9372 67.0961C38.0198 66.9279 38.0895 66.7185 38.1445 66.4681H38.4582L38.3353 68.1503H33.197V67.8251C33.3897 67.8195 33.5456 67.8027 33.663 67.7746C33.7841 67.7466 33.8758 67.698 33.9418 67.6288C34.0079 67.5615 34.0519 67.4643 34.0739 67.3391C34.0959 67.2139 34.1069 67.0513 34.1069 66.8531V62.8754C34.1069 62.6773 34.0977 62.5147 34.0776 62.3932C34.0592 62.2698 34.0189 62.1745 33.962 62.1016C33.9051 62.0305 33.8189 61.9819 33.7107 61.9576C33.5988 61.9315 33.4557 61.9128 33.2796 61.9016V61.5782H38.0601L38.1353 63.081H37.8455C37.8125 62.853 37.7593 62.6661 37.6841 62.5221C37.6107 62.3763 37.508 62.2605 37.3795 62.1745C37.2493 62.0904 37.086 62.0305 36.8861 61.995C36.688 61.9614 36.4477 61.9446 36.1652 61.9446H35.1159C35.0223 61.9446 34.9746 61.9932 34.9746 62.0904V64.539ZM42.0057 65.2085H41.5691L41.747 67.9899H42.0185L42.3487 67.3826C42.7193 67.6968 43.0843 67.9195 43.4421 68.0528C43.8016 68.186 44.2052 68.2508 44.6546 68.2508C45.1261 68.2508 45.559 68.1822 45.9534 68.0452C46.3478 67.9081 46.6872 67.7177 46.9697 67.4683C47.254 67.2208 47.4741 66.9238 47.6319 66.5754C47.7897 66.227 47.8704 65.8462 47.8704 65.4312C47.8704 65.1095 47.8209 64.8182 47.7273 64.5554C47.6319 64.2946 47.4705 64.0471 47.243 63.811C47.0137 63.575 46.7073 63.3389 46.3203 63.1028C45.9351 62.8667 45.4489 62.6135 44.8674 62.3394C44.528 62.1814 44.2437 62.031 44.0162 61.8863C43.7869 61.7416 43.6017 61.595 43.4604 61.4522C43.3191 61.3056 43.2164 61.1533 43.1522 60.9934C43.0898 60.8296 43.0587 60.6507 43.0587 60.4527C43.0587 60.03 43.1999 59.6931 43.4842 59.4456C43.7668 59.1962 44.1501 59.0724 44.6308 59.0724C45.1352 59.0724 45.5663 59.238 45.924 59.5693C46.2836 59.9006 46.5569 60.4051 46.7459 61.0848H47.1843L47.0541 58.6136H46.7807L46.4744 59.1714C46.1662 58.9163 45.8635 58.7297 45.5645 58.6136C45.2655 58.4975 44.9426 58.4384 44.5941 58.4384C44.2088 58.4384 43.8548 58.5032 43.5319 58.6326C43.2072 58.7602 42.9284 58.943 42.6918 59.179C42.4551 59.4151 42.2735 59.6931 42.1433 60.0167C42.013 60.3404 41.947 60.6926 41.947 61.0714C41.947 61.3951 41.9892 61.6845 42.0717 61.9358C42.1543 62.189 42.2937 62.427 42.4918 62.6497C42.6881 62.8744 42.9523 63.0895 43.2825 63.2951C43.6145 63.5026 44.0236 63.7178 44.5115 63.9405C44.9151 64.1233 45.2471 64.2927 45.5113 64.4507C45.7755 64.6068 45.9846 64.7687 46.1423 64.9286C46.3001 65.0904 46.4138 65.258 46.4799 65.4312C46.5478 65.6064 46.5808 65.7948 46.5808 66.0023C46.5808 66.4992 46.412 66.8933 46.0726 67.1827C45.7333 67.474 45.2728 67.6168 44.6895 67.6168C44.3354 67.6168 44.0052 67.5616 43.7025 67.4493C43.3999 67.3388 43.132 67.1789 42.8991 66.9714C42.6661 66.7658 42.4735 66.5126 42.3194 66.2137C42.1653 65.9167 42.0607 65.5816 42.0057 65.2085ZM53.3441 67.6434C53.8063 67.6434 54.2233 67.5597 54.5932 67.396C54.9611 67.2303 55.2781 66.9923 55.5403 66.6858C55.8045 66.3755 56.0064 66.0004 56.146 65.5607C56.2875 65.119 56.3574 64.624 56.3574 64.0795C56.3574 63.5064 56.2875 62.9867 56.146 62.5241C56.0064 62.0614 55.8064 61.6673 55.546 61.3399C55.2875 61.0143 54.9705 60.763 54.5988 60.586C54.2252 60.4108 53.8063 60.3232 53.3441 60.3232C52.8799 60.3232 52.4629 60.4108 52.0893 60.586C51.7176 60.763 51.4006 61.0143 51.1421 61.3399C50.8817 61.6673 50.6817 62.0614 50.5421 62.5241C50.4006 62.9867 50.3308 63.5064 50.3308 64.0795C50.3308 64.624 50.4006 65.119 50.5421 65.5607C50.6817 66.0004 50.8817 66.3755 51.1421 66.6858C51.4006 66.9923 51.7176 67.2303 52.0893 67.396C52.4629 67.5597 52.8799 67.6434 53.3441 67.6434ZM53.3441 59.731C53.9629 59.731 54.5384 59.8415 55.0724 60.0642C55.6064 60.287 56.0705 60.5916 56.463 60.98C56.8555 61.3664 57.1649 61.8234 57.3895 62.3469C57.614 62.8705 57.7272 63.4378 57.7272 64.047C57.7272 64.6277 57.6121 65.1741 57.3838 65.6824C57.1555 66.1926 56.846 66.6362 56.4517 67.0132C56.0592 67.3902 55.5951 67.6871 55.0611 67.9061C54.529 68.125 53.9554 68.2335 53.3441 68.2335C52.7327 68.2335 52.1591 68.125 51.627 67.9061C51.093 67.6871 50.6289 67.3902 50.2364 67.0132C49.8421 66.6362 49.5326 66.1926 49.3043 65.6824C49.076 65.1741 48.9609 64.6277 48.9609 64.047C48.9609 63.4378 49.0741 62.8705 49.2987 62.3469C49.5232 61.8234 49.8326 61.3664 50.2251 60.98C50.6176 60.5916 51.0817 60.287 51.6157 60.0642C52.1497 59.8415 52.7252 59.731 53.3441 59.731ZM64.449 66.286C64.5584 65.8557 64.6131 65.3569 64.6131 64.7896V62.6154C64.6131 62.0195 64.6301 61.5626 64.6641 61.2427C64.6999 60.9248 64.7698 60.6887 64.8754 60.5383C64.9603 60.4165 65.0735 60.3365 65.2188 60.3022C65.3622 60.2661 65.5471 60.2489 65.7717 60.2489V59.8396H62.7169V60.2489C62.9339 60.2489 63.1169 60.2604 63.2641 60.2851C63.4112 60.3118 63.5339 60.3708 63.6339 60.4641C63.766 60.5992 63.8565 60.8334 63.9075 61.1628C63.9565 61.494 63.9811 61.9776 63.9811 62.6154V65.2103C63.9811 65.9852 63.8056 66.5715 63.4527 66.9694C63.1018 67.3673 62.5754 67.5672 61.8734 67.5672C61.481 67.5672 61.1489 67.5177 60.8772 67.4168C60.6074 67.3159 60.3885 67.1674 60.2187 66.9694C60.0508 66.7733 59.93 66.5316 59.8564 66.2479C59.7809 65.9642 59.7451 65.6406 59.7451 65.275V62.347C59.7451 61.8158 59.7583 61.4084 59.7866 61.1247C59.8149 60.841 59.8772 60.6354 59.9772 60.5059C60.0621 60.3917 60.1772 60.3194 60.3243 60.2908C60.4715 60.2623 60.6659 60.2489 60.9036 60.2489V59.8396H57.3111V60.2489C57.5507 60.2489 57.7413 60.2642 57.8865 60.2965C58.0281 60.3289 58.1432 60.3917 58.2281 60.485C58.3469 60.6202 58.4186 60.8334 58.4432 61.119C58.4677 61.4065 58.4809 61.8158 58.4809 62.347V65.1875C58.4809 65.7548 58.5432 66.2327 58.6696 66.621C58.796 67.0075 58.9903 67.3217 59.2488 67.5615C59.5111 67.8033 59.8338 67.9747 60.2187 68.0775C60.6055 68.1822 61.0583 68.2355 61.5791 68.2355C62.1263 68.2355 62.5942 68.1612 62.9791 68.0127C63.3659 67.8681 63.681 67.6491 63.9226 67.3635C64.166 67.0761 64.3396 66.7162 64.449 66.286ZM74.1787 61.8957H73.7386C73.7155 61.5854 73.6675 61.3284 73.5867 61.119C73.5099 60.9115 73.3965 60.7477 73.2504 60.6297C73.1025 60.5117 72.918 60.4279 72.697 60.3765C72.474 60.327 72.2107 60.3022 71.9013 60.3022C71.6381 60.3022 71.4267 60.3079 71.2633 60.3175C71.1038 60.3289 70.9808 60.3479 70.8943 60.3765C70.8098 60.405 70.754 60.4393 70.7271 60.4793C70.7021 60.5193 70.6906 60.5707 70.6906 60.6354V66.3945C70.6906 66.6249 70.706 66.8209 70.7387 66.9866C70.7713 67.1522 70.8347 67.2855 70.9308 67.3902C71.0288 67.493 71.1672 67.573 71.3517 67.6263C71.5324 67.6796 71.7745 67.7119 72.0743 67.7177V68.127H68.0193V67.7177C68.3191 67.7119 68.5613 67.6796 68.7477 67.6263C68.9341 67.573 69.0744 67.493 69.1724 67.3902C69.2685 67.2855 69.3338 67.1522 69.3646 66.9866C69.3972 66.8209 69.4126 66.6249 69.4126 66.3945V60.6354C69.4126 60.5707 69.4011 60.5193 69.3761 60.4793C69.3511 60.4393 69.3012 60.405 69.2262 60.3765C69.1513 60.3479 69.0436 60.3289 68.9091 60.3175C68.7727 60.3079 68.5901 60.3022 68.3614 60.3022C68.0827 60.3022 67.8233 60.3118 67.5831 60.3346C67.3448 60.3555 67.1372 60.4184 66.9623 60.5212C66.7855 60.6259 66.6452 60.7858 66.5376 61.0009C66.43 61.2161 66.3743 61.515 66.3666 61.8957H65.9688V59.8396H74.071L74.1787 61.8957ZM82.1889 67.078C82.1606 66.9085 82.1455 66.6877 82.1455 66.4154V61.5511C82.1455 61.277 82.1587 61.0581 82.1833 60.8924C82.2078 60.7287 82.2568 60.5992 82.3304 60.5059C82.404 60.4127 82.5097 60.3479 82.6474 60.3137C82.7833 60.2775 82.9644 60.2546 83.1889 60.247V59.8396H79.9851V60.247C80.2115 60.2623 80.3926 60.2851 80.5341 60.3175C80.6757 60.3498 80.7813 60.4108 80.8549 60.5002C80.9285 60.5897 80.9776 60.7116 81.004 60.8677C81.0266 61.02 81.0398 61.2237 81.0398 61.475V63.6168H76.7718V61.5511C76.7718 61.277 76.785 61.0581 76.8095 60.8924C76.834 60.7287 76.8831 60.5992 76.9567 60.5059C77.0322 60.4127 77.1359 60.3479 77.2737 60.3137C77.4095 60.2775 77.5907 60.2546 77.8152 60.247V59.8396H74.6113V60.247C74.8378 60.2623 75.0208 60.2851 75.1604 60.3175C75.3 60.3498 75.4076 60.4108 75.4831 60.5002C75.5566 60.5897 75.6038 60.7116 75.6283 60.8677C75.6548 61.02 75.6661 61.2237 75.6661 61.475V66.4916C75.6661 66.7429 75.6529 66.9466 75.6227 67.1046C75.5963 67.2626 75.5397 67.3845 75.4566 67.4702C75.3717 67.5558 75.2548 67.6167 75.1019 67.6529C74.951 67.6891 74.7528 67.7119 74.5076 67.7177V68.127H77.9209V67.7177C77.6756 67.7119 77.4756 67.6891 77.3265 67.6529C77.1756 67.6167 77.0586 67.5539 76.9774 67.4644C76.8982 67.375 76.8435 67.2455 76.8152 67.078C76.7869 66.9085 76.7718 66.6877 76.7718 66.4154V64.1556H81.0398V66.4916C81.0398 66.7429 81.0247 66.9466 80.9983 67.1046C80.97 67.2626 80.9134 67.3845 80.8285 67.4702C80.7436 67.5558 80.6266 67.6167 80.4757 67.6529C80.3247 67.6891 80.1266 67.7119 79.8813 67.7177V68.127H83.2946V67.7177C83.0474 67.7119 82.8493 67.6891 82.6984 67.6529C82.5474 67.6167 82.4323 67.5539 82.3512 67.4644C82.2701 67.375 82.2153 67.2455 82.1889 67.078ZM88.706 65.7796C88.706 66.1927 88.7207 66.5202 88.7537 66.762C88.7849 67.0019 88.8454 67.1865 88.9353 67.3198C89.027 67.4531 89.1573 67.5387 89.326 67.5806C89.4966 67.6225 89.7186 67.6473 89.9938 67.6549V68.127H86.1653V67.6549C86.4405 67.6473 86.6624 67.6206 86.833 67.573C87.0018 67.5292 87.1339 67.4436 87.2293 67.3198C87.3228 67.1961 87.387 67.0209 87.4182 66.7924C87.4494 66.564 87.4641 66.2556 87.4641 65.8672V60.8239C87.4641 60.4774 87.4512 60.1881 87.4237 59.9615C87.3944 59.733 87.3412 59.5541 87.2586 59.4208C87.1742 59.2875 87.055 59.1943 86.8972 59.141C86.7395 59.0876 86.534 59.0515 86.2827 59.0362V58.5641H89.8764V59.0362C89.6232 59.0439 89.4214 59.0781 89.2673 59.1352C89.1132 59.1924 88.9958 59.2895 88.9133 59.4265C88.8307 59.5636 88.7739 59.7521 88.7463 59.992C88.7188 60.2318 88.706 60.5384 88.706 60.9115V65.7796ZM93.2709 61.4959L97.9059 68.2335H98.4912V61.7986C98.4912 61.4673 98.5034 61.2027 98.5296 61.0009C98.5558 60.7991 98.6083 60.6468 98.6851 60.5383C98.7637 60.4316 98.8721 60.3574 99.0118 60.3174C99.1533 60.2774 99.3368 60.2546 99.5639 60.2489V59.8377H96.9398V60.2489C97.1477 60.2546 97.3154 60.2755 97.443 60.3117C97.5687 60.3479 97.6666 60.424 97.7347 60.5383C97.8028 60.6544 97.8483 60.8162 97.871 61.0275C97.8937 61.2389 97.9059 61.5206 97.9059 61.8728V66.1146H97.8657L93.6029 59.8377H91.6706V60.2489C91.8802 60.2622 92.0497 60.2927 92.179 60.3384C92.3083 60.386 92.4079 60.4659 92.476 60.582C92.5441 60.6963 92.5896 60.8524 92.6123 61.0504C92.635 61.2465 92.6472 61.4959 92.6472 61.7986V66.1679C92.6472 66.5049 92.6332 66.7733 92.6088 66.9713C92.5826 67.1674 92.5302 67.3197 92.4515 67.4263C92.3747 67.5348 92.2646 67.6091 92.1248 67.6491C91.9851 67.6871 91.8016 67.71 91.5745 67.7176V68.1269H94.1986V67.7176C93.9907 67.71 93.823 67.689 93.6955 67.6529C93.5679 67.6167 93.4718 67.5424 93.4037 67.4263C93.3356 67.314 93.2901 67.1522 93.2657 66.9427C93.243 66.7352 93.2325 66.4515 93.2325 66.0917V61.4959H93.2709ZM102.432 60.3669C102.311 60.3669 102.252 60.4278 102.252 60.5497V66.3716C102.252 67.1902 102.773 67.5996 103.822 67.5996C104.783 67.5996 105.52 67.3064 106.034 66.7219C106.547 66.1374 106.803 65.2788 106.803 64.1441C106.803 63.5482 106.732 63.019 106.592 62.5506C106.453 62.0842 106.251 61.6901 105.986 61.3664C105.724 61.0447 105.405 60.7972 105.034 60.6239C104.66 60.4526 104.239 60.3669 103.768 60.3669H102.432ZM99.8806 68.127V67.7177C100.149 67.71 100.364 67.691 100.528 67.6586C100.694 67.6263 100.822 67.5653 100.913 67.4759C101.005 67.3864 101.066 67.2645 101.098 67.1103C101.13 66.9561 101.145 66.7505 101.145 66.4916V61.475C101.145 61.2237 101.133 61.0219 101.107 60.8658C101.083 60.7135 101.035 60.5897 100.96 60.5002C100.886 60.4108 100.781 60.3498 100.639 60.3175C100.5 60.2851 100.316 60.2623 100.092 60.2489V59.8396H103.79C104.42 59.8396 105.007 59.9462 105.543 60.1614C106.081 60.3784 106.545 60.6754 106.936 61.0542C107.324 61.435 107.628 61.8862 107.845 62.4117C108.064 62.9352 108.173 63.5064 108.173 64.1213C108.173 64.7115 108.071 65.2503 107.868 65.7434C107.664 66.2346 107.377 66.6553 107.009 67.0075C106.639 67.3597 106.2 67.6339 105.686 67.83C105.173 68.028 104.613 68.127 104 68.127H99.8806ZM111.084 66.9427C111.058 66.7352 111.044 66.4515 111.044 66.0917V61.8728C111.044 61.5511 111.056 61.2846 111.079 61.077C111.102 60.8695 111.147 60.7058 111.215 60.5859C111.283 60.4678 111.381 60.384 111.509 60.3326C111.634 60.2831 111.802 60.2546 112.01 60.2489V59.8377H109.045V60.2489C109.253 60.2622 109.421 60.2927 109.552 60.3384C109.683 60.386 109.781 60.4659 109.849 60.582C109.917 60.6963 109.964 60.8524 109.987 61.0504C110.01 61.2465 110.02 61.4959 110.02 61.7986V66.1679C110.02 66.5049 110.006 66.7733 109.982 66.9713C109.956 67.1674 109.903 67.3197 109.825 67.4263C109.748 67.5348 109.638 67.6091 109.5 67.6472C109.358 67.6871 109.175 67.71 108.947 67.7176V68.1269H112.072H112.108H114.632V67.7176C114.338 67.7176 114.127 67.6795 114 67.6053C113.874 67.5291 113.812 67.392 113.812 67.1902C113.812 67.1179 113.821 67.0265 113.842 66.9104C113.865 66.7961 113.9 66.6553 113.953 66.4915C114.006 66.3259 114.074 66.1298 114.159 65.9032C114.242 65.6786 114.344 65.4178 114.465 65.1227H117.278L117.71 66.2859C117.759 66.4078 117.799 66.5144 117.831 66.6039C117.863 66.6933 117.887 66.7733 117.904 66.8456C117.921 66.918 117.934 66.9827 117.942 67.0455C117.948 67.1065 117.951 67.1731 117.951 67.2435C117.951 67.4092 117.882 67.5272 117.742 67.5996C117.6 67.6719 117.344 67.7062 116.972 67.7062V68.1269H120.406V67.7062C120.223 67.7062 120.067 67.689 119.938 67.6529C119.808 67.6167 119.687 67.5386 119.574 67.4168C119.461 67.2949 119.346 67.1122 119.227 66.8723C119.106 66.6324 118.967 66.3107 118.804 65.909L116.414 59.8377H115.961L113.221 66.8456C113.157 66.996 113.093 67.1236 113.025 67.2283C112.959 67.333 112.881 67.4168 112.795 67.4815C112.706 67.5443 112.604 67.5958 112.489 67.6319C112.374 67.6675 112.239 67.6957 112.08 67.7166C111.866 67.7082 111.69 67.6875 111.556 67.6529C111.418 67.6167 111.31 67.5424 111.236 67.4263C111.159 67.3121 111.11 67.1522 111.084 66.9427ZM114.674 64.5859H117.078L115.908 61.4103L114.674 64.5859ZM23.987 69.7415H23.6474L23.4285 70.5125C22.9247 70.1965 22.4587 69.9699 22.0304 69.829C21.6002 69.6882 21.1435 69.6177 20.6567 69.6177C19.968 69.6177 19.3378 69.7396 18.7661 69.9832C18.1944 70.2269 17.7038 70.5734 17.2944 71.0208C16.8849 71.4682 16.5679 72.0013 16.3415 72.622C16.1132 73.2445 16 73.9318 16 74.6838C16 75.4054 16.1076 76.0584 16.3227 76.6466C16.5378 77.2349 16.8415 77.7337 17.234 78.1431C17.6265 78.5543 18.1019 78.8703 18.6567 79.095C19.2114 79.3177 19.8341 79.4281 20.5228 79.4281C21.7304 79.4281 22.7587 79.0607 23.6097 78.3239L23.8908 79.3044H24.3153V76.2126H23.8172C23.3719 77.9089 22.3662 78.758 20.802 78.758C19.7718 78.758 18.9869 78.4001 18.4435 77.6842C17.9001 76.9684 17.6283 75.9441 17.6283 74.6096C17.6283 73.9318 17.7 73.3226 17.8416 72.7857C17.985 72.2469 18.1887 71.7919 18.4567 71.4168C18.7227 71.0456 19.051 70.76 19.4416 70.562C19.8303 70.3621 20.2718 70.2631 20.7662 70.2631C21.487 70.2631 22.104 70.4706 22.6134 70.8838C23.1247 71.2988 23.47 71.8699 23.6474 72.5991H24.0983L23.987 69.7415ZM29.9309 78.8207C30.4017 78.8207 30.8264 78.7369 31.2012 78.5732C31.5778 78.4076 31.9007 78.1696 32.1678 77.8631C32.4369 77.5547 32.6425 77.1796 32.7847 76.7379C32.9289 76.2962 33 75.8031 33 75.2586C33 74.6837 32.9289 74.1658 32.7847 73.7013C32.6425 73.2387 32.4388 72.8446 32.1736 72.5171C31.9084 72.1916 31.5875 71.9403 31.2069 71.7651C30.8283 71.5881 30.4017 71.5005 29.9309 71.5005C29.4581 71.5005 29.0334 71.5881 28.6529 71.7651C28.2743 71.9403 27.9514 72.1916 27.6881 72.5171C27.4229 72.8446 27.2192 73.2387 27.077 73.7013C26.9329 74.1658 26.8618 74.6837 26.8618 75.2586C26.8618 75.8031 26.9329 76.2962 27.077 76.7379C27.2192 77.1796 27.4229 77.5547 27.6881 77.8631C27.9514 78.1696 28.2743 78.4076 28.6529 78.5732C29.0334 78.7369 29.4581 78.8207 29.9309 78.8207ZM29.9309 70.9085C30.5593 70.9085 31.1474 71.0189 31.6912 71.2435C32.2351 71.4644 32.7079 71.7709 33.1076 72.1574C33.5073 72.5458 33.8225 73.0008 34.0512 73.5243C34.2799 74.0479 34.3952 74.6152 34.3952 75.2244C34.3952 75.807 34.278 76.3515 34.0454 76.8617C33.8129 77.372 33.4977 77.8137 33.0961 78.1906C32.6963 78.5676 32.2236 78.8665 31.6797 79.0835C31.1358 79.3025 30.5535 79.4129 29.9309 79.4129C29.3082 79.4129 28.724 79.3025 28.182 79.0835C27.6382 78.8665 27.1654 78.5676 26.7657 78.1906C26.364 77.8137 26.0489 77.372 25.8144 76.8617C25.5819 76.3515 25.4666 75.807 25.4666 75.2244C25.4666 74.6152 25.5799 74.0479 25.8106 73.5243C26.0393 73.0008 26.3525 72.5458 26.7542 72.1574C27.1539 71.7709 27.6267 71.4644 28.1705 71.2435C28.7144 71.0189 29.3005 70.9085 29.9309 70.9085ZM36.1825 78.2554C36.1513 78.0878 36.1348 77.8651 36.1348 77.5929V75.3977C36.4833 75.3977 36.7731 75.4187 37.0061 75.4625C37.2372 75.5063 37.428 75.5767 37.5748 75.6776C37.7215 75.7785 37.8316 75.9175 37.9068 76.0983C37.982 76.2773 38.0371 76.502 38.0719 76.7761H38.4296V73.6215H38.0719C38.0517 73.8937 37.9985 74.1165 37.9178 74.2897C37.8353 74.4611 37.7179 74.5981 37.5638 74.6971C37.4115 74.798 37.2152 74.8685 36.9804 74.9085C36.7456 74.9465 36.4631 74.9675 36.1348 74.9675V71.7176C36.1348 71.5958 36.1935 71.533 36.309 71.533H37.6096C37.9784 71.533 38.2865 71.5558 38.5324 71.6034C38.7782 71.6491 38.9818 71.731 39.1414 71.8452C39.3028 71.9594 39.4276 72.1155 39.5156 72.3135C39.6037 72.5115 39.6697 72.7628 39.7101 73.0732H40.0696L39.9559 71.017H34.0362V71.4264C34.2545 71.4397 34.4306 71.4644 34.5681 71.4949C34.7057 71.5273 34.8103 71.5901 34.88 71.6777C34.9515 71.769 35.0011 71.8909 35.0249 72.0451C35.0469 72.1993 35.0598 72.4011 35.0598 72.6524V77.669C35.0598 77.9203 35.0451 78.124 35.0194 78.282C34.9919 78.4401 34.9369 78.5619 34.8543 78.6476C34.7736 78.7351 34.658 78.7961 34.5113 78.8303C34.3645 78.8684 34.1719 78.8894 33.9334 78.8951V79.3044H37.5583V78.8951C37.2519 78.8894 37.0043 78.8684 36.8172 78.8303C36.6282 78.7961 36.4833 78.7332 36.3806 78.6419C36.2778 78.5524 36.2118 78.4248 36.1825 78.2554ZM42.8543 77.5929C42.8543 77.8651 42.8708 78.0878 42.902 78.2554C42.9313 78.4248 42.9974 78.5524 43.1001 78.6419C43.2028 78.7332 43.3478 78.7961 43.5367 78.8303C43.7238 78.8684 43.9715 78.8894 44.2778 78.8951V79.3044H40.653V78.8951C40.8914 78.8894 41.0841 78.8684 41.2308 78.8303C41.3776 78.7961 41.4931 78.7351 41.5739 78.6476C41.6564 78.5619 41.7114 78.4401 41.739 78.282C41.7646 78.124 41.7793 77.9203 41.7793 77.669V72.6524C41.7793 72.4011 41.7665 72.1993 41.7445 72.0451C41.7206 71.8909 41.6711 71.769 41.5995 71.6777C41.5298 71.5901 41.4253 71.5273 41.2877 71.4949C41.1501 71.4644 40.974 71.4397 40.7557 71.4264V71.017H46.6754L46.7892 73.0732H46.4296C46.3892 72.7628 46.3232 72.5115 46.2352 72.3135C46.1471 72.1155 46.0224 71.9594 45.8609 71.8452C45.7013 71.731 45.4977 71.6491 45.2519 71.6034C45.0061 71.5558 44.6979 71.533 44.3292 71.533H43.0286C42.913 71.533 42.8543 71.5958 42.8543 71.7176V74.9675C43.1827 74.9675 43.4652 74.9465 43.7 74.9085C43.9348 74.8685 44.1311 74.798 44.2833 74.6971C44.4374 74.5981 44.5548 74.4611 44.6374 74.2897C44.7181 74.1165 44.7713 73.8937 44.7915 73.6215H45.1492V76.7761H44.7915C44.7566 76.502 44.7016 76.2773 44.6264 76.0983C44.553 75.9175 44.4411 75.7785 44.2943 75.6776C44.1476 75.5767 43.9568 75.5063 43.7257 75.4625C43.4945 75.4187 43.2028 75.3977 42.8543 75.3977V77.5929ZM51.0195 74.6819C50.7629 74.7276 50.444 74.7523 50.0647 74.7523V71.6624C50.0647 71.5406 50.1251 71.4797 50.244 71.4797H51.5837C51.9422 71.4797 52.2459 71.5006 52.4988 71.5444C52.7516 71.5882 52.9611 71.6624 53.1271 71.7709C53.2913 71.8776 53.4214 72.0223 53.5158 72.205C53.6101 72.3897 53.6799 72.6239 53.7215 72.9113H54.0913L53.9969 71.017H47.9062V71.4264C48.1307 71.4397 48.3138 71.4644 48.4534 71.4949C48.5949 71.5292 48.7024 71.5901 48.7741 71.6777C48.8477 71.769 48.8987 71.8909 48.9232 72.0451C48.9458 72.1993 48.9591 72.4011 48.9591 72.6524V77.669C48.9591 77.9203 48.944 78.124 48.9175 78.282C48.8892 78.4401 48.8326 78.5619 48.7477 78.6476C48.6647 78.7351 48.5458 78.7961 48.3949 78.8303C48.2458 78.8665 48.0477 78.8894 47.8005 78.8951V79.3044H54.3441L54.5007 77.1835H54.1007C54.0309 77.4996 53.9422 77.7642 53.8366 77.9755C53.7328 78.1868 53.5913 78.3582 53.4158 78.4877C53.2403 78.6152 53.0233 78.7085 52.7629 78.7618C52.5026 78.8151 52.1856 78.8418 51.8157 78.8418C51.4855 78.8418 51.2063 78.8227 50.9818 78.7827C50.7572 78.7428 50.5761 78.6761 50.4402 78.579C50.3025 78.4819 50.2063 78.3563 50.1497 78.2021C50.093 78.046 50.0647 77.8518 50.0647 77.6138V75.1826C50.4591 75.1826 50.7836 75.2093 51.0402 75.2626C51.2969 75.3178 51.5006 75.3958 51.6516 75.5005C51.8025 75.6034 51.9082 75.7366 51.9667 75.8927C52.0271 76.0508 52.0573 76.2373 52.0573 76.4525H52.4252V73.5149H52.0573C52.0573 73.73 52.0233 73.9166 51.9573 74.0727C51.8893 74.2326 51.7818 74.3621 51.6308 74.4611C51.4799 74.562 51.2761 74.6362 51.0195 74.6819ZM57.7589 74.7523C58.1381 74.7523 58.457 74.7276 58.7136 74.6819C58.9702 74.6362 59.1721 74.562 59.3249 74.4611C59.474 74.3621 59.5834 74.2326 59.6514 74.0727C59.7174 73.9166 59.7514 73.73 59.7514 73.5149H60.1193V76.4525H59.7514C59.7514 76.2373 59.7212 76.0508 59.6608 75.8927C59.6023 75.7366 59.4966 75.6034 59.3457 75.5005C59.1947 75.3958 58.991 75.3178 58.7344 75.2626C58.4777 75.2093 58.1532 75.1826 57.7589 75.1826V77.6138C57.7589 77.8518 57.7872 78.046 57.8438 78.2021C57.9004 78.3563 57.9966 78.4819 58.1343 78.579C58.2702 78.6761 58.4513 78.7428 58.6759 78.7827C58.9004 78.8227 59.1778 78.8418 59.508 78.8418C59.8797 78.8418 60.1967 78.8151 60.4571 78.7618C60.7174 78.7085 60.9344 78.6152 61.1099 78.4877C61.2854 78.3582 61.425 78.1868 61.5307 77.9755C61.6363 77.7642 61.725 77.4996 61.7948 77.1835H62.1948L62.0382 79.3044H55.4946V78.8951C55.7399 78.8894 55.938 78.8665 56.089 78.8303C56.2399 78.7961 56.3588 78.7351 56.4418 78.6476C56.5267 78.5619 56.5834 78.4401 56.6117 78.282C56.6381 78.124 56.6532 77.9203 56.6532 77.669V72.6524C56.6532 72.4011 56.64 72.1993 56.6173 72.0451C56.5909 71.8909 56.5418 71.769 56.4683 71.6777C56.3947 71.5901 56.289 71.5292 56.1475 71.4949C56.006 71.4644 55.8248 71.4397 55.6003 71.4264V71.017H61.6892L61.7835 72.9113H61.4156C61.3741 72.6239 61.3042 72.3897 61.2099 72.205C61.1156 72.0223 60.9854 71.8776 60.8193 71.7709C60.6552 71.6624 60.4457 71.5882 60.1929 71.5444C59.9401 71.5006 59.6344 71.4797 59.2759 71.4797H57.9381C57.8192 71.4797 57.7589 71.5406 57.7589 71.6624V74.7523ZM72.1132 71.017H71.8188L71.6282 71.6833C71.1943 71.4111 70.7886 71.215 70.4169 71.0931C70.0452 70.9694 69.647 70.9085 69.2263 70.9085C68.63 70.9085 68.0828 71.0151 67.5885 71.2264C67.0941 71.4377 66.6677 71.7366 66.313 72.125C65.9583 72.5134 65.6828 72.976 65.4865 73.5148C65.2903 74.0517 65.1922 74.6476 65.1922 75.3006C65.1922 75.9251 65.2847 76.4924 65.4696 77.0007C65.6564 77.5109 65.9205 77.9431 66.2602 78.2991C66.6017 78.6532 67.0111 78.9274 67.4941 79.1216C67.9753 79.3158 68.513 79.4129 69.1112 79.4129C70.1584 79.4129 71.049 79.093 71.7867 78.4552L72.0301 79.3044H72.3981V76.6257H71.966C71.5792 78.0954 70.7093 78.8303 69.3527 78.8303C68.4602 78.8303 67.7791 78.52 67.3092 77.8993C66.8375 77.2787 66.6036 76.3915 66.6036 75.2359C66.6036 74.6476 66.6639 74.1202 66.7866 73.6538C66.9092 73.1874 67.0885 72.7933 67.3206 72.4696C67.5526 72.146 67.8357 71.8985 68.1734 71.7271C68.5112 71.5558 68.8923 71.4682 69.3206 71.4682C69.9471 71.4682 70.481 71.6491 70.9226 72.007C71.366 72.3668 71.6641 72.8599 71.8188 73.492H72.2094L72.1132 71.017ZM77.7439 78.8207C78.2167 78.8207 78.6395 78.7369 79.0162 78.5732C79.3909 78.4076 79.7138 78.1696 79.9809 77.8631C80.2499 77.5547 80.4556 77.1796 80.5978 76.7379C80.7419 76.2962 80.813 75.8031 80.813 75.2586C80.813 74.6837 80.7419 74.1658 80.5978 73.7013C80.4556 73.2387 80.2519 72.8446 79.9867 72.5171C79.7214 72.1916 79.4005 71.9403 79.0219 71.7651C78.6414 71.5881 78.2167 71.5005 77.7439 71.5005C77.2712 71.5005 76.8465 71.5881 76.4679 71.7651C76.0873 71.9403 75.7645 72.1916 75.5012 72.5171C75.236 72.8446 75.0323 73.2387 74.8881 73.7013C74.7459 74.1658 74.6748 74.6837 74.6748 75.2586C74.6748 75.8031 74.7459 76.2962 74.8881 76.7379C75.0323 77.1796 75.236 77.5547 75.5012 77.8631C75.7645 78.1696 76.0873 78.4076 76.4679 78.5732C76.8465 78.7369 77.2712 78.8207 77.7439 78.8207ZM77.7439 70.9085C78.3743 70.9085 78.9604 71.0189 79.5043 71.2435C80.0462 71.4644 80.519 71.7709 80.9206 72.1574C81.3204 72.5458 81.6356 73.0008 81.8642 73.5243C82.0929 74.0479 82.2082 74.6152 82.2082 75.2244C82.2082 75.807 82.091 76.3515 81.8585 76.8617C81.6259 77.372 81.3108 77.8137 80.9091 78.1906C80.5075 78.5676 80.0366 78.8665 79.4928 79.0835C78.9489 79.3025 78.3666 79.4129 77.7439 79.4129C77.1213 79.4129 76.537 79.3025 75.9951 79.0835C75.4512 78.8665 74.9785 78.5676 74.5787 78.1906C74.1771 77.8137 73.8619 77.372 73.6294 76.8617C73.3968 76.3515 73.2796 75.807 73.2796 75.2244C73.2796 74.6152 73.3949 74.0479 73.6236 73.5243C73.8523 73.0008 74.1656 72.5458 74.5672 72.1574C74.9669 71.7709 75.4397 71.4644 75.9836 71.2435C76.5274 71.0189 77.1136 70.9085 77.7439 70.9085ZM90.4091 71.017L87.8017 77.3777H87.7604L85.2338 71.017H82.8348V71.4264C83.0487 71.4397 83.223 71.4701 83.3559 71.5158C83.4889 71.5634 83.5913 71.6434 83.6632 71.7595C83.7333 71.8738 83.7782 72.0299 83.8016 72.2279C83.8268 72.424 83.8375 72.6734 83.8375 72.9761V77.3454C83.8375 77.6842 83.825 77.9508 83.798 78.1488C83.771 78.3449 83.7171 78.4972 83.6381 78.6038C83.5572 78.7142 83.4458 78.7866 83.3002 78.8265C83.1565 78.8646 82.9678 78.8894 82.7342 78.897V79.3044H85.5339V78.897C85.2985 78.8894 85.1098 78.8665 84.966 78.8322C84.8223 78.7961 84.7127 78.7199 84.6354 78.6038C84.5581 78.4915 84.506 78.3296 84.4809 78.1202C84.4539 77.9127 84.4395 77.629 84.4395 77.2711V72.3516H84.4809L87.3596 79.4129H87.5807L90.5098 72.3516H90.6104V77.3454C90.6104 77.6842 90.5978 77.9508 90.5709 78.1488C90.5439 78.3449 90.4918 78.4972 90.4091 78.6038C90.3301 78.7142 90.2169 78.7866 90.0749 78.8265C89.9312 78.8646 89.7425 78.8894 89.5071 78.897V79.3044H92.7596V78.897C92.5242 78.8894 92.3355 78.8665 92.1918 78.8322C92.048 78.7961 91.9366 78.7199 91.8611 78.6038C91.7839 78.4915 91.7317 78.3296 91.7048 78.1202C91.6778 77.9127 91.6635 77.629 91.6635 77.2711V73.0522C91.6635 72.7286 91.676 72.4639 91.6994 72.2545C91.7228 72.047 91.7695 71.8833 91.8396 71.7652C91.9114 71.6453 92.0103 71.5634 92.1415 71.512C92.2708 71.4606 92.4434 71.434 92.6572 71.4264V71.017H90.4091ZM96.6214 74.9999H97.3686C98.0724 74.9999 98.5932 74.8609 98.9328 74.5848C99.2743 74.3088 99.4441 73.8557 99.4441 73.2236C99.4441 72.6125 99.3083 72.1784 99.0385 71.9157C98.7686 71.6529 98.3441 71.5235 97.7686 71.5235H96.8007C96.6799 71.5235 96.6214 71.5844 96.6214 71.7062V74.9999ZM100.814 73.0941C100.814 73.4749 100.755 73.8138 100.635 74.1165C100.516 74.4173 100.327 74.6724 100.071 74.8818C99.814 75.0893 99.4819 75.2511 99.0705 75.3654C98.6592 75.4796 98.1592 75.5386 97.5686 75.5386H96.6214V77.6157C96.6214 77.8803 96.6365 78.0974 96.6686 78.2649C96.7007 78.4343 96.7667 78.5657 96.8686 78.659C96.9705 78.7523 97.1177 78.8151 97.312 78.8475C97.5045 78.8798 97.7592 78.8951 98.0743 78.8951V79.3044H94.3553V78.8951C94.6025 78.8894 94.8006 78.8665 94.9516 78.8303C95.1025 78.7942 95.2195 78.7332 95.3044 78.6476C95.3893 78.5619 95.444 78.4401 95.4723 78.282C95.5006 78.124 95.5138 77.9203 95.5138 77.669V72.6524C95.5138 72.403 95.5025 72.1993 95.478 72.0451C95.4535 71.8909 95.4025 71.769 95.3308 71.6777C95.2572 71.5882 95.1497 71.5292 95.0082 71.4968C94.8685 71.4644 94.6855 71.4397 94.461 71.4264V71.017H97.7686C98.7385 71.017 99.4875 71.1998 100.02 71.5653C100.55 71.9328 100.814 72.4411 100.814 73.0941ZM104.374 75.7633H102.15L103.29 72.5877L104.374 75.7633ZM101.954 76.3021H104.559L104.959 77.4653C105.004 77.5871 105.041 77.6919 105.071 77.7813C105.1 77.8727 105.123 77.9508 105.139 78.0231C105.156 78.0955 105.167 78.1621 105.174 78.223C105.179 78.2839 105.184 78.3506 105.184 78.4229C105.184 78.5867 105.118 78.7066 104.989 78.777C104.858 78.8494 104.62 78.8856 104.276 78.8856V79.3044H107.457V79.3043H110.259V78.8969C110.03 78.8893 109.846 78.8664 109.707 78.8321C109.567 78.796 109.459 78.7198 109.386 78.6037C109.309 78.4914 109.259 78.3295 109.234 78.1201C109.209 77.9126 109.196 77.6289 109.196 77.271V72.6733H109.24L114.337 79.4128H114.981V72.976C114.981 72.6447 114.996 72.3801 115.023 72.1783C115.052 71.9784 115.109 71.8242 115.196 71.7156C115.28 71.609 115.401 71.5348 115.555 71.4967C115.708 71.4569 115.909 71.4322 116.156 71.4263C116.299 71.4275 116.464 71.439 116.562 71.4624C116.668 71.4872 116.768 71.5367 116.864 71.609C116.958 71.6795 117.051 71.7766 117.143 71.8946C117.234 72.0126 117.332 72.1649 117.438 72.3515L119.545 76.0335V77.3453C119.545 77.6765 119.53 77.9412 119.502 78.143C119.473 78.3429 119.419 78.499 119.339 78.6113C119.258 78.7217 119.141 78.7979 118.99 78.8359C118.841 78.8759 118.638 78.895 118.385 78.895V79.3043H121.8V78.895C121.547 78.895 121.343 78.8759 121.192 78.8359C121.043 78.7979 120.926 78.7198 120.845 78.6056C120.764 78.4914 120.713 78.3276 120.689 78.1144C120.662 77.905 120.651 77.6213 120.651 77.271V75.9897L122.274 73.1911C122.491 72.8179 122.675 72.5171 122.826 72.2868C122.977 72.0564 123.115 71.8775 123.241 71.748C123.368 71.6185 123.491 71.5348 123.606 71.4891C123.723 71.4472 123.855 71.4263 124 71.4263V71.0169H121.589V71.4263C121.841 71.4263 122.019 71.4529 122.121 71.5062C122.223 71.5595 122.274 71.6566 122.274 71.7918C122.274 71.927 122.224 72.1078 122.13 72.3306C122.036 72.5533 121.877 72.8579 121.651 73.2444L120.46 75.2891H120.419L118.787 72.4372C118.624 72.1573 118.543 71.9422 118.543 71.7918C118.543 71.6566 118.615 71.5595 118.76 71.5062C118.904 71.4529 119.151 71.4263 119.502 71.4263V71.0169H116.161H116.133H113.274V71.4263C113.503 71.432 113.687 71.4548 113.828 71.491C113.966 71.5252 114.073 71.6014 114.148 71.7156C114.223 71.8318 114.273 71.9955 114.3 72.2049C114.325 72.4162 114.337 72.6999 114.337 73.0521V77.2919H114.295L109.605 71.0169H107.48V71.4263C107.709 71.4396 107.895 71.47 108.039 71.5157C108.179 71.5633 108.289 71.6433 108.366 71.7594C108.441 71.8736 108.489 72.0298 108.514 72.2278C108.541 72.4239 108.552 72.6733 108.552 72.976V77.3453C108.552 77.6841 108.539 77.9507 108.51 78.1487C108.481 78.3448 108.423 78.4971 108.339 78.6037C108.252 78.7141 108.133 78.7864 107.978 78.8264C107.842 78.8601 107.668 78.8833 107.457 78.8935V78.8856C107.286 78.8856 107.143 78.8665 107.022 78.8303C106.902 78.7942 106.79 78.7161 106.685 78.5943C106.582 78.4724 106.474 78.2916 106.364 78.0498C106.252 77.8118 106.122 77.4881 105.974 77.0883L103.759 71.017H103.339L100.803 78.0231C100.743 78.1754 100.684 78.303 100.623 78.4058C100.561 78.5105 100.49 78.5943 100.408 78.659C100.326 78.7237 100.231 78.7751 100.126 78.8094C100.018 78.8456 99.8889 78.8741 99.7404 78.897V79.3044H102.111V78.897C101.837 78.897 101.643 78.857 101.526 78.7827C101.409 78.7085 101.349 78.5695 101.349 78.3677C101.349 78.2973 101.358 78.204 101.379 78.0878C101.398 77.9736 101.433 77.8327 101.48 77.669C101.531 77.5034 101.594 77.3073 101.671 77.0826C101.75 76.8561 101.844 76.5952 101.954 76.3021Z" fill="url(#paint0_linear)"/>
<g style="mix-blend-mode:darken">
<path fill-rule="evenodd" clip-rule="evenodd" d="M0 0H140V94H0V0Z" />
</g>
<defs>
<linearGradient id="paint0_linear" x1="16" y1="15" x2="30.5514" y2="96.0776" gradientUnits="userSpaceOnUse">
<stop stop-color="#7EB7FE"/>
<stop offset="1" stop-color="#599EF4" stop-opacity="0.92"/>
</linearGradient>
</defs>
</svg>
