<svg width="140" height="94" viewBox="0 0 140 94" fill="none" preserveAspectRatio="xMidYMid meet" xmlns="http://www.w3.org/2000/svg">
<path fill-rule="evenodd" clip-rule="evenodd" d="M39.4304 57.1538C34.7745 57.1538 31 53.2851 31 48.5126V35H34.6243V39.8726H39.4304V43.7185H34.6243V48.5126C34.6243 51.2332 36.7761 53.4388 39.4304 53.4388C39.8981 53.4391 40.3632 53.3693 40.8112 53.2317C41.4401 54.3789 42.2894 55.3835 43.3077 56.1849C42.1101 56.8228 40.7801 57.1551 39.4304 57.1538ZM90.8975 48.5332C90.8975 53.2943 94.7548 57.1539 99.5129 57.1539C104.271 57.1539 108.128 53.2944 108.128 48.5332C108.128 46.5152 107.434 44.6598 106.272 43.1912C106.344 43.1325 106.416 43.0727 106.487 43.0118C106.14 42.6343 105.758 42.2871 105.347 41.9743C105.303 42.0077 105.258 42.0408 105.213 42.0735C105.094 41.9679 104.971 41.8655 104.846 41.7665C106.844 40.1884 108.128 37.7449 108.128 35H104.424C104.424 37.714 102.226 39.914 99.5129 39.914C94.7548 39.914 90.8976 43.7736 90.8976 48.5332H90.8975ZM100.333 43.8172C100.469 43.8065 100.606 43.7925 100.743 43.7754C100.35 43.6741 99.9376 43.6202 99.513 43.6202C96.8002 43.6202 94.6014 45.8193 94.6014 48.5332H94.6012C94.6012 51.2473 96.8003 53.4477 99.5129 53.4477C102.226 53.4477 104.424 51.2473 104.424 48.5332C104.424 46.5737 103.278 44.8826 101.62 44.0938C101.299 43.9805 100.965 43.8987 100.625 43.8505L100.333 43.8172ZM81.8604 41.4626V39.9232L81.8605 39.923H85.5641V58.3766C85.5641 63.1392 81.707 67 76.9489 67C72.1905 67 68.3334 63.1392 68.3334 58.3766H72.037C72.037 61.0916 74.2361 63.2927 76.9489 63.2927C79.6615 63.2927 81.8605 61.0916 81.8605 58.3766V55.6282C80.4667 56.5987 78.7748 57.1679 76.9489 57.1679C75.5992 57.1695 74.2682 56.8518 73.0644 56.2409V51.5521C73.9627 52.7136 75.3682 53.4618 76.9488 53.4618C79.6616 53.4618 81.8604 51.2607 81.8604 48.5459C81.8604 45.8311 79.6616 43.6298 76.9488 43.6298C75.1565 43.6298 73.5885 44.592 72.7312 46.0268C72.3698 44.6923 71.7287 43.4715 70.8755 42.4308C72.4333 40.8811 74.5789 39.923 76.9488 39.923C78.7749 39.923 80.4667 40.4933 81.8604 41.4626ZM63.0002 39.923C65.7438 39.923 68.186 41.2075 69.7639 43.2052C70.9225 44.6727 71.6154 46.5241 71.6154 48.5388V57.1538H67.9118V48.5388C67.9118 45.8262 65.7127 43.6267 63.0002 43.6267C61.2067 43.6267 59.6382 44.5881 58.7811 46.0241C58.4249 44.7087 57.7934 43.4839 56.9283 42.4309C58.4856 40.8815 60.6302 39.923 63.0002 39.923ZM54.3846 57.1538V56.8314H54.3848C55.9721 55.8876 57.257 54.5103 58.0887 52.8615V57.1538H54.3846ZM86.3569 38.7249H90.077V35H86.3569V38.7249ZM57.3025 44.7407L54.3668 47.68C54.41 47.9437 54.4326 48.2146 54.4326 48.4903C54.4326 51.2181 52.2239 53.4298 49.4995 53.4298C48.8414 53.4304 48.1898 53.2987 47.5835 53.0425L56.7913 43.8238C55.2535 41.4187 52.5622 39.8259 49.4996 39.8259C44.7206 39.8259 40.8462 43.7046 40.8462 48.4902C40.8462 53.2745 44.7206 57.1539 49.4996 57.1539C54.2785 57.1539 58.1526 53.2745 58.1526 48.4902C58.1526 47.1469 57.8475 45.8751 57.3025 44.7407ZM44.5662 48.4901C44.5662 45.7622 46.7749 43.5504 49.4996 43.5504C50.1792 43.5504 50.8267 43.6887 51.4161 43.9368L44.9525 50.4092C44.6969 49.8018 44.5655 49.1492 44.5663 48.4901H44.5662ZM90.077 57.1539H86.3569V39.8259H90.077V57.1539Z" fill="url(#paint0_linear)"/>
<g style="mix-blend-mode:darken">
<path fill-rule="evenodd" clip-rule="evenodd" d="M0 0H140V94H0V0Z" />
</g>
<defs>
<linearGradient id="paint0_linear" x1="31" y1="35" x2="36.1088" y2="75.9289" gradientUnits="userSpaceOnUse">
<stop stop-color="#7EB7FE"/>
<stop offset="1" stop-color="#599EF4" stop-opacity="0.92"/>
</linearGradient>
</defs>
</svg>
