<svg width="140" height="94" viewBox="0 0 140 94" fill="none" preserveAspectRatio="xMidYMid meet" xmlns="http://www.w3.org/2000/svg">
<path fill-rule="evenodd" clip-rule="evenodd" d="M12.8249 48.4983L15.9139 51.5986C17.0887 52.7782 18.6855 53.2694 20.2173 53.0827C21.3282 52.9461 22.405 52.4551 23.2589 51.5986C24.1119 50.7418 24.6016 49.6612 24.7367 48.5456C24.9232 47.0088 24.4337 45.4058 23.2589 44.2262L21.6342 42.5958L20.1701 41.126L18.605 39.5553L17.396 38.3416L16.736 37.6789L14.3599 35.2936C13.97 34.9021 13.3372 34.9021 12.9474 35.2936C12.5574 35.6849 12.5574 36.3204 12.9474 36.7116L14.7078 38.4784L15.3056 39.0788L16.3619 40.1388L17.6109 41.393L18.9553 42.7417L20.2215 44.0131L21.846 45.6437C23.092 46.8946 23.092 48.9299 21.846 50.1806C20.5999 51.4317 18.5717 51.4317 17.3257 50.1806L14.4354 47.2784L13.0904 45.93L11.8419 44.6757L10.7853 43.6156L10.1873 43.0158C9.84916 43.6702 9.58393 44.3525 9.39059 45.0511L10.0511 45.7141L11.2601 46.9278L12.8249 48.4983ZM29.7815 50.7732C29.9563 50.144 30.073 49.5016 30.1301 48.855C30.397 45.8307 29.3786 42.7132 27.0726 40.3977C24.7657 38.0828 21.6602 37.0611 18.6468 37.3284L19.4118 38.0963C21.9763 38.0509 24.5553 39.0057 26.5075 40.9654C28.4598 42.9247 29.4107 45.5132 29.3655 48.0867C29.3534 48.7665 29.2723 49.4448 29.1208 50.1102C28.9573 50.8298 28.7122 51.5345 28.3863 52.2092C27.9237 53.1661 27.2987 54.0653 26.5075 54.8593C25.7159 55.6538 24.821 56.2809 23.8665 56.7455C23.1943 57.0727 22.4927 57.3184 21.776 57.4827C21.1127 57.6343 20.4371 57.7162 19.7607 57.7279C17.1957 57.7737 14.6174 56.8189 12.6648 54.8593C10.7124 52.8994 9.76168 50.3109 9.80645 47.7373L9.04165 46.9695C8.7744 49.9943 9.7932 53.1113 12.0999 55.4266C14.4064 57.7417 17.512 58.7641 20.5252 58.4962C21.1697 58.4389 21.8093 58.3213 22.436 58.1454C24.1346 57.6711 25.7368 56.7669 27.0726 55.4266C28.4072 54.0867 29.3089 52.4774 29.7815 50.7732ZM14.7831 52.7326C15.959 53.9125 17.4625 54.5659 19.0017 54.6984C19.8606 54.7724 20.7297 54.6839 21.5611 54.4315C22.5965 54.1178 23.5715 53.5521 24.3879 52.7326C25.2056 51.9129 25.768 50.9342 26.0807 49.8945C26.3323 49.0605 26.4204 48.1877 26.3471 47.3258C26.215 45.7803 25.5642 44.2716 24.3879 43.0916L20.9153 39.6056C22.6001 39.8756 24.2196 40.6537 25.5187 41.9575C26.8172 43.2608 27.5923 44.8865 27.8616 46.5777C27.9841 47.3461 28.0019 48.1256 27.912 48.8964C27.8225 49.6659 27.6312 50.424 27.3304 51.149C26.9213 52.1364 26.3193 53.0638 25.5187 53.8674C24.7184 54.6704 23.795 55.2751 22.8099 55.686C22.0884 55.987 21.3329 56.1795 20.567 56.2695C19.7987 56.3595 19.0217 56.3422 18.2565 56.2187C16.5719 55.9491 14.9521 55.1702 13.6534 53.8674C12.3548 52.5636 11.5787 50.9379 11.3104 49.2464L14.7831 52.7326ZM47.1462 46.702C45.3373 46.702 43.9199 48.1749 43.9199 50.0567C43.9199 51.9593 45.3373 53.45 47.1462 53.45C48.0195 53.45 48.7914 53.1214 49.3605 52.5699C49.992 51.9589 50.3752 51.0735 50.3752 50.0567C50.3752 48.1444 48.9874 46.702 47.1462 46.702ZM47.1462 55.2387C44.1274 55.2387 41.8498 53.0102 41.8498 50.0567C41.8498 47.1241 44.1274 44.9126 47.1462 44.9126C50.1667 44.9126 52.4436 47.1241 52.4436 50.0567C52.4436 53.0102 50.1667 55.2387 47.1462 55.2387ZM54.4618 51.4349C54.4618 54.2384 56.614 55.2386 58.6275 55.2386C60.6407 55.2386 62.7932 54.2384 62.7932 51.4349V45.4988C62.7932 45.3029 62.6331 45.1428 62.4375 45.1428H61.1179C60.922 45.1428 60.7624 45.3029 60.7624 45.4988V51.0137C60.7624 52.4669 59.9648 53.3338 58.6275 53.3338C57.2897 53.3338 56.4916 52.4669 56.4916 51.0137V45.4988C56.4916 45.3029 56.3321 45.1428 56.1365 45.1428H54.8169C54.6202 45.1428 54.4618 45.3029 54.4618 45.4988V51.4349ZM69.7303 55.2386C66.6828 55.2386 64.4714 53.0675 64.4714 50.0762C64.4714 47.0848 66.6828 44.9126 69.7303 44.9126C72.1654 44.9126 73.207 46.1071 73.2499 46.1581C73.3714 46.3009 73.3852 46.5346 73.2792 46.6898L72.6991 47.5518C72.64 47.6407 72.5495 47.6911 72.452 47.6911C72.3707 47.6911 72.2909 47.6542 72.2293 47.5882C72.2213 47.5793 71.3844 46.702 69.8053 46.702C67.9129 46.702 66.5398 48.1126 66.5398 50.0567C66.5398 52.0231 67.9371 53.45 69.8638 53.45C71.596 53.45 72.5832 52.3857 72.5927 52.3747C72.6525 52.3093 72.7279 52.2738 72.805 52.2738C72.903 52.2738 72.991 52.3297 73.0447 52.4284L73.5332 53.3215C73.6214 53.4831 73.5966 53.7189 73.477 53.8574C73.4285 53.9145 72.2592 55.2386 69.7303 55.2386ZM82.6228 54.6524C82.6228 54.8496 82.7821 55.0096 82.9781 55.0096H84.2984C84.494 55.0096 84.6528 54.8496 84.6528 54.6524V48.7169C84.6528 46.157 83.5372 44.9126 81.2447 44.9126C79.3872 44.9126 78.2475 46.004 77.755 46.8255C77.7563 46.7291 77.755 46.6322 77.755 46.6322C77.7625 46.4842 77.7685 46.2444 77.7685 46.096V41.6699C77.7685 41.4735 77.6087 41.3134 77.4136 41.3134H76.0936C75.8982 41.3134 75.7385 41.4735 75.7385 41.6699V54.6524C75.7385 54.8496 75.8982 55.0096 76.0936 55.0096H77.4136C77.6087 55.0096 77.7685 54.8496 77.7685 54.6524V50.3818C77.7685 49.8734 77.8157 49.4623 77.9165 49.1243C78.3164 47.7324 79.5078 46.7968 80.8817 46.7968C80.9759 46.7968 81.0637 46.8068 81.1541 46.8227C82.1974 46.9302 82.6228 47.5994 82.6228 49.1375V54.6524ZM94.6308 50.0218C94.6308 52.0727 93.4862 53.5049 91.8475 53.5049C90.0587 53.5049 89.1229 51.7627 89.1229 50.0417C89.1229 48.3487 89.8541 46.5393 91.9067 46.5393C93.536 46.5393 94.6308 47.9389 94.6308 50.0218ZM92.2792 44.7054C90.3102 44.7054 89.3406 45.8344 89.0089 46.332C89.0172 46.2044 89.0247 46.0424 89.0247 45.8679V45.3424C89.0247 45.1212 88.8454 44.9413 88.6251 44.9413H87.5192C87.2989 44.9413 87.1196 45.1212 87.1196 45.3424V58.5989C87.1196 58.8201 87.2989 59 87.5192 59H88.7822C89.0026 59 89.1818 58.8201 89.1818 58.5989V54.4508C89.1818 54.1943 89.1723 53.9784 89.1624 53.8251C89.4834 54.2714 90.4109 55.299 92.1419 55.299C94.8334 55.299 96.7129 53.1208 96.7129 50.0021C96.7129 46.8339 94.9311 44.7054 92.2792 44.7054ZM98.6038 54.4921C98.6038 54.6892 98.763 54.8493 98.9584 54.8493H100.279C100.475 54.8493 100.633 54.6892 100.633 54.4921V50.795C100.633 50.1306 100.708 49.5695 100.859 49.0798C101.27 47.7347 102.299 46.8666 103.481 46.8666L103.747 46.8646C103.771 46.8701 103.795 46.873 103.818 46.873C103.898 46.873 103.971 46.8407 104.025 46.784C104.077 46.7283 104.105 46.6517 104.105 46.5667V45.2618C104.105 45.0962 104.002 44.9427 103.832 44.8827C103.747 44.875 103.646 44.8672 103.537 44.8672C102.258 44.8672 101.13 45.6948 100.563 47.0131C100.571 46.8646 100.576 46.6343 100.576 46.4917V45.3385C100.576 45.1426 100.417 44.9825 100.222 44.9825H98.9584C98.763 44.9825 98.6038 45.1426 98.6038 45.3385V54.4921ZM109.884 46.4063C108.808 46.4063 107.925 46.9307 107.459 47.8435C107.319 48.1198 107.207 48.5459 107.207 48.5505C107.184 48.638 107.202 48.692 107.21 48.7015L107.591 48.6956H111.947C111.993 48.6956 112.037 48.6764 112.067 48.6435C112.095 48.6121 112.109 48.5715 112.104 48.5295C112.104 48.5283 112.059 48.1604 111.976 47.9036C111.672 46.9526 110.91 46.4063 109.884 46.4063ZM110.209 55.0783C107.195 55.0783 105.007 52.9071 105.007 49.9157C105.007 46.8756 107.029 44.7521 109.923 44.7521C112.515 44.7521 114.19 46.5687 114.19 49.3791C114.19 49.4122 114.188 49.4465 114.187 49.48L114.187 49.496C114.18 49.6314 114.168 49.7996 114.155 49.9389C114.127 50.1286 113.96 50.2743 113.777 50.2743H107.269C107.202 50.2743 107.153 50.288 107.127 50.3148C107.105 50.3392 107.107 50.3717 107.108 50.3726C107.266 52.1445 108.528 53.2895 110.323 53.2895C111.567 53.2895 112.56 52.6293 112.928 52.3454C112.977 52.2988 113.048 52.2696 113.12 52.2696C113.229 52.2696 113.334 52.3344 113.392 52.4373L113.895 53.3335C113.972 53.4693 113.96 53.6543 113.866 53.7934C113.467 54.1211 112.415 54.8568 110.881 55.0356C110.674 55.0573 110.453 55.0783 110.209 55.0783ZM124.177 53.8285C124.224 53.8798 125.349 55.0783 127.726 55.0783C129.834 55.0783 131.306 53.8842 131.306 52.1736C131.306 50.2874 129.596 49.6076 128.221 49.0609L128.22 49.0604C127.215 48.6616 126.348 48.3169 126.348 47.6374C126.348 46.8286 127.119 46.5415 127.84 46.5415C129.305 46.5415 129.967 47.1821 129.973 47.1886C130.033 47.2474 130.107 47.2802 130.181 47.2802C130.283 47.2802 130.375 47.22 130.429 47.1198L130.923 46.1915C131.01 46.0273 130.979 45.7934 130.854 45.6583C130.819 45.6217 129.991 44.7521 127.86 44.7521C125.718 44.7521 124.28 45.8968 124.28 47.5991C124.28 49.464 125.977 50.152 127.341 50.7037L127.347 50.7062C128.363 51.1176 129.238 51.4724 129.238 52.1736C129.238 52.9064 128.477 53.2895 127.726 53.2895C126.11 53.2895 125.219 52.3876 125.209 52.3776C125.148 52.3154 125.069 52.2798 124.987 52.2798C124.889 52.2798 124.797 52.3304 124.738 52.4196L124.139 53.3017C124.033 53.4573 124.05 53.6883 124.177 53.8285ZM119.206 55.0783C116.829 55.0783 115.704 53.8798 115.657 53.8285C115.53 53.6894 115.513 53.4585 115.619 53.3017L116.218 52.4196C116.277 52.3304 116.368 52.2798 116.467 52.2798C116.55 52.2798 116.628 52.3154 116.689 52.379L116.69 52.3794C116.714 52.4041 117.605 53.2895 119.206 53.2895C119.957 53.2895 120.718 52.9064 120.718 52.1736C120.718 51.4722 119.842 51.1175 118.826 50.7059L118.821 50.7037C117.457 50.152 115.759 49.464 115.759 47.5991C115.759 45.8968 117.198 44.7521 119.339 44.7521C121.471 44.7521 122.299 45.6217 122.333 45.6583C122.458 45.7934 122.489 46.0273 122.403 46.1915L121.908 47.1198C121.855 47.22 121.762 47.2802 121.661 47.2802C121.586 47.2802 121.512 47.2474 121.454 47.1874L121.453 47.1865C121.424 47.1594 120.758 46.5415 119.32 46.5415C118.599 46.5415 117.827 46.8286 117.827 47.6374C117.827 48.3169 118.694 48.6616 119.699 49.0604L119.701 49.0613C121.076 49.6078 122.786 50.2878 122.786 52.1736C122.786 53.8842 121.313 55.0783 119.206 55.0783ZM39.9125 53.1255H39.9132C40.1496 53.1255 40.3279 53.3052 40.3279 53.5261V54.5688C40.3279 54.7805 40.1636 54.9563 39.9538 54.9692C39.8497 54.976 39.7231 54.981 39.5811 54.981C36.201 54.981 35.6964 52.5997 35.6964 51.1804V41.6076C35.6964 41.3864 35.8756 41.2064 36.096 41.2064H37.3588C37.5793 41.2064 37.7586 41.3864 37.7586 41.6076V44.7585H39.7515C39.9719 44.7585 40.1511 44.9384 40.1511 45.1598V46.0533C40.1511 46.2746 39.9719 46.4545 39.7515 46.4545H37.7586V50.9639C37.7586 52.8467 39.0356 53.128 39.7967 53.128C39.8377 53.128 39.8764 53.1271 39.9125 53.1255Z" fill="url(#paint0_linear)"/>
<g style="mix-blend-mode:darken">
<path fill-rule="evenodd" clip-rule="evenodd" d="M0 0H140V94H0V0Z" />
</g>
<defs>
<linearGradient id="paint0_linear" x1="9" y1="35" x2="10.834" y2="66.0667" gradientUnits="userSpaceOnUse">
<stop stop-color="#7EB7FE"/>
<stop offset="1" stop-color="#599EF4" stop-opacity="0.92"/>
</linearGradient>
</defs>
</svg>
