<svg width="140" height="94" viewBox="0 0 140 94" fill="none" preserveAspectRatio="xMidYMid meet" xmlns="http://www.w3.org/2000/svg">
<g style="mix-blend-mode:darken">
<path fill-rule="evenodd" clip-rule="evenodd" d="M0 0H140V94H0V0Z"/>
</g>
<path fill-rule="evenodd" clip-rule="evenodd" d="M122.289 40.9625C122.784 40.9942 123.319 40.5291 123.351 40.0378C123.385 39.5244 122.949 39.0421 122.416 39.003C121.858 38.962 121.416 39.3496 121.381 39.9091C121.348 40.4389 121.771 40.9291 122.289 40.9625ZM117.624 48.0972C117.621 48.3341 117.617 48.571 117.617 48.8077C117.617 49.0354 117.616 49.2632 117.614 49.491V49.4915C117.61 49.9974 117.606 50.5033 117.624 51.0083C117.645 51.5942 117.41 52.0172 116.891 52.2692C116.803 52.3119 116.715 52.3556 116.626 52.3994L116.626 52.3995L116.626 52.3998C116.205 52.6087 115.78 52.8196 115.332 52.9374C113.476 53.4262 111.93 52.6039 111.246 50.8195C110.731 49.475 110.722 48.1197 111.228 46.7781C112.111 44.4334 114.697 43.5654 117.164 45.3458C117.424 45.5336 117.571 45.9997 117.597 46.3492C117.642 46.9292 117.633 47.5131 117.624 48.0972ZM113.152 54.5326C113.156 54.5383 113.16 54.5437 113.164 54.5487H114.747L116.18 53.9443L117.605 53.343C117.72 53.6256 117.832 53.9004 117.959 54.2113L118.019 54.2114L118.113 54.2118L118.216 54.2125C118.444 54.2141 118.664 54.2157 118.885 54.2055C118.933 54.2032 118.98 54.1676 119.032 54.1287L119.032 54.1287C119.057 54.1097 119.083 54.09 119.111 54.073V39.0576H117.668C117.634 40.6834 117.602 42.2529 117.567 43.9493C117.335 43.8618 117.124 43.7783 116.924 43.6997L116.924 43.6996C116.532 43.5448 116.188 43.4093 115.836 43.3013C113.69 42.6426 111.572 43.3338 110.357 45.0601C108.449 47.7715 108.933 53.477 113.08 54.4508C113.103 54.4562 113.121 54.4841 113.138 54.5119C113.143 54.5189 113.147 54.5259 113.152 54.5326ZM9.51972 39.4648H6V39.9849C6.05347 40.0906 6.11252 40.1946 6.17156 40.2986L6.17156 40.2986C6.29847 40.5223 6.42535 40.7458 6.49681 40.9857C6.99132 42.6461 7.47382 44.31 7.95633 45.9739L7.95634 45.974L7.9564 45.9742L7.95661 45.9749C8.19715 46.8044 8.43768 47.6339 8.67971 48.4629C9.0586 49.7605 9.4408 51.0573 9.82447 52.359L9.82492 52.3606L9.8269 52.3673C10.0052 52.9723 10.1839 53.5784 10.3626 54.1862H14.1901C14.9082 51.2989 15.6192 48.4409 16.3302 45.583L16.3318 45.5767C16.8778 47.1873 17.2905 48.812 17.6987 50.4191C18.0194 51.6818 18.3374 52.9336 18.7151 54.1592H22.5151C23.0636 52.2343 23.6252 50.3247 24.1853 48.4201L24.1853 48.42L24.1853 48.42L24.1854 48.4199L24.1854 48.4198L24.1854 48.4197C25.053 45.4697 25.9169 42.5322 26.7228 39.5698H23.2855C22.6473 41.9528 22.0191 44.2976 21.3935 46.6325L21.3814 46.6775L20.7224 49.1372C20.6621 49.143 20.602 49.149 20.5417 49.155L20.5416 49.155L20.5414 49.155L20.5244 49.1567L19.2199 44.0018L18.0922 39.5452H14.7734C14.3336 41.0177 13.9789 42.5041 13.6182 44.0154L13.6182 44.0154L13.6182 44.0154L13.6182 44.0155L13.6182 44.0155L13.6182 44.0155C13.2053 45.7454 12.7847 47.508 12.2198 49.3199L10.2056 41.9681L9.51972 39.4648ZM32.4464 49.6121H32.4465H32.4465H32.4465H32.4465H32.4466H32.4466H32.4467H32.4467H32.4467H32.4468C32.6978 49.6183 32.9536 49.6245 33.2156 49.6245V51.561C33.0582 51.6224 32.9027 51.6882 32.7476 51.7539C32.3814 51.9089 32.0176 52.0629 31.6382 52.1546C31.3222 52.231 30.9365 52.1649 30.6171 52.0599C29.9851 51.8519 29.6731 51.3572 29.7178 50.7794C29.7607 50.229 30.1599 49.7181 30.8098 49.6449C31.3417 49.5851 31.882 49.5983 32.4464 49.6121ZM29.089 54.4598L29.089 54.4598C29.135 54.4901 29.1809 54.5203 29.2276 54.5488H31.3391L33.5791 53.3907L33.9588 54.1424H36.5838C36.5601 53.3363 36.5428 52.5389 36.5256 51.7478L36.5256 51.7475L36.5256 51.7449L36.5256 51.7445L36.5256 51.7441L36.5255 51.7437C36.4854 49.8946 36.446 48.0802 36.3281 46.2706C36.2224 44.6443 35.2097 43.5864 33.6196 43.1118C32.3259 42.7258 31.0097 42.7781 29.7067 43.0394C29.6016 43.0604 29.4956 43.0801 29.3892 43.0999L29.3889 43.0999L29.3889 43.0999L29.3888 43.0999C28.6917 43.2295 27.9779 43.3622 27.385 43.8934L27.9794 45.965C28.3641 45.9043 28.7343 45.8343 29.0948 45.7661C29.878 45.6181 30.6154 45.4786 31.3558 45.4623C32.6564 45.4333 33.191 46.1064 33.1788 47.5752C33.0335 47.5752 32.8876 47.5725 32.7416 47.5698C32.4182 47.5638 32.0939 47.5579 31.7717 47.581C31.6183 47.5921 31.4646 47.6024 31.3109 47.6127L31.3106 47.6128L31.3103 47.6128L31.31 47.6128L31.3097 47.6128L31.3094 47.6128L31.3091 47.6129L31.3088 47.6129L31.3085 47.6129L31.3082 47.6129L31.308 47.6129C30.5857 47.6614 29.8614 47.71 29.1544 47.843C27.9537 48.0683 27.0516 48.7359 26.6933 49.9371C26.1198 51.8582 26.9069 53.4552 28.7861 54.2831C28.8924 54.3301 28.9907 54.3949 29.089 54.4598ZM62.4852 47.4901H66.8729C66.6762 46.0036 66.0488 45.2987 64.9161 45.2191C63.7755 45.139 62.9476 45.8759 62.4852 47.4901ZM63.8051 54.5486C63.7208 54.5097 63.6371 54.4692 63.5535 54.4287C63.3716 54.3407 63.1897 54.2528 63.0016 54.181C61.1431 53.4719 59.9231 52.1872 59.5038 50.2613C59.1035 48.424 59.2835 46.663 60.38 45.0378C62.064 42.5415 65.7561 42.2978 67.7695 43.7128C69.0958 44.6449 69.5939 46.006 69.7991 47.4993C69.8572 47.9238 69.8436 48.3578 69.8285 48.84C69.8211 49.0746 69.8134 49.3207 69.8134 49.5826H62.4997C62.6087 50.7745 63.211 51.385 64.1448 51.7263C64.9954 52.0373 65.8669 52.0468 66.741 51.8358C67.1173 51.7446 67.4911 51.6429 67.8957 51.5327L67.8959 51.5327L67.8976 51.5322C68.0851 51.4812 68.2793 51.4283 68.4834 51.3739L69.3665 53.2096C69.0641 53.7009 68.6111 53.8505 68.17 53.9961L68.17 53.9962L68.1699 53.9962C68.035 54.0407 67.9011 54.0849 67.773 54.1385C67.5293 54.2403 67.2817 54.333 67.0342 54.4257L67.034 54.4258C66.9254 54.4664 66.8168 54.5071 66.7085 54.5486H63.8051ZM105.952 47.9305C106.059 46.4091 105.475 45.2888 104.331 44.7365C103.087 44.1358 101.931 44.3449 100.885 45.1733C99.9553 45.9094 99.5275 47.0756 99.7991 47.9305H105.952ZM102.342 54.5487C102.297 54.5207 102.253 54.4881 102.209 54.4555C102.115 54.3855 102.021 54.3155 101.916 54.2904C99.7025 53.7626 98.4612 52.3304 98.0236 50.1884C97.6431 48.3268 97.9165 46.5643 99.0638 44.995C100.248 43.3759 102.393 42.6733 104.348 43.2333C106.173 43.7561 107.45 45.3755 107.588 47.3852C107.615 47.7832 107.609 48.1832 107.601 48.6276C107.598 48.8462 107.594 49.0754 107.594 49.3204H99.6367C99.6642 52.6426 102.394 53.7938 106.677 52.3742C106.844 52.6881 107.017 53.0146 107.204 53.3663C106.744 53.8309 106.168 53.98 105.602 54.1267C105.199 54.231 104.801 54.3341 104.453 54.5487H102.342ZM128.4 49.2793C129.698 49.0096 130.999 49.0863 132.375 49.1987V51.6537C131.4 52.6423 130.179 53.1097 128.741 53.0312C127.557 52.9664 126.767 52.2671 126.681 51.2314C126.601 50.2624 127.238 49.5207 128.4 49.2793ZM127.469 54.4333C127.54 54.4721 127.61 54.511 127.681 54.5487H129.529L132.427 53.264L132.624 53.7301L132.81 54.1727H133.995C133.995 53.8005 133.995 53.4335 133.995 53.0703V53.0605V53.0508V53.0409V53.0311C133.996 52.1738 133.997 51.337 133.993 50.5002C133.992 50.1353 133.994 49.7702 133.996 49.4051C134.002 48.4693 134.008 47.5334 133.947 46.6018C133.823 44.7047 132.768 43.443 131.099 43.1807C129.879 42.989 128.639 42.9861 127.449 43.4041C127.073 43.5363 126.708 43.7004 126.316 43.8767C126.131 43.9601 125.939 44.0461 125.738 44.1328C125.929 44.4884 126.08 44.7694 126.212 45.0136L126.376 45.3184C126.588 45.2402 126.789 45.1644 126.981 45.0916C127.421 44.9256 127.819 44.775 128.225 44.6466C128.556 44.5413 128.91 44.4816 129.258 44.4517C131.397 44.2674 132.654 45.6212 132.281 47.8382C132.069 47.8432 131.854 47.8467 131.638 47.8502L131.638 47.8502C131.133 47.8584 130.62 47.8668 130.107 47.8958C129.942 47.9052 129.775 47.9131 129.609 47.921L129.609 47.921L129.609 47.921C128.941 47.9528 128.271 47.9847 127.621 48.1123C126.152 48.4013 125.292 49.4349 125.137 50.9338C124.985 52.4036 125.66 53.5744 127.011 54.1949C127.168 54.2668 127.318 54.35 127.469 54.4332L127.469 54.4333ZM92.6009 39.5422H94.2254L96.8586 54.1718L95.292 54.25C94.8441 52.0865 94.4811 49.923 94.1192 47.7654L94.1191 47.7648C93.853 46.1783 93.5874 44.595 93.2889 43.0172C92.8344 43.0797 92.7659 43.3939 92.7031 43.6825C92.6846 43.7672 92.6667 43.8497 92.6395 43.923C91.8341 46.1026 91.0461 48.2885 90.2581 50.4742C89.9596 51.3022 89.6611 52.1301 89.3617 52.9576C89.2623 53.2323 89.1559 53.5044 89.0462 53.7851C88.9947 53.917 88.9424 54.0508 88.8898 54.1876H87.6949L83.6274 42.9239L83.3363 42.9477L82.4824 47.8006L81.3633 54.1609H79.7372C80.6177 49.2764 81.4897 44.4399 82.3709 39.5527H84.0301L88.1423 51.3242C88.6065 51.2583 88.6695 50.944 88.7268 50.6578C88.7434 50.5753 88.7594 50.4951 88.7845 50.4239C89.5677 48.2075 90.3346 45.9857 91.1014 43.7637L91.1036 43.7575C91.4234 42.8309 91.7432 41.9043 92.0642 40.9781C92.1797 40.6451 92.3058 40.3157 92.4316 39.9871L92.4317 39.9869L92.4317 39.9868L92.4318 39.9867L92.4318 39.9866L92.4319 39.9865L92.4324 39.985L92.4329 39.9838L92.4333 39.9828L92.4336 39.982L92.4338 39.9814C92.4899 39.8349 92.546 39.6886 92.6009 39.5422ZM54.3518 54.179H57.5001C57.5001 53.9381 57.5005 53.7116 57.501 53.4947L57.501 53.4918C57.502 53.0461 57.5028 52.6411 57.4993 52.2359C57.4942 51.6554 57.4937 51.0746 57.4933 50.4938C57.4922 49.0841 57.4911 47.6745 57.4237 46.2678C57.3393 44.5077 56.2962 43.2164 54.8032 42.9427C53.6184 42.7254 52.4365 42.8195 51.3596 43.4477C51.1357 43.5785 50.9164 43.7166 50.6781 43.8666C50.5646 43.9381 50.4467 44.0123 50.3221 44.0897C50.2153 43.8712 50.1217 43.6795 50.0396 43.5112L49.8882 43.201H47.2883V54.1449H50.4019V46.4458C50.499 46.3775 50.5859 46.3142 50.6666 46.2554L50.6671 46.255L50.6671 46.255L50.6672 46.2549L50.6672 46.2549L50.6673 46.2548C50.8338 46.1334 50.974 46.0312 51.1235 45.9447C51.3109 45.8369 51.5159 45.7467 51.7239 45.6872C53.3111 45.2324 54.4264 45.9651 54.3632 47.5343C54.3232 48.5236 54.3331 49.5147 54.343 50.5057V50.5058V50.5058V50.5059V50.5059C54.3474 50.9432 54.3517 51.3805 54.3518 51.8176V54.179ZM74.7833 54.1802H71.6377V43.2068H74.2256L74.4642 43.8107L74.6349 44.2427C74.6866 44.2286 74.7366 44.2192 74.7833 44.2104C74.8753 44.1931 74.955 44.1781 75.012 44.1343C76.1833 43.2319 77.4783 42.8813 79.024 43.2197L78.5542 45.8185C78.2959 45.8392 78.0363 45.8483 77.7768 45.8575C76.7489 45.8937 75.7223 45.9299 74.7833 46.6789V54.1802ZM38.5456 54.1927H41.652V46.6956C42.5204 45.9745 43.4711 45.9181 44.395 45.8634C44.6869 45.8461 44.9761 45.8289 45.2593 45.791V43.2182C44.9073 43.1776 44.662 43.1494 44.4186 43.1612C43.8586 43.1884 43.3089 43.4277 41.4945 44.2176L41.142 43.2026H38.4832C38.495 44.5673 38.4901 45.9218 38.4851 47.27V47.2708V47.2708V47.2709C38.4766 49.5904 38.4682 51.891 38.5456 54.1927ZM121.696 54.1371H123.062V43.1742H121.696V54.1371Z" fill="url(#paint0_linear)"/>
<defs>
<linearGradient id="paint0_linear" x1="6" y1="39" x2="6.73714" y2="59.1703" gradientUnits="userSpaceOnUse">
<stop stop-color="#7EB7FE"/>
<stop offset="1" stop-color="#599EF4" stop-opacity="0.92"/>
</linearGradient>
</defs>
</svg>
