<svg width="272" height="320" viewBox="0 0 272 320" fill="none" preserveAspectRatio="xMidYMid meet" xmlns="http://www.w3.org/2000/svg">
<path fill-rule="evenodd" clip-rule="evenodd" d="M56.4881 180.395C38.7052 169.709 35.6274 165.688 35.6274 159.943C35.6274 154.312 38.7052 150.291 56.4881 139.605C82.7066 123.749 94.4478 112.603 94.4478 88.8187C94.4478 65.0341 82.7066 53.8887 56.4881 38.0323C38.7052 27.3465 35.6274 23.4399 35.6274 17.6948C35.6274 7.92819 27.7619 0 18.0725 0C8.38304 0 0.517517 7.92819 0.517517 17.6948C0.517517 41.4794 12.1448 52.5099 38.4772 68.3662C56.1462 79.167 59.338 83.0736 59.338 88.8187C59.338 94.5637 56.1462 98.4704 38.4772 109.271C12.1448 125.127 0.517517 136.158 0.517517 159.943C0.517517 183.727 12.1448 194.873 38.4772 210.729C56.1462 221.53 59.338 225.436 59.338 231.181C59.338 236.926 56.1462 240.833 38.4772 251.519C12.1448 267.375 0.517517 278.521 0.517517 302.305C0.517517 312.072 8.38304 320 18.0725 320C27.7619 320 35.6274 312.072 35.6274 302.305C35.6274 296.56 38.7052 292.653 56.4881 281.853C82.7066 265.996 94.4478 254.966 94.4478 231.181C94.4478 207.397 82.7066 196.251 56.4881 180.395ZM165.672 136.962C155.227 147.533 153.297 151.21 153.297 159.943C153.297 168.79 155.227 172.467 165.672 183.038C181.112 198.664 188.378 209.81 188.378 231.181C188.378 252.553 181.112 263.698 165.672 279.21C155.227 289.896 153.297 293.573 153.297 302.305C153.297 312.072 145.463 320 135.813 320C126.162 320 118.328 312.072 118.328 302.305C118.328 280.934 125.595 269.788 141.035 254.162C151.48 243.591 153.41 239.914 153.41 231.181C153.41 222.334 151.48 218.657 141.035 208.086C125.595 192.574 118.328 181.314 118.328 159.943C118.328 138.571 125.595 127.425 141.035 111.914C151.48 101.343 153.41 97.6661 153.41 88.8187C153.41 79.9713 151.48 76.4093 141.035 65.7235C125.595 50.2118 118.328 39.0664 118.328 17.6948C118.328 7.92819 126.162 0 135.813 0C145.463 0 153.297 7.92819 153.297 17.6948C153.297 26.4273 155.227 30.1041 165.672 40.675C181.112 56.3016 188.378 67.447 188.378 88.8187C188.378 110.19 181.112 121.336 165.672 136.962ZM264.192 189.932C268.956 204.18 271.164 213.487 271.164 231.181C271.164 248.876 268.956 258.183 264.192 272.316C260.357 283.806 259.195 289.436 259.195 302.305C259.195 312.072 251.061 320 241.299 320C231.421 320 223.403 312.072 223.403 302.305C223.403 284.61 225.495 275.303 230.259 261.171C234.094 249.68 235.373 244.05 235.373 231.181C235.373 218.312 234.094 212.682 230.259 201.192C225.495 186.944 223.403 177.637 223.403 159.943C223.403 142.363 225.495 133.056 230.259 118.808C234.094 107.318 235.373 101.688 235.373 88.8187C235.373 75.9497 234.094 70.3196 230.259 58.8294C225.495 44.6966 223.403 35.3896 223.403 17.6948C223.403 7.92819 231.421 0 241.299 0C251.061 0 259.195 7.92819 259.195 17.6948C259.195 30.4488 260.357 36.1939 264.192 47.684C268.956 61.8169 271.164 71.1239 271.164 88.8187C271.164 106.513 268.956 115.82 264.192 129.953C260.357 141.558 259.195 147.189 259.195 159.943C259.195 172.811 260.357 178.442 264.192 189.932Z" fill="url(#paint0_linear)" fill-opacity="0.56"/>
<defs>
<linearGradient id="paint0_linear" x1="44.4062" y1="-30.4782" x2="359.827" y2="194.703" gradientUnits="userSpaceOnUse">
<stop stop-color="#447EC6"/>
<stop offset="0.5625" stop-color="#285D9D" stop-opacity="0.5"/>
<stop offset="1" stop-color="#194173" stop-opacity="0"/>
</linearGradient>
</defs>
</svg>
