<?xml version="1.0" encoding="UTF-8"?>
<svg width="19px" height="22px" viewBox="0 0 19 22" version="1.1" xmlns="http://www.w3.org/2000/svg" xmlns:xlink="http://www.w3.org/1999/xlink">
    <!-- Generator: Sketch 51.2 (57519) - http://www.bohemiancoding.com/sketch -->
    <title>baseline-file_copy-24px</title>
    <desc>Created with Sketch.</desc>
    <defs></defs>
    <g id="Case-Studies" stroke="none" stroke-width="1" fill="none" fill-rule="evenodd">
        <g id="Henle" transform="translate(-1177.000000, -1326.000000)">
            <g id="Group-3" transform="translate(911.000000, 1109.000000)">
                <g id="baseline-file_copy-24px" transform="translate(264.000000, 216.000000)">
                    <polygon id="Shape" points="0 0 24 0 24 24 0 24"></polygon>
                    <path d="M7,23 L19,23 C20.1,23 21,22.1 21,21 L21,7 L19,7 L19,21 L7,21 L7,23 Z M11,1 L17,7 L17,17 C17,18.1 16.1,19 15,19 L3.99,19 C2.89,19 2,18.1 2,17 L2.01,3 C2.01,1.9 2.9,1 4,1 L11,1 Z M7.21818182,12.9317627 L4.98461914,10.5351562 L3.4,11.9181818 L7.21818182,15.7363636 L15.4,7.55454545 L14.0236816,6.19018555 L7.21818182,12.9317627 Z" id="Shape" fill="#4A90E2" fill-rule="nonzero"></path>
                </g>
            </g>
        </g>
    </g>
</svg>